<svg xmlns="http://www.w3.org/2000/svg" xmlns:xlink="http://www.w3.org/1999/xlink" xmlns:lucid="lucid" width="1112.27" height="446.15"><g transform="translate(0 0)" lucid:page-tab-id="oKRX~ImH5L0~"><g filter="url(#a)"><path d="M800.5 1.3h299.56v248H800.5z" fill="#fff"/><path d="M800.5 75.3h299.56v34H800.5zM800.5 167.3h299.56v82H800.5z" fill="#e6e6e6"/><path d="M800.5 1.3h299.56v40H800.5z" fill="#ccc"/><path d="M800.5 1.3h299.56v248H800.5zM800.5 41.3h299.56" stroke="#666" fill="none"/><use xlink:href="#b" transform="matrix(1,0,0,1,805.4864817663172,43.8012557228152) translate(0 18.5)"/><use xlink:href="#c" transform="matrix(1,0,0,1,805.4864817663172,43.8012557228152) translate(55.5 18.5)"/><use xlink:href="#d" transform="matrix(1,0,0,1,805.4864817663172,77.8012557228152) translate(0 18.5)"/><use xlink:href="#c" transform="matrix(1,0,0,1,805.4864817663172,77.8012557228152) translate(102.05555555555556 18.5)"/><g><use xlink:href="#e" transform="matrix(1,0,0,1,805.4864817663172,111.8012557228152) translate(0 18.5)"/><use xlink:href="#f" transform="matrix(1,0,0,1,805.4864817663172,111.8012557228152) translate(0 42.5)"/><use xlink:href="#g" transform="matrix(1,0,0,1,805.4864817663172,111.8012557228152) translate(12.166666666666666 42.5)"/><use xlink:href="#c" transform="matrix(1,0,0,1,805.4864817663172,111.8012557228152) translate(49.888888888888886 42.5)"/></g><g><use xlink:href="#h" transform="matrix(1,0,0,1,805.4864817663172,169.8012557228152) translate(0 18.5)"/><use xlink:href="#i" transform="matrix(1,0,0,1,805.4864817663172,169.8012557228152) translate(39.94444444444444 18.5)"/><use xlink:href="#j" transform="matrix(1,0,0,1,805.4864817663172,169.8012557228152) translate(78.83333333333333 18.5)"/><use xlink:href="#k" transform="matrix(1,0,0,1,805.4864817663172,169.8012557228152) translate(198.61111111111111 18.5)"/><use xlink:href="#l" transform="matrix(1,0,0,1,805.4864817663172,169.8012557228152) translate(0 42.5)"/><use xlink:href="#m" transform="matrix(1,0,0,1,805.4864817663172,169.8012557228152) translate(11.11111111111111 42.5)"/><use xlink:href="#n" transform="matrix(1,0,0,1,805.4864817663172,169.8012557228152) translate(0 66.5)"/><use xlink:href="#o" transform="matrix(1,0,0,1,805.4864817663172,169.8012557228152) translate(107.61111111111111 66.5)"/><use xlink:href="#p" transform="matrix(1,0,0,1,805.4864817663172,169.8012557228152) translate(173.05555555555554 66.5)"/></g></g><path d="M800.97 2.6h299.1v40h-299.1z" stroke="#666" fill="#114b7c"/><use xlink:href="#q" transform="matrix(1,0,0,1,805.7729635326344,7.402511445630405) translate(86.28888888888889 21.1375)"/><path d="M947.06 300.3v-27.5" stroke="#000" fill="none"/><path d="M947.56 300.8h-1v-.5h1z"/><path d="M947.06 250.78l12.73 21.52h-25.46z" stroke="#000" fill="#fff"/><use xlink:href="#r" transform="matrix(1,0,0,1,955.0596358135276,271.20084177872775) translate(5 19.2)"/><g filter="url(#s)"><path d="M800.5 301.3h299.56v132H800.5z" fill="#fff"/><path d="M800.5 399.3h299.56v34H800.5z" fill="#e6e6e6"/><path d="M800.5 301.3h299.56v40H800.5z" fill="#ccc"/><path d="M800.5 301.3h299.56v132H800.5zM800.5 341.3h299.56" stroke="#666" fill="none"/><use xlink:href="#t" transform="matrix(1,0,0,1,805.4864817663173,343.8012557228152) translate(0 18.5)"/><use xlink:href="#u" transform="matrix(1,0,0,1,805.4864817663173,343.8012557228152) translate(44.44444444444444 18.5)"/><use xlink:href="#v" transform="matrix(1,0,0,1,805.4864817663173,343.8012557228152) translate(104.33333333333333 18.5)"/><use xlink:href="#w" transform="matrix(1,0,0,1,805.4864817663173,343.8012557228152) translate(119.88888888888889 18.5)"/><use xlink:href="#f" transform="matrix(1,0,0,1,805.4864817663173,343.8012557228152) translate(0 42.5)"/><use xlink:href="#g" transform="matrix(1,0,0,1,805.4864817663173,343.8012557228152) translate(12.166666666666666 42.5)"/><use xlink:href="#x" transform="matrix(1,0,0,1,805.4864817663173,343.8012557228152) translate(49.888888888888886 42.5)"/><use xlink:href="#y" transform="matrix(1,0,0,1,805.4864817663173,343.8012557228152) translate(67.11111111111111 42.5)"/><g><use xlink:href="#z" transform="matrix(1,0,0,1,805.4864817663173,401.8012557228152) translate(0 18.5)"/><use xlink:href="#c" transform="matrix(1,0,0,1,805.4864817663173,401.8012557228152) translate(152 18.5)"/></g></g><path d="M800.97 302.6h299.1v40h-299.1z" stroke="#666" fill="#114b7c"/><use xlink:href="#A" transform="matrix(1,0,0,1,805.7729635326344,307.4025114456305) translate(76.67777777777778 21.1375)"/><g filter="url(#B)"><path d="M400 301.3h300v108H400z" fill="#fff"/><path d="M400 375.3h300v34H400z" fill="#e6e6e6"/><path d="M400 301.3h300v40H400z" fill="#ccc"/><path d="M400 301.3h300v108H400zM400 341.3h300" stroke="#666" fill="none"/><use xlink:href="#b" transform="matrix(1,0,0,1,405,343.8012557228152) translate(0 18.5)"/><use xlink:href="#x" transform="matrix(1,0,0,1,405,343.8012557228152) translate(55.5 18.5)"/><use xlink:href="#C" transform="matrix(1,0,0,1,405,343.8012557228152) translate(72.72222222222223 18.5)"/><g><use xlink:href="#D" transform="matrix(1,0,0,1,405,377.8012557228152) translate(0 18.5)"/><use xlink:href="#E" transform="matrix(1,0,0,1,405,377.8012557228152) translate(127.55555555555556 18.5)"/></g></g><path d="M400 301.3h300v40H400z" stroke="#666" fill="#114b7c"/><use xlink:href="#F" transform="matrix(1,0,0,1,404.8,306.1012557228152) translate(100.56666666666666 21.1375)"/><path d="M799.97 322.6H758.5c-4.43 0-8 3.58-8 8v53.7c0 4.42-3.6 8-8 8h-11.63" stroke="#333" fill="none"/><path d="M800.47 323.1h-.5v-1h.5z" fill="#333"/><path d="M701.2 392.3l14.86-14.85 15.15 14.85-15.14 14.85z" stroke="#333" fill="#fff"/><use xlink:href="#G" transform="matrix(1,0,0,1,763.1110777211794,294.6025114456305) translate(0 16)"/><g filter="url(#H)"><path d="M0 301.3h320v108H0z" fill="#fff"/><path d="M0 375.3h320v34H0z" fill="#e6e6e6"/><path d="M0 301.3h320v40H0z" fill="#ccc"/><path d="M0 301.3h320v108H0zM0 341.3h320" stroke="#666" fill="none"/><use xlink:href="#b" transform="matrix(1,0,0,1,5,343.8012557228152) translate(0 18.5)"/><use xlink:href="#x" transform="matrix(1,0,0,1,5,343.8012557228152) translate(55.5 18.5)"/><use xlink:href="#I" transform="matrix(1,0,0,1,5,343.8012557228152) translate(72.72222222222223 18.5)"/><g><use xlink:href="#J" transform="matrix(1,0,0,1,5,377.8012557228152) translate(0 18.5)"/><use xlink:href="#K" transform="matrix(1,0,0,1,5,377.8012557228152) translate(58.722222222222214 18.5)"/><use xlink:href="#L" transform="matrix(1,0,0,1,5,377.8012557228152) translate(103.16666666666666 18.5)"/></g></g><path d="M.52 302.6H320v40H.52z" stroke="#666" fill="#114b7c"/><use xlink:href="#M" transform="matrix(1,0,0,1,5.319649236765161,307.4025114456305) translate(0.28888888888891984 21.1375)"/><use xlink:href="#N" transform="matrix(1,0,0,1,5.319649236765161,307.4025114456305) translate(107.90000000000003 21.1375)"/><g filter="url(#O)"><path d="M50.1 121.3h220.66v108H50.1z" fill="#fff"/><path d="M50.1 195.3h220.66v34H50.1z" fill="#e6e6e6"/><path d="M50.1 121.3h220.66v40H50.1z" fill="#ccc"/><path d="M50.1 121.3h220.66v108H50.1zM50.1 161.3h220.66" stroke="#666" fill="none"/><use xlink:href="#b" transform="matrix(1,0,0,1,55.114544820115796,163.8012557228152) translate(0 18.5)"/><use xlink:href="#c" transform="matrix(1,0,0,1,55.114544820115796,163.8012557228152) translate(55.5 18.5)"/><g><use xlink:href="#J" transform="matrix(1,0,0,1,55.114544820115796,197.8012557228152) translate(0 18.5)"/><use xlink:href="#K" transform="matrix(1,0,0,1,55.114544820115796,197.8012557228152) translate(58.722222222222214 18.5)"/><use xlink:href="#L" transform="matrix(1,0,0,1,55.114544820115796,197.8012557228152) translate(103.16666666666666 18.5)"/></g></g><path d="M50.47 122.6h220.3v40H50.46z" stroke="#666" fill="#114b7c"/><use xlink:href="#P" transform="matrix(1,0,0,1,55.2728573763886,127.40251144563051) translate(11.205555555555563 21.1375)"/><path d="M160.26 301.6v-5.94m0-5.94v-11.88m0-5.95v-10.33m0-4.38v-4.4" stroke="#000" fill="none"/><path d="M160.76 302.1h-1v-.5h1z"/><path d="M160.26 230.78L173 252.3h-25.47z" stroke="#000" fill="#fff"/><use xlink:href="#Q" transform="matrix(1,0,0,1,168.25982461838248,251.3679223894811) translate(13.61611111111111 19.2)"/><use xlink:href="#R" transform="matrix(1,0,0,1,168.25982461838248,251.3679223894811) translate(39.977222222222224 43.2)"/><path d="M399 321.3h-31.24c-4.42 0-8 3.58-8 8v55c0 4.42-3.58 8-8 8h-.88M399 321.3h.5" stroke="#333" fill="none"/><path d="M321.2 392.3l14.86-14.85 15.15 14.85-15.14 14.85z" stroke="#333" fill="#fff"/><g><use xlink:href="#S" transform="matrix(1,0,0,1,364.87439634828723,293.3012557228152) translate(0 16)"/></g><defs><path d="M117-194c89-4 53 116 60 194h-32v-121c0-31-8-49-39-48C34-167 62-67 57 0H25l-1-190h30c1 10-1 24 2 32 11-22 29-35 61-36" id="T"/><path d="M141-36C126-15 110 5 73 4 37 3 15-17 15-53c-1-64 63-63 125-63 3-35-9-54-41-54-24 1-41 7-42 31l-33-3c5-37 33-52 76-52 45 0 72 20 72 64v82c-1 20 7 32 28 27v20c-31 9-61-2-59-35zM48-53c0 20 12 33 32 33 41-3 63-29 60-74-43 2-92-5-92 41" id="U"/><path d="M210-169c-67 3-38 105-44 169h-31v-121c0-29-5-50-35-48C34-165 62-65 56 0H25l-1-190h30c1 10-1 24 2 32 10-44 99-50 107 0 11-21 27-35 58-36 85-2 47 119 55 194h-31v-121c0-29-5-49-35-48" id="V"/><path d="M100-194c63 0 86 42 84 106H49c0 40 14 67 53 68 26 1 43-12 49-29l28 8c-11 28-37 45-77 45C44 4 14-33 15-96c1-61 26-98 85-98zm52 81c6-60-76-77-97-28-3 7-6 17-6 28h103" id="W"/><g id="b"><use transform="matrix(0.05555555555555555,0,0,0.05555555555555555,0,0)" xlink:href="#T"/><use transform="matrix(0.05555555555555555,0,0,0.05555555555555555,11.11111111111111,0)" xlink:href="#U"/><use transform="matrix(0.05555555555555555,0,0,0.05555555555555555,22.22222222222222,0)" xlink:href="#V"/><use transform="matrix(0.05555555555555555,0,0,0.05555555555555555,38.83333333333333,0)" xlink:href="#W"/></g><path d="M87 75C49 33 22-17 22-94c0-76 28-126 65-167h31c-38 41-64 92-64 168S80 34 118 75H87" id="X"/><path d="M59-47c-2 24 18 29 38 22v24C64 9 27 4 27-40v-127H5v-23h24l9-43h21v43h35v23H59v120" id="Y"/><path d="M141 0L90-78 38 0H4l68-98-65-92h35l48 74 47-74h35l-64 92 68 98h-35" id="Z"/><path d="M33-261c38 41 65 92 65 168S71 34 33 75H2C39 34 66-17 66-93S39-220 2-261h31" id="aa"/><g id="c"><use transform="matrix(0.05555555555555555,0,0,0.05555555555555555,0,0)" xlink:href="#X"/><use transform="matrix(0.05555555555555555,0,0,0.05555555555555555,6.611111111111111,0)" xlink:href="#Y"/><use transform="matrix(0.05555555555555555,0,0,0.05555555555555555,12.166666666666666,0)" xlink:href="#W"/><use transform="matrix(0.05555555555555555,0,0,0.05555555555555555,23.27777777777778,0)" xlink:href="#Z"/><use transform="matrix(0.05555555555555555,0,0,0.05555555555555555,33.27777777777778,0)" xlink:href="#Y"/><use transform="matrix(0.05555555555555555,0,0,0.05555555555555555,38.833333333333336,0)" xlink:href="#aa"/></g><path d="M85-194c31 0 48 13 60 33l-1-100h32l1 261h-30c-2-10 0-23-3-31C134-8 116 4 85 4 32 4 16-35 15-94c0-66 23-100 70-100zm9 24c-40 0-46 34-46 75 0 40 6 74 45 74 42 0 51-32 51-76 0-42-9-74-50-73" id="ab"/><path d="M135-143c-3-34-86-38-87 0 15 53 115 12 119 90S17 21 10-45l28-5c4 36 97 45 98 0-10-56-113-15-118-90-4-57 82-63 122-42 12 7 21 19 24 35" id="ac"/><path d="M96-169c-40 0-48 33-48 73s9 75 48 75c24 0 41-14 43-38l32 2c-6 37-31 61-74 61-59 0-76-41-82-99-10-93 101-131 147-64 4 7 5 14 7 22l-32 3c-4-21-16-35-41-35" id="ad"/><path d="M114-163C36-179 61-72 57 0H25l-1-190h30c1 12-1 29 2 39 6-27 23-49 58-41v29" id="ae"/><path d="M24-231v-30h32v30H24zM24 0v-190h32V0H24" id="af"/><path d="M115-194c55 1 70 41 70 98S169 2 115 4C84 4 66-9 55-30l1 105H24l-1-265h31l2 30c10-21 28-34 59-34zm-8 174c40 0 45-34 45-75s-6-73-45-74c-42 0-51 32-51 76 0 43 10 73 51 73" id="ag"/><path d="M100-194c62-1 85 37 85 99 1 63-27 99-86 99S16-35 15-95c0-66 28-99 85-99zM99-20c44 1 53-31 53-75 0-43-8-75-51-75s-53 32-53 75 10 74 51 75" id="ah"/><g id="d"><use transform="matrix(0.05555555555555555,0,0,0.05555555555555555,0,0)" xlink:href="#ab"/><use transform="matrix(0.05555555555555555,0,0,0.05555555555555555,11.11111111111111,0)" xlink:href="#W"/><use transform="matrix(0.05555555555555555,0,0,0.05555555555555555,22.22222222222222,0)" xlink:href="#ac"/><use transform="matrix(0.05555555555555555,0,0,0.05555555555555555,32.22222222222222,0)" xlink:href="#ad"/><use transform="matrix(0.05555555555555555,0,0,0.05555555555555555,42.22222222222222,0)" xlink:href="#ae"/><use transform="matrix(0.05555555555555555,0,0,0.05555555555555555,48.83333333333333,0)" xlink:href="#af"/><use transform="matrix(0.05555555555555555,0,0,0.05555555555555555,53.222222222222214,0)" xlink:href="#ag"/><use transform="matrix(0.05555555555555555,0,0,0.05555555555555555,64.33333333333333,0)" xlink:href="#Y"/><use transform="matrix(0.05555555555555555,0,0,0.05555555555555555,69.88888888888889,0)" xlink:href="#af"/><use transform="matrix(0.05555555555555555,0,0,0.05555555555555555,74.27777777777777,0)" xlink:href="#ah"/><use transform="matrix(0.05555555555555555,0,0,0.05555555555555555,85.38888888888889,0)" xlink:href="#T"/></g><g id="e"><use transform="matrix(0.05555555555555555,0,0,0.05555555555555555,0,0)" xlink:href="#ab"/><use transform="matrix(0.05555555555555555,0,0,0.05555555555555555,11.11111111111111,0)" xlink:href="#U"/><use transform="matrix(0.05555555555555555,0,0,0.05555555555555555,22.22222222222222,0)" xlink:href="#Y"/><use transform="matrix(0.05555555555555555,0,0,0.05555555555555555,27.77777777777778,0)" xlink:href="#U"/></g><path d="M16-82v-28h88v28H16" id="ai"/><use transform="matrix(0.05555555555555555,0,0,0.05555555555555555,0,0)" xlink:href="#ai" id="f"/><path d="M84 4C-5 8 30-112 23-190h32v120c0 31 7 50 39 49 72-2 45-101 50-169h31l1 190h-30c-1-10 1-25-2-33-11 22-28 36-60 37" id="aj"/><g id="g"><use transform="matrix(0.05555555555555555,0,0,0.05555555555555555,0,0)" xlink:href="#aj"/><use transform="matrix(0.05555555555555555,0,0,0.05555555555555555,11.11111111111111,0)" xlink:href="#T"/><use transform="matrix(0.05555555555555555,0,0,0.05555555555555555,22.22222222222222,0)" xlink:href="#af"/><use transform="matrix(0.05555555555555555,0,0,0.05555555555555555,26.61111111111111,0)" xlink:href="#Y"/></g><g id="h"><use transform="matrix(0.05555555555555555,0,0,0.05555555555555555,0,0)" xlink:href="#ae"/><use transform="matrix(0.05555555555555555,0,0,0.05555555555555555,6.611111111111111,0)" xlink:href="#U"/><use transform="matrix(0.05555555555555555,0,0,0.05555555555555555,17.72222222222222,0)" xlink:href="#Y"/><use transform="matrix(0.05555555555555555,0,0,0.05555555555555555,23.27777777777778,0)" xlink:href="#W"/></g><g id="i"><use transform="matrix(0.05555555555555555,0,0,0.05555555555555555,0,0)" xlink:href="#U"/><use transform="matrix(0.05555555555555555,0,0,0.05555555555555555,11.11111111111111,0)" xlink:href="#T"/><use transform="matrix(0.05555555555555555,0,0,0.05555555555555555,22.22222222222222,0)" xlink:href="#ab"/></g><path d="M177-190C167-65 218 103 67 71c-23-6-38-20-44-43l32-5c15 47 100 32 89-28v-30C133-14 115 1 83 1 29 1 15-40 15-95c0-56 16-97 71-98 29-1 48 16 59 35 1-10 0-23 2-32h30zM94-22c36 0 50-32 50-73 0-42-14-75-50-75-39 0-46 34-46 75s6 73 46 73" id="ak"/><path d="M-5 72V49h209v23H-5" id="al"/><g id="j"><use transform="matrix(0.05555555555555555,0,0,0.05555555555555555,0,0)" xlink:href="#ac"/><use transform="matrix(0.05555555555555555,0,0,0.05555555555555555,10,0)" xlink:href="#Y"/><use transform="matrix(0.05555555555555555,0,0,0.05555555555555555,15.555555555555555,0)" xlink:href="#U"/><use transform="matrix(0.05555555555555555,0,0,0.05555555555555555,26.666666666666664,0)" xlink:href="#ae"/><use transform="matrix(0.05555555555555555,0,0,0.05555555555555555,33.27777777777777,0)" xlink:href="#Y"/><use transform="matrix(0.05555555555555555,0,0,0.05555555555555555,38.83333333333333,0)" xlink:href="#af"/><use transform="matrix(0.05555555555555555,0,0,0.05555555555555555,43.222222222222214,0)" xlink:href="#T"/><use transform="matrix(0.05555555555555555,0,0,0.05555555555555555,54.33333333333333,0)" xlink:href="#ak"/><use transform="matrix(0.05555555555555555,0,0,0.05555555555555555,65.44444444444444,0)" xlink:href="#al"/><use transform="matrix(0.05555555555555555,0,0,0.05555555555555555,76.55555555555556,0)" xlink:href="#Y"/><use transform="matrix(0.05555555555555555,0,0,0.05555555555555555,82.11111111111111,0)" xlink:href="#af"/><use transform="matrix(0.05555555555555555,0,0,0.05555555555555555,86.5,0)" xlink:href="#V"/><use transform="matrix(0.05555555555555555,0,0,0.05555555555555555,103.11111111111111,0)" xlink:href="#W"/></g><path d="M101-234c-31-9-42 10-38 44h38v23H63V0H32v-167H5v-23h27c-7-52 17-82 69-68v24" id="am"/><path d="M24 0v-261h32V0H24" id="an"/><g id="k"><use transform="matrix(0.05555555555555555,0,0,0.05555555555555555,0,0)" xlink:href="#X"/><use transform="matrix(0.05555555555555555,0,0,0.05555555555555555,6.611111111111111,0)" xlink:href="#am"/><use transform="matrix(0.05555555555555555,0,0,0.05555555555555555,12.166666666666666,0)" xlink:href="#an"/><use transform="matrix(0.05555555555555555,0,0,0.05555555555555555,16.555555555555554,0)" xlink:href="#ah"/><use transform="matrix(0.05555555555555555,0,0,0.05555555555555555,27.666666666666664,0)" xlink:href="#U"/><use transform="matrix(0.05555555555555555,0,0,0.05555555555555555,38.77777777777777,0)" xlink:href="#Y"/><use transform="matrix(0.05555555555555555,0,0,0.05555555555555555,44.33333333333333,0)" xlink:href="#ac"/><use transform="matrix(0.05555555555555555,0,0,0.05555555555555555,54.33333333333333,0)" xlink:href="#aa"/></g><g id="m"><use transform="matrix(0.05555555555555555,0,0,0.05555555555555555,0,0)" xlink:href="#ah"/><use transform="matrix(0.05555555555555555,0,0,0.05555555555555555,11.11111111111111,0)" xlink:href="#ae"/></g><g id="n"><use transform="matrix(0.05555555555555555,0,0,0.05555555555555555,0,0)" xlink:href="#Y"/><use transform="matrix(0.05555555555555555,0,0,0.05555555555555555,5.555555555555555,0)" xlink:href="#af"/><use transform="matrix(0.05555555555555555,0,0,0.05555555555555555,9.944444444444443,0)" xlink:href="#V"/><use transform="matrix(0.05555555555555555,0,0,0.05555555555555555,26.555555555555554,0)" xlink:href="#W"/><use transform="matrix(0.05555555555555555,0,0,0.05555555555555555,37.666666666666664,0)" xlink:href="#ac"/><use transform="matrix(0.05555555555555555,0,0,0.05555555555555555,47.666666666666664,0)" xlink:href="#Y"/><use transform="matrix(0.05555555555555555,0,0,0.05555555555555555,53.22222222222222,0)" xlink:href="#U"/><use transform="matrix(0.05555555555555555,0,0,0.05555555555555555,64.33333333333333,0)" xlink:href="#V"/><use transform="matrix(0.05555555555555555,0,0,0.05555555555555555,80.94444444444444,0)" xlink:href="#ag"/><use transform="matrix(0.05555555555555555,0,0,0.05555555555555555,92.05555555555556,0)" xlink:href="#ac"/></g><path d="M26 75v-336h71v23H56V52h41v23H26" id="ao"/><path d="M3 75V52h41v-290H3v-23h71V75H3" id="ap"/><g id="o"><use transform="matrix(0.05555555555555555,0,0,0.05555555555555555,0,0)" xlink:href="#ao"/><use transform="matrix(0.05555555555555555,0,0,0.05555555555555555,5.555555555555555,0)" xlink:href="#T"/><use transform="matrix(0.05555555555555555,0,0,0.05555555555555555,16.666666666666664,0)" xlink:href="#Y"/><use transform="matrix(0.05555555555555555,0,0,0.05555555555555555,22.22222222222222,0)" xlink:href="#af"/><use transform="matrix(0.05555555555555555,0,0,0.05555555555555555,26.61111111111111,0)" xlink:href="#V"/><use transform="matrix(0.05555555555555555,0,0,0.05555555555555555,43.22222222222222,0)" xlink:href="#W"/><use transform="matrix(0.05555555555555555,0,0,0.05555555555555555,54.33333333333333,0)" xlink:href="#ap"/></g><g id="p"><use transform="matrix(0.05555555555555555,0,0,0.05555555555555555,0,0)" xlink:href="#X"/><use transform="matrix(0.05555555555555555,0,0,0.05555555555555555,6.611111111111111,0)" xlink:href="#am"/><use transform="matrix(0.05555555555555555,0,0,0.05555555555555555,12.166666666666666,0)" xlink:href="#an"/><use transform="matrix(0.05555555555555555,0,0,0.05555555555555555,16.555555555555554,0)" xlink:href="#ah"/><use transform="matrix(0.05555555555555555,0,0,0.05555555555555555,27.666666666666664,0)" xlink:href="#U"/><use transform="matrix(0.05555555555555555,0,0,0.05555555555555555,38.77777777777777,0)" xlink:href="#Y"/><use transform="matrix(0.05555555555555555,0,0,0.05555555555555555,44.33333333333333,0)" xlink:href="#aa"/></g><filter id="a" filterUnits="objectBoundingBox" x="-.01" y="-.01" width="1.03" height="1.04"><feOffset result="offOut" in="SourceAlpha" dx="2.12" dy="2.12"/><feGaussianBlur result="blurOut" in="offOut" stdDeviation="2.5"/><feColorMatrix result="colorOut" in="blurOut" values="0 0 0 0 0 0 0 0 0 0 0 0 0 0 0 0 0 0 0.5019607843137255 0"/><feBlend in="SourceGraphic" in2="colorOut"/></filter><path fill="#fff" d="M136-208V0H84v-208H4v-40h212v40h-80" id="aq"/><path fill="#fff" d="M25-224v-37h50v37H25zM25 0v-190h50V0H25" id="ar"/><path fill="#fff" d="M220-157c-53 9-28 100-34 157h-49v-107c1-27-5-49-29-50C55-147 81-57 75 0H25l-1-190h47c2 12-1 28 3 38 10-53 101-56 108 0 13-22 24-43 59-42 82 1 51 116 57 194h-49v-107c-1-25-5-48-29-50" id="as"/><path fill="#fff" d="M185-48c-13 30-37 53-82 52C43 2 14-33 14-96s30-98 90-98c62 0 83 45 84 108H66c0 31 8 55 39 56 18 0 30-7 34-22zm-45-69c5-46-57-63-70-21-2 6-4 13-4 21h74" id="at"/><path fill="#fff" d="M169-182c-1-43-94-46-97-3 18 66 151 10 154 114 3 95-165 93-204 36-6-8-10-19-12-30l50-8c3 46 112 56 116 5-17-69-150-10-154-114-4-87 153-88 188-35 5 8 8 18 10 28" id="au"/><path fill="#fff" d="M135-150c-39-12-60 13-60 57V0H25l-1-190h47c2 13-1 29 3 40 6-28 27-53 61-41v41" id="av"/><path fill="#fff" d="M137-138c1-29-70-34-71-4 15 46 118 7 119 86 1 83-164 76-172 9l43-7c4 19 20 25 44 25 33 8 57-30 24-41C81-84 22-81 20-136c-2-80 154-74 161-7" id="aw"/><g id="q"><use transform="matrix(0.05555555555555555,0,0,0.05555555555555555,0,0)" xlink:href="#aq"/><use transform="matrix(0.05555555555555555,0,0,0.05555555555555555,11.777777777777777,0)" xlink:href="#ar"/><use transform="matrix(0.05555555555555555,0,0,0.05555555555555555,17.333333333333332,0)" xlink:href="#as"/><use transform="matrix(0.05555555555555555,0,0,0.05555555555555555,35.111111111111114,0)" xlink:href="#at"/><use transform="matrix(0.05555555555555555,0,0,0.05555555555555555,46.22222222222223,0)" xlink:href="#au"/><use transform="matrix(0.05555555555555555,0,0,0.05555555555555555,59.55555555555555,0)" xlink:href="#at"/><use transform="matrix(0.05555555555555555,0,0,0.05555555555555555,70.66666666666667,0)" xlink:href="#av"/><use transform="matrix(0.05555555555555555,0,0,0.05555555555555555,78.44444444444444,0)" xlink:href="#ar"/><use transform="matrix(0.05555555555555555,0,0,0.05555555555555555,84,0)" xlink:href="#at"/><use transform="matrix(0.05555555555555555,0,0,0.05555555555555555,95.11111111111111,0)" xlink:href="#aw"/><path fill="#fff" d="M-1 1.07h108.22v2.1H-1z"/></g><g id="r"><use transform="matrix(0.05555555555555555,0,0,0.05555555555555555,0,0)" xlink:href="#W"/><use transform="matrix(0.05555555555555555,0,0,0.05555555555555555,11.11111111111111,0)" xlink:href="#Z"/><use transform="matrix(0.05555555555555555,0,0,0.05555555555555555,21.11111111111111,0)" xlink:href="#Y"/><use transform="matrix(0.05555555555555555,0,0,0.05555555555555555,26.666666666666664,0)" xlink:href="#W"/><use transform="matrix(0.05555555555555555,0,0,0.05555555555555555,37.77777777777777,0)" xlink:href="#T"/><use transform="matrix(0.05555555555555555,0,0,0.05555555555555555,48.888888888888886,0)" xlink:href="#ab"/><use transform="matrix(0.05555555555555555,0,0,0.05555555555555555,60,0)" xlink:href="#ac"/></g><g id="t"><use transform="matrix(0.05555555555555555,0,0,0.05555555555555555,0,0)" xlink:href="#ab"/><use transform="matrix(0.05555555555555555,0,0,0.05555555555555555,11.11111111111111,0)" xlink:href="#U"/><use transform="matrix(0.05555555555555555,0,0,0.05555555555555555,22.22222222222222,0)" xlink:href="#Y"/><use transform="matrix(0.05555555555555555,0,0,0.05555555555555555,27.77777777777778,0)" xlink:href="#U"/></g><g id="u"><use transform="matrix(0.05555555555555555,0,0,0.05555555555555555,0,0)" xlink:href="#ao"/><use transform="matrix(0.05555555555555555,0,0,0.05555555555555555,5.555555555555555,0)" xlink:href="#T"/><use transform="matrix(0.05555555555555555,0,0,0.05555555555555555,16.666666666666664,0)" xlink:href="#Y"/><use transform="matrix(0.05555555555555555,0,0,0.05555555555555555,22.22222222222222,0)" xlink:href="#af"/><use transform="matrix(0.05555555555555555,0,0,0.05555555555555555,26.61111111111111,0)" xlink:href="#V"/><use transform="matrix(0.05555555555555555,0,0,0.05555555555555555,43.22222222222222,0)" xlink:href="#W"/></g><use transform="matrix(0.05555555555555555,0,0,0.05555555555555555,0,0)" xlink:href="#Z" id="v"/><g id="w"><use transform="matrix(0.05555555555555555,0,0,0.05555555555555555,0,0)" xlink:href="#T"/><use transform="matrix(0.05555555555555555,0,0,0.05555555555555555,11.11111111111111,0)" xlink:href="#am"/><use transform="matrix(0.05555555555555555,0,0,0.05555555555555555,16.666666666666664,0)" xlink:href="#W"/><use transform="matrix(0.05555555555555555,0,0,0.05555555555555555,27.777777777777775,0)" xlink:href="#U"/><use transform="matrix(0.05555555555555555,0,0,0.05555555555555555,38.888888888888886,0)" xlink:href="#Y"/><use transform="matrix(0.05555555555555555,0,0,0.05555555555555555,44.44444444444444,0)" xlink:href="#aj"/><use transform="matrix(0.05555555555555555,0,0,0.05555555555555555,55.55555555555556,0)" xlink:href="#ae"/><use transform="matrix(0.05555555555555555,0,0,0.05555555555555555,62.16666666666668,0)" xlink:href="#W"/><use transform="matrix(0.05555555555555555,0,0,0.05555555555555555,73.27777777777779,0)" xlink:href="#ap"/></g><path d="M18-150v-26h174v26H18zm0 90v-26h174v26H18" id="ax"/><use transform="matrix(0.05555555555555555,0,0,0.05555555555555555,0,0)" xlink:href="#ax" id="x"/><path d="M109-170H84l-4-78h32zm-65 0H19l-4-78h33" id="ay"/><g id="y"><use transform="matrix(0.05555555555555555,0,0,0.05555555555555555,0,0)" xlink:href="#ay"/><use transform="matrix(0.05555555555555555,0,0,0.05555555555555555,7.055555555555555,0)" xlink:href="#V"/><use transform="matrix(0.05555555555555555,0,0,0.05555555555555555,23.666666666666664,0)" xlink:href="#W"/><use transform="matrix(0.05555555555555555,0,0,0.05555555555555555,34.77777777777777,0)" xlink:href="#Y"/><use transform="matrix(0.05555555555555555,0,0,0.05555555555555555,40.33333333333333,0)" xlink:href="#W"/><use transform="matrix(0.05555555555555555,0,0,0.05555555555555555,51.44444444444444,0)" xlink:href="#ae"/><use transform="matrix(0.05555555555555555,0,0,0.05555555555555555,58.05555555555555,0)" xlink:href="#ac"/><use transform="matrix(0.05555555555555555,0,0,0.05555555555555555,68.05555555555556,0)" xlink:href="#ay"/></g><g id="z"><use transform="matrix(0.05555555555555555,0,0,0.05555555555555555,0,0)" xlink:href="#ae"/><use transform="matrix(0.05555555555555555,0,0,0.05555555555555555,6.611111111111111,0)" xlink:href="#W"/><use transform="matrix(0.05555555555555555,0,0,0.05555555555555555,17.72222222222222,0)" xlink:href="#am"/><use transform="matrix(0.05555555555555555,0,0,0.05555555555555555,23.27777777777778,0)" xlink:href="#W"/><use transform="matrix(0.05555555555555555,0,0,0.05555555555555555,34.388888888888886,0)" xlink:href="#ae"/><use transform="matrix(0.05555555555555555,0,0,0.05555555555555555,41,0)" xlink:href="#W"/><use transform="matrix(0.05555555555555555,0,0,0.05555555555555555,52.111111111111114,0)" xlink:href="#T"/><use transform="matrix(0.05555555555555555,0,0,0.05555555555555555,63.22222222222223,0)" xlink:href="#ad"/><use transform="matrix(0.05555555555555555,0,0,0.05555555555555555,73.22222222222223,0)" xlink:href="#W"/><use transform="matrix(0.05555555555555555,0,0,0.05555555555555555,84.33333333333334,0)" xlink:href="#al"/><use transform="matrix(0.05555555555555555,0,0,0.05555555555555555,95.44444444444446,0)" xlink:href="#am"/><use transform="matrix(0.05555555555555555,0,0,0.05555555555555555,101.00000000000001,0)" xlink:href="#ae"/><use transform="matrix(0.05555555555555555,0,0,0.05555555555555555,107.61111111111113,0)" xlink:href="#U"/><use transform="matrix(0.05555555555555555,0,0,0.05555555555555555,118.72222222222224,0)" xlink:href="#V"/><use transform="matrix(0.05555555555555555,0,0,0.05555555555555555,135.33333333333334,0)" xlink:href="#W"/></g><filter id="s" filterUnits="objectBoundingBox" x="-.01" y="-.02" width="1.03" height="1.08"><feOffset result="offOut" in="SourceAlpha" dx="2.12" dy="2.12"/><feGaussianBlur result="blurOut" in="offOut" stdDeviation="2.5"/><feColorMatrix result="colorOut" in="blurOut" values="0 0 0 0 0 0 0 0 0 0 0 0 0 0 0 0 0 0 0.5019607843137255 0"/><feBlend in="SourceGraphic" in2="colorOut"/></filter><path fill="#fff" d="M135-194c53 0 70 44 70 98 0 56-19 98-73 100-31 1-45-17-59-34 3 33 2 69 2 105H25l-1-265h48c2 10 0 23 3 31 11-24 29-35 60-35zM114-30c33 0 39-31 40-66 0-38-9-64-40-64-56 0-55 130 0 130" id="az"/><path fill="#fff" d="M133-34C117-15 103 5 69 4 32 3 11-16 11-54c-1-60 55-63 116-61 1-26-3-47-28-47-18 1-26 9-28 27l-52-2c7-38 36-58 82-57s74 22 75 68l1 82c-1 14 12 18 25 15v27c-30 8-71 5-69-32zm-48 3c29 0 43-24 42-57-32 0-66-3-65 30 0 17 8 27 23 27" id="aA"/><path fill="#fff" d="M115-3C79 11 28 4 28-45v-112H4v-33h27l15-45h31v45h36v33H77v99c-1 23 16 31 38 25v30" id="aB"/><path fill="#fff" d="M25 0v-261h50V0H25" id="aC"/><g id="A"><use transform="matrix(0.05555555555555555,0,0,0.05555555555555555,0,0)" xlink:href="#au"/><use transform="matrix(0.05555555555555555,0,0,0.05555555555555555,13.333333333333332,0)" xlink:href="#az"/><use transform="matrix(0.05555555555555555,0,0,0.05555555555555555,25.5,0)" xlink:href="#aA"/><use transform="matrix(0.05555555555555555,0,0,0.05555555555555555,36.611111111111114,0)" xlink:href="#aB"/><use transform="matrix(0.05555555555555555,0,0,0.05555555555555555,43.22222222222223,0)" xlink:href="#ar"/><use transform="matrix(0.05555555555555555,0,0,0.05555555555555555,48.777777777777786,0)" xlink:href="#aA"/><use transform="matrix(0.05555555555555555,0,0,0.05555555555555555,59.8888888888889,0)" xlink:href="#aC"/><use transform="matrix(0.05555555555555555,0,0,0.05555555555555555,65.44444444444446,0)" xlink:href="#au"/><use transform="matrix(0.05555555555555555,0,0,0.05555555555555555,78.77777777777779,0)" xlink:href="#at"/><use transform="matrix(0.05555555555555555,0,0,0.05555555555555555,89.8888888888889,0)" xlink:href="#av"/><use transform="matrix(0.05555555555555555,0,0,0.05555555555555555,97.66666666666667,0)" xlink:href="#ar"/><use transform="matrix(0.05555555555555555,0,0,0.05555555555555555,103.22222222222223,0)" xlink:href="#at"/><use transform="matrix(0.05555555555555555,0,0,0.05555555555555555,114.33333333333336,0)" xlink:href="#aw"/><path fill="#fff" d="M-1 1.07h127.44v2.1H-1z"/></g><path d="M30-248c87 1 191-15 191 75 0 78-77 80-158 76V0H30v-248zm33 125c57 0 124 11 124-50 0-59-68-47-124-48v98" id="aD"/><g id="C"><use transform="matrix(0.05555555555555555,0,0,0.05555555555555555,0,0)" xlink:href="#ay"/><use transform="matrix(0.05555555555555555,0,0,0.05555555555555555,7.055555555555555,0)" xlink:href="#aD"/><use transform="matrix(0.05555555555555555,0,0,0.05555555555555555,20.388888888888886,0)" xlink:href="#ah"/><use transform="matrix(0.05555555555555555,0,0,0.05555555555555555,31.5,0)" xlink:href="#ac"/><use transform="matrix(0.05555555555555555,0,0,0.05555555555555555,41.5,0)" xlink:href="#af"/><use transform="matrix(0.05555555555555555,0,0,0.05555555555555555,45.888888888888886,0)" xlink:href="#Y"/><use transform="matrix(0.05555555555555555,0,0,0.05555555555555555,51.44444444444444,0)" xlink:href="#af"/><use transform="matrix(0.05555555555555555,0,0,0.05555555555555555,55.83333333333333,0)" xlink:href="#ah"/><use transform="matrix(0.05555555555555555,0,0,0.05555555555555555,66.94444444444444,0)" xlink:href="#T"/><use transform="matrix(0.05555555555555555,0,0,0.05555555555555555,78.05555555555556,0)" xlink:href="#ay"/></g><g id="D"><use transform="matrix(0.05555555555555555,0,0,0.05555555555555555,0,0)" xlink:href="#ac"/><use transform="matrix(0.05555555555555555,0,0,0.05555555555555555,10,0)" xlink:href="#ag"/><use transform="matrix(0.05555555555555555,0,0,0.05555555555555555,21.11111111111111,0)" xlink:href="#U"/><use transform="matrix(0.05555555555555555,0,0,0.05555555555555555,32.22222222222222,0)" xlink:href="#Y"/><use transform="matrix(0.05555555555555555,0,0,0.05555555555555555,37.77777777777778,0)" xlink:href="#af"/><use transform="matrix(0.05555555555555555,0,0,0.05555555555555555,42.166666666666664,0)" xlink:href="#U"/><use transform="matrix(0.05555555555555555,0,0,0.05555555555555555,53.27777777777777,0)" xlink:href="#an"/><use transform="matrix(0.05555555555555555,0,0,0.05555555555555555,57.666666666666664,0)" xlink:href="#al"/><use transform="matrix(0.05555555555555555,0,0,0.05555555555555555,68.77777777777777,0)" xlink:href="#ac"/><use transform="matrix(0.05555555555555555,0,0,0.05555555555555555,78.77777777777777,0)" xlink:href="#W"/><use transform="matrix(0.05555555555555555,0,0,0.05555555555555555,89.88888888888889,0)" xlink:href="#ae"/><use transform="matrix(0.05555555555555555,0,0,0.05555555555555555,96.5,0)" xlink:href="#af"/><use transform="matrix(0.05555555555555555,0,0,0.05555555555555555,100.88888888888889,0)" xlink:href="#W"/><use transform="matrix(0.05555555555555555,0,0,0.05555555555555555,112,0)" xlink:href="#ac"/></g><path d="M185-189c-5-48-123-54-124 2 14 75 158 14 163 119 3 78-121 87-175 55-17-10-28-26-33-46l33-7c5 56 141 63 141-1 0-78-155-14-162-118-5-82 145-84 179-34 5 7 8 16 11 25" id="aE"/><g id="E"><use transform="matrix(0.05555555555555555,0,0,0.05555555555555555,0,0)" xlink:href="#X"/><use transform="matrix(0.05555555555555555,0,0,0.05555555555555555,6.611111111111111,0)" xlink:href="#aE"/><use transform="matrix(0.05555555555555555,0,0,0.05555555555555555,19.944444444444443,0)" xlink:href="#ag"/><use transform="matrix(0.05555555555555555,0,0,0.05555555555555555,31.055555555555554,0)" xlink:href="#U"/><use transform="matrix(0.05555555555555555,0,0,0.05555555555555555,42.166666666666664,0)" xlink:href="#Y"/><use transform="matrix(0.05555555555555555,0,0,0.05555555555555555,47.72222222222222,0)" xlink:href="#af"/><use transform="matrix(0.05555555555555555,0,0,0.05555555555555555,52.11111111111111,0)" xlink:href="#U"/><use transform="matrix(0.05555555555555555,0,0,0.05555555555555555,63.22222222222222,0)" xlink:href="#an"/><use transform="matrix(0.05555555555555555,0,0,0.05555555555555555,67.6111111111111,0)" xlink:href="#aE"/><use transform="matrix(0.05555555555555555,0,0,0.05555555555555555,80.94444444444443,0)" xlink:href="#W"/><use transform="matrix(0.05555555555555555,0,0,0.05555555555555555,92.05555555555554,0)" xlink:href="#ae"/><use transform="matrix(0.05555555555555555,0,0,0.05555555555555555,98.66666666666666,0)" xlink:href="#af"/><use transform="matrix(0.05555555555555555,0,0,0.05555555555555555,103.05555555555554,0)" xlink:href="#W"/><use transform="matrix(0.05555555555555555,0,0,0.05555555555555555,114.16666666666666,0)" xlink:href="#ac"/><use transform="matrix(0.05555555555555555,0,0,0.05555555555555555,124.16666666666666,0)" xlink:href="#aa"/></g><filter id="B" filterUnits="objectBoundingBox" x="-.01" y="-.03" width="1.03" height="1.09"><feOffset result="offOut" in="SourceAlpha" dx="2.12" dy="2.12"/><feGaussianBlur result="blurOut" in="offOut" stdDeviation="2.5"/><feColorMatrix result="colorOut" in="blurOut" values="0 0 0 0 0 0 0 0 0 0 0 0 0 0 0 0 0 0 0.5019607843137255 0"/><feBlend in="SourceGraphic" in2="colorOut"/></filter><path fill="#fff" d="M24-248c93 1 206-16 204 79-1 75-69 88-152 82V0H24v-248zm52 121c47 0 100 7 100-41 0-47-54-39-100-39v80" id="aF"/><path fill="#fff" d="M110-194c64 0 96 36 96 99 0 64-35 99-97 99-61 0-95-36-95-99 0-62 34-99 96-99zm-1 164c35 0 45-28 45-65 0-40-10-65-43-65-34 0-45 26-45 65 0 36 10 65 43 65" id="aG"/><path fill="#fff" d="M135-194c87-1 58 113 63 194h-50c-7-57 23-157-34-157-59 0-34 97-39 157H25l-1-190h47c2 12-1 28 3 38 12-26 28-41 61-42" id="aH"/><g id="F"><use transform="matrix(0.05555555555555555,0,0,0.05555555555555555,0,0)" xlink:href="#aF"/><use transform="matrix(0.05555555555555555,0,0,0.05555555555555555,13.333333333333332,0)" xlink:href="#aG"/><use transform="matrix(0.05555555555555555,0,0,0.05555555555555555,25.5,0)" xlink:href="#aw"/><use transform="matrix(0.05555555555555555,0,0,0.05555555555555555,36.611111111111114,0)" xlink:href="#ar"/><use transform="matrix(0.05555555555555555,0,0,0.05555555555555555,42.16666666666667,0)" xlink:href="#aB"/><use transform="matrix(0.05555555555555555,0,0,0.05555555555555555,48.777777777777786,0)" xlink:href="#ar"/><use transform="matrix(0.05555555555555555,0,0,0.05555555555555555,54.33333333333334,0)" xlink:href="#aG"/><use transform="matrix(0.05555555555555555,0,0,0.05555555555555555,66.50000000000001,0)" xlink:href="#aH"/><path fill="#fff" d="M-1 1.07h80.67v2.1H-1z"/></g><path d="M27 0v-27h64v-190l-56 39v-29l58-41h29v221h61V0H27" id="aI"/><path d="M33 0v-38h34V0H33" id="aJ"/><path d="M80-196l47-18 7 23-49 13 32 44-20 13-27-46-27 45-21-12 33-44-49-13 8-23 47 19-2-53h23" id="aK"/><g id="G"><use transform="matrix(0.05555555555555555,0,0,0.05555555555555555,0,0)" xlink:href="#aI"/><use transform="matrix(0.05555555555555555,0,0,0.05555555555555555,11.11111111111111,0)" xlink:href="#aJ"/><use transform="matrix(0.05555555555555555,0,0,0.05555555555555555,16.666666666666664,0)" xlink:href="#aJ"/><use transform="matrix(0.05555555555555555,0,0,0.05555555555555555,22.22222222222222,0)" xlink:href="#aK"/></g><path d="M115-194c53 0 69 39 70 98 0 66-23 100-70 100C84 3 66-7 56-30L54 0H23l1-261h32v101c10-23 28-34 59-34zm-8 174c40 0 45-34 45-75 0-40-5-75-45-74-42 0-51 32-51 76 0 43 10 73 51 73" id="aL"/><path d="M106-169C34-169 62-67 57 0H25v-261h32l-1 103c12-21 28-36 61-36 89 0 53 116 60 194h-32v-121c2-32-8-49-39-48" id="aM"/><path d="M108 0H70L1-190h34L89-25l56-165h34" id="aN"/><g id="I"><use transform="matrix(0.05555555555555555,0,0,0.05555555555555555,0,0)" xlink:href="#ay"/><use transform="matrix(0.05555555555555555,0,0,0.05555555555555555,7.055555555555555,0)" xlink:href="#aL"/><use transform="matrix(0.05555555555555555,0,0,0.05555555555555555,18.166666666666664,0)" xlink:href="#W"/><use transform="matrix(0.05555555555555555,0,0,0.05555555555555555,29.277777777777775,0)" xlink:href="#aM"/><use transform="matrix(0.05555555555555555,0,0,0.05555555555555555,40.388888888888886,0)" xlink:href="#U"/><use transform="matrix(0.05555555555555555,0,0,0.05555555555555555,51.5,0)" xlink:href="#aN"/><use transform="matrix(0.05555555555555555,0,0,0.05555555555555555,61.5,0)" xlink:href="#af"/><use transform="matrix(0.05555555555555555,0,0,0.05555555555555555,65.88888888888889,0)" xlink:href="#ah"/><use transform="matrix(0.05555555555555555,0,0,0.05555555555555555,77,0)" xlink:href="#ae"/><use transform="matrix(0.05555555555555555,0,0,0.05555555555555555,83.61111111111111,0)" xlink:href="#ay"/></g><path d="M190 0L58-211 59 0H30v-248h39L202-35l-2-213h31V0h-41" id="aO"/><path d="M266 0h-40l-56-210L115 0H75L2-248h35L96-30l15-64 43-154h32l59 218 59-218h35" id="aP"/><path d="M160-131c35 5 61 23 61 61C221 17 115-2 30 0v-248c76 3 177-17 177 60 0 33-19 50-47 57zm-97-11c50-1 110 9 110-42 0-47-63-36-110-37v79zm0 115c55-2 124 14 124-45 0-56-70-42-124-44v89" id="aQ"/><g id="J"><use transform="matrix(0.05555555555555555,0,0,0.05555555555555555,0,0)" xlink:href="#X"/><use transform="matrix(0.05555555555555555,0,0,0.05555555555555555,6.611111111111111,0)" xlink:href="#aO"/><use transform="matrix(0.05555555555555555,0,0,0.05555555555555555,21,0)" xlink:href="#aP"/><use transform="matrix(0.05555555555555555,0,0,0.05555555555555555,39.83333333333333,0)" xlink:href="#aQ"/></g><g id="K"><use transform="matrix(0.05555555555555555,0,0,0.05555555555555555,0,0)" xlink:href="#ab"/><use transform="matrix(0.05555555555555555,0,0,0.05555555555555555,11.11111111111111,0)" xlink:href="#U"/><use transform="matrix(0.05555555555555555,0,0,0.05555555555555555,22.22222222222222,0)" xlink:href="#Y"/><use transform="matrix(0.05555555555555555,0,0,0.05555555555555555,27.77777777777778,0)" xlink:href="#U"/></g><path d="M179-190L93 31C79 59 56 82 12 73V49c39 6 53-20 64-50L1-190h34L92-34l54-156h33" id="aR"/><g id="L"><use transform="matrix(0.05555555555555555,0,0,0.05555555555555555,0,0)" xlink:href="#Y"/><use transform="matrix(0.05555555555555555,0,0,0.05555555555555555,5.555555555555555,0)" xlink:href="#aR"/><use transform="matrix(0.05555555555555555,0,0,0.05555555555555555,15.555555555555555,0)" xlink:href="#ag"/><use transform="matrix(0.05555555555555555,0,0,0.05555555555555555,26.666666666666664,0)" xlink:href="#W"/><use transform="matrix(0.05555555555555555,0,0,0.05555555555555555,37.77777777777777,0)" xlink:href="#ac"/><use transform="matrix(0.05555555555555555,0,0,0.05555555555555555,47.77777777777777,0)" xlink:href="#aa"/></g><filter id="H" filterUnits="objectBoundingBox" x="-.01" y="-.03" width="1.03" height="1.09"><feOffset result="offOut" in="SourceAlpha" dx="2.12" dy="2.12"/><feGaussianBlur result="blurOut" in="offOut" stdDeviation="2.5"/><feColorMatrix result="colorOut" in="blurOut" values="0 0 0 0 0 0 0 0 0 0 0 0 0 0 0 0 0 0 0.5019607843137255 0"/><feBlend in="SourceGraphic" in2="colorOut"/></filter><path fill="#fff" d="M142-158h-39l-4-90h48zm-75 0H28l-4-90h48" id="aS"/><path fill="#fff" d="M135-194c52 0 70 43 70 98 0 56-19 99-73 100-30 1-46-15-58-35L72 0H24l1-261h50v104c11-23 29-37 60-37zM114-30c31 0 40-27 40-66 0-37-7-63-39-63s-41 28-41 65c0 36 8 64 40 64" id="aT"/><path fill="#fff" d="M114-157C55-157 80-60 75 0H25v-261h50l-1 109c12-26 28-41 61-42 86-1 58 113 63 194h-50c-7-57 23-157-34-157" id="aU"/><path fill="#fff" d="M128 0H69L1-190h53L99-40l48-150h52" id="aV"/><g id="M"><use transform="matrix(0.05555555555555555,0,0,0.05555555555555555,0,0)" xlink:href="#aS"/><use transform="matrix(0.05555555555555555,0,0,0.05555555555555555,9.444444444444445,0)" xlink:href="#aT"/><use transform="matrix(0.05555555555555555,0,0,0.05555555555555555,21.61111111111111,0)" xlink:href="#at"/><use transform="matrix(0.05555555555555555,0,0,0.05555555555555555,32.72222222222222,0)" xlink:href="#aU"/><use transform="matrix(0.05555555555555555,0,0,0.05555555555555555,44.888888888888886,0)" xlink:href="#aA"/><use transform="matrix(0.05555555555555555,0,0,0.05555555555555555,56,0)" xlink:href="#aV"/><use transform="matrix(0.05555555555555555,0,0,0.05555555555555555,67.11111111111111,0)" xlink:href="#ar"/><use transform="matrix(0.05555555555555555,0,0,0.05555555555555555,72.66666666666667,0)" xlink:href="#aG"/><use transform="matrix(0.05555555555555555,0,0,0.05555555555555555,84.83333333333334,0)" xlink:href="#av"/><use transform="matrix(0.05555555555555555,0,0,0.05555555555555555,92.61111111111111,0)" xlink:href="#aS"/><path fill="#fff" d="M-1 1.07h109.6v2.1H-1z"/></g><path fill="#fff" d="M67-93c0 74 22 123 53 168H70C40 30 18-18 18-93s22-123 52-168h50c-32 44-53 94-53 168" id="aW"/><path fill="#fff" d="M190-63c-7 42-38 67-86 67-59 0-84-38-90-98-12-110 154-137 174-36l-49 2c-2-19-15-32-35-32-30 0-35 28-38 64-6 74 65 87 74 30" id="aX"/><path fill="#fff" d="M195-6C206 82 75 100 31 46c-4-6-6-13-8-21l49-6c3 16 16 24 34 25 40 0 42-37 40-79-11 22-30 35-61 35-53 0-70-43-70-97 0-56 18-96 73-97 30 0 46 14 59 34l2-30h47zm-90-29c32 0 41-27 41-63 0-35-9-62-40-62-32 0-39 29-40 63 0 36 9 62 39 62" id="aY"/><path fill="#fff" d="M230 0l2-204L168 0h-37L68-204 70 0H24v-248h70l56 185 57-185h69V0h-46" id="aZ"/><path fill="#fff" d="M88-194c31-1 46 15 58 34l-1-101h50l1 261h-48c-2-10 0-23-3-31C134-8 116 4 84 4 32 4 16-41 15-95c0-56 19-97 73-99zm17 164c33 0 40-30 41-66 1-37-9-64-41-64s-38 30-39 65c0 43 13 65 39 65" id="ba"/><path fill="#fff" d="M85 4C-2 5 27-109 22-190h50c7 57-23 150 33 157 60-5 35-97 40-157h50l1 190h-47c-2-12 1-28-3-38-12 25-28 42-61 42" id="bb"/><path fill="#fff" d="M102-93c0 74-22 123-52 168H0C30 29 54-18 53-93c0-74-22-123-53-168h50c30 45 52 94 52 168" id="bc"/><g id="N"><use transform="matrix(0.05555555555555555,0,0,0.05555555555555555,0,0)" xlink:href="#aW"/><use transform="matrix(0.05555555555555555,0,0,0.05555555555555555,6.611111111111111,0)" xlink:href="#aF"/><use transform="matrix(0.05555555555555555,0,0,0.05555555555555555,19.944444444444443,0)" xlink:href="#av"/><use transform="matrix(0.05555555555555555,0,0,0.05555555555555555,27.72222222222222,0)" xlink:href="#aG"/><use transform="matrix(0.05555555555555555,0,0,0.05555555555555555,39.888888888888886,0)" xlink:href="#aX"/><use transform="matrix(0.05555555555555555,0,0,0.05555555555555555,51,0)" xlink:href="#at"/><use transform="matrix(0.05555555555555555,0,0,0.05555555555555555,62.11111111111112,0)" xlink:href="#aw"/><use transform="matrix(0.05555555555555555,0,0,0.05555555555555555,73.22222222222223,0)" xlink:href="#aw"/><use transform="matrix(0.05555555555555555,0,0,0.05555555555555555,84.33333333333334,0)" xlink:href="#ar"/><use transform="matrix(0.05555555555555555,0,0,0.05555555555555555,89.8888888888889,0)" xlink:href="#aH"/><use transform="matrix(0.05555555555555555,0,0,0.05555555555555555,102.05555555555557,0)" xlink:href="#aY"/><use transform="matrix(0.05555555555555555,0,0,0.05555555555555555,114.22222222222224,0)" xlink:href="#aZ"/><use transform="matrix(0.05555555555555555,0,0,0.05555555555555555,130.83333333333334,0)" xlink:href="#aG"/><use transform="matrix(0.05555555555555555,0,0,0.05555555555555555,143,0)" xlink:href="#ba"/><use transform="matrix(0.05555555555555555,0,0,0.05555555555555555,155.16666666666666,0)" xlink:href="#bb"/><use transform="matrix(0.05555555555555555,0,0,0.05555555555555555,167.33333333333331,0)" xlink:href="#aC"/><use transform="matrix(0.05555555555555555,0,0,0.05555555555555555,172.88888888888886,0)" xlink:href="#at"/><use transform="matrix(0.05555555555555555,0,0,0.05555555555555555,183.99999999999997,0)" xlink:href="#bc"/><path fill="#fff" d="M-1 1.07h192.6v2.1H-1z"/></g><filter id="O" filterUnits="objectBoundingBox" x="-.01" y="-.03" width="1.05" height="1.09"><feOffset result="offOut" in="SourceAlpha" dx="2.12" dy="2.12"/><feGaussianBlur result="blurOut" in="offOut" stdDeviation="2.5"/><feColorMatrix result="colorOut" in="blurOut" values="0 0 0 0 0 0 0 0 0 0 0 0 0 0 0 0 0 0 0.5019607843137255 0"/><feBlend in="SourceGraphic" in2="colorOut"/></filter><g id="P"><use transform="matrix(0.05555555555555555,0,0,0.05555555555555555,0,0)" xlink:href="#aF"/><use transform="matrix(0.05555555555555555,0,0,0.05555555555555555,13.333333333333332,0)" xlink:href="#av"/><use transform="matrix(0.05555555555555555,0,0,0.05555555555555555,21.11111111111111,0)" xlink:href="#aG"/><use transform="matrix(0.05555555555555555,0,0,0.05555555555555555,33.27777777777778,0)" xlink:href="#aX"/><use transform="matrix(0.05555555555555555,0,0,0.05555555555555555,44.388888888888886,0)" xlink:href="#at"/><use transform="matrix(0.05555555555555555,0,0,0.05555555555555555,55.5,0)" xlink:href="#aw"/><use transform="matrix(0.05555555555555555,0,0,0.05555555555555555,66.61111111111111,0)" xlink:href="#aw"/><use transform="matrix(0.05555555555555555,0,0,0.05555555555555555,77.72222222222223,0)" xlink:href="#ar"/><use transform="matrix(0.05555555555555555,0,0,0.05555555555555555,83.27777777777779,0)" xlink:href="#aH"/><use transform="matrix(0.05555555555555555,0,0,0.05555555555555555,95.44444444444446,0)" xlink:href="#aY"/><use transform="matrix(0.05555555555555555,0,0,0.05555555555555555,107.61111111111113,0)" xlink:href="#aZ"/><use transform="matrix(0.05555555555555555,0,0,0.05555555555555555,124.22222222222224,0)" xlink:href="#aG"/><use transform="matrix(0.05555555555555555,0,0,0.05555555555555555,136.3888888888889,0)" xlink:href="#ba"/><use transform="matrix(0.05555555555555555,0,0,0.05555555555555555,148.55555555555557,0)" xlink:href="#bb"/><use transform="matrix(0.05555555555555555,0,0,0.05555555555555555,160.72222222222223,0)" xlink:href="#aC"/><use transform="matrix(0.05555555555555555,0,0,0.05555555555555555,166.27777777777777,0)" xlink:href="#at"/><path fill="#fff" d="M-1 1.07h179.4v2.1H-1z"/></g><g id="Q"><use transform="matrix(0.05555555555555555,0,0,0.05555555555555555,0,0)" xlink:href="#af"/><use transform="matrix(0.05555555555555555,0,0,0.05555555555555555,4.388888888888888,0)" xlink:href="#T"/><use transform="matrix(0.05555555555555555,0,0,0.05555555555555555,15.5,0)" xlink:href="#ac"/><use transform="matrix(0.05555555555555555,0,0,0.05555555555555555,25.5,0)" xlink:href="#Y"/><use transform="matrix(0.05555555555555555,0,0,0.05555555555555555,31.05555555555556,0)" xlink:href="#U"/><use transform="matrix(0.05555555555555555,0,0,0.05555555555555555,42.16666666666667,0)" xlink:href="#T"/><use transform="matrix(0.05555555555555555,0,0,0.05555555555555555,53.277777777777786,0)" xlink:href="#ad"/><use transform="matrix(0.05555555555555555,0,0,0.05555555555555555,63.277777777777786,0)" xlink:href="#W"/></g><g id="R"><use transform="matrix(0.05555555555555555,0,0,0.05555555555555555,0,0)" xlink:href="#ah"/><use transform="matrix(0.05555555555555555,0,0,0.05555555555555555,11.11111111111111,0)" xlink:href="#am"/></g><path d="M101-251c68 0 85 55 85 127S166 4 100 4C33 4 14-52 14-124c0-73 17-127 87-127zm-1 229c47 0 54-49 54-102s-4-102-53-102c-51 0-55 48-55 102 0 53 5 102 54 102" id="bd"/><g id="S"><use transform="matrix(0.05555555555555555,0,0,0.05555555555555555,0,0)" xlink:href="#bd"/><use transform="matrix(0.05555555555555555,0,0,0.05555555555555555,11.11111111111111,0)" xlink:href="#aJ"/><use transform="matrix(0.05555555555555555,0,0,0.05555555555555555,16.666666666666664,0)" xlink:href="#aJ"/><use transform="matrix(0.05555555555555555,0,0,0.05555555555555555,22.22222222222222,0)" xlink:href="#aK"/></g></defs></g></svg>