<svg xmlns="http://www.w3.org/2000/svg" xmlns:xlink="http://www.w3.org/1999/xlink" xmlns:lucid="lucid" width="1612.73" height="857.87"><g transform="translate(0 0)" lucid:page-tab-id="uaSXqsF0Z-E4"><g filter="url(#a)"><path d="M1018.85 20h259.58v176h-259.58z" fill="#fff"/><path d="M1018.85 94h259.58v34h-259.58zM1018.85 162h259.58v34h-259.58z" fill="#e6e6e6"/><path d="M1018.85 20h259.58v40h-259.58z" fill="#ccc"/><path d="M1018.85 20h259.58v176h-259.58zM1018.85 60h259.58" stroke="#999" fill="none"/><use xlink:href="#b" transform="matrix(1,0,0,1,1023.851128,62.5) translate(0 18.5)"/><use xlink:href="#c" transform="matrix(1,0,0,1,1023.851128,62.5) translate(55.5 18.5)"/><use xlink:href="#d" transform="matrix(1,0,0,1,1023.851128,96.5) translate(0 18.5)"/><use xlink:href="#c" transform="matrix(1,0,0,1,1023.851128,96.5) translate(102.05555555555556 18.5)"/><g><use xlink:href="#e" transform="matrix(1,0,0,1,1023.851128,130.5) translate(0 18.5)"/><use xlink:href="#f" transform="matrix(1,0,0,1,1023.851128,130.5) translate(104.33333333333334 18.5)"/></g><g><use xlink:href="#g" transform="matrix(1,0,0,1,1023.851128,164.5) translate(0 18.5)"/><use xlink:href="#h" transform="matrix(1,0,0,1,1023.851128,164.5) translate(5.555555555555555 18.5)"/><use xlink:href="#i" transform="matrix(1,0,0,1,1023.851128,164.5) translate(17.72222222222222 18.5)"/><use xlink:href="#j" transform="matrix(1,0,0,1,1023.851128,164.5) translate(38.77777777777778 18.5)"/></g></g><path d="M1019.27 21.32h259.16v40.6h-259.16z" stroke="#999" fill="#114b7c"/><use xlink:href="#k" transform="matrix(1,0,0,1,1024.0726536117215,26.121208884378458) translate(52.483333333333334 21.2)"/><g filter="url(#l)"><path d="M1378.85 21.3h179.58v108h-179.58z" fill="#fff"/><path d="M1378.85 95.3h179.58v34h-179.58z" fill="#e6e6e6"/><path d="M1378.85 21.3h179.58v40h-179.58z" fill="#ccc"/><path d="M1378.85 21.3h179.58v108h-179.58zM1378.85 61.3h179.58" stroke="#999" fill="none"/><use xlink:href="#b" transform="matrix(1,0,0,1,1383.851128,63.80125572281531) translate(0 18.5)"/><use xlink:href="#c" transform="matrix(1,0,0,1,1383.851128,63.80125572281531) translate(55.5 18.5)"/><g><use xlink:href="#d" transform="matrix(1,0,0,1,1383.851128,97.80125572281531) translate(0 18.5)"/><use xlink:href="#c" transform="matrix(1,0,0,1,1383.851128,97.80125572281531) translate(102.05555555555556 18.5)"/></g></g><path d="M1378.85 20h179.28v40h-179.28z" stroke="#999" fill="#114b7c"/><use xlink:href="#m" transform="matrix(1,0,0,1,1383.651128,24.8) translate(27.28888888888889 21.1375)"/><path d="M1309.3 145h7.34c6.63 0 12-5.37 12-12V52.5c0-6.63 5.37-12 12-12h37.2" stroke="#999" fill="none"/><path d="M1279.63 145l14.85-14.85 15.15 14.85-15.15 14.85z" stroke="#999" fill="#fff"/><path d="M1378.35 41h-.5v-1h.5z" fill="#999"/><use xlink:href="#n" transform="matrix(1,0,0,1,1337.5431636405265,9.299999999999995) translate(5 19.2)"/><path d="M1148.64 259v-39.5" stroke="#999" fill="none"/><path d="M1149.14 259.5h-1v-.5h1z" fill="#999"/><path d="M1148.64 197.48l12.72 21.52h-25.45z" stroke="#999" fill="#fff"/><use xlink:href="#o" transform="matrix(1,0,0,1,1156.6396102049507,214.3998713178297) translate(5 19.2)"/><g filter="url(#p)"><path d="M949.5 260h399.58v176H949.5z" fill="#fff"/><path d="M949.5 334h399.58v34H949.5zM949.5 402h399.58v34H949.5z" fill="#e6e6e6"/><path d="M949.5 260h399.58v40H949.5z" fill="#ccc"/><path d="M949.5 260h399.58v176H949.5zM949.5 300h399.58" stroke="#999" fill="none"/><use xlink:href="#e" transform="matrix(1,0,0,1,954.4985036838043,302.5) translate(0 18.5)"/><use xlink:href="#f" transform="matrix(1,0,0,1,954.4985036838043,302.5) translate(104.33333333333334 18.5)"/><use xlink:href="#q" transform="matrix(1,0,0,1,954.4985036838043,336.5) translate(0 18.5)"/><use xlink:href="#r" transform="matrix(1,0,0,1,954.4985036838043,336.5) translate(12.166666666666666 18.5)"/><use xlink:href="#s" transform="matrix(1,0,0,1,954.4985036838043,336.5) translate(130.8888888888889 18.5)"/><use xlink:href="#t" transform="matrix(1,0,0,1,954.4985036838043,336.5) translate(175.22222222222223 18.5)"/><use xlink:href="#u" transform="matrix(1,0,0,1,954.4985036838043,336.5) translate(190.77777777777777 18.5)"/><use xlink:href="#t" transform="matrix(1,0,0,1,954.4985036838043,336.5) translate(242.88888888888889 18.5)"/><use xlink:href="#v" transform="matrix(1,0,0,1,954.4985036838043,336.5) translate(258.44444444444446 18.5)"/><use xlink:href="#w" transform="matrix(1,0,0,1,954.4985036838043,336.5) translate(323.94444444444446 18.5)"/><g><use xlink:href="#q" transform="matrix(1,0,0,1,954.4985036838043,370.5) translate(0 18.5)"/><use xlink:href="#x" transform="matrix(1,0,0,1,954.4985036838043,370.5) translate(12.166666666666666 18.5)"/><use xlink:href="#y" transform="matrix(1,0,0,1,954.4985036838043,370.5) translate(117.55555555555557 18.5)"/><use xlink:href="#z" transform="matrix(1,0,0,1,954.4985036838043,370.5) translate(167.44444444444446 18.5)"/><use xlink:href="#A" transform="matrix(1,0,0,1,954.4985036838043,370.5) translate(272.8888888888889 18.5)"/></g><g><use xlink:href="#B" transform="matrix(1,0,0,1,954.4985036838043,404.5) translate(0 18.5)"/><use xlink:href="#C" transform="matrix(1,0,0,1,954.4985036838043,404.5) translate(135.33333333333334 18.5)"/></g></g><path d="M950.15 261.3h398.93v40H950.15z" stroke="#999" fill="#114b7c"/><use xlink:href="#D" transform="matrix(1,0,0,1,954.9473807126908,266.1012557228153) translate(96.81666666666669 21.1375)"/><g filter="url(#E)"><path d="M918.85 500h320v336h-320z" fill="#fff"/><path d="M918.85 574h320v34h-320zM918.85 642h320v34h-320zM918.85 710h320v34h-320zM918.85 778h320v58h-320z" fill="#e6e6e6"/><path d="M918.85 500h320v40h-320z" fill="#ccc"/><path d="M918.85 500h320v336h-320zM918.85 540h320" stroke="#999" fill="none"/><use xlink:href="#b" transform="matrix(1,0,0,1,923.851128,542.5) translate(0 18.5)"/><use xlink:href="#c" transform="matrix(1,0,0,1,923.851128,542.5) translate(55.5 18.5)"/><use xlink:href="#d" transform="matrix(1,0,0,1,923.851128,576.5) translate(0 18.5)"/><use xlink:href="#c" transform="matrix(1,0,0,1,923.851128,576.5) translate(102.05555555555556 18.5)"/><use xlink:href="#F" transform="matrix(1,0,0,1,923.851128,610.5) translate(0 18.5)"/><use xlink:href="#w" transform="matrix(1,0,0,1,923.851128,610.5) translate(166.44444444444446 18.5)"/><use xlink:href="#G" transform="matrix(1,0,0,1,923.851128,644.5) translate(0 18.5)"/><use xlink:href="#c" transform="matrix(1,0,0,1,923.851128,644.5) translate(80.94444444444446 18.5)"/><g><use xlink:href="#H" transform="matrix(1,0,0,1,923.851128,678.5) translate(0 18.5)"/><use xlink:href="#c" transform="matrix(1,0,0,1,923.851128,678.5) translate(74.33333333333334 18.5)"/></g><g><use xlink:href="#I" transform="matrix(1,0,0,1,923.851128,712.5) translate(0 18.5)"/><use xlink:href="#J" transform="matrix(1,0,0,1,923.851128,712.5) translate(144.27777777777777 18.5)"/></g><g><use xlink:href="#K" transform="matrix(1,0,0,1,923.851128,746.5) translate(0 18.5)"/><use xlink:href="#L" transform="matrix(1,0,0,1,923.851128,746.5) translate(63.27777777777777 18.5)"/></g><g><use xlink:href="#M" transform="matrix(1,0,0,1,923.851128,780.5) translate(0 18.5)"/><use xlink:href="#N" transform="matrix(1,0,0,1,923.851128,780.5) translate(118.72222222222223 18.5)"/><use xlink:href="#O" transform="matrix(1,0,0,1,923.851128,780.5) translate(146.5 18.5)"/><use xlink:href="#P" transform="matrix(1,0,0,1,923.851128,780.5) translate(0 42.5)"/><use xlink:href="#Q" transform="matrix(1,0,0,1,923.851128,780.5) translate(12.166666666666666 42.5)"/><use xlink:href="#R" transform="matrix(1,0,0,1,923.851128,780.5) translate(49.888888888888886 42.5)"/><use xlink:href="#S" transform="matrix(1,0,0,1,923.851128,780.5) translate(67.11111111111111 42.5)"/></g></g><path d="M919.37 501.3h319.48v40H919.37z" stroke="#999" fill="#114b7c"/><use xlink:href="#T" transform="matrix(1,0,0,1,924.170777236765,506.1012557228153) translate(84.51111111111112 21.1375)"/><g filter="url(#U)"><path d="M1378.85 701.3h197.73v142h-197.73z" fill="#fff"/><path d="M1378.85 775.3h197.73v34h-197.73z" fill="#e6e6e6"/><path d="M1378.85 701.3h197.73v40h-197.73z" fill="#ccc"/><path d="M1378.85 701.3h197.73v142h-197.73zM1378.85 741.3h197.73" stroke="#999" fill="none"/><use xlink:href="#b" transform="matrix(1,0,0,1,1383.8511280000002,743.8012557228149) translate(0 18.5)"/><use xlink:href="#c" transform="matrix(1,0,0,1,1383.8511280000002,743.8012557228149) translate(55.5 18.5)"/><use xlink:href="#d" transform="matrix(1,0,0,1,1383.8511280000002,777.8012557228149) translate(0 18.5)"/><use xlink:href="#c" transform="matrix(1,0,0,1,1383.8511280000002,777.8012557228149) translate(102.05555555555556 18.5)"/><g><use xlink:href="#V" transform="matrix(1,0,0,1,1383.8511280000002,811.8012557228149) translate(0 18.5)"/><use xlink:href="#c" transform="matrix(1,0,0,1,1383.8511280000002,811.8012557228149) translate(123.16666666666669 18.5)"/></g></g><path d="M1378.85 700h197.4v40h-197.4z" stroke="#999" fill="#114b7c"/><use xlink:href="#W" transform="matrix(1,0,0,1,1383.651128,704.8) translate(56.205555555555556 21.1375)"/><path d="M1239.85 761h57c6.63 0 12-5.37 12-12v-17c0-6.63 5.37-12 12-12h56.6" stroke="#999" fill="none"/><path d="M1239.86 761.5h-.5v-1h.5z" fill="#999"/><path d="M1360.15 730.18l17.22-10.18-17.22-10.18" stroke="#999" fill="none"/><use xlink:href="#X" transform="matrix(1,0,0,1,1254.4980532733616,765) translate(5 19.2)"/><g filter="url(#Y)"><path d="M1339.34 500.65h260v142h-260z" fill="#fff"/><path d="M1339.34 574.65h260v34h-260z" fill="#e6e6e6"/><path d="M1339.34 500.65h260v40h-260z" fill="#ccc"/><path d="M1339.34 500.65h260v142h-260zM1339.34 540.65h260" stroke="#999" fill="none"/><use xlink:href="#b" transform="matrix(1,0,0,1,1344.3389885526174,543.1506278614074) translate(0 18.5)"/><use xlink:href="#c" transform="matrix(1,0,0,1,1344.3389885526174,543.1506278614074) translate(55.5 18.5)"/><use xlink:href="#d" transform="matrix(1,0,0,1,1344.3389885526174,577.1506278614074) translate(0 18.5)"/><use xlink:href="#c" transform="matrix(1,0,0,1,1344.3389885526174,577.1506278614074) translate(102.05555555555556 18.5)"/><g><use xlink:href="#Z" transform="matrix(1,0,0,1,1344.3389885526174,611.1506278614074) translate(0 18.5)"/><use xlink:href="#w" transform="matrix(1,0,0,1,1344.3389885526174,611.1506278614074) translate(160.83333333333331 18.5)"/></g></g><path d="M1339.76 501.95h259.58v40h-259.58z" stroke="#999" fill="#114b7c"/><use xlink:href="#aa" transform="matrix(1,0,0,1,1344.561203557489,506.75188358422275) translate(46.233333333333334 21.1375)"/><path d="M1269.73 727h7.37c6.62 0 12-5.37 12-12V532.65c0-6.63 5.37-12 12-12h37.24" stroke="#999" fill="none"/><path d="M1240.06 727l14.85-14.85 15.16 14.85-15.15 14.85z" stroke="#999" fill="#fff"/><path d="M1338.84 521.15h-.5v-1h.5z" fill="#999"/><use xlink:href="#ab" transform="matrix(1,0,0,1,1289.2674302580394,489.45062786140744) translate(5 19.2)"/><path d="M948.5 419h-58.15c-6.63 0-12 5.37-12 12v77c0 6.63 5.37 12 12 12h27.1" stroke="#999" fill="none"/><path d="M949 419.5h-.5v-1h.5z" fill="#999"/><path d="M900.15 530.18L917.37 520l-17.22-10.18" stroke="#999" fill="none"/><use xlink:href="#X" transform="matrix(1,0,0,1,886.3511280000001,445.88444897909744) translate(5 19.2)"/><g filter="url(#ac)"><path d="M398.85 260h399.58v108H398.85z" fill="#fff"/><path d="M398.85 334h399.58v34H398.85z" fill="#e6e6e6"/><path d="M398.85 260h399.58v40H398.85z" fill="#ccc"/><path d="M398.85 260h399.58v108H398.85zM398.85 300h399.58" stroke="#666" fill="none"/><use xlink:href="#ad" transform="matrix(1,0,0,1,403.8511280000001,302.5) translate(0 18.5)"/><use xlink:href="#ae" transform="matrix(1,0,0,1,403.8511280000001,302.5) translate(55.5 18.5)"/><use xlink:href="#af" transform="matrix(1,0,0,1,403.8511280000001,302.5) translate(72.72222222222223 18.5)"/><g><use xlink:href="#ag" transform="matrix(1,0,0,1,403.8511280000001,336.5) translate(0 18.5)"/><use xlink:href="#ah" transform="matrix(1,0,0,1,403.8511280000001,336.5) translate(185.38888888888886 18.5)"/></g></g><path d="M399.5 261.3h398.93v40H399.5z" stroke="#666" fill="#114b7c"/><use xlink:href="#ai" transform="matrix(1,0,0,1,404.3000050288866,266.1012557228153) translate(94.59444444444446 21.1375)"/><path d="M829.3 351h32.66c6.63 0 12-5.37 12-12v-47c0-6.63 5.38-12 12-12h62.54" stroke="#000" fill="none"/><path d="M799.64 351l14.85-14.85L829.63 351l-15.15 14.85z" stroke="#000" fill="#fff"/><path d="M949 280.5h-.5v-1h.5z"/><use xlink:href="#aj" transform="matrix(1,0,0,1,895.057385485861,283.99999999999994) translate(5 19.2)"/><path d="M330.38 352.3h6.8c6.62 0 12-5.37 12-12V292c0-6.63 5.37-12 12-12h36.67" stroke="#000" fill="none"/><path d="M300.7 352.3l14.86-14.85 15.15 14.85-15.14 14.85z" stroke="#000" fill="#fff"/><path d="M398.35 280.5h-.5v-1h.5z"/><use xlink:href="#ak" transform="matrix(1,0,0,1,357.3263450950378,248.80000000000004) translate(5 19.2)"/><g filter="url(#al)"><path d="M0 262.35h300.65v108H0z" fill="#fff"/><path d="M0 336.35h300.65v34H0z" fill="#e6e6e6"/><path d="M0 262.35h300.65v40H0z" fill="#ccc"/><path d="M0 262.35h300.65v108H0zM0 302.35h300.65" stroke="#666" fill="none"/><use xlink:href="#ad" transform="matrix(1,0,0,1,5,304.84937213859257) translate(0 18.5)"/><use xlink:href="#ae" transform="matrix(1,0,0,1,5,304.84937213859257) translate(55.5 18.5)"/><use xlink:href="#am" transform="matrix(1,0,0,1,5,304.84937213859257) translate(72.72222222222223 18.5)"/><g><use xlink:href="#an" transform="matrix(1,0,0,1,5,338.84937213859257) translate(0 18.5)"/><use xlink:href="#ao" transform="matrix(1,0,0,1,5,338.84937213859257) translate(58.722222222222214 18.5)"/><use xlink:href="#ap" transform="matrix(1,0,0,1,5,338.84937213859257) translate(103.16666666666666 18.5)"/></g></g><path d="M.5 263.65h300.15v40H.5z" stroke="#666" fill="#114b7c"/><use xlink:href="#aq" transform="matrix(1,0,0,1,5.288224865464104,268.4506278614079) translate(3.01111111111112 21.1375)"/><use xlink:href="#ar" transform="matrix(1,0,0,1,5.288224865464104,268.4506278614079) translate(86.17777777777779 21.1375)"/><g filter="url(#as)"><path d="M40.42 80h220.65v108H40.42z" fill="#fff"/><path d="M40.42 154h220.65v34H40.42z" fill="#e6e6e6"/><path d="M40.42 80h220.65v40H40.42z" fill="#ccc"/><path d="M40.42 80h220.65v108H40.42zM40.42 120h220.65" stroke="#666" fill="none"/><use xlink:href="#ad" transform="matrix(1,0,0,1,45.42326871086843,122.5) translate(0 18.5)"/><use xlink:href="#at" transform="matrix(1,0,0,1,45.42326871086843,122.5) translate(55.5 18.5)"/><g><use xlink:href="#an" transform="matrix(1,0,0,1,45.42326871086843,156.5) translate(0 18.5)"/><use xlink:href="#ao" transform="matrix(1,0,0,1,45.42326871086843,156.5) translate(58.722222222222214 18.5)"/><use xlink:href="#ap" transform="matrix(1,0,0,1,45.42326871086843,156.5) translate(103.16666666666666 18.5)"/></g></g><path d="M40.78 81.3h220.3v40H40.77z" stroke="#666" fill="#114b7c"/><use xlink:href="#au" transform="matrix(1,0,0,1,45.58158126714122,86.10125572281531) translate(11.205555555555563 21.1375)"/><path d="M150.57 262.65v-5.68m0-5.7v-11.35m0-5.7v-11.35m0-5.7v-5.67" stroke="#000" fill="none"/><path d="M151.07 263.15h-1v-.5h1z"/><path d="M150.57 189.48L163.3 211h-25.46z" stroke="#000" fill="#fff"/><use xlink:href="#av" transform="matrix(1,0,0,1,158.5685485091351,211.63180441626974) translate(13.61611111111111 19.2)"/><use xlink:href="#aw" transform="matrix(1,0,0,1,158.5685485091351,211.63180441626974) translate(39.977222222222224 43.2)"/><defs><path fill="#999" d="M117-194c89-4 53 116 60 194h-32v-121c0-31-8-49-39-48C34-167 62-67 57 0H25l-1-190h30c1 10-1 24 2 32 11-22 29-35 61-36" id="ax"/><path fill="#999" d="M141-36C126-15 110 5 73 4 37 3 15-17 15-53c-1-64 63-63 125-63 3-35-9-54-41-54-24 1-41 7-42 31l-33-3c5-37 33-52 76-52 45 0 72 20 72 64v82c-1 20 7 32 28 27v20c-31 9-61-2-59-35zM48-53c0 20 12 33 32 33 41-3 63-29 60-74-43 2-92-5-92 41" id="ay"/><path fill="#999" d="M210-169c-67 3-38 105-44 169h-31v-121c0-29-5-50-35-48C34-165 62-65 56 0H25l-1-190h30c1 10-1 24 2 32 10-44 99-50 107 0 11-21 27-35 58-36 85-2 47 119 55 194h-31v-121c0-29-5-49-35-48" id="az"/><path fill="#999" d="M100-194c63 0 86 42 84 106H49c0 40 14 67 53 68 26 1 43-12 49-29l28 8c-11 28-37 45-77 45C44 4 14-33 15-96c1-61 26-98 85-98zm52 81c6-60-76-77-97-28-3 7-6 17-6 28h103" id="aA"/><g id="b"><use transform="matrix(0.05555555555555555,0,0,0.05555555555555555,0,0)" xlink:href="#ax"/><use transform="matrix(0.05555555555555555,0,0,0.05555555555555555,11.11111111111111,0)" xlink:href="#ay"/><use transform="matrix(0.05555555555555555,0,0,0.05555555555555555,22.22222222222222,0)" xlink:href="#az"/><use transform="matrix(0.05555555555555555,0,0,0.05555555555555555,38.83333333333333,0)" xlink:href="#aA"/></g><path fill="#999" d="M87 75C49 33 22-17 22-94c0-76 28-126 65-167h31c-38 41-64 92-64 168S80 34 118 75H87" id="aB"/><path fill="#999" d="M59-47c-2 24 18 29 38 22v24C64 9 27 4 27-40v-127H5v-23h24l9-43h21v43h35v23H59v120" id="aC"/><path fill="#999" d="M141 0L90-78 38 0H4l68-98-65-92h35l48 74 47-74h35l-64 92 68 98h-35" id="aD"/><path fill="#999" d="M33-261c38 41 65 92 65 168S71 34 33 75H2C39 34 66-17 66-93S39-220 2-261h31" id="aE"/><g id="c"><use transform="matrix(0.05555555555555555,0,0,0.05555555555555555,0,0)" xlink:href="#aB"/><use transform="matrix(0.05555555555555555,0,0,0.05555555555555555,6.611111111111111,0)" xlink:href="#aC"/><use transform="matrix(0.05555555555555555,0,0,0.05555555555555555,12.166666666666666,0)" xlink:href="#aA"/><use transform="matrix(0.05555555555555555,0,0,0.05555555555555555,23.27777777777778,0)" xlink:href="#aD"/><use transform="matrix(0.05555555555555555,0,0,0.05555555555555555,33.27777777777778,0)" xlink:href="#aC"/><use transform="matrix(0.05555555555555555,0,0,0.05555555555555555,38.833333333333336,0)" xlink:href="#aE"/></g><path fill="#999" d="M85-194c31 0 48 13 60 33l-1-100h32l1 261h-30c-2-10 0-23-3-31C134-8 116 4 85 4 32 4 16-35 15-94c0-66 23-100 70-100zm9 24c-40 0-46 34-46 75 0 40 6 74 45 74 42 0 51-32 51-76 0-42-9-74-50-73" id="aF"/><path fill="#999" d="M135-143c-3-34-86-38-87 0 15 53 115 12 119 90S17 21 10-45l28-5c4 36 97 45 98 0-10-56-113-15-118-90-4-57 82-63 122-42 12 7 21 19 24 35" id="aG"/><path fill="#999" d="M96-169c-40 0-48 33-48 73s9 75 48 75c24 0 41-14 43-38l32 2c-6 37-31 61-74 61-59 0-76-41-82-99-10-93 101-131 147-64 4 7 5 14 7 22l-32 3c-4-21-16-35-41-35" id="aH"/><path fill="#999" d="M114-163C36-179 61-72 57 0H25l-1-190h30c1 12-1 29 2 39 6-27 23-49 58-41v29" id="aI"/><path fill="#999" d="M24-231v-30h32v30H24zM24 0v-190h32V0H24" id="aJ"/><path fill="#999" d="M115-194c55 1 70 41 70 98S169 2 115 4C84 4 66-9 55-30l1 105H24l-1-265h31l2 30c10-21 28-34 59-34zm-8 174c40 0 45-34 45-75s-6-73-45-74c-42 0-51 32-51 76 0 43 10 73 51 73" id="aK"/><path fill="#999" d="M100-194c62-1 85 37 85 99 1 63-27 99-86 99S16-35 15-95c0-66 28-99 85-99zM99-20c44 1 53-31 53-75 0-43-8-75-51-75s-53 32-53 75 10 74 51 75" id="aL"/><g id="d"><use transform="matrix(0.05555555555555555,0,0,0.05555555555555555,0,0)" xlink:href="#aF"/><use transform="matrix(0.05555555555555555,0,0,0.05555555555555555,11.11111111111111,0)" xlink:href="#aA"/><use transform="matrix(0.05555555555555555,0,0,0.05555555555555555,22.22222222222222,0)" xlink:href="#aG"/><use transform="matrix(0.05555555555555555,0,0,0.05555555555555555,32.22222222222222,0)" xlink:href="#aH"/><use transform="matrix(0.05555555555555555,0,0,0.05555555555555555,42.22222222222222,0)" xlink:href="#aI"/><use transform="matrix(0.05555555555555555,0,0,0.05555555555555555,48.83333333333333,0)" xlink:href="#aJ"/><use transform="matrix(0.05555555555555555,0,0,0.05555555555555555,53.222222222222214,0)" xlink:href="#aK"/><use transform="matrix(0.05555555555555555,0,0,0.05555555555555555,64.33333333333333,0)" xlink:href="#aC"/><use transform="matrix(0.05555555555555555,0,0,0.05555555555555555,69.88888888888889,0)" xlink:href="#aJ"/><use transform="matrix(0.05555555555555555,0,0,0.05555555555555555,74.27777777777777,0)" xlink:href="#aL"/><use transform="matrix(0.05555555555555555,0,0,0.05555555555555555,85.38888888888889,0)" xlink:href="#ax"/></g><path fill="#999" d="M137 0h-34L2-248h35l83 218 83-218h36" id="aM"/><path fill="#999" d="M30-248c118-7 216 8 213 122C240-48 200 0 122 0H30v-248zM63-27c89 8 146-16 146-99s-60-101-146-95v194" id="aN"/><g id="e"><use transform="matrix(0.05555555555555555,0,0,0.05555555555555555,0,0)" xlink:href="#aM"/><use transform="matrix(0.05555555555555555,0,0,0.05555555555555555,12.222222222222221,0)" xlink:href="#aA"/><use transform="matrix(0.05555555555555555,0,0,0.05555555555555555,23.333333333333332,0)" xlink:href="#aH"/><use transform="matrix(0.05555555555555555,0,0,0.05555555555555555,33.33333333333333,0)" xlink:href="#aC"/><use transform="matrix(0.05555555555555555,0,0,0.05555555555555555,38.888888888888886,0)" xlink:href="#aL"/><use transform="matrix(0.05555555555555555,0,0,0.05555555555555555,50,0)" xlink:href="#aI"/><use transform="matrix(0.05555555555555555,0,0,0.05555555555555555,56.611111111111114,0)" xlink:href="#aN"/><use transform="matrix(0.05555555555555555,0,0,0.05555555555555555,71,0)" xlink:href="#ay"/><use transform="matrix(0.05555555555555555,0,0,0.05555555555555555,82.11111111111111,0)" xlink:href="#aC"/><use transform="matrix(0.05555555555555555,0,0,0.05555555555555555,87.66666666666667,0)" xlink:href="#ay"/></g><path fill="#999" d="M24 0v-261h32V0H24" id="aO"/><path fill="#999" d="M84 4C-5 8 30-112 23-190h32v120c0 31 7 50 39 49 72-2 45-101 50-169h31l1 190h-30c-1-10 1-25-2-33-11 22-28 36-60 37" id="aP"/><path fill="#999" d="M33-154v-36h34v36H33zM33 0v-36h34V0H33" id="aQ"/><g id="f"><use transform="matrix(0.05555555555555555,0,0,0.05555555555555555,0,0)" xlink:href="#aH"/><use transform="matrix(0.05555555555555555,0,0,0.05555555555555555,10,0)" xlink:href="#aL"/><use transform="matrix(0.05555555555555555,0,0,0.05555555555555555,21.11111111111111,0)" xlink:href="#aO"/><use transform="matrix(0.05555555555555555,0,0,0.05555555555555555,25.5,0)" xlink:href="#aP"/><use transform="matrix(0.05555555555555555,0,0,0.05555555555555555,36.611111111111114,0)" xlink:href="#az"/><use transform="matrix(0.05555555555555555,0,0,0.05555555555555555,53.22222222222223,0)" xlink:href="#ax"/><use transform="matrix(0.05555555555555555,0,0,0.05555555555555555,64.33333333333334,0)" xlink:href="#aG"/><use transform="matrix(0.05555555555555555,0,0,0.05555555555555555,74.33333333333334,0)" xlink:href="#aQ"/></g><path fill="#999" d="M16-82v-28h88v28H16" id="aR"/><use transform="matrix(0.05555555555555555,0,0,0.05555555555555555,0,0)" xlink:href="#aR" id="h"/><g id="i"><use transform="matrix(0.05555555555555555,0,0,0.05555555555555555,0,0)" xlink:href="#aJ"/><use transform="matrix(0.05555555555555555,0,0,0.05555555555555555,4.388888888888888,0)" xlink:href="#aF"/></g><g id="j"><use transform="matrix(0.05555555555555555,0,0,0.05555555555555555,0,0)" xlink:href="#aB"/><use transform="matrix(0.05555555555555555,0,0,0.05555555555555555,6.611111111111111,0)" xlink:href="#aJ"/><use transform="matrix(0.05555555555555555,0,0,0.05555555555555555,11,0)" xlink:href="#ax"/><use transform="matrix(0.05555555555555555,0,0,0.05555555555555555,22.11111111111111,0)" xlink:href="#aC"/><use transform="matrix(0.05555555555555555,0,0,0.05555555555555555,27.666666666666664,0)" xlink:href="#aE"/></g><filter id="a" filterUnits="objectBoundingBox" x="-.01" y="-.02" width="1.04" height="1.06"><feOffset result="offOut" in="SourceAlpha" dx="2.12" dy="2.12"/><feGaussianBlur result="blurOut" in="offOut" stdDeviation="2.5"/><feColorMatrix result="colorOut" in="blurOut" values="0 0 0 0 0 0 0 0 0 0 0 0 0 0 0 0 0 0 0.5019607843137255 0"/><feBlend in="SourceGraphic" in2="colorOut"/></filter><path fill="#999" d="M24-248c120-7 223 5 221 122C244-46 201 0 124 0H24v-248zM76-40c74 7 117-18 117-86 0-67-45-88-117-82v168" id="aS"/><path fill="#999" d="M123 10C108 53 80 86 19 72V37c35 8 53-11 59-39L3-190h52l48 148c12-52 28-100 44-148h51" id="aT"/><path fill="#999" d="M135-194c87-1 58 113 63 194h-50c-7-57 23-157-34-157-59 0-34 97-39 157H25l-1-190h47c2 12-1 28 3 38 12-26 28-41 61-42" id="aU"/><path fill="#999" d="M133-34C117-15 103 5 69 4 32 3 11-16 11-54c-1-60 55-63 116-61 1-26-3-47-28-47-18 1-26 9-28 27l-52-2c7-38 36-58 82-57s74 22 75 68l1 82c-1 14 12 18 25 15v27c-30 8-71 5-69-32zm-48 3c29 0 43-24 42-57-32 0-66-3-65 30 0 17 8 27 23 27" id="aV"/><path fill="#999" d="M220-157c-53 9-28 100-34 157h-49v-107c1-27-5-49-29-50C55-147 81-57 75 0H25l-1-190h47c2 12-1 28 3 38 10-53 101-56 108 0 13-22 24-43 59-42 82 1 51 116 57 194h-49v-107c-1-25-5-48-29-50" id="aW"/><path fill="#999" d="M25-224v-37h50v37H25zM25 0v-190h50V0H25" id="aX"/><path fill="#999" d="M190-63c-7 42-38 67-86 67-59 0-84-38-90-98-12-110 154-137 174-36l-49 2c-2-19-15-32-35-32-30 0-35 28-38 64-6 74 65 87 74 30" id="aY"/><path fill="#999" d="M136-208V0H84v-208H4v-40h212v40h-80" id="aZ"/><path fill="#999" d="M135-194c52 0 70 43 70 98 0 56-19 99-73 100-30 1-46-15-58-35L72 0H24l1-261h50v104c11-23 29-37 60-37zM114-30c31 0 40-27 40-66 0-37-7-63-39-63s-41 28-41 65c0 36 8 64 40 64" id="ba"/><path fill="#999" d="M25 0v-261h50V0H25" id="bb"/><path fill="#999" d="M185-48c-13 30-37 53-82 52C43 2 14-33 14-96s30-98 90-98c62 0 83 45 84 108H66c0 31 8 55 39 56 18 0 30-7 34-22zm-45-69c5-46-57-63-70-21-2 6-4 13-4 21h74" id="bc"/><g id="k"><use transform="matrix(0.05555555555555555,0,0,0.05555555555555555,0,0)" xlink:href="#aS"/><use transform="matrix(0.05555555555555555,0,0,0.05555555555555555,14.388888888888888,0)" xlink:href="#aT"/><use transform="matrix(0.05555555555555555,0,0,0.05555555555555555,25.5,0)" xlink:href="#aU"/><use transform="matrix(0.05555555555555555,0,0,0.05555555555555555,37.666666666666664,0)" xlink:href="#aV"/><use transform="matrix(0.05555555555555555,0,0,0.05555555555555555,48.77777777777777,0)" xlink:href="#aW"/><use transform="matrix(0.05555555555555555,0,0,0.05555555555555555,66.55555555555554,0)" xlink:href="#aX"/><use transform="matrix(0.05555555555555555,0,0,0.05555555555555555,72.1111111111111,0)" xlink:href="#aY"/><use transform="matrix(0.05555555555555555,0,0,0.05555555555555555,83.22222222222221,0)" xlink:href="#aZ"/><use transform="matrix(0.05555555555555555,0,0,0.05555555555555555,93.88888888888889,0)" xlink:href="#aV"/><use transform="matrix(0.05555555555555555,0,0,0.05555555555555555,105,0)" xlink:href="#ba"/><use transform="matrix(0.05555555555555555,0,0,0.05555555555555555,117.16666666666666,0)" xlink:href="#bb"/><use transform="matrix(0.05555555555555555,0,0,0.05555555555555555,122.72222222222224,0)" xlink:href="#bc"/><path fill="#999" d="M-1 1.07h135.83v2.1H-1z"/></g><filter id="l" filterUnits="objectBoundingBox" x="-.02" y="-.03" width="1.06" height="1.09"><feOffset result="offOut" in="SourceAlpha" dx="2.12" dy="2.12"/><feGaussianBlur result="blurOut" in="offOut" stdDeviation="2.5"/><feColorMatrix result="colorOut" in="blurOut" values="0 0 0 0 0 0 0 0 0 0 0 0 0 0 0 0 0 0 0.5019607843137255 0"/><feBlend in="SourceGraphic" in2="colorOut"/></filter><path fill="#999" d="M147 0H94L2-248h55l64 206c17-72 42-137 63-206h54" id="bd"/><path fill="#999" d="M115-3C79 11 28 4 28-45v-112H4v-33h27l15-45h31v45h36v33H77v99c-1 23 16 31 38 25v30" id="be"/><path fill="#999" d="M110-194c64 0 96 36 96 99 0 64-35 99-97 99-61 0-95-36-95-99 0-62 34-99 96-99zm-1 164c35 0 45-28 45-65 0-40-10-65-43-65-34 0-45 26-45 65 0 36 10 65 43 65" id="bf"/><path fill="#999" d="M135-150c-39-12-60 13-60 57V0H25l-1-190h47c2 13-1 29 3 40 6-28 27-53 61-41v41" id="bg"/><g id="m"><use transform="matrix(0.05555555555555555,0,0,0.05555555555555555,0,0)" xlink:href="#bd"/><use transform="matrix(0.05555555555555555,0,0,0.05555555555555555,12.222222222222221,0)" xlink:href="#bc"/><use transform="matrix(0.05555555555555555,0,0,0.05555555555555555,23.333333333333332,0)" xlink:href="#aY"/><use transform="matrix(0.05555555555555555,0,0,0.05555555555555555,34.44444444444444,0)" xlink:href="#be"/><use transform="matrix(0.05555555555555555,0,0,0.05555555555555555,41.05555555555556,0)" xlink:href="#bf"/><use transform="matrix(0.05555555555555555,0,0,0.05555555555555555,53.22222222222222,0)" xlink:href="#bg"/><use transform="matrix(0.05555555555555555,0,0,0.05555555555555555,61,0)" xlink:href="#aS"/><use transform="matrix(0.05555555555555555,0,0,0.05555555555555555,75.38888888888889,0)" xlink:href="#aV"/><use transform="matrix(0.05555555555555555,0,0,0.05555555555555555,86.5,0)" xlink:href="#be"/><use transform="matrix(0.05555555555555555,0,0,0.05555555555555555,93.11111111111111,0)" xlink:href="#aV"/><path fill="#999" d="M-1 1.07h106.22v2.1H-1z"/></g><path fill="#999" d="M101-251c68 0 85 55 85 127S166 4 100 4C33 4 14-52 14-124c0-73 17-127 87-127zm-1 229c47 0 54-49 54-102s-4-102-53-102c-51 0-55 48-55 102 0 53 5 102 54 102" id="bh"/><path fill="#999" d="M33 0v-38h34V0H33" id="bi"/><path fill="#999" d="M80-196l47-18 7 23-49 13 32 44-20 13-27-46-27 45-21-12 33-44-49-13 8-23 47 19-2-53h23" id="bj"/><g id="n"><use transform="matrix(0.05555555555555555,0,0,0.05555555555555555,0,0)" xlink:href="#bh"/><use transform="matrix(0.05555555555555555,0,0,0.05555555555555555,11.11111111111111,0)" xlink:href="#bi"/><use transform="matrix(0.05555555555555555,0,0,0.05555555555555555,16.666666666666664,0)" xlink:href="#bi"/><use transform="matrix(0.05555555555555555,0,0,0.05555555555555555,22.22222222222222,0)" xlink:href="#bj"/></g><g id="o"><use transform="matrix(0.05555555555555555,0,0,0.05555555555555555,0,0)" xlink:href="#aA"/><use transform="matrix(0.05555555555555555,0,0,0.05555555555555555,11.11111111111111,0)" xlink:href="#aD"/><use transform="matrix(0.05555555555555555,0,0,0.05555555555555555,21.11111111111111,0)" xlink:href="#aC"/><use transform="matrix(0.05555555555555555,0,0,0.05555555555555555,26.666666666666664,0)" xlink:href="#aA"/><use transform="matrix(0.05555555555555555,0,0,0.05555555555555555,37.77777777777777,0)" xlink:href="#ax"/><use transform="matrix(0.05555555555555555,0,0,0.05555555555555555,48.888888888888886,0)" xlink:href="#aF"/><use transform="matrix(0.05555555555555555,0,0,0.05555555555555555,60,0)" xlink:href="#aG"/></g><use transform="matrix(0.05555555555555555,0,0,0.05555555555555555,0,0)" xlink:href="#aR" id="q"/><path fill="#999" d="M177-190C167-65 218 103 67 71c-23-6-38-20-44-43l32-5c15 47 100 32 89-28v-30C133-14 115 1 83 1 29 1 15-40 15-95c0-56 16-97 71-98 29-1 48 16 59 35 1-10 0-23 2-32h30zM94-22c36 0 50-32 50-73 0-42-14-75-50-75-39 0-46 34-46 75s6 73 46 73" id="bk"/><path fill="#999" d="M-5 72V49h209v23H-5" id="bl"/><path fill="#999" d="M143 0L79-87 56-68V0H24v-261h32v163l83-92h37l-77 82L181 0h-38" id="bm"/><g id="r"><use transform="matrix(0.05555555555555555,0,0,0.05555555555555555,0,0)" xlink:href="#aJ"/><use transform="matrix(0.05555555555555555,0,0,0.05555555555555555,4.388888888888888,0)" xlink:href="#az"/><use transform="matrix(0.05555555555555555,0,0,0.05555555555555555,21,0)" xlink:href="#ay"/><use transform="matrix(0.05555555555555555,0,0,0.05555555555555555,32.111111111111114,0)" xlink:href="#bk"/><use transform="matrix(0.05555555555555555,0,0,0.05555555555555555,43.22222222222223,0)" xlink:href="#aA"/><use transform="matrix(0.05555555555555555,0,0,0.05555555555555555,54.33333333333334,0)" xlink:href="#bl"/><use transform="matrix(0.05555555555555555,0,0,0.05555555555555555,65.44444444444446,0)" xlink:href="#az"/><use transform="matrix(0.05555555555555555,0,0,0.05555555555555555,82.05555555555557,0)" xlink:href="#ay"/><use transform="matrix(0.05555555555555555,0,0,0.05555555555555555,93.16666666666669,0)" xlink:href="#aG"/><use transform="matrix(0.05555555555555555,0,0,0.05555555555555555,103.16666666666669,0)" xlink:href="#bm"/></g><path fill="#999" d="M26 75v-336h71v23H56V52h41v23H26" id="bn"/><g id="s"><use transform="matrix(0.05555555555555555,0,0,0.05555555555555555,0,0)" xlink:href="#bn"/><use transform="matrix(0.05555555555555555,0,0,0.05555555555555555,5.555555555555555,0)" xlink:href="#ax"/><use transform="matrix(0.05555555555555555,0,0,0.05555555555555555,16.666666666666664,0)" xlink:href="#aI"/><use transform="matrix(0.05555555555555555,0,0,0.05555555555555555,23.277777777777775,0)" xlink:href="#aL"/><use transform="matrix(0.05555555555555555,0,0,0.05555555555555555,34.388888888888886,0)" xlink:href="#aJ"/></g><use transform="matrix(0.05555555555555555,0,0,0.05555555555555555,0,0)" xlink:href="#aD" id="t"/><path fill="#999" d="M206 0h-36l-40-164L89 0H53L-1-190h32L70-26l43-164h34l41 164 42-164h31" id="bo"/><path fill="#999" d="M106-169C34-169 62-67 57 0H25v-261h32l-1 103c12-21 28-36 61-36 89 0 53 116 60 194h-32v-121c2-32-8-49-39-48" id="bp"/><g id="u"><use transform="matrix(0.05555555555555555,0,0,0.05555555555555555,0,0)" xlink:href="#bo"/><use transform="matrix(0.05555555555555555,0,0,0.05555555555555555,14.388888888888888,0)" xlink:href="#aJ"/><use transform="matrix(0.05555555555555555,0,0,0.05555555555555555,18.777777777777775,0)" xlink:href="#aF"/><use transform="matrix(0.05555555555555555,0,0,0.05555555555555555,29.888888888888886,0)" xlink:href="#aC"/><use transform="matrix(0.05555555555555555,0,0,0.05555555555555555,35.44444444444444,0)" xlink:href="#bp"/></g><path fill="#999" d="M3 75V52h41v-290H3v-23h71V75H3" id="bq"/><g id="v"><use transform="matrix(0.05555555555555555,0,0,0.05555555555555555,0,0)" xlink:href="#bp"/><use transform="matrix(0.05555555555555555,0,0,0.05555555555555555,11.11111111111111,0)" xlink:href="#aA"/><use transform="matrix(0.05555555555555555,0,0,0.05555555555555555,22.22222222222222,0)" xlink:href="#aJ"/><use transform="matrix(0.05555555555555555,0,0,0.05555555555555555,26.61111111111111,0)" xlink:href="#bk"/><use transform="matrix(0.05555555555555555,0,0,0.05555555555555555,37.72222222222222,0)" xlink:href="#bp"/><use transform="matrix(0.05555555555555555,0,0,0.05555555555555555,48.83333333333333,0)" xlink:href="#aC"/><use transform="matrix(0.05555555555555555,0,0,0.05555555555555555,54.388888888888886,0)" xlink:href="#bq"/></g><path fill="#999" d="M101-234c-31-9-42 10-38 44h38v23H63V0H32v-167H5v-23h27c-7-52 17-82 69-68v24" id="br"/><g id="w"><use transform="matrix(0.05555555555555555,0,0,0.05555555555555555,0,0)" xlink:href="#aB"/><use transform="matrix(0.05555555555555555,0,0,0.05555555555555555,6.611111111111111,0)" xlink:href="#br"/><use transform="matrix(0.05555555555555555,0,0,0.05555555555555555,12.166666666666666,0)" xlink:href="#aO"/><use transform="matrix(0.05555555555555555,0,0,0.05555555555555555,16.555555555555554,0)" xlink:href="#aL"/><use transform="matrix(0.05555555555555555,0,0,0.05555555555555555,27.666666666666664,0)" xlink:href="#ay"/><use transform="matrix(0.05555555555555555,0,0,0.05555555555555555,38.77777777777777,0)" xlink:href="#aC"/><use transform="matrix(0.05555555555555555,0,0,0.05555555555555555,44.33333333333333,0)" xlink:href="#aE"/></g><g id="x"><use transform="matrix(0.05555555555555555,0,0,0.05555555555555555,0,0)" xlink:href="#aK"/><use transform="matrix(0.05555555555555555,0,0,0.05555555555555555,11.11111111111111,0)" xlink:href="#aJ"/><use transform="matrix(0.05555555555555555,0,0,0.05555555555555555,15.5,0)" xlink:href="#aD"/><use transform="matrix(0.05555555555555555,0,0,0.05555555555555555,25.5,0)" xlink:href="#aA"/><use transform="matrix(0.05555555555555555,0,0,0.05555555555555555,36.611111111111114,0)" xlink:href="#aO"/><use transform="matrix(0.05555555555555555,0,0,0.05555555555555555,41,0)" xlink:href="#bl"/><use transform="matrix(0.05555555555555555,0,0,0.05555555555555555,52.111111111111114,0)" xlink:href="#az"/><use transform="matrix(0.05555555555555555,0,0,0.05555555555555555,68.72222222222223,0)" xlink:href="#ay"/><use transform="matrix(0.05555555555555555,0,0,0.05555555555555555,79.83333333333334,0)" xlink:href="#aG"/><use transform="matrix(0.05555555555555555,0,0,0.05555555555555555,89.83333333333334,0)" xlink:href="#bm"/></g><g id="y"><use transform="matrix(0.05555555555555555,0,0,0.05555555555555555,0,0)" xlink:href="#bn"/><use transform="matrix(0.05555555555555555,0,0,0.05555555555555555,5.555555555555555,0)" xlink:href="#ax"/><use transform="matrix(0.05555555555555555,0,0,0.05555555555555555,16.666666666666664,0)" xlink:href="#aI"/><use transform="matrix(0.05555555555555555,0,0,0.05555555555555555,23.277777777777775,0)" xlink:href="#aL"/><use transform="matrix(0.05555555555555555,0,0,0.05555555555555555,34.388888888888886,0)" xlink:href="#aJ"/><use transform="matrix(0.05555555555555555,0,0,0.05555555555555555,38.77777777777777,0)" xlink:href="#bq"/></g><g id="z"><use transform="matrix(0.05555555555555555,0,0,0.05555555555555555,0,0)" xlink:href="#aB"/><use transform="matrix(0.05555555555555555,0,0,0.05555555555555555,6.611111111111111,0)" xlink:href="#aH"/><use transform="matrix(0.05555555555555555,0,0,0.05555555555555555,16.61111111111111,0)" xlink:href="#aL"/><use transform="matrix(0.05555555555555555,0,0,0.05555555555555555,27.72222222222222,0)" xlink:href="#az"/><use transform="matrix(0.05555555555555555,0,0,0.05555555555555555,44.33333333333333,0)" xlink:href="#aK"/><use transform="matrix(0.05555555555555555,0,0,0.05555555555555555,55.44444444444444,0)" xlink:href="#aL"/><use transform="matrix(0.05555555555555555,0,0,0.05555555555555555,66.55555555555556,0)" xlink:href="#aP"/><use transform="matrix(0.05555555555555555,0,0,0.05555555555555555,77.66666666666667,0)" xlink:href="#ax"/><use transform="matrix(0.05555555555555555,0,0,0.05555555555555555,88.77777777777779,0)" xlink:href="#aF"/></g><path fill="#999" d="M179-190L93 31C79 59 56 82 12 73V49c39 6 53-20 64-50L1-190h34L92-34l54-156h33" id="bs"/><g id="A"><use transform="matrix(0.05555555555555555,0,0,0.05555555555555555,0,0)" xlink:href="#aC"/><use transform="matrix(0.05555555555555555,0,0,0.05555555555555555,5.555555555555555,0)" xlink:href="#bs"/><use transform="matrix(0.05555555555555555,0,0,0.05555555555555555,15.555555555555555,0)" xlink:href="#aK"/><use transform="matrix(0.05555555555555555,0,0,0.05555555555555555,26.666666666666664,0)" xlink:href="#aA"/><use transform="matrix(0.05555555555555555,0,0,0.05555555555555555,37.77777777777777,0)" xlink:href="#aE"/></g><g id="B"><use transform="matrix(0.05555555555555555,0,0,0.05555555555555555,0,0)" xlink:href="#aJ"/><use transform="matrix(0.05555555555555555,0,0,0.05555555555555555,4.388888888888888,0)" xlink:href="#az"/><use transform="matrix(0.05555555555555555,0,0,0.05555555555555555,21,0)" xlink:href="#ay"/><use transform="matrix(0.05555555555555555,0,0,0.05555555555555555,32.111111111111114,0)" xlink:href="#bk"/><use transform="matrix(0.05555555555555555,0,0,0.05555555555555555,43.22222222222223,0)" xlink:href="#aJ"/><use transform="matrix(0.05555555555555555,0,0,0.05555555555555555,47.611111111111114,0)" xlink:href="#ax"/><use transform="matrix(0.05555555555555555,0,0,0.05555555555555555,58.72222222222223,0)" xlink:href="#bk"/><use transform="matrix(0.05555555555555555,0,0,0.05555555555555555,69.83333333333334,0)" xlink:href="#bl"/><use transform="matrix(0.05555555555555555,0,0,0.05555555555555555,80.94444444444446,0)" xlink:href="#aK"/><use transform="matrix(0.05555555555555555,0,0,0.05555555555555555,92.05555555555557,0)" xlink:href="#aO"/><use transform="matrix(0.05555555555555555,0,0,0.05555555555555555,96.44444444444446,0)" xlink:href="#ay"/><use transform="matrix(0.05555555555555555,0,0,0.05555555555555555,107.55555555555557,0)" xlink:href="#ax"/><use transform="matrix(0.05555555555555555,0,0,0.05555555555555555,118.66666666666669,0)" xlink:href="#aA"/></g><path fill="#999" d="M33 0v-248h34V0H33" id="bt"/><path fill="#999" d="M30-248c87 1 191-15 191 75 0 78-77 80-158 76V0H30v-248zm33 125c57 0 124 11 124-50 0-59-68-47-124-48v98" id="bu"/><g id="C"><use transform="matrix(0.05555555555555555,0,0,0.05555555555555555,0,0)" xlink:href="#aB"/><use transform="matrix(0.05555555555555555,0,0,0.05555555555555555,6.611111111111111,0)" xlink:href="#bt"/><use transform="matrix(0.05555555555555555,0,0,0.05555555555555555,12.166666666666666,0)" xlink:href="#az"/><use transform="matrix(0.05555555555555555,0,0,0.05555555555555555,28.777777777777775,0)" xlink:href="#ay"/><use transform="matrix(0.05555555555555555,0,0,0.05555555555555555,39.888888888888886,0)" xlink:href="#bk"/><use transform="matrix(0.05555555555555555,0,0,0.05555555555555555,51,0)" xlink:href="#aJ"/><use transform="matrix(0.05555555555555555,0,0,0.05555555555555555,55.388888888888886,0)" xlink:href="#ax"/><use transform="matrix(0.05555555555555555,0,0,0.05555555555555555,66.5,0)" xlink:href="#bk"/><use transform="matrix(0.05555555555555555,0,0,0.05555555555555555,77.61111111111111,0)" xlink:href="#bu"/><use transform="matrix(0.05555555555555555,0,0,0.05555555555555555,90.94444444444444,0)" xlink:href="#aO"/><use transform="matrix(0.05555555555555555,0,0,0.05555555555555555,95.33333333333333,0)" xlink:href="#ay"/><use transform="matrix(0.05555555555555555,0,0,0.05555555555555555,106.44444444444444,0)" xlink:href="#ax"/><use transform="matrix(0.05555555555555555,0,0,0.05555555555555555,117.55555555555554,0)" xlink:href="#aA"/><use transform="matrix(0.05555555555555555,0,0,0.05555555555555555,128.66666666666666,0)" xlink:href="#aE"/></g><filter id="p" filterUnits="objectBoundingBox" x="-.01" y="-.02" width="1.03" height="1.06"><feOffset result="offOut" in="SourceAlpha" dx="2.12" dy="2.12"/><feGaussianBlur result="blurOut" in="offOut" stdDeviation="2.5"/><feColorMatrix result="colorOut" in="blurOut" values="0 0 0 0 0 0 0 0 0 0 0 0 0 0 0 0 0 0 0.5019607843137255 0"/><feBlend in="SourceGraphic" in2="colorOut"/></filter><path fill="#999" d="M24-248c93 1 206-16 204 79-1 75-69 88-152 82V0H24v-248zm52 121c47 0 100 7 100-41 0-47-54-39-100-39v80" id="bv"/><path fill="#999" d="M169-182c-1-43-94-46-97-3 18 66 151 10 154 114 3 95-165 93-204 36-6-8-10-19-12-30l50-8c3 46 112 56 116 5-17-69-150-10-154-114-4-87 153-88 188-35 5 8 8 18 10 28" id="bw"/><path fill="#999" d="M195-6C206 82 75 100 31 46c-4-6-6-13-8-21l49-6c3 16 16 24 34 25 40 0 42-37 40-79-11 22-30 35-61 35-53 0-70-43-70-97 0-56 18-96 73-97 30 0 46 14 59 34l2-30h47zm-90-29c32 0 41-27 41-63 0-35-9-62-40-62-32 0-39 29-40 63 0 36 9 62 39 62" id="bx"/><g id="D"><use transform="matrix(0.05555555555555555,0,0,0.05555555555555555,0,0)" xlink:href="#bv"/><use transform="matrix(0.05555555555555555,0,0,0.05555555555555555,13.333333333333332,0)" xlink:href="#bb"/><use transform="matrix(0.05555555555555555,0,0,0.05555555555555555,18.888888888888886,0)" xlink:href="#aV"/><use transform="matrix(0.05555555555555555,0,0,0.05555555555555555,30,0)" xlink:href="#aU"/><use transform="matrix(0.05555555555555555,0,0,0.05555555555555555,42.166666666666664,0)" xlink:href="#bc"/><use transform="matrix(0.05555555555555555,0,0,0.05555555555555555,53.27777777777777,0)" xlink:href="#bw"/><use transform="matrix(0.05555555555555555,0,0,0.05555555555555555,66.6111111111111,0)" xlink:href="#bc"/><use transform="matrix(0.05555555555555555,0,0,0.05555555555555555,77.72222222222221,0)" xlink:href="#bx"/><use transform="matrix(0.05555555555555555,0,0,0.05555555555555555,89.88888888888889,0)" xlink:href="#aW"/><use transform="matrix(0.05555555555555555,0,0,0.05555555555555555,107.66666666666666,0)" xlink:href="#bc"/><use transform="matrix(0.05555555555555555,0,0,0.05555555555555555,118.77777777777777,0)" xlink:href="#aU"/><use transform="matrix(0.05555555555555555,0,0,0.05555555555555555,130.94444444444443,0)" xlink:href="#be"/><use transform="matrix(0.05555555555555555,0,0,0.05555555555555555,137.55555555555554,0)" xlink:href="#aV"/><use transform="matrix(0.05555555555555555,0,0,0.05555555555555555,148.66666666666666,0)" xlink:href="#be"/><use transform="matrix(0.05555555555555555,0,0,0.05555555555555555,155.27777777777777,0)" xlink:href="#aX"/><use transform="matrix(0.05555555555555555,0,0,0.05555555555555555,160.83333333333331,0)" xlink:href="#bf"/><use transform="matrix(0.05555555555555555,0,0,0.05555555555555555,172.99999999999997,0)" xlink:href="#aU"/><path fill="#999" d="M-1 1.07h187.17v2.1H-1z"/></g><path fill="#999" d="M115-194c53 0 69 39 70 98 0 66-23 100-70 100C84 3 66-7 56-30L54 0H23l1-261h32v101c10-23 28-34 59-34zm-8 174c40 0 45-34 45-75 0-40-5-75-45-74-42 0-51 32-51 76 0 43 10 73 51 73" id="by"/><g id="F"><use transform="matrix(0.05555555555555555,0,0,0.05555555555555555,0,0)" xlink:href="#aA"/><use transform="matrix(0.05555555555555555,0,0,0.05555555555555555,11.11111111111111,0)" xlink:href="#aD"/><use transform="matrix(0.05555555555555555,0,0,0.05555555555555555,21.11111111111111,0)" xlink:href="#aH"/><use transform="matrix(0.05555555555555555,0,0,0.05555555555555555,31.11111111111111,0)" xlink:href="#aJ"/><use transform="matrix(0.05555555555555555,0,0,0.05555555555555555,35.5,0)" xlink:href="#aC"/><use transform="matrix(0.05555555555555555,0,0,0.05555555555555555,41.05555555555556,0)" xlink:href="#ay"/><use transform="matrix(0.05555555555555555,0,0,0.05555555555555555,52.16666666666667,0)" xlink:href="#aC"/><use transform="matrix(0.05555555555555555,0,0,0.05555555555555555,57.72222222222223,0)" xlink:href="#aJ"/><use transform="matrix(0.05555555555555555,0,0,0.05555555555555555,62.11111111111112,0)" xlink:href="#aL"/><use transform="matrix(0.05555555555555555,0,0,0.05555555555555555,73.22222222222223,0)" xlink:href="#ax"/><use transform="matrix(0.05555555555555555,0,0,0.05555555555555555,84.33333333333334,0)" xlink:href="#bl"/><use transform="matrix(0.05555555555555555,0,0,0.05555555555555555,95.44444444444446,0)" xlink:href="#aO"/><use transform="matrix(0.05555555555555555,0,0,0.05555555555555555,99.83333333333334,0)" xlink:href="#ay"/><use transform="matrix(0.05555555555555555,0,0,0.05555555555555555,110.94444444444446,0)" xlink:href="#az"/><use transform="matrix(0.05555555555555555,0,0,0.05555555555555555,127.55555555555557,0)" xlink:href="#by"/><use transform="matrix(0.05555555555555555,0,0,0.05555555555555555,138.66666666666669,0)" xlink:href="#aF"/><use transform="matrix(0.05555555555555555,0,0,0.05555555555555555,149.7777777777778,0)" xlink:href="#ay"/></g><g id="G"><use transform="matrix(0.05555555555555555,0,0,0.05555555555555555,0,0)" xlink:href="#aJ"/><use transform="matrix(0.05555555555555555,0,0,0.05555555555555555,4.388888888888888,0)" xlink:href="#ax"/><use transform="matrix(0.05555555555555555,0,0,0.05555555555555555,15.5,0)" xlink:href="#aF"/><use transform="matrix(0.05555555555555555,0,0,0.05555555555555555,26.61111111111111,0)" xlink:href="#aJ"/><use transform="matrix(0.05555555555555555,0,0,0.05555555555555555,31,0)" xlink:href="#aH"/><use transform="matrix(0.05555555555555555,0,0,0.05555555555555555,41,0)" xlink:href="#ay"/><use transform="matrix(0.05555555555555555,0,0,0.05555555555555555,52.111111111111114,0)" xlink:href="#aC"/><use transform="matrix(0.05555555555555555,0,0,0.05555555555555555,57.66666666666668,0)" xlink:href="#aL"/><use transform="matrix(0.05555555555555555,0,0,0.05555555555555555,68.77777777777779,0)" xlink:href="#aI"/></g><g id="H"><use transform="matrix(0.05555555555555555,0,0,0.05555555555555555,0,0)" xlink:href="#aO"/><use transform="matrix(0.05555555555555555,0,0,0.05555555555555555,4.388888888888888,0)" xlink:href="#aL"/><use transform="matrix(0.05555555555555555,0,0,0.05555555555555555,15.5,0)" xlink:href="#aH"/><use transform="matrix(0.05555555555555555,0,0,0.05555555555555555,25.5,0)" xlink:href="#ay"/><use transform="matrix(0.05555555555555555,0,0,0.05555555555555555,36.611111111111114,0)" xlink:href="#aC"/><use transform="matrix(0.05555555555555555,0,0,0.05555555555555555,42.16666666666667,0)" xlink:href="#aJ"/><use transform="matrix(0.05555555555555555,0,0,0.05555555555555555,46.55555555555556,0)" xlink:href="#aL"/><use transform="matrix(0.05555555555555555,0,0,0.05555555555555555,57.66666666666668,0)" xlink:href="#ax"/></g><g id="I"><use transform="matrix(0.05555555555555555,0,0,0.05555555555555555,0,0)" xlink:href="#aL"/><use transform="matrix(0.05555555555555555,0,0,0.05555555555555555,11.11111111111111,0)" xlink:href="#aK"/><use transform="matrix(0.05555555555555555,0,0,0.05555555555555555,22.22222222222222,0)" xlink:href="#aC"/><use transform="matrix(0.05555555555555555,0,0,0.05555555555555555,27.77777777777778,0)" xlink:href="#aJ"/><use transform="matrix(0.05555555555555555,0,0,0.05555555555555555,32.166666666666664,0)" xlink:href="#aH"/><use transform="matrix(0.05555555555555555,0,0,0.05555555555555555,42.166666666666664,0)" xlink:href="#ay"/><use transform="matrix(0.05555555555555555,0,0,0.05555555555555555,53.27777777777777,0)" xlink:href="#aO"/><use transform="matrix(0.05555555555555555,0,0,0.05555555555555555,57.666666666666664,0)" xlink:href="#bl"/><use transform="matrix(0.05555555555555555,0,0,0.05555555555555555,68.77777777777777,0)" xlink:href="#aH"/><use transform="matrix(0.05555555555555555,0,0,0.05555555555555555,78.77777777777777,0)" xlink:href="#bp"/><use transform="matrix(0.05555555555555555,0,0,0.05555555555555555,89.88888888888889,0)" xlink:href="#ay"/><use transform="matrix(0.05555555555555555,0,0,0.05555555555555555,101,0)" xlink:href="#ax"/><use transform="matrix(0.05555555555555555,0,0,0.05555555555555555,112.11111111111111,0)" xlink:href="#ax"/><use transform="matrix(0.05555555555555555,0,0,0.05555555555555555,123.22222222222224,0)" xlink:href="#aA"/><use transform="matrix(0.05555555555555555,0,0,0.05555555555555555,134.33333333333334,0)" xlink:href="#aO"/></g><path fill="#999" d="M140-251c81 0 123 46 123 126C263-46 219 4 140 4 59 4 17-45 17-125s42-126 123-126zm0 227c63 0 89-41 89-101s-29-99-89-99c-61 0-89 39-89 99S79-25 140-24" id="bz"/><path fill="#999" d="M212-179c-10-28-35-45-73-45-59 0-87 40-87 99 0 60 29 101 89 101 43 0 62-24 78-52l27 14C228-24 195 4 139 4 59 4 22-46 18-125c-6-104 99-153 187-111 19 9 31 26 39 46" id="bA"/><g id="J"><use transform="matrix(0.05555555555555555,0,0,0.05555555555555555,0,0)" xlink:href="#aB"/><use transform="matrix(0.05555555555555555,0,0,0.05555555555555555,6.611111111111111,0)" xlink:href="#bz"/><use transform="matrix(0.05555555555555555,0,0,0.05555555555555555,22.166666666666664,0)" xlink:href="#aK"/><use transform="matrix(0.05555555555555555,0,0,0.05555555555555555,33.27777777777777,0)" xlink:href="#aC"/><use transform="matrix(0.05555555555555555,0,0,0.05555555555555555,38.83333333333333,0)" xlink:href="#aJ"/><use transform="matrix(0.05555555555555555,0,0,0.05555555555555555,43.222222222222214,0)" xlink:href="#aH"/><use transform="matrix(0.05555555555555555,0,0,0.05555555555555555,53.222222222222214,0)" xlink:href="#ay"/><use transform="matrix(0.05555555555555555,0,0,0.05555555555555555,64.33333333333333,0)" xlink:href="#aO"/><use transform="matrix(0.05555555555555555,0,0,0.05555555555555555,68.72222222222221,0)" xlink:href="#bA"/><use transform="matrix(0.05555555555555555,0,0,0.05555555555555555,83.1111111111111,0)" xlink:href="#bp"/><use transform="matrix(0.05555555555555555,0,0,0.05555555555555555,94.22222222222221,0)" xlink:href="#ay"/><use transform="matrix(0.05555555555555555,0,0,0.05555555555555555,105.33333333333333,0)" xlink:href="#ax"/><use transform="matrix(0.05555555555555555,0,0,0.05555555555555555,116.44444444444444,0)" xlink:href="#ax"/><use transform="matrix(0.05555555555555555,0,0,0.05555555555555555,127.55555555555554,0)" xlink:href="#aA"/><use transform="matrix(0.05555555555555555,0,0,0.05555555555555555,138.66666666666666,0)" xlink:href="#aO"/><use transform="matrix(0.05555555555555555,0,0,0.05555555555555555,143.05555555555554,0)" xlink:href="#aE"/></g><path fill="#999" d="M108 0H70L1-190h34L89-25l56-165h34" id="bB"/><g id="K"><use transform="matrix(0.05555555555555555,0,0,0.05555555555555555,0,0)" xlink:href="#aF"/><use transform="matrix(0.05555555555555555,0,0,0.05555555555555555,11.11111111111111,0)" xlink:href="#aA"/><use transform="matrix(0.05555555555555555,0,0,0.05555555555555555,22.22222222222222,0)" xlink:href="#bB"/><use transform="matrix(0.05555555555555555,0,0,0.05555555555555555,32.22222222222222,0)" xlink:href="#aJ"/><use transform="matrix(0.05555555555555555,0,0,0.05555555555555555,36.61111111111111,0)" xlink:href="#aH"/><use transform="matrix(0.05555555555555555,0,0,0.05555555555555555,46.61111111111111,0)" xlink:href="#aA"/></g><g id="L"><use transform="matrix(0.05555555555555555,0,0,0.05555555555555555,0,0)" xlink:href="#aB"/><use transform="matrix(0.05555555555555555,0,0,0.05555555555555555,6.611111111111111,0)" xlink:href="#aN"/><use transform="matrix(0.05555555555555555,0,0,0.05555555555555555,21,0)" xlink:href="#aA"/><use transform="matrix(0.05555555555555555,0,0,0.05555555555555555,32.111111111111114,0)" xlink:href="#bB"/><use transform="matrix(0.05555555555555555,0,0,0.05555555555555555,42.111111111111114,0)" xlink:href="#aJ"/><use transform="matrix(0.05555555555555555,0,0,0.05555555555555555,46.5,0)" xlink:href="#aH"/><use transform="matrix(0.05555555555555555,0,0,0.05555555555555555,56.5,0)" xlink:href="#aA"/><use transform="matrix(0.05555555555555555,0,0,0.05555555555555555,67.61111111111111,0)" xlink:href="#aE"/></g><g id="M"><use transform="matrix(0.05555555555555555,0,0,0.05555555555555555,0,0)" xlink:href="#bk"/><use transform="matrix(0.05555555555555555,0,0,0.05555555555555555,11.11111111111111,0)" xlink:href="#aI"/><use transform="matrix(0.05555555555555555,0,0,0.05555555555555555,17.72222222222222,0)" xlink:href="#aJ"/><use transform="matrix(0.05555555555555555,0,0,0.05555555555555555,22.11111111111111,0)" xlink:href="#aF"/><use transform="matrix(0.05555555555555555,0,0,0.05555555555555555,33.22222222222222,0)" xlink:href="#bl"/><use transform="matrix(0.05555555555555555,0,0,0.05555555555555555,44.33333333333333,0)" xlink:href="#aG"/><use transform="matrix(0.05555555555555555,0,0,0.05555555555555555,54.33333333333333,0)" xlink:href="#aK"/><use transform="matrix(0.05555555555555555,0,0,0.05555555555555555,65.44444444444444,0)" xlink:href="#ay"/><use transform="matrix(0.05555555555555555,0,0,0.05555555555555555,76.55555555555556,0)" xlink:href="#aH"/><use transform="matrix(0.05555555555555555,0,0,0.05555555555555555,86.55555555555556,0)" xlink:href="#aJ"/><use transform="matrix(0.05555555555555555,0,0,0.05555555555555555,90.94444444444444,0)" xlink:href="#ax"/><use transform="matrix(0.05555555555555555,0,0,0.05555555555555555,102.05555555555556,0)" xlink:href="#bk"/></g><path fill="#999" d="M101-251c82-7 93 87 43 132L82-64C71-53 59-42 53-27h129V0H18c2-99 128-94 128-182 0-28-16-43-45-43s-46 15-49 41l-32-3c6-41 34-60 81-64" id="bC"/><g id="N"><use transform="matrix(0.05555555555555555,0,0,0.05555555555555555,0,0)" xlink:href="#bn"/><use transform="matrix(0.05555555555555555,0,0,0.05555555555555555,5.555555555555555,0)" xlink:href="#bC"/><use transform="matrix(0.05555555555555555,0,0,0.05555555555555555,16.666666666666664,0)" xlink:href="#bq"/></g><g id="O"><use transform="matrix(0.05555555555555555,0,0,0.05555555555555555,0,0)" xlink:href="#aB"/><use transform="matrix(0.05555555555555555,0,0,0.05555555555555555,6.611111111111111,0)" xlink:href="#br"/><use transform="matrix(0.05555555555555555,0,0,0.05555555555555555,12.166666666666666,0)" xlink:href="#aO"/><use transform="matrix(0.05555555555555555,0,0,0.05555555555555555,16.555555555555554,0)" xlink:href="#aL"/><use transform="matrix(0.05555555555555555,0,0,0.05555555555555555,27.666666666666664,0)" xlink:href="#ay"/><use transform="matrix(0.05555555555555555,0,0,0.05555555555555555,38.77777777777777,0)" xlink:href="#aC"/><use transform="matrix(0.05555555555555555,0,0,0.05555555555555555,44.33333333333333,0)" xlink:href="#aE"/></g><use transform="matrix(0.05555555555555555,0,0,0.05555555555555555,0,0)" xlink:href="#aR" id="P"/><g id="Q"><use transform="matrix(0.05555555555555555,0,0,0.05555555555555555,0,0)" xlink:href="#aP"/><use transform="matrix(0.05555555555555555,0,0,0.05555555555555555,11.11111111111111,0)" xlink:href="#ax"/><use transform="matrix(0.05555555555555555,0,0,0.05555555555555555,22.22222222222222,0)" xlink:href="#aJ"/><use transform="matrix(0.05555555555555555,0,0,0.05555555555555555,26.61111111111111,0)" xlink:href="#aC"/></g><path fill="#999" d="M18-150v-26h174v26H18zm0 90v-26h174v26H18" id="bD"/><use transform="matrix(0.05555555555555555,0,0,0.05555555555555555,0,0)" xlink:href="#bD" id="R"/><path fill="#999" d="M47-170H22l-4-78h33" id="bE"/><g id="S"><use transform="matrix(0.05555555555555555,0,0,0.05555555555555555,0,0)" xlink:href="#bE"/><use transform="matrix(0.05555555555555555,0,0,0.05555555555555555,3.7777777777777777,0)" xlink:href="#az"/><use transform="matrix(0.05555555555555555,0,0,0.05555555555555555,20.38888888888889,0)" xlink:href="#aA"/><use transform="matrix(0.05555555555555555,0,0,0.05555555555555555,31.5,0)" xlink:href="#aC"/><use transform="matrix(0.05555555555555555,0,0,0.05555555555555555,37.05555555555556,0)" xlink:href="#aA"/><use transform="matrix(0.05555555555555555,0,0,0.05555555555555555,48.16666666666667,0)" xlink:href="#aI"/><use transform="matrix(0.05555555555555555,0,0,0.05555555555555555,54.777777777777786,0)" xlink:href="#aG"/><use transform="matrix(0.05555555555555555,0,0,0.05555555555555555,64.77777777777779,0)" xlink:href="#bE"/></g><filter id="E" filterUnits="objectBoundingBox" x="-.01" y="-.01" width="1.03" height="1.03"><feOffset result="offOut" in="SourceAlpha" dx="2.12" dy="2.12"/><feGaussianBlur result="blurOut" in="offOut" stdDeviation="2.5"/><feColorMatrix result="colorOut" in="blurOut" values="0 0 0 0 0 0 0 0 0 0 0 0 0 0 0 0 0 0 0.5019607843137255 0"/><feBlend in="SourceGraphic" in2="colorOut"/></filter><path fill="#999" d="M24 0v-248h52V0H24" id="bF"/><g id="T"><use transform="matrix(0.05555555555555555,0,0,0.05555555555555555,0,0)" xlink:href="#bF"/><use transform="matrix(0.05555555555555555,0,0,0.05555555555555555,5.555555555555555,0)" xlink:href="#aW"/><use transform="matrix(0.05555555555555555,0,0,0.05555555555555555,23.333333333333336,0)" xlink:href="#aV"/><use transform="matrix(0.05555555555555555,0,0,0.05555555555555555,34.44444444444444,0)" xlink:href="#bx"/><use transform="matrix(0.05555555555555555,0,0,0.05555555555555555,46.61111111111111,0)" xlink:href="#aX"/><use transform="matrix(0.05555555555555555,0,0,0.05555555555555555,52.166666666666664,0)" xlink:href="#aU"/><use transform="matrix(0.05555555555555555,0,0,0.05555555555555555,64.33333333333333,0)" xlink:href="#bx"/><use transform="matrix(0.05555555555555555,0,0,0.05555555555555555,76.5,0)" xlink:href="#bv"/><use transform="matrix(0.05555555555555555,0,0,0.05555555555555555,89.83333333333333,0)" xlink:href="#bb"/><use transform="matrix(0.05555555555555555,0,0,0.05555555555555555,95.38888888888889,0)" xlink:href="#aV"/><use transform="matrix(0.05555555555555555,0,0,0.05555555555555555,106.5,0)" xlink:href="#aU"/><use transform="matrix(0.05555555555555555,0,0,0.05555555555555555,118.66666666666666,0)" xlink:href="#bc"/><path fill="#999" d="M-1 1.07h131.78v2.1H-1z"/></g><g id="V"><use transform="matrix(0.05555555555555555,0,0,0.05555555555555555,0,0)" xlink:href="#az"/><use transform="matrix(0.05555555555555555,0,0,0.05555555555555555,16.61111111111111,0)" xlink:href="#ay"/><use transform="matrix(0.05555555555555555,0,0,0.05555555555555555,27.72222222222222,0)" xlink:href="#ax"/><use transform="matrix(0.05555555555555555,0,0,0.05555555555555555,38.83333333333333,0)" xlink:href="#aP"/><use transform="matrix(0.05555555555555555,0,0,0.05555555555555555,49.94444444444444,0)" xlink:href="#br"/><use transform="matrix(0.05555555555555555,0,0,0.05555555555555555,55.5,0)" xlink:href="#ay"/><use transform="matrix(0.05555555555555555,0,0,0.05555555555555555,66.61111111111111,0)" xlink:href="#aH"/><use transform="matrix(0.05555555555555555,0,0,0.05555555555555555,76.61111111111111,0)" xlink:href="#aC"/><use transform="matrix(0.05555555555555555,0,0,0.05555555555555555,82.16666666666667,0)" xlink:href="#aP"/><use transform="matrix(0.05555555555555555,0,0,0.05555555555555555,93.27777777777779,0)" xlink:href="#aI"/><use transform="matrix(0.05555555555555555,0,0,0.05555555555555555,99.8888888888889,0)" xlink:href="#aA"/><use transform="matrix(0.05555555555555555,0,0,0.05555555555555555,111.00000000000001,0)" xlink:href="#aI"/></g><filter id="U" filterUnits="objectBoundingBox" x="-.01" y="-.02" width="1.05" height="1.07"><feOffset result="offOut" in="SourceAlpha" dx="2.12" dy="2.12"/><feGaussianBlur result="blurOut" in="offOut" stdDeviation="2.5"/><feColorMatrix result="colorOut" in="blurOut" values="0 0 0 0 0 0 0 0 0 0 0 0 0 0 0 0 0 0 0.5019607843137255 0"/><feBlend in="SourceGraphic" in2="colorOut"/></filter><path fill="#999" d="M128 0H69L1-190h53L99-40l48-150h52" id="bG"/><g id="W"><use transform="matrix(0.05555555555555555,0,0,0.05555555555555555,0,0)" xlink:href="#aS"/><use transform="matrix(0.05555555555555555,0,0,0.05555555555555555,14.388888888888888,0)" xlink:href="#bc"/><use transform="matrix(0.05555555555555555,0,0,0.05555555555555555,25.5,0)" xlink:href="#bG"/><use transform="matrix(0.05555555555555555,0,0,0.05555555555555555,36.611111111111114,0)" xlink:href="#aX"/><use transform="matrix(0.05555555555555555,0,0,0.05555555555555555,42.16666666666667,0)" xlink:href="#aY"/><use transform="matrix(0.05555555555555555,0,0,0.05555555555555555,53.277777777777786,0)" xlink:href="#bc"/><path fill="#999" d="M-1 1.07h66.4v2.1H-1z"/></g><g id="X"><use transform="matrix(0.05555555555555555,0,0,0.05555555555555555,0,0)" xlink:href="#aI"/><use transform="matrix(0.05555555555555555,0,0,0.05555555555555555,6.611111111111111,0)" xlink:href="#aA"/><use transform="matrix(0.05555555555555555,0,0,0.05555555555555555,17.72222222222222,0)" xlink:href="#br"/><use transform="matrix(0.05555555555555555,0,0,0.05555555555555555,23.27777777777778,0)" xlink:href="#aA"/><use transform="matrix(0.05555555555555555,0,0,0.05555555555555555,34.388888888888886,0)" xlink:href="#aI"/><use transform="matrix(0.05555555555555555,0,0,0.05555555555555555,41,0)" xlink:href="#aA"/><use transform="matrix(0.05555555555555555,0,0,0.05555555555555555,52.111111111111114,0)" xlink:href="#ax"/><use transform="matrix(0.05555555555555555,0,0,0.05555555555555555,63.22222222222223,0)" xlink:href="#aH"/><use transform="matrix(0.05555555555555555,0,0,0.05555555555555555,73.22222222222223,0)" xlink:href="#aA"/><use transform="matrix(0.05555555555555555,0,0,0.05555555555555555,84.33333333333334,0)" xlink:href="#aG"/></g><g id="Z"><use transform="matrix(0.05555555555555555,0,0,0.05555555555555555,0,0)" xlink:href="#aA"/><use transform="matrix(0.05555555555555555,0,0,0.05555555555555555,11.11111111111111,0)" xlink:href="#az"/><use transform="matrix(0.05555555555555555,0,0,0.05555555555555555,27.72222222222222,0)" xlink:href="#aJ"/><use transform="matrix(0.05555555555555555,0,0,0.05555555555555555,32.11111111111111,0)" xlink:href="#aG"/><use transform="matrix(0.05555555555555555,0,0,0.05555555555555555,42.11111111111111,0)" xlink:href="#aG"/><use transform="matrix(0.05555555555555555,0,0,0.05555555555555555,52.11111111111111,0)" xlink:href="#aJ"/><use transform="matrix(0.05555555555555555,0,0,0.05555555555555555,56.49999999999999,0)" xlink:href="#aL"/><use transform="matrix(0.05555555555555555,0,0,0.05555555555555555,67.6111111111111,0)" xlink:href="#ax"/><use transform="matrix(0.05555555555555555,0,0,0.05555555555555555,78.72222222222221,0)" xlink:href="#bl"/><use transform="matrix(0.05555555555555555,0,0,0.05555555555555555,89.83333333333333,0)" xlink:href="#aO"/><use transform="matrix(0.05555555555555555,0,0,0.05555555555555555,94.22222222222221,0)" xlink:href="#ay"/><use transform="matrix(0.05555555555555555,0,0,0.05555555555555555,105.33333333333333,0)" xlink:href="#az"/><use transform="matrix(0.05555555555555555,0,0,0.05555555555555555,121.94444444444444,0)" xlink:href="#by"/><use transform="matrix(0.05555555555555555,0,0,0.05555555555555555,133.05555555555554,0)" xlink:href="#aF"/><use transform="matrix(0.05555555555555555,0,0,0.05555555555555555,144.16666666666666,0)" xlink:href="#ay"/></g><filter id="Y" filterUnits="objectBoundingBox" x="-.01" y="-.02" width="1.04" height="1.07"><feOffset result="offOut" in="SourceAlpha" dx="2.12" dy="2.12"/><feGaussianBlur result="blurOut" in="offOut" stdDeviation="2.5"/><feColorMatrix result="colorOut" in="blurOut" values="0 0 0 0 0 0 0 0 0 0 0 0 0 0 0 0 0 0 0.5019607843137255 0"/><feBlend in="SourceGraphic" in2="colorOut"/></filter><path fill="#999" d="M140-251c80 0 125 45 125 126S219 4 139 4C58 4 15-44 15-125s44-126 125-126zm-1 214c52 0 73-35 73-88 0-50-21-86-72-86-52 0-73 35-73 86s22 88 72 88" id="bH"/><path fill="#999" d="M135-194c53 0 70 44 70 98 0 56-19 98-73 100-31 1-45-17-59-34 3 33 2 69 2 105H25l-1-265h48c2 10 0 23 3 31 11-24 29-35 60-35zM114-30c33 0 39-31 40-66 0-38-9-64-40-64-56 0-55 130 0 130" id="bI"/><path fill="#999" d="M67-125c0 53 21 87 73 88 37 1 54-22 65-47l45 17C233-25 199 4 140 4 58 4 20-42 15-125 8-235 124-281 211-232c18 10 29 29 36 50l-46 12c-8-25-30-41-62-41-52 0-71 34-72 86" id="bJ"/><path fill="#999" d="M114-157C55-157 80-60 75 0H25v-261h50l-1 109c12-26 28-41 61-42 86-1 58 113 63 194h-50c-7-57 23-157-34-157" id="bK"/><g id="aa"><use transform="matrix(0.05555555555555555,0,0,0.05555555555555555,0,0)" xlink:href="#bH"/><use transform="matrix(0.05555555555555555,0,0,0.05555555555555555,15.555555555555555,0)" xlink:href="#bI"/><use transform="matrix(0.05555555555555555,0,0,0.05555555555555555,27.72222222222222,0)" xlink:href="#be"/><use transform="matrix(0.05555555555555555,0,0,0.05555555555555555,34.33333333333333,0)" xlink:href="#aX"/><use transform="matrix(0.05555555555555555,0,0,0.05555555555555555,39.888888888888886,0)" xlink:href="#aY"/><use transform="matrix(0.05555555555555555,0,0,0.05555555555555555,51,0)" xlink:href="#aV"/><use transform="matrix(0.05555555555555555,0,0,0.05555555555555555,62.11111111111112,0)" xlink:href="#bb"/><use transform="matrix(0.05555555555555555,0,0,0.05555555555555555,67.66666666666667,0)" xlink:href="#bJ"/><use transform="matrix(0.05555555555555555,0,0,0.05555555555555555,82.05555555555556,0)" xlink:href="#bK"/><use transform="matrix(0.05555555555555555,0,0,0.05555555555555555,94.22222222222223,0)" xlink:href="#aV"/><use transform="matrix(0.05555555555555555,0,0,0.05555555555555555,105.33333333333334,0)" xlink:href="#aU"/><use transform="matrix(0.05555555555555555,0,0,0.05555555555555555,117.50000000000001,0)" xlink:href="#aU"/><use transform="matrix(0.05555555555555555,0,0,0.05555555555555555,129.66666666666669,0)" xlink:href="#bc"/><use transform="matrix(0.05555555555555555,0,0,0.05555555555555555,140.7777777777778,0)" xlink:href="#bb"/><path fill="#999" d="M-1 1.07h148.33v2.1H-1z"/></g><path fill="#999" d="M27 0v-27h64v-190l-56 39v-29l58-41h29v221h61V0H27" id="bL"/><g id="ab"><use transform="matrix(0.05555555555555555,0,0,0.05555555555555555,0,0)" xlink:href="#bL"/><use transform="matrix(0.05555555555555555,0,0,0.05555555555555555,11.11111111111111,0)" xlink:href="#bi"/><use transform="matrix(0.05555555555555555,0,0,0.05555555555555555,16.666666666666664,0)" xlink:href="#bi"/><use transform="matrix(0.05555555555555555,0,0,0.05555555555555555,22.22222222222222,0)" xlink:href="#bj"/></g><path d="M117-194c89-4 53 116 60 194h-32v-121c0-31-8-49-39-48C34-167 62-67 57 0H25l-1-190h30c1 10-1 24 2 32 11-22 29-35 61-36" id="bM"/><path d="M141-36C126-15 110 5 73 4 37 3 15-17 15-53c-1-64 63-63 125-63 3-35-9-54-41-54-24 1-41 7-42 31l-33-3c5-37 33-52 76-52 45 0 72 20 72 64v82c-1 20 7 32 28 27v20c-31 9-61-2-59-35zM48-53c0 20 12 33 32 33 41-3 63-29 60-74-43 2-92-5-92 41" id="bN"/><path d="M210-169c-67 3-38 105-44 169h-31v-121c0-29-5-50-35-48C34-165 62-65 56 0H25l-1-190h30c1 10-1 24 2 32 10-44 99-50 107 0 11-21 27-35 58-36 85-2 47 119 55 194h-31v-121c0-29-5-49-35-48" id="bO"/><path d="M100-194c63 0 86 42 84 106H49c0 40 14 67 53 68 26 1 43-12 49-29l28 8c-11 28-37 45-77 45C44 4 14-33 15-96c1-61 26-98 85-98zm52 81c6-60-76-77-97-28-3 7-6 17-6 28h103" id="bP"/><g id="ad"><use transform="matrix(0.05555555555555555,0,0,0.05555555555555555,0,0)" xlink:href="#bM"/><use transform="matrix(0.05555555555555555,0,0,0.05555555555555555,11.11111111111111,0)" xlink:href="#bN"/><use transform="matrix(0.05555555555555555,0,0,0.05555555555555555,22.22222222222222,0)" xlink:href="#bO"/><use transform="matrix(0.05555555555555555,0,0,0.05555555555555555,38.83333333333333,0)" xlink:href="#bP"/></g><path d="M18-150v-26h174v26H18zm0 90v-26h174v26H18" id="bQ"/><use transform="matrix(0.05555555555555555,0,0,0.05555555555555555,0,0)" xlink:href="#bQ" id="ae"/><path d="M109-170H84l-4-78h32zm-65 0H19l-4-78h33" id="bR"/><path d="M33 0v-248h34V0H33" id="bS"/><path d="M177-190C167-65 218 103 67 71c-23-6-38-20-44-43l32-5c15 47 100 32 89-28v-30C133-14 115 1 83 1 29 1 15-40 15-95c0-56 16-97 71-98 29-1 48 16 59 35 1-10 0-23 2-32h30zM94-22c36 0 50-32 50-73 0-42-14-75-50-75-39 0-46 34-46 75s6 73 46 73" id="bT"/><path d="M185-189c-5-48-123-54-124 2 14 75 158 14 163 119 3 78-121 87-175 55-17-10-28-26-33-46l33-7c5 56 141 63 141-1 0-78-155-14-162-118-5-82 145-84 179-34 5 7 8 16 11 25" id="bU"/><path d="M59-47c-2 24 18 29 38 22v24C64 9 27 4 27-40v-127H5v-23h24l9-43h21v43h35v23H59v120" id="bV"/><path d="M24-231v-30h32v30H24zM24 0v-190h32V0H24" id="bW"/><path d="M100-194c62-1 85 37 85 99 1 63-27 99-86 99S16-35 15-95c0-66 28-99 85-99zM99-20c44 1 53-31 53-75 0-43-8-75-51-75s-53 32-53 75 10 74 51 75" id="bX"/><g id="af"><use transform="matrix(0.05555555555555555,0,0,0.05555555555555555,0,0)" xlink:href="#bR"/><use transform="matrix(0.05555555555555555,0,0,0.05555555555555555,7.055555555555555,0)" xlink:href="#bS"/><use transform="matrix(0.05555555555555555,0,0,0.05555555555555555,12.61111111111111,0)" xlink:href="#bO"/><use transform="matrix(0.05555555555555555,0,0,0.05555555555555555,29.22222222222222,0)" xlink:href="#bN"/><use transform="matrix(0.05555555555555555,0,0,0.05555555555555555,40.33333333333333,0)" xlink:href="#bT"/><use transform="matrix(0.05555555555555555,0,0,0.05555555555555555,51.44444444444444,0)" xlink:href="#bP"/><use transform="matrix(0.05555555555555555,0,0,0.05555555555555555,62.55555555555555,0)" xlink:href="#bU"/><use transform="matrix(0.05555555555555555,0,0,0.05555555555555555,75.88888888888889,0)" xlink:href="#bP"/><use transform="matrix(0.05555555555555555,0,0,0.05555555555555555,87,0)" xlink:href="#bT"/><use transform="matrix(0.05555555555555555,0,0,0.05555555555555555,98.11111111111111,0)" xlink:href="#bO"/><use transform="matrix(0.05555555555555555,0,0,0.05555555555555555,114.72222222222224,0)" xlink:href="#bP"/><use transform="matrix(0.05555555555555555,0,0,0.05555555555555555,125.83333333333336,0)" xlink:href="#bM"/><use transform="matrix(0.05555555555555555,0,0,0.05555555555555555,136.94444444444446,0)" xlink:href="#bV"/><use transform="matrix(0.05555555555555555,0,0,0.05555555555555555,142.5,0)" xlink:href="#bN"/><use transform="matrix(0.05555555555555555,0,0,0.05555555555555555,153.61111111111111,0)" xlink:href="#bV"/><use transform="matrix(0.05555555555555555,0,0,0.05555555555555555,159.16666666666666,0)" xlink:href="#bW"/><use transform="matrix(0.05555555555555555,0,0,0.05555555555555555,163.55555555555554,0)" xlink:href="#bX"/><use transform="matrix(0.05555555555555555,0,0,0.05555555555555555,174.66666666666666,0)" xlink:href="#bM"/><use transform="matrix(0.05555555555555555,0,0,0.05555555555555555,185.77777777777777,0)" xlink:href="#bR"/></g><path d="M115-194c55 1 70 41 70 98S169 2 115 4C84 4 66-9 55-30l1 105H24l-1-265h31l2 30c10-21 28-34 59-34zm-8 174c40 0 45-34 45-75s-6-73-45-74c-42 0-51 32-51 76 0 43 10 73 51 73" id="bY"/><path d="M24 0v-261h32V0H24" id="bZ"/><path d="M-5 72V49h209v23H-5" id="ca"/><path d="M135-143c-3-34-86-38-87 0 15 53 115 12 119 90S17 21 10-45l28-5c4 36 97 45 98 0-10-56-113-15-118-90-4-57 82-63 122-42 12 7 21 19 24 35" id="cb"/><g id="ag"><use transform="matrix(0.05555555555555555,0,0,0.05555555555555555,0,0)" xlink:href="#bY"/><use transform="matrix(0.05555555555555555,0,0,0.05555555555555555,11.11111111111111,0)" xlink:href="#bZ"/><use transform="matrix(0.05555555555555555,0,0,0.05555555555555555,15.5,0)" xlink:href="#bN"/><use transform="matrix(0.05555555555555555,0,0,0.05555555555555555,26.61111111111111,0)" xlink:href="#bM"/><use transform="matrix(0.05555555555555555,0,0,0.05555555555555555,37.72222222222222,0)" xlink:href="#bP"/><use transform="matrix(0.05555555555555555,0,0,0.05555555555555555,48.83333333333333,0)" xlink:href="#ca"/><use transform="matrix(0.05555555555555555,0,0,0.05555555555555555,59.94444444444444,0)" xlink:href="#cb"/><use transform="matrix(0.05555555555555555,0,0,0.05555555555555555,69.94444444444444,0)" xlink:href="#bP"/><use transform="matrix(0.05555555555555555,0,0,0.05555555555555555,81.05555555555556,0)" xlink:href="#bT"/><use transform="matrix(0.05555555555555555,0,0,0.05555555555555555,92.16666666666667,0)" xlink:href="#bO"/><use transform="matrix(0.05555555555555555,0,0,0.05555555555555555,108.77777777777779,0)" xlink:href="#bP"/><use transform="matrix(0.05555555555555555,0,0,0.05555555555555555,119.88888888888891,0)" xlink:href="#bM"/><use transform="matrix(0.05555555555555555,0,0,0.05555555555555555,131,0)" xlink:href="#bV"/><use transform="matrix(0.05555555555555555,0,0,0.05555555555555555,136.55555555555554,0)" xlink:href="#bN"/><use transform="matrix(0.05555555555555555,0,0,0.05555555555555555,147.66666666666666,0)" xlink:href="#bV"/><use transform="matrix(0.05555555555555555,0,0,0.05555555555555555,153.2222222222222,0)" xlink:href="#bW"/><use transform="matrix(0.05555555555555555,0,0,0.05555555555555555,157.6111111111111,0)" xlink:href="#bX"/><use transform="matrix(0.05555555555555555,0,0,0.05555555555555555,168.7222222222222,0)" xlink:href="#bM"/></g><path d="M87 75C49 33 22-17 22-94c0-76 28-126 65-167h31c-38 41-64 92-64 168S80 34 118 75H87" id="cc"/><path d="M30-248c87 1 191-15 191 75 0 78-77 80-158 76V0H30v-248zm33 125c57 0 124 11 124-50 0-59-68-47-124-48v98" id="cd"/><path d="M33-261c38 41 65 92 65 168S71 34 33 75H2C39 34 66-17 66-93S39-220 2-261h31" id="ce"/><g id="ah"><use transform="matrix(0.05555555555555555,0,0,0.05555555555555555,0,0)" xlink:href="#cc"/><use transform="matrix(0.05555555555555555,0,0,0.05555555555555555,6.611111111111111,0)" xlink:href="#cd"/><use transform="matrix(0.05555555555555555,0,0,0.05555555555555555,19.944444444444443,0)" xlink:href="#bZ"/><use transform="matrix(0.05555555555555555,0,0,0.05555555555555555,24.333333333333332,0)" xlink:href="#bN"/><use transform="matrix(0.05555555555555555,0,0,0.05555555555555555,35.44444444444444,0)" xlink:href="#bM"/><use transform="matrix(0.05555555555555555,0,0,0.05555555555555555,46.55555555555556,0)" xlink:href="#bP"/><use transform="matrix(0.05555555555555555,0,0,0.05555555555555555,57.66666666666668,0)" xlink:href="#bU"/><use transform="matrix(0.05555555555555555,0,0,0.05555555555555555,71,0)" xlink:href="#bP"/><use transform="matrix(0.05555555555555555,0,0,0.05555555555555555,82.11111111111111,0)" xlink:href="#bT"/><use transform="matrix(0.05555555555555555,0,0,0.05555555555555555,93.22222222222223,0)" xlink:href="#bO"/><use transform="matrix(0.05555555555555555,0,0,0.05555555555555555,109.83333333333334,0)" xlink:href="#bP"/><use transform="matrix(0.05555555555555555,0,0,0.05555555555555555,120.94444444444446,0)" xlink:href="#bM"/><use transform="matrix(0.05555555555555555,0,0,0.05555555555555555,132.05555555555557,0)" xlink:href="#bV"/><use transform="matrix(0.05555555555555555,0,0,0.05555555555555555,137.61111111111111,0)" xlink:href="#bN"/><use transform="matrix(0.05555555555555555,0,0,0.05555555555555555,148.72222222222223,0)" xlink:href="#bV"/><use transform="matrix(0.05555555555555555,0,0,0.05555555555555555,154.27777777777777,0)" xlink:href="#bW"/><use transform="matrix(0.05555555555555555,0,0,0.05555555555555555,158.66666666666666,0)" xlink:href="#bX"/><use transform="matrix(0.05555555555555555,0,0,0.05555555555555555,169.77777777777777,0)" xlink:href="#bM"/><use transform="matrix(0.05555555555555555,0,0,0.05555555555555555,180.88888888888889,0)" xlink:href="#ce"/></g><filter id="ac" filterUnits="objectBoundingBox" x="-.01" y="-.03" width="1.03" height="1.09"><feOffset result="offOut" in="SourceAlpha" dx="2.12" dy="2.12"/><feGaussianBlur result="blurOut" in="offOut" stdDeviation="2.5"/><feColorMatrix result="colorOut" in="blurOut" values="0 0 0 0 0 0 0 0 0 0 0 0 0 0 0 0 0 0 0.5019607843137255 0"/><feBlend in="SourceGraphic" in2="colorOut"/></filter><path fill="#fff" d="M24 0v-248h52V0H24" id="cf"/><path fill="#fff" d="M220-157c-53 9-28 100-34 157h-49v-107c1-27-5-49-29-50C55-147 81-57 75 0H25l-1-190h47c2 12-1 28 3 38 10-53 101-56 108 0 13-22 24-43 59-42 82 1 51 116 57 194h-49v-107c-1-25-5-48-29-50" id="cg"/><path fill="#fff" d="M133-34C117-15 103 5 69 4 32 3 11-16 11-54c-1-60 55-63 116-61 1-26-3-47-28-47-18 1-26 9-28 27l-52-2c7-38 36-58 82-57s74 22 75 68l1 82c-1 14 12 18 25 15v27c-30 8-71 5-69-32zm-48 3c29 0 43-24 42-57-32 0-66-3-65 30 0 17 8 27 23 27" id="ch"/><path fill="#fff" d="M195-6C206 82 75 100 31 46c-4-6-6-13-8-21l49-6c3 16 16 24 34 25 40 0 42-37 40-79-11 22-30 35-61 35-53 0-70-43-70-97 0-56 18-96 73-97 30 0 46 14 59 34l2-30h47zm-90-29c32 0 41-27 41-63 0-35-9-62-40-62-32 0-39 29-40 63 0 36 9 62 39 62" id="ci"/><path fill="#fff" d="M185-48c-13 30-37 53-82 52C43 2 14-33 14-96s30-98 90-98c62 0 83 45 84 108H66c0 31 8 55 39 56 18 0 30-7 34-22zm-45-69c5-46-57-63-70-21-2 6-4 13-4 21h74" id="cj"/><path fill="#fff" d="M169-182c-1-43-94-46-97-3 18 66 151 10 154 114 3 95-165 93-204 36-6-8-10-19-12-30l50-8c3 46 112 56 116 5-17-69-150-10-154-114-4-87 153-88 188-35 5 8 8 18 10 28" id="ck"/><path fill="#fff" d="M135-194c87-1 58 113 63 194h-50c-7-57 23-157-34-157-59 0-34 97-39 157H25l-1-190h47c2 12-1 28 3 38 12-26 28-41 61-42" id="cl"/><path fill="#fff" d="M115-3C79 11 28 4 28-45v-112H4v-33h27l15-45h31v45h36v33H77v99c-1 23 16 31 38 25v30" id="cm"/><path fill="#fff" d="M25-224v-37h50v37H25zM25 0v-190h50V0H25" id="cn"/><path fill="#fff" d="M110-194c64 0 96 36 96 99 0 64-35 99-97 99-61 0-95-36-95-99 0-62 34-99 96-99zm-1 164c35 0 45-28 45-65 0-40-10-65-43-65-34 0-45 26-45 65 0 36 10 65 43 65" id="co"/><g id="ai"><use transform="matrix(0.05555555555555555,0,0,0.05555555555555555,0,0)" xlink:href="#cf"/><use transform="matrix(0.05555555555555555,0,0,0.05555555555555555,5.555555555555555,0)" xlink:href="#cg"/><use transform="matrix(0.05555555555555555,0,0,0.05555555555555555,23.333333333333336,0)" xlink:href="#ch"/><use transform="matrix(0.05555555555555555,0,0,0.05555555555555555,34.44444444444444,0)" xlink:href="#ci"/><use transform="matrix(0.05555555555555555,0,0,0.05555555555555555,46.61111111111111,0)" xlink:href="#cj"/><use transform="matrix(0.05555555555555555,0,0,0.05555555555555555,57.72222222222222,0)" xlink:href="#ck"/><use transform="matrix(0.05555555555555555,0,0,0.05555555555555555,71.05555555555554,0)" xlink:href="#cj"/><use transform="matrix(0.05555555555555555,0,0,0.05555555555555555,82.16666666666666,0)" xlink:href="#ci"/><use transform="matrix(0.05555555555555555,0,0,0.05555555555555555,94.33333333333333,0)" xlink:href="#cg"/><use transform="matrix(0.05555555555555555,0,0,0.05555555555555555,112.11111111111111,0)" xlink:href="#cj"/><use transform="matrix(0.05555555555555555,0,0,0.05555555555555555,123.22222222222224,0)" xlink:href="#cl"/><use transform="matrix(0.05555555555555555,0,0,0.05555555555555555,135.38888888888889,0)" xlink:href="#cm"/><use transform="matrix(0.05555555555555555,0,0,0.05555555555555555,142,0)" xlink:href="#ch"/><use transform="matrix(0.05555555555555555,0,0,0.05555555555555555,153.11111111111111,0)" xlink:href="#cm"/><use transform="matrix(0.05555555555555555,0,0,0.05555555555555555,159.72222222222223,0)" xlink:href="#cn"/><use transform="matrix(0.05555555555555555,0,0,0.05555555555555555,165.27777777777777,0)" xlink:href="#co"/><use transform="matrix(0.05555555555555555,0,0,0.05555555555555555,177.44444444444443,0)" xlink:href="#cl"/><path fill="#fff" d="M-1 1.07h191.6v2.1H-1z"/></g><path d="M27 0v-27h64v-190l-56 39v-29l58-41h29v221h61V0H27" id="cp"/><path d="M33 0v-38h34V0H33" id="cq"/><path d="M80-196l47-18 7 23-49 13 32 44-20 13-27-46-27 45-21-12 33-44-49-13 8-23 47 19-2-53h23" id="cr"/><g id="aj"><use transform="matrix(0.05555555555555555,0,0,0.05555555555555555,0,0)" xlink:href="#cp"/><use transform="matrix(0.05555555555555555,0,0,0.05555555555555555,11.11111111111111,0)" xlink:href="#cq"/><use transform="matrix(0.05555555555555555,0,0,0.05555555555555555,16.666666666666664,0)" xlink:href="#cq"/><use transform="matrix(0.05555555555555555,0,0,0.05555555555555555,22.22222222222222,0)" xlink:href="#cr"/></g><path d="M101-251c68 0 85 55 85 127S166 4 100 4C33 4 14-52 14-124c0-73 17-127 87-127zm-1 229c47 0 54-49 54-102s-4-102-53-102c-51 0-55 48-55 102 0 53 5 102 54 102" id="cs"/><g id="ak"><use transform="matrix(0.05555555555555555,0,0,0.05555555555555555,0,0)" xlink:href="#cs"/><use transform="matrix(0.05555555555555555,0,0,0.05555555555555555,11.11111111111111,0)" xlink:href="#cq"/><use transform="matrix(0.05555555555555555,0,0,0.05555555555555555,16.666666666666664,0)" xlink:href="#cq"/><use transform="matrix(0.05555555555555555,0,0,0.05555555555555555,22.22222222222222,0)" xlink:href="#cr"/></g><path d="M106-169C34-169 62-67 57 0H25v-261h32l-1 103c12-21 28-36 61-36 89 0 53 116 60 194h-32v-121c2-32-8-49-39-48" id="ct"/><path d="M179-190L93 31C79 59 56 82 12 73V49c39 6 53-20 64-50L1-190h34L92-34l54-156h33" id="cu"/><g id="am"><use transform="matrix(0.05555555555555555,0,0,0.05555555555555555,0,0)" xlink:href="#bR"/><use transform="matrix(0.05555555555555555,0,0,0.05555555555555555,7.055555555555555,0)" xlink:href="#bX"/><use transform="matrix(0.05555555555555555,0,0,0.05555555555555555,18.166666666666664,0)" xlink:href="#bY"/><use transform="matrix(0.05555555555555555,0,0,0.05555555555555555,29.277777777777775,0)" xlink:href="#ct"/><use transform="matrix(0.05555555555555555,0,0,0.05555555555555555,40.388888888888886,0)" xlink:href="#cu"/><use transform="matrix(0.05555555555555555,0,0,0.05555555555555555,50.388888888888886,0)" xlink:href="#cb"/><use transform="matrix(0.05555555555555555,0,0,0.05555555555555555,60.388888888888886,0)" xlink:href="#bR"/></g><path d="M190 0L58-211 59 0H30v-248h39L202-35l-2-213h31V0h-41" id="cv"/><path d="M266 0h-40l-56-210L115 0H75L2-248h35L96-30l15-64 43-154h32l59 218 59-218h35" id="cw"/><path d="M160-131c35 5 61 23 61 61C221 17 115-2 30 0v-248c76 3 177-17 177 60 0 33-19 50-47 57zm-97-11c50-1 110 9 110-42 0-47-63-36-110-37v79zm0 115c55-2 124 14 124-45 0-56-70-42-124-44v89" id="cx"/><g id="an"><use transform="matrix(0.05555555555555555,0,0,0.05555555555555555,0,0)" xlink:href="#cc"/><use transform="matrix(0.05555555555555555,0,0,0.05555555555555555,6.611111111111111,0)" xlink:href="#cv"/><use transform="matrix(0.05555555555555555,0,0,0.05555555555555555,21,0)" xlink:href="#cw"/><use transform="matrix(0.05555555555555555,0,0,0.05555555555555555,39.83333333333333,0)" xlink:href="#cx"/></g><path d="M85-194c31 0 48 13 60 33l-1-100h32l1 261h-30c-2-10 0-23-3-31C134-8 116 4 85 4 32 4 16-35 15-94c0-66 23-100 70-100zm9 24c-40 0-46 34-46 75 0 40 6 74 45 74 42 0 51-32 51-76 0-42-9-74-50-73" id="cy"/><g id="ao"><use transform="matrix(0.05555555555555555,0,0,0.05555555555555555,0,0)" xlink:href="#cy"/><use transform="matrix(0.05555555555555555,0,0,0.05555555555555555,11.11111111111111,0)" xlink:href="#bN"/><use transform="matrix(0.05555555555555555,0,0,0.05555555555555555,22.22222222222222,0)" xlink:href="#bV"/><use transform="matrix(0.05555555555555555,0,0,0.05555555555555555,27.77777777777778,0)" xlink:href="#bN"/></g><g id="ap"><use transform="matrix(0.05555555555555555,0,0,0.05555555555555555,0,0)" xlink:href="#bV"/><use transform="matrix(0.05555555555555555,0,0,0.05555555555555555,5.555555555555555,0)" xlink:href="#cu"/><use transform="matrix(0.05555555555555555,0,0,0.05555555555555555,15.555555555555555,0)" xlink:href="#bY"/><use transform="matrix(0.05555555555555555,0,0,0.05555555555555555,26.666666666666664,0)" xlink:href="#bP"/><use transform="matrix(0.05555555555555555,0,0,0.05555555555555555,37.77777777777777,0)" xlink:href="#cb"/><use transform="matrix(0.05555555555555555,0,0,0.05555555555555555,47.77777777777777,0)" xlink:href="#ce"/></g><filter id="al" filterUnits="objectBoundingBox" x="-.01" y="-.03" width="1.03" height="1.09"><feOffset result="offOut" in="SourceAlpha" dx="2.12" dy="2.12"/><feGaussianBlur result="blurOut" in="offOut" stdDeviation="2.5"/><feColorMatrix result="colorOut" in="blurOut" values="0 0 0 0 0 0 0 0 0 0 0 0 0 0 0 0 0 0 0.5019607843137255 0"/><feBlend in="SourceGraphic" in2="colorOut"/></filter><path fill="#fff" d="M142-158h-39l-4-90h48zm-75 0H28l-4-90h48" id="cz"/><path fill="#fff" d="M135-194c53 0 70 44 70 98 0 56-19 98-73 100-31 1-45-17-59-34 3 33 2 69 2 105H25l-1-265h48c2 10 0 23 3 31 11-24 29-35 60-35zM114-30c33 0 39-31 40-66 0-38-9-64-40-64-56 0-55 130 0 130" id="cA"/><path fill="#fff" d="M114-157C55-157 80-60 75 0H25v-261h50l-1 109c12-26 28-41 61-42 86-1 58 113 63 194h-50c-7-57 23-157-34-157" id="cB"/><path fill="#fff" d="M123 10C108 53 80 86 19 72V37c35 8 53-11 59-39L3-190h52l48 148c12-52 28-100 44-148h51" id="cC"/><path fill="#fff" d="M137-138c1-29-70-34-71-4 15 46 118 7 119 86 1 83-164 76-172 9l43-7c4 19 20 25 44 25 33 8 57-30 24-41C81-84 22-81 20-136c-2-80 154-74 161-7" id="cD"/><g id="aq"><use transform="matrix(0.05555555555555555,0,0,0.05555555555555555,0,0)" xlink:href="#cz"/><use transform="matrix(0.05555555555555555,0,0,0.05555555555555555,9.444444444444445,0)" xlink:href="#co"/><use transform="matrix(0.05555555555555555,0,0,0.05555555555555555,21.61111111111111,0)" xlink:href="#cA"/><use transform="matrix(0.05555555555555555,0,0,0.05555555555555555,33.77777777777778,0)" xlink:href="#cB"/><use transform="matrix(0.05555555555555555,0,0,0.05555555555555555,45.94444444444444,0)" xlink:href="#cC"/><use transform="matrix(0.05555555555555555,0,0,0.05555555555555555,57.05555555555555,0)" xlink:href="#cD"/><use transform="matrix(0.05555555555555555,0,0,0.05555555555555555,68.16666666666667,0)" xlink:href="#cz"/><path fill="#fff" d="M-1 1.07h85.17v2.1H-1z"/></g><path fill="#fff" d="M67-93c0 74 22 123 53 168H70C40 30 18-18 18-93s22-123 52-168h50c-32 44-53 94-53 168" id="cE"/><path fill="#fff" d="M24-248c93 1 206-16 204 79-1 75-69 88-152 82V0H24v-248zm52 121c47 0 100 7 100-41 0-47-54-39-100-39v80" id="cF"/><path fill="#fff" d="M135-150c-39-12-60 13-60 57V0H25l-1-190h47c2 13-1 29 3 40 6-28 27-53 61-41v41" id="cG"/><path fill="#fff" d="M190-63c-7 42-38 67-86 67-59 0-84-38-90-98-12-110 154-137 174-36l-49 2c-2-19-15-32-35-32-30 0-35 28-38 64-6 74 65 87 74 30" id="cH"/><path fill="#fff" d="M230 0l2-204L168 0h-37L68-204 70 0H24v-248h70l56 185 57-185h69V0h-46" id="cI"/><path fill="#fff" d="M88-194c31-1 46 15 58 34l-1-101h50l1 261h-48c-2-10 0-23-3-31C134-8 116 4 84 4 32 4 16-41 15-95c0-56 19-97 73-99zm17 164c33 0 40-30 41-66 1-37-9-64-41-64s-38 30-39 65c0 43 13 65 39 65" id="cJ"/><path fill="#fff" d="M85 4C-2 5 27-109 22-190h50c7 57-23 150 33 157 60-5 35-97 40-157h50l1 190h-47c-2-12 1-28-3-38-12 25-28 42-61 42" id="cK"/><path fill="#fff" d="M25 0v-261h50V0H25" id="cL"/><path fill="#fff" d="M102-93c0 74-22 123-52 168H0C30 29 54-18 53-93c0-74-22-123-53-168h50c30 45 52 94 52 168" id="cM"/><g id="ar"><use transform="matrix(0.05555555555555555,0,0,0.05555555555555555,0,0)" xlink:href="#cE"/><use transform="matrix(0.05555555555555555,0,0,0.05555555555555555,6.611111111111111,0)" xlink:href="#cF"/><use transform="matrix(0.05555555555555555,0,0,0.05555555555555555,19.944444444444443,0)" xlink:href="#cG"/><use transform="matrix(0.05555555555555555,0,0,0.05555555555555555,27.72222222222222,0)" xlink:href="#co"/><use transform="matrix(0.05555555555555555,0,0,0.05555555555555555,39.888888888888886,0)" xlink:href="#cH"/><use transform="matrix(0.05555555555555555,0,0,0.05555555555555555,51,0)" xlink:href="#cj"/><use transform="matrix(0.05555555555555555,0,0,0.05555555555555555,62.11111111111112,0)" xlink:href="#cD"/><use transform="matrix(0.05555555555555555,0,0,0.05555555555555555,73.22222222222223,0)" xlink:href="#cD"/><use transform="matrix(0.05555555555555555,0,0,0.05555555555555555,84.33333333333334,0)" xlink:href="#cn"/><use transform="matrix(0.05555555555555555,0,0,0.05555555555555555,89.8888888888889,0)" xlink:href="#cl"/><use transform="matrix(0.05555555555555555,0,0,0.05555555555555555,102.05555555555557,0)" xlink:href="#ci"/><use transform="matrix(0.05555555555555555,0,0,0.05555555555555555,114.22222222222224,0)" xlink:href="#cI"/><use transform="matrix(0.05555555555555555,0,0,0.05555555555555555,130.83333333333334,0)" xlink:href="#co"/><use transform="matrix(0.05555555555555555,0,0,0.05555555555555555,143,0)" xlink:href="#cJ"/><use transform="matrix(0.05555555555555555,0,0,0.05555555555555555,155.16666666666666,0)" xlink:href="#cK"/><use transform="matrix(0.05555555555555555,0,0,0.05555555555555555,167.33333333333331,0)" xlink:href="#cL"/><use transform="matrix(0.05555555555555555,0,0,0.05555555555555555,172.88888888888886,0)" xlink:href="#cj"/><use transform="matrix(0.05555555555555555,0,0,0.05555555555555555,183.99999999999997,0)" xlink:href="#cM"/><path fill="#fff" d="M-1 1.07h192.6v2.1H-1z"/></g><path d="M141 0L90-78 38 0H4l68-98-65-92h35l48 74 47-74h35l-64 92 68 98h-35" id="cN"/><g id="at"><use transform="matrix(0.05555555555555555,0,0,0.05555555555555555,0,0)" xlink:href="#cc"/><use transform="matrix(0.05555555555555555,0,0,0.05555555555555555,6.611111111111111,0)" xlink:href="#bV"/><use transform="matrix(0.05555555555555555,0,0,0.05555555555555555,12.166666666666666,0)" xlink:href="#bP"/><use transform="matrix(0.05555555555555555,0,0,0.05555555555555555,23.27777777777778,0)" xlink:href="#cN"/><use transform="matrix(0.05555555555555555,0,0,0.05555555555555555,33.27777777777778,0)" xlink:href="#bV"/><use transform="matrix(0.05555555555555555,0,0,0.05555555555555555,38.833333333333336,0)" xlink:href="#ce"/></g><filter id="as" filterUnits="objectBoundingBox" x="-.01" y="-.03" width="1.05" height="1.09"><feOffset result="offOut" in="SourceAlpha" dx="2.12" dy="2.12"/><feGaussianBlur result="blurOut" in="offOut" stdDeviation="2.5"/><feColorMatrix result="colorOut" in="blurOut" values="0 0 0 0 0 0 0 0 0 0 0 0 0 0 0 0 0 0 0.5019607843137255 0"/><feBlend in="SourceGraphic" in2="colorOut"/></filter><g id="au"><use transform="matrix(0.05555555555555555,0,0,0.05555555555555555,0,0)" xlink:href="#cF"/><use transform="matrix(0.05555555555555555,0,0,0.05555555555555555,13.333333333333332,0)" xlink:href="#cG"/><use transform="matrix(0.05555555555555555,0,0,0.05555555555555555,21.11111111111111,0)" xlink:href="#co"/><use transform="matrix(0.05555555555555555,0,0,0.05555555555555555,33.27777777777778,0)" xlink:href="#cH"/><use transform="matrix(0.05555555555555555,0,0,0.05555555555555555,44.388888888888886,0)" xlink:href="#cj"/><use transform="matrix(0.05555555555555555,0,0,0.05555555555555555,55.5,0)" xlink:href="#cD"/><use transform="matrix(0.05555555555555555,0,0,0.05555555555555555,66.61111111111111,0)" xlink:href="#cD"/><use transform="matrix(0.05555555555555555,0,0,0.05555555555555555,77.72222222222223,0)" xlink:href="#cn"/><use transform="matrix(0.05555555555555555,0,0,0.05555555555555555,83.27777777777779,0)" xlink:href="#cl"/><use transform="matrix(0.05555555555555555,0,0,0.05555555555555555,95.44444444444446,0)" xlink:href="#ci"/><use transform="matrix(0.05555555555555555,0,0,0.05555555555555555,107.61111111111113,0)" xlink:href="#cI"/><use transform="matrix(0.05555555555555555,0,0,0.05555555555555555,124.22222222222224,0)" xlink:href="#co"/><use transform="matrix(0.05555555555555555,0,0,0.05555555555555555,136.3888888888889,0)" xlink:href="#cJ"/><use transform="matrix(0.05555555555555555,0,0,0.05555555555555555,148.55555555555557,0)" xlink:href="#cK"/><use transform="matrix(0.05555555555555555,0,0,0.05555555555555555,160.72222222222223,0)" xlink:href="#cL"/><use transform="matrix(0.05555555555555555,0,0,0.05555555555555555,166.27777777777777,0)" xlink:href="#cj"/><path fill="#fff" d="M-1 1.07h179.4v2.1H-1z"/></g><path d="M96-169c-40 0-48 33-48 73s9 75 48 75c24 0 41-14 43-38l32 2c-6 37-31 61-74 61-59 0-76-41-82-99-10-93 101-131 147-64 4 7 5 14 7 22l-32 3c-4-21-16-35-41-35" id="cO"/><g id="av"><use transform="matrix(0.05555555555555555,0,0,0.05555555555555555,0,0)" xlink:href="#bW"/><use transform="matrix(0.05555555555555555,0,0,0.05555555555555555,4.388888888888888,0)" xlink:href="#bM"/><use transform="matrix(0.05555555555555555,0,0,0.05555555555555555,15.5,0)" xlink:href="#cb"/><use transform="matrix(0.05555555555555555,0,0,0.05555555555555555,25.5,0)" xlink:href="#bV"/><use transform="matrix(0.05555555555555555,0,0,0.05555555555555555,31.05555555555556,0)" xlink:href="#bN"/><use transform="matrix(0.05555555555555555,0,0,0.05555555555555555,42.16666666666667,0)" xlink:href="#bM"/><use transform="matrix(0.05555555555555555,0,0,0.05555555555555555,53.277777777777786,0)" xlink:href="#cO"/><use transform="matrix(0.05555555555555555,0,0,0.05555555555555555,63.277777777777786,0)" xlink:href="#bP"/></g><path d="M101-234c-31-9-42 10-38 44h38v23H63V0H32v-167H5v-23h27c-7-52 17-82 69-68v24" id="cP"/><g id="aw"><use transform="matrix(0.05555555555555555,0,0,0.05555555555555555,0,0)" xlink:href="#bX"/><use transform="matrix(0.05555555555555555,0,0,0.05555555555555555,11.11111111111111,0)" xlink:href="#cP"/></g></defs></g></svg>