<svg xmlns="http://www.w3.org/2000/svg" xmlns:xlink="http://www.w3.org/1999/xlink" xmlns:lucid="lucid" width="1152.17" height="1083.37"><g transform="translate(0 0)" lucid:page-tab-id="Au3VKFSytA-h"><g filter="url(#a)"><path d="M559.27 242.35h259.58v176H559.27z" fill="#fff"/><path d="M559.27 316.35h259.58v34H559.27zM559.27 384.35h259.58v34H559.27z" fill="#e6e6e6"/><path d="M559.27 242.35h259.58v40H559.27z" fill="#ccc"/><path d="M559.27 242.35h259.58v176H559.27zM559.27 282.35h259.58" stroke="#999" fill="none"/><use xlink:href="#b" transform="matrix(1,0,0,1,564.2702773505241,284.84937213859257) translate(0 18.5)"/><use xlink:href="#c" transform="matrix(1,0,0,1,564.2702773505241,284.84937213859257) translate(55.5 18.5)"/><use xlink:href="#d" transform="matrix(1,0,0,1,564.2702773505241,318.84937213859257) translate(0 18.5)"/><use xlink:href="#c" transform="matrix(1,0,0,1,564.2702773505241,318.84937213859257) translate(102.05555555555556 18.5)"/><g><use xlink:href="#e" transform="matrix(1,0,0,1,564.2702773505241,352.84937213859257) translate(0 18.5)"/><use xlink:href="#f" transform="matrix(1,0,0,1,564.2702773505241,352.84937213859257) translate(104.33333333333334 18.5)"/></g><g><use xlink:href="#g" transform="matrix(1,0,0,1,564.2702773505241,386.84937213859257) translate(0 18.5)"/><use xlink:href="#h" transform="matrix(1,0,0,1,564.2702773505241,386.84937213859257) translate(5.555555555555555 18.5)"/><use xlink:href="#i" transform="matrix(1,0,0,1,564.2702773505241,386.84937213859257) translate(17.72222222222222 18.5)"/><use xlink:href="#j" transform="matrix(1,0,0,1,564.2702773505241,386.84937213859257) translate(38.77777777777778 18.5)"/></g></g><path d="M559.7 243.67h259.15v40.6H559.7z" stroke="#999" fill="#114b7c"/><use xlink:href="#k" transform="matrix(1,0,0,1,564.4918029622457,248.47058102297103) translate(52.483333333333334 21.2)"/><g filter="url(#l)"><path d="M919.27 243.65h179.58v108H919.27z" fill="#fff"/><path d="M919.27 317.65h179.58v34H919.27z" fill="#e6e6e6"/><path d="M919.27 243.65h179.58v40H919.27z" fill="#ccc"/><path d="M919.27 243.65h179.58v108H919.27zM919.27 283.65h179.58" stroke="#999" fill="none"/><use xlink:href="#b" transform="matrix(1,0,0,1,924.2702773505241,286.1506278614079) translate(0 18.5)"/><use xlink:href="#c" transform="matrix(1,0,0,1,924.2702773505241,286.1506278614079) translate(55.5 18.5)"/><g><use xlink:href="#d" transform="matrix(1,0,0,1,924.2702773505241,320.1506278614079) translate(0 18.5)"/><use xlink:href="#c" transform="matrix(1,0,0,1,924.2702773505241,320.1506278614079) translate(102.05555555555556 18.5)"/></g></g><path d="M919.27 242.35h179.28v40H919.27z" stroke="#999" fill="#114b7c"/><use xlink:href="#m" transform="matrix(1,0,0,1,924.0702773505241,247.14937213859258) translate(27.28888888888889 21.1375)"/><path d="M849.72 367.35h7.34c6.63 0 12-5.37 12-12v-80.5c0-6.63 5.37-12 12-12h37.2" stroke="#999" fill="none"/><path d="M820.05 367.35l14.85-14.85 15.15 14.85-15.15 14.85z" stroke="#999" fill="#fff"/><path d="M918.77 263.35h-.5v-1h.5z" fill="#999"/><use xlink:href="#n" transform="matrix(1,0,0,1,877.9623129910505,231.64937213859258) translate(5 19.2)"/><path d="M689.06 481.35v-39.5" stroke="#999" fill="none"/><path d="M689.56 481.85h-1v-.5h1z" fill="#999"/><path d="M689.06 419.83l12.72 21.52h-25.45z" stroke="#999" fill="#fff"/><use xlink:href="#o" transform="matrix(1,0,0,1,697.0587595554746,436.7492434564223) translate(5 19.2)"/><g filter="url(#p)"><path d="M489.92 482.35H889.5v176H489.92z" fill="#fff"/><path d="M489.92 556.35H889.5v34H489.92zM489.92 624.35H889.5v34H489.92z" fill="#e6e6e6"/><path d="M489.92 482.35H889.5v40H489.92z" fill="#ccc"/><path d="M489.92 482.35H889.5v176H489.92zM489.92 522.35H889.5" stroke="#999" fill="none"/><use xlink:href="#e" transform="matrix(1,0,0,1,494.9176530343284,524.8493721385926) translate(0 18.5)"/><use xlink:href="#f" transform="matrix(1,0,0,1,494.9176530343284,524.8493721385926) translate(104.33333333333334 18.5)"/><use xlink:href="#q" transform="matrix(1,0,0,1,494.9176530343284,558.8493721385926) translate(0 18.5)"/><use xlink:href="#r" transform="matrix(1,0,0,1,494.9176530343284,558.8493721385926) translate(12.166666666666666 18.5)"/><use xlink:href="#s" transform="matrix(1,0,0,1,494.9176530343284,558.8493721385926) translate(130.8888888888889 18.5)"/><use xlink:href="#t" transform="matrix(1,0,0,1,494.9176530343284,558.8493721385926) translate(175.22222222222223 18.5)"/><use xlink:href="#u" transform="matrix(1,0,0,1,494.9176530343284,558.8493721385926) translate(190.77777777777777 18.5)"/><use xlink:href="#t" transform="matrix(1,0,0,1,494.9176530343284,558.8493721385926) translate(242.88888888888889 18.5)"/><use xlink:href="#v" transform="matrix(1,0,0,1,494.9176530343284,558.8493721385926) translate(258.44444444444446 18.5)"/><use xlink:href="#w" transform="matrix(1,0,0,1,494.9176530343284,558.8493721385926) translate(323.94444444444446 18.5)"/><g><use xlink:href="#q" transform="matrix(1,0,0,1,494.9176530343284,592.8493721385926) translate(0 18.5)"/><use xlink:href="#x" transform="matrix(1,0,0,1,494.9176530343284,592.8493721385926) translate(12.166666666666666 18.5)"/><use xlink:href="#y" transform="matrix(1,0,0,1,494.9176530343284,592.8493721385926) translate(117.55555555555557 18.5)"/><use xlink:href="#z" transform="matrix(1,0,0,1,494.9176530343284,592.8493721385926) translate(167.44444444444446 18.5)"/><use xlink:href="#A" transform="matrix(1,0,0,1,494.9176530343284,592.8493721385926) translate(272.8888888888889 18.5)"/></g><g><use xlink:href="#B" transform="matrix(1,0,0,1,494.9176530343284,626.8493721385926) translate(0 18.5)"/><use xlink:href="#C" transform="matrix(1,0,0,1,494.9176530343284,626.8493721385926) translate(135.33333333333334 18.5)"/></g></g><path d="M490.57 483.65H889.5v40H490.57z" stroke="#999" fill="#114b7c"/><use xlink:href="#D" transform="matrix(1,0,0,1,495.36653006321495,488.4506278614079) translate(96.81666666666669 21.1375)"/><g filter="url(#E)"><path d="M459.27 722.35h320v336h-320z" fill="#fff"/><path d="M459.27 796.35h320v34h-320zM459.27 864.35h320v34h-320zM459.27 932.35h320v34h-320zM459.27 1000.35h320v58h-320z" fill="#e6e6e6"/><path d="M459.27 722.35h320v40h-320z" fill="#ccc"/><path d="M459.27 722.35h320v336h-320zM459.27 762.35h320" stroke="#999" fill="none"/><use xlink:href="#b" transform="matrix(1,0,0,1,464.2702773505241,764.8493721385926) translate(0 18.5)"/><use xlink:href="#c" transform="matrix(1,0,0,1,464.2702773505241,764.8493721385926) translate(55.5 18.5)"/><use xlink:href="#d" transform="matrix(1,0,0,1,464.2702773505241,798.8493721385926) translate(0 18.5)"/><use xlink:href="#c" transform="matrix(1,0,0,1,464.2702773505241,798.8493721385926) translate(102.05555555555556 18.5)"/><use xlink:href="#F" transform="matrix(1,0,0,1,464.2702773505241,832.8493721385926) translate(0 18.5)"/><use xlink:href="#w" transform="matrix(1,0,0,1,464.2702773505241,832.8493721385926) translate(166.44444444444446 18.5)"/><use xlink:href="#G" transform="matrix(1,0,0,1,464.2702773505241,866.8493721385926) translate(0 18.5)"/><use xlink:href="#c" transform="matrix(1,0,0,1,464.2702773505241,866.8493721385926) translate(80.94444444444446 18.5)"/><g><use xlink:href="#H" transform="matrix(1,0,0,1,464.2702773505241,900.8493721385926) translate(0 18.5)"/><use xlink:href="#c" transform="matrix(1,0,0,1,464.2702773505241,900.8493721385926) translate(74.33333333333334 18.5)"/></g><g><use xlink:href="#I" transform="matrix(1,0,0,1,464.2702773505241,934.8493721385926) translate(0 18.5)"/><use xlink:href="#J" transform="matrix(1,0,0,1,464.2702773505241,934.8493721385926) translate(144.27777777777777 18.5)"/></g><g><use xlink:href="#K" transform="matrix(1,0,0,1,464.2702773505241,968.8493721385926) translate(0 18.5)"/><use xlink:href="#L" transform="matrix(1,0,0,1,464.2702773505241,968.8493721385926) translate(63.27777777777777 18.5)"/></g><g><use xlink:href="#M" transform="matrix(1,0,0,1,464.2702773505241,1002.8493721385926) translate(0 18.5)"/><use xlink:href="#N" transform="matrix(1,0,0,1,464.2702773505241,1002.8493721385926) translate(118.72222222222223 18.5)"/><use xlink:href="#O" transform="matrix(1,0,0,1,464.2702773505241,1002.8493721385926) translate(146.5 18.5)"/><use xlink:href="#P" transform="matrix(1,0,0,1,464.2702773505241,1002.8493721385926) translate(0 42.5)"/><use xlink:href="#Q" transform="matrix(1,0,0,1,464.2702773505241,1002.8493721385926) translate(12.166666666666666 42.5)"/><use xlink:href="#R" transform="matrix(1,0,0,1,464.2702773505241,1002.8493721385926) translate(49.888888888888886 42.5)"/><use xlink:href="#S" transform="matrix(1,0,0,1,464.2702773505241,1002.8493721385926) translate(67.11111111111111 42.5)"/></g></g><path d="M459.8 723.65h319.47v40H459.8z" stroke="#999" fill="#114b7c"/><use xlink:href="#T" transform="matrix(1,0,0,1,464.5899265872892,728.4506278614078) translate(84.51111111111112 21.1375)"/><g filter="url(#U)"><path d="M919.27 923.65H1117v142H919.27z" fill="#fff"/><path d="M919.27 997.65H1117v34H919.27z" fill="#e6e6e6"/><path d="M919.27 923.65H1117v40H919.27z" fill="#ccc"/><path d="M919.27 923.65H1117v142H919.27zM919.27 963.65H1117" stroke="#999" fill="none"/><use xlink:href="#b" transform="matrix(1,0,0,1,924.2702773505243,966.1506278614074) translate(0 18.5)"/><use xlink:href="#c" transform="matrix(1,0,0,1,924.2702773505243,966.1506278614074) translate(55.5 18.5)"/><use xlink:href="#d" transform="matrix(1,0,0,1,924.2702773505243,1000.1506278614074) translate(0 18.5)"/><use xlink:href="#c" transform="matrix(1,0,0,1,924.2702773505243,1000.1506278614074) translate(102.05555555555556 18.5)"/><g><use xlink:href="#V" transform="matrix(1,0,0,1,924.2702773505243,1034.1506278614074) translate(0 18.5)"/><use xlink:href="#c" transform="matrix(1,0,0,1,924.2702773505243,1034.1506278614074) translate(123.16666666666669 18.5)"/></g></g><path d="M919.27 922.35h197.4v40h-197.4z" stroke="#999" fill="#114b7c"/><use xlink:href="#W" transform="matrix(1,0,0,1,924.0702773505241,927.1493721385925) translate(56.205555555555556 21.1375)"/><path d="M780.27 983.35h57c6.63 0 12-5.37 12-12v-17c0-6.63 5.37-12 12-12h56.6" stroke="#999" fill="none"/><path d="M780.28 983.85h-.5v-1h.5z" fill="#999"/><path d="M900.57 952.53l17.22-10.18-17.23-10.18" stroke="#999" fill="none"/><use xlink:href="#X" transform="matrix(1,0,0,1,794.9172026238858,987.3493721385925) translate(5 19.2)"/><g filter="url(#Y)"><path d="M879.76 723h260v142h-260z" fill="#fff"/><path d="M879.76 797h260v34h-260z" fill="#e6e6e6"/><path d="M879.76 723h260v40h-260z" fill="#ccc"/><path d="M879.76 723h260v142h-260zM879.76 763h260" stroke="#999" fill="none"/><use xlink:href="#b" transform="matrix(1,0,0,1,884.7581379031415,765.5) translate(0 18.5)"/><use xlink:href="#c" transform="matrix(1,0,0,1,884.7581379031415,765.5) translate(55.5 18.5)"/><use xlink:href="#d" transform="matrix(1,0,0,1,884.7581379031415,799.5) translate(0 18.5)"/><use xlink:href="#c" transform="matrix(1,0,0,1,884.7581379031415,799.5) translate(102.05555555555556 18.5)"/><g><use xlink:href="#Z" transform="matrix(1,0,0,1,884.7581379031415,833.5) translate(0 18.5)"/><use xlink:href="#w" transform="matrix(1,0,0,1,884.7581379031415,833.5) translate(160.83333333333331 18.5)"/></g></g><path d="M880.18 724.3h259.58v40H880.18z" stroke="#999" fill="#114b7c"/><use xlink:href="#aa" transform="matrix(1,0,0,1,884.9803529080132,729.1012557228153) translate(46.233333333333334 21.1375)"/><path d="M810.15 949.35h7.36c6.64 0 12-5.37 12-12V755c0-6.63 5.4-12 12-12h37.26" stroke="#999" fill="none"/><path d="M780.48 949.35l14.85-14.85 15.15 14.85-15.15 14.85z" stroke="#999" fill="#fff"/><path d="M879.26 743.5h-.5v-1h.5z" fill="#999"/><use xlink:href="#ab" transform="matrix(1,0,0,1,829.6865796085636,711.8) translate(5 19.2)"/><path d="M488.92 641.35h-58.15c-6.63 0-12 5.37-12 12v77c0 6.63 5.37 12 12 12h27.1" stroke="#999" fill="none"/><path d="M489.42 641.85h-.52v-1h.52z" fill="#999"/><path d="M440.57 752.53l17.22-10.18-17.23-10.18" stroke="#999" fill="none"/><use xlink:href="#X" transform="matrix(1,0,0,1,426.7702773505241,668.2338211176898) translate(5 19.2)"/><g filter="url(#ac)"><path d="M.24 2.35h299.58v248H.24z" fill="#fff"/><path d="M.24 76.35h299.58v34H.24zM.24 168.35h299.58v82H.24z" fill="#e6e6e6"/><path d="M.24 2.35h299.58v40H.24z" fill="#ccc"/><path d="M.24 2.35h299.58v248H.24zM.24 42.35h299.58" stroke="#666" fill="none"/><use xlink:href="#ad" transform="matrix(1,0,0,1,5.243240883158478,44.84937213859257) translate(0 18.5)"/><use xlink:href="#ae" transform="matrix(1,0,0,1,5.243240883158478,44.84937213859257) translate(55.5 18.5)"/><use xlink:href="#af" transform="matrix(1,0,0,1,5.243240883158478,78.84937213859257) translate(0 18.5)"/><use xlink:href="#ae" transform="matrix(1,0,0,1,5.243240883158478,78.84937213859257) translate(102.05555555555556 18.5)"/><g><use xlink:href="#ag" transform="matrix(1,0,0,1,5.243240883158478,112.84937213859257) translate(0 18.5)"/><use xlink:href="#ah" transform="matrix(1,0,0,1,5.243240883158478,112.84937213859257) translate(0 42.5)"/><use xlink:href="#ai" transform="matrix(1,0,0,1,5.243240883158478,112.84937213859257) translate(12.166666666666666 42.5)"/><use xlink:href="#ae" transform="matrix(1,0,0,1,5.243240883158478,112.84937213859257) translate(49.888888888888886 42.5)"/></g><g><use xlink:href="#aj" transform="matrix(1,0,0,1,5.243240883158478,170.84937213859257) translate(0 18.5)"/><use xlink:href="#ak" transform="matrix(1,0,0,1,5.243240883158478,170.84937213859257) translate(39.94444444444444 18.5)"/><use xlink:href="#al" transform="matrix(1,0,0,1,5.243240883158478,170.84937213859257) translate(78.83333333333333 18.5)"/><use xlink:href="#am" transform="matrix(1,0,0,1,5.243240883158478,170.84937213859257) translate(198.61111111111111 18.5)"/><use xlink:href="#an" transform="matrix(1,0,0,1,5.243240883158478,170.84937213859257) translate(0 42.5)"/><use xlink:href="#ao" transform="matrix(1,0,0,1,5.243240883158478,170.84937213859257) translate(11.11111111111111 42.5)"/><use xlink:href="#ap" transform="matrix(1,0,0,1,5.243240883158478,170.84937213859257) translate(0 66.5)"/><use xlink:href="#aq" transform="matrix(1,0,0,1,5.243240883158478,170.84937213859257) translate(107.61111111111111 66.5)"/><use xlink:href="#ar" transform="matrix(1,0,0,1,5.243240883158478,170.84937213859257) translate(173.05555555555554 66.5)"/></g></g><path d="M.73 3.65h299.1v40H.72z" stroke="#666" fill="#114b7c"/><use xlink:href="#as" transform="matrix(1,0,0,1,5.529722649476002,8.450627861407888) translate(86.28888888888889 21.1375)"/><path d="M146.57 301.35v-27.5" stroke="#000" fill="none"/><path d="M147.07 301.85h-1v-.5h1z"/><path d="M146.57 251.83l12.73 21.52h-25.45z" stroke="#000" fill="#fff"/><use xlink:href="#at" transform="matrix(1,0,0,1,154.5731540472105,271.57192388662145) translate(5 19.2)"/><g filter="url(#au)"><path d="M0 302.35h299.58v132H0z" fill="#fff"/><path d="M0 400.35h299.58v34H0z" fill="#e6e6e6"/><path d="M0 302.35h299.58v40H0z" fill="#ccc"/><path d="M0 302.35h299.58v132H0zM0 342.35h299.58" stroke="#666" fill="none"/><use xlink:href="#av" transform="matrix(1,0,0,1,5,344.84937213859257) translate(0 18.5)"/><use xlink:href="#aw" transform="matrix(1,0,0,1,5,344.84937213859257) translate(44.44444444444444 18.5)"/><use xlink:href="#ax" transform="matrix(1,0,0,1,5,344.84937213859257) translate(104.33333333333333 18.5)"/><use xlink:href="#ay" transform="matrix(1,0,0,1,5,344.84937213859257) translate(119.88888888888889 18.5)"/><use xlink:href="#ah" transform="matrix(1,0,0,1,5,344.84937213859257) translate(0 42.5)"/><use xlink:href="#ai" transform="matrix(1,0,0,1,5,344.84937213859257) translate(12.166666666666666 42.5)"/><use xlink:href="#ae" transform="matrix(1,0,0,1,5,344.84937213859257) translate(49.888888888888886 42.5)"/><g><use xlink:href="#az" transform="matrix(1,0,0,1,5,402.84937213859257) translate(0 18.5)"/><use xlink:href="#aA" transform="matrix(1,0,0,1,5,402.84937213859257) translate(37.66666666666667 18.5)"/></g></g><path d="M.5 303.65h299.08v40H.48z" stroke="#666" fill="#114b7c"/><use xlink:href="#aB" transform="matrix(1,0,0,1,5.286481766317041,308.4506278614079) translate(45.67777777777778 21.1375)"/><path d="M300.58 417.35h76.7c6.62 0 12 5.37 12 12v61c0 6.63 5.36 12 12 12h87.23" stroke="#000" fill="none"/><path d="M300.6 417.85h-.52v-1h.5z"/><path d="M471.22 512.53l17.22-10.18-17.22-10.18" stroke="#000" fill="none"/><use xlink:href="#aC" transform="matrix(1,0,0,1,299.83881417994866,362.1493721385925) translate(26.338333333333324 19.2)"/><use xlink:href="#aD" transform="matrix(1,0,0,1,299.83881417994866,362.1493721385925) translate(49.94944444444444 43.2)"/><defs><path fill="#999" d="M117-194c89-4 53 116 60 194h-32v-121c0-31-8-49-39-48C34-167 62-67 57 0H25l-1-190h30c1 10-1 24 2 32 11-22 29-35 61-36" id="aE"/><path fill="#999" d="M141-36C126-15 110 5 73 4 37 3 15-17 15-53c-1-64 63-63 125-63 3-35-9-54-41-54-24 1-41 7-42 31l-33-3c5-37 33-52 76-52 45 0 72 20 72 64v82c-1 20 7 32 28 27v20c-31 9-61-2-59-35zM48-53c0 20 12 33 32 33 41-3 63-29 60-74-43 2-92-5-92 41" id="aF"/><path fill="#999" d="M210-169c-67 3-38 105-44 169h-31v-121c0-29-5-50-35-48C34-165 62-65 56 0H25l-1-190h30c1 10-1 24 2 32 10-44 99-50 107 0 11-21 27-35 58-36 85-2 47 119 55 194h-31v-121c0-29-5-49-35-48" id="aG"/><path fill="#999" d="M100-194c63 0 86 42 84 106H49c0 40 14 67 53 68 26 1 43-12 49-29l28 8c-11 28-37 45-77 45C44 4 14-33 15-96c1-61 26-98 85-98zm52 81c6-60-76-77-97-28-3 7-6 17-6 28h103" id="aH"/><g id="b"><use transform="matrix(0.05555555555555555,0,0,0.05555555555555555,0,0)" xlink:href="#aE"/><use transform="matrix(0.05555555555555555,0,0,0.05555555555555555,11.11111111111111,0)" xlink:href="#aF"/><use transform="matrix(0.05555555555555555,0,0,0.05555555555555555,22.22222222222222,0)" xlink:href="#aG"/><use transform="matrix(0.05555555555555555,0,0,0.05555555555555555,38.83333333333333,0)" xlink:href="#aH"/></g><path fill="#999" d="M87 75C49 33 22-17 22-94c0-76 28-126 65-167h31c-38 41-64 92-64 168S80 34 118 75H87" id="aI"/><path fill="#999" d="M59-47c-2 24 18 29 38 22v24C64 9 27 4 27-40v-127H5v-23h24l9-43h21v43h35v23H59v120" id="aJ"/><path fill="#999" d="M141 0L90-78 38 0H4l68-98-65-92h35l48 74 47-74h35l-64 92 68 98h-35" id="aK"/><path fill="#999" d="M33-261c38 41 65 92 65 168S71 34 33 75H2C39 34 66-17 66-93S39-220 2-261h31" id="aL"/><g id="c"><use transform="matrix(0.05555555555555555,0,0,0.05555555555555555,0,0)" xlink:href="#aI"/><use transform="matrix(0.05555555555555555,0,0,0.05555555555555555,6.611111111111111,0)" xlink:href="#aJ"/><use transform="matrix(0.05555555555555555,0,0,0.05555555555555555,12.166666666666666,0)" xlink:href="#aH"/><use transform="matrix(0.05555555555555555,0,0,0.05555555555555555,23.27777777777778,0)" xlink:href="#aK"/><use transform="matrix(0.05555555555555555,0,0,0.05555555555555555,33.27777777777778,0)" xlink:href="#aJ"/><use transform="matrix(0.05555555555555555,0,0,0.05555555555555555,38.833333333333336,0)" xlink:href="#aL"/></g><path fill="#999" d="M85-194c31 0 48 13 60 33l-1-100h32l1 261h-30c-2-10 0-23-3-31C134-8 116 4 85 4 32 4 16-35 15-94c0-66 23-100 70-100zm9 24c-40 0-46 34-46 75 0 40 6 74 45 74 42 0 51-32 51-76 0-42-9-74-50-73" id="aM"/><path fill="#999" d="M135-143c-3-34-86-38-87 0 15 53 115 12 119 90S17 21 10-45l28-5c4 36 97 45 98 0-10-56-113-15-118-90-4-57 82-63 122-42 12 7 21 19 24 35" id="aN"/><path fill="#999" d="M96-169c-40 0-48 33-48 73s9 75 48 75c24 0 41-14 43-38l32 2c-6 37-31 61-74 61-59 0-76-41-82-99-10-93 101-131 147-64 4 7 5 14 7 22l-32 3c-4-21-16-35-41-35" id="aO"/><path fill="#999" d="M114-163C36-179 61-72 57 0H25l-1-190h30c1 12-1 29 2 39 6-27 23-49 58-41v29" id="aP"/><path fill="#999" d="M24-231v-30h32v30H24zM24 0v-190h32V0H24" id="aQ"/><path fill="#999" d="M115-194c55 1 70 41 70 98S169 2 115 4C84 4 66-9 55-30l1 105H24l-1-265h31l2 30c10-21 28-34 59-34zm-8 174c40 0 45-34 45-75s-6-73-45-74c-42 0-51 32-51 76 0 43 10 73 51 73" id="aR"/><path fill="#999" d="M100-194c62-1 85 37 85 99 1 63-27 99-86 99S16-35 15-95c0-66 28-99 85-99zM99-20c44 1 53-31 53-75 0-43-8-75-51-75s-53 32-53 75 10 74 51 75" id="aS"/><g id="d"><use transform="matrix(0.05555555555555555,0,0,0.05555555555555555,0,0)" xlink:href="#aM"/><use transform="matrix(0.05555555555555555,0,0,0.05555555555555555,11.11111111111111,0)" xlink:href="#aH"/><use transform="matrix(0.05555555555555555,0,0,0.05555555555555555,22.22222222222222,0)" xlink:href="#aN"/><use transform="matrix(0.05555555555555555,0,0,0.05555555555555555,32.22222222222222,0)" xlink:href="#aO"/><use transform="matrix(0.05555555555555555,0,0,0.05555555555555555,42.22222222222222,0)" xlink:href="#aP"/><use transform="matrix(0.05555555555555555,0,0,0.05555555555555555,48.83333333333333,0)" xlink:href="#aQ"/><use transform="matrix(0.05555555555555555,0,0,0.05555555555555555,53.222222222222214,0)" xlink:href="#aR"/><use transform="matrix(0.05555555555555555,0,0,0.05555555555555555,64.33333333333333,0)" xlink:href="#aJ"/><use transform="matrix(0.05555555555555555,0,0,0.05555555555555555,69.88888888888889,0)" xlink:href="#aQ"/><use transform="matrix(0.05555555555555555,0,0,0.05555555555555555,74.27777777777777,0)" xlink:href="#aS"/><use transform="matrix(0.05555555555555555,0,0,0.05555555555555555,85.38888888888889,0)" xlink:href="#aE"/></g><path fill="#999" d="M137 0h-34L2-248h35l83 218 83-218h36" id="aT"/><path fill="#999" d="M30-248c118-7 216 8 213 122C240-48 200 0 122 0H30v-248zM63-27c89 8 146-16 146-99s-60-101-146-95v194" id="aU"/><g id="e"><use transform="matrix(0.05555555555555555,0,0,0.05555555555555555,0,0)" xlink:href="#aT"/><use transform="matrix(0.05555555555555555,0,0,0.05555555555555555,12.222222222222221,0)" xlink:href="#aH"/><use transform="matrix(0.05555555555555555,0,0,0.05555555555555555,23.333333333333332,0)" xlink:href="#aO"/><use transform="matrix(0.05555555555555555,0,0,0.05555555555555555,33.33333333333333,0)" xlink:href="#aJ"/><use transform="matrix(0.05555555555555555,0,0,0.05555555555555555,38.888888888888886,0)" xlink:href="#aS"/><use transform="matrix(0.05555555555555555,0,0,0.05555555555555555,50,0)" xlink:href="#aP"/><use transform="matrix(0.05555555555555555,0,0,0.05555555555555555,56.611111111111114,0)" xlink:href="#aU"/><use transform="matrix(0.05555555555555555,0,0,0.05555555555555555,71,0)" xlink:href="#aF"/><use transform="matrix(0.05555555555555555,0,0,0.05555555555555555,82.11111111111111,0)" xlink:href="#aJ"/><use transform="matrix(0.05555555555555555,0,0,0.05555555555555555,87.66666666666667,0)" xlink:href="#aF"/></g><path fill="#999" d="M24 0v-261h32V0H24" id="aV"/><path fill="#999" d="M84 4C-5 8 30-112 23-190h32v120c0 31 7 50 39 49 72-2 45-101 50-169h31l1 190h-30c-1-10 1-25-2-33-11 22-28 36-60 37" id="aW"/><path fill="#999" d="M33-154v-36h34v36H33zM33 0v-36h34V0H33" id="aX"/><g id="f"><use transform="matrix(0.05555555555555555,0,0,0.05555555555555555,0,0)" xlink:href="#aO"/><use transform="matrix(0.05555555555555555,0,0,0.05555555555555555,10,0)" xlink:href="#aS"/><use transform="matrix(0.05555555555555555,0,0,0.05555555555555555,21.11111111111111,0)" xlink:href="#aV"/><use transform="matrix(0.05555555555555555,0,0,0.05555555555555555,25.5,0)" xlink:href="#aW"/><use transform="matrix(0.05555555555555555,0,0,0.05555555555555555,36.611111111111114,0)" xlink:href="#aG"/><use transform="matrix(0.05555555555555555,0,0,0.05555555555555555,53.22222222222223,0)" xlink:href="#aE"/><use transform="matrix(0.05555555555555555,0,0,0.05555555555555555,64.33333333333334,0)" xlink:href="#aN"/><use transform="matrix(0.05555555555555555,0,0,0.05555555555555555,74.33333333333334,0)" xlink:href="#aX"/></g><path fill="#999" d="M16-82v-28h88v28H16" id="aY"/><use transform="matrix(0.05555555555555555,0,0,0.05555555555555555,0,0)" xlink:href="#aY" id="h"/><g id="i"><use transform="matrix(0.05555555555555555,0,0,0.05555555555555555,0,0)" xlink:href="#aQ"/><use transform="matrix(0.05555555555555555,0,0,0.05555555555555555,4.388888888888888,0)" xlink:href="#aM"/></g><g id="j"><use transform="matrix(0.05555555555555555,0,0,0.05555555555555555,0,0)" xlink:href="#aI"/><use transform="matrix(0.05555555555555555,0,0,0.05555555555555555,6.611111111111111,0)" xlink:href="#aQ"/><use transform="matrix(0.05555555555555555,0,0,0.05555555555555555,11,0)" xlink:href="#aE"/><use transform="matrix(0.05555555555555555,0,0,0.05555555555555555,22.11111111111111,0)" xlink:href="#aJ"/><use transform="matrix(0.05555555555555555,0,0,0.05555555555555555,27.666666666666664,0)" xlink:href="#aL"/></g><filter id="a" filterUnits="objectBoundingBox" x="-.01" y="-.02" width="1.04" height="1.06"><feOffset result="offOut" in="SourceAlpha" dx="2.12" dy="2.12"/><feGaussianBlur result="blurOut" in="offOut" stdDeviation="2.5"/><feColorMatrix result="colorOut" in="blurOut" values="0 0 0 0 0 0 0 0 0 0 0 0 0 0 0 0 0 0 0.5019607843137255 0"/><feBlend in="SourceGraphic" in2="colorOut"/></filter><path fill="#999" d="M24-248c120-7 223 5 221 122C244-46 201 0 124 0H24v-248zM76-40c74 7 117-18 117-86 0-67-45-88-117-82v168" id="aZ"/><path fill="#999" d="M123 10C108 53 80 86 19 72V37c35 8 53-11 59-39L3-190h52l48 148c12-52 28-100 44-148h51" id="ba"/><path fill="#999" d="M135-194c87-1 58 113 63 194h-50c-7-57 23-157-34-157-59 0-34 97-39 157H25l-1-190h47c2 12-1 28 3 38 12-26 28-41 61-42" id="bb"/><path fill="#999" d="M133-34C117-15 103 5 69 4 32 3 11-16 11-54c-1-60 55-63 116-61 1-26-3-47-28-47-18 1-26 9-28 27l-52-2c7-38 36-58 82-57s74 22 75 68l1 82c-1 14 12 18 25 15v27c-30 8-71 5-69-32zm-48 3c29 0 43-24 42-57-32 0-66-3-65 30 0 17 8 27 23 27" id="bc"/><path fill="#999" d="M220-157c-53 9-28 100-34 157h-49v-107c1-27-5-49-29-50C55-147 81-57 75 0H25l-1-190h47c2 12-1 28 3 38 10-53 101-56 108 0 13-22 24-43 59-42 82 1 51 116 57 194h-49v-107c-1-25-5-48-29-50" id="bd"/><path fill="#999" d="M25-224v-37h50v37H25zM25 0v-190h50V0H25" id="be"/><path fill="#999" d="M190-63c-7 42-38 67-86 67-59 0-84-38-90-98-12-110 154-137 174-36l-49 2c-2-19-15-32-35-32-30 0-35 28-38 64-6 74 65 87 74 30" id="bf"/><path fill="#999" d="M136-208V0H84v-208H4v-40h212v40h-80" id="bg"/><path fill="#999" d="M135-194c52 0 70 43 70 98 0 56-19 99-73 100-30 1-46-15-58-35L72 0H24l1-261h50v104c11-23 29-37 60-37zM114-30c31 0 40-27 40-66 0-37-7-63-39-63s-41 28-41 65c0 36 8 64 40 64" id="bh"/><path fill="#999" d="M25 0v-261h50V0H25" id="bi"/><path fill="#999" d="M185-48c-13 30-37 53-82 52C43 2 14-33 14-96s30-98 90-98c62 0 83 45 84 108H66c0 31 8 55 39 56 18 0 30-7 34-22zm-45-69c5-46-57-63-70-21-2 6-4 13-4 21h74" id="bj"/><g id="k"><use transform="matrix(0.05555555555555555,0,0,0.05555555555555555,0,0)" xlink:href="#aZ"/><use transform="matrix(0.05555555555555555,0,0,0.05555555555555555,14.388888888888888,0)" xlink:href="#ba"/><use transform="matrix(0.05555555555555555,0,0,0.05555555555555555,25.5,0)" xlink:href="#bb"/><use transform="matrix(0.05555555555555555,0,0,0.05555555555555555,37.666666666666664,0)" xlink:href="#bc"/><use transform="matrix(0.05555555555555555,0,0,0.05555555555555555,48.77777777777777,0)" xlink:href="#bd"/><use transform="matrix(0.05555555555555555,0,0,0.05555555555555555,66.55555555555554,0)" xlink:href="#be"/><use transform="matrix(0.05555555555555555,0,0,0.05555555555555555,72.1111111111111,0)" xlink:href="#bf"/><use transform="matrix(0.05555555555555555,0,0,0.05555555555555555,83.22222222222221,0)" xlink:href="#bg"/><use transform="matrix(0.05555555555555555,0,0,0.05555555555555555,93.88888888888889,0)" xlink:href="#bc"/><use transform="matrix(0.05555555555555555,0,0,0.05555555555555555,105,0)" xlink:href="#bh"/><use transform="matrix(0.05555555555555555,0,0,0.05555555555555555,117.16666666666666,0)" xlink:href="#bi"/><use transform="matrix(0.05555555555555555,0,0,0.05555555555555555,122.72222222222224,0)" xlink:href="#bj"/><path fill="#999" d="M-1 1.07h135.83v2.1H-1z"/></g><filter id="l" filterUnits="objectBoundingBox" x="-.02" y="-.03" width="1.06" height="1.09"><feOffset result="offOut" in="SourceAlpha" dx="2.12" dy="2.12"/><feGaussianBlur result="blurOut" in="offOut" stdDeviation="2.5"/><feColorMatrix result="colorOut" in="blurOut" values="0 0 0 0 0 0 0 0 0 0 0 0 0 0 0 0 0 0 0.5019607843137255 0"/><feBlend in="SourceGraphic" in2="colorOut"/></filter><path fill="#999" d="M147 0H94L2-248h55l64 206c17-72 42-137 63-206h54" id="bk"/><path fill="#999" d="M115-3C79 11 28 4 28-45v-112H4v-33h27l15-45h31v45h36v33H77v99c-1 23 16 31 38 25v30" id="bl"/><path fill="#999" d="M110-194c64 0 96 36 96 99 0 64-35 99-97 99-61 0-95-36-95-99 0-62 34-99 96-99zm-1 164c35 0 45-28 45-65 0-40-10-65-43-65-34 0-45 26-45 65 0 36 10 65 43 65" id="bm"/><path fill="#999" d="M135-150c-39-12-60 13-60 57V0H25l-1-190h47c2 13-1 29 3 40 6-28 27-53 61-41v41" id="bn"/><g id="m"><use transform="matrix(0.05555555555555555,0,0,0.05555555555555555,0,0)" xlink:href="#bk"/><use transform="matrix(0.05555555555555555,0,0,0.05555555555555555,12.222222222222221,0)" xlink:href="#bj"/><use transform="matrix(0.05555555555555555,0,0,0.05555555555555555,23.333333333333332,0)" xlink:href="#bf"/><use transform="matrix(0.05555555555555555,0,0,0.05555555555555555,34.44444444444444,0)" xlink:href="#bl"/><use transform="matrix(0.05555555555555555,0,0,0.05555555555555555,41.05555555555556,0)" xlink:href="#bm"/><use transform="matrix(0.05555555555555555,0,0,0.05555555555555555,53.22222222222222,0)" xlink:href="#bn"/><use transform="matrix(0.05555555555555555,0,0,0.05555555555555555,61,0)" xlink:href="#aZ"/><use transform="matrix(0.05555555555555555,0,0,0.05555555555555555,75.38888888888889,0)" xlink:href="#bc"/><use transform="matrix(0.05555555555555555,0,0,0.05555555555555555,86.5,0)" xlink:href="#bl"/><use transform="matrix(0.05555555555555555,0,0,0.05555555555555555,93.11111111111111,0)" xlink:href="#bc"/><path fill="#999" d="M-1 1.07h106.22v2.1H-1z"/></g><path fill="#999" d="M101-251c68 0 85 55 85 127S166 4 100 4C33 4 14-52 14-124c0-73 17-127 87-127zm-1 229c47 0 54-49 54-102s-4-102-53-102c-51 0-55 48-55 102 0 53 5 102 54 102" id="bo"/><path fill="#999" d="M33 0v-38h34V0H33" id="bp"/><path fill="#999" d="M80-196l47-18 7 23-49 13 32 44-20 13-27-46-27 45-21-12 33-44-49-13 8-23 47 19-2-53h23" id="bq"/><g id="n"><use transform="matrix(0.05555555555555555,0,0,0.05555555555555555,0,0)" xlink:href="#bo"/><use transform="matrix(0.05555555555555555,0,0,0.05555555555555555,11.11111111111111,0)" xlink:href="#bp"/><use transform="matrix(0.05555555555555555,0,0,0.05555555555555555,16.666666666666664,0)" xlink:href="#bp"/><use transform="matrix(0.05555555555555555,0,0,0.05555555555555555,22.22222222222222,0)" xlink:href="#bq"/></g><g id="o"><use transform="matrix(0.05555555555555555,0,0,0.05555555555555555,0,0)" xlink:href="#aH"/><use transform="matrix(0.05555555555555555,0,0,0.05555555555555555,11.11111111111111,0)" xlink:href="#aK"/><use transform="matrix(0.05555555555555555,0,0,0.05555555555555555,21.11111111111111,0)" xlink:href="#aJ"/><use transform="matrix(0.05555555555555555,0,0,0.05555555555555555,26.666666666666664,0)" xlink:href="#aH"/><use transform="matrix(0.05555555555555555,0,0,0.05555555555555555,37.77777777777777,0)" xlink:href="#aE"/><use transform="matrix(0.05555555555555555,0,0,0.05555555555555555,48.888888888888886,0)" xlink:href="#aM"/><use transform="matrix(0.05555555555555555,0,0,0.05555555555555555,60,0)" xlink:href="#aN"/></g><use transform="matrix(0.05555555555555555,0,0,0.05555555555555555,0,0)" xlink:href="#aY" id="q"/><path fill="#999" d="M177-190C167-65 218 103 67 71c-23-6-38-20-44-43l32-5c15 47 100 32 89-28v-30C133-14 115 1 83 1 29 1 15-40 15-95c0-56 16-97 71-98 29-1 48 16 59 35 1-10 0-23 2-32h30zM94-22c36 0 50-32 50-73 0-42-14-75-50-75-39 0-46 34-46 75s6 73 46 73" id="br"/><path fill="#999" d="M-5 72V49h209v23H-5" id="bs"/><path fill="#999" d="M143 0L79-87 56-68V0H24v-261h32v163l83-92h37l-77 82L181 0h-38" id="bt"/><g id="r"><use transform="matrix(0.05555555555555555,0,0,0.05555555555555555,0,0)" xlink:href="#aQ"/><use transform="matrix(0.05555555555555555,0,0,0.05555555555555555,4.388888888888888,0)" xlink:href="#aG"/><use transform="matrix(0.05555555555555555,0,0,0.05555555555555555,21,0)" xlink:href="#aF"/><use transform="matrix(0.05555555555555555,0,0,0.05555555555555555,32.111111111111114,0)" xlink:href="#br"/><use transform="matrix(0.05555555555555555,0,0,0.05555555555555555,43.22222222222223,0)" xlink:href="#aH"/><use transform="matrix(0.05555555555555555,0,0,0.05555555555555555,54.33333333333334,0)" xlink:href="#bs"/><use transform="matrix(0.05555555555555555,0,0,0.05555555555555555,65.44444444444446,0)" xlink:href="#aG"/><use transform="matrix(0.05555555555555555,0,0,0.05555555555555555,82.05555555555557,0)" xlink:href="#aF"/><use transform="matrix(0.05555555555555555,0,0,0.05555555555555555,93.16666666666669,0)" xlink:href="#aN"/><use transform="matrix(0.05555555555555555,0,0,0.05555555555555555,103.16666666666669,0)" xlink:href="#bt"/></g><path fill="#999" d="M26 75v-336h71v23H56V52h41v23H26" id="bu"/><g id="s"><use transform="matrix(0.05555555555555555,0,0,0.05555555555555555,0,0)" xlink:href="#bu"/><use transform="matrix(0.05555555555555555,0,0,0.05555555555555555,5.555555555555555,0)" xlink:href="#aE"/><use transform="matrix(0.05555555555555555,0,0,0.05555555555555555,16.666666666666664,0)" xlink:href="#aP"/><use transform="matrix(0.05555555555555555,0,0,0.05555555555555555,23.277777777777775,0)" xlink:href="#aS"/><use transform="matrix(0.05555555555555555,0,0,0.05555555555555555,34.388888888888886,0)" xlink:href="#aQ"/></g><use transform="matrix(0.05555555555555555,0,0,0.05555555555555555,0,0)" xlink:href="#aK" id="t"/><path fill="#999" d="M206 0h-36l-40-164L89 0H53L-1-190h32L70-26l43-164h34l41 164 42-164h31" id="bv"/><path fill="#999" d="M106-169C34-169 62-67 57 0H25v-261h32l-1 103c12-21 28-36 61-36 89 0 53 116 60 194h-32v-121c2-32-8-49-39-48" id="bw"/><g id="u"><use transform="matrix(0.05555555555555555,0,0,0.05555555555555555,0,0)" xlink:href="#bv"/><use transform="matrix(0.05555555555555555,0,0,0.05555555555555555,14.388888888888888,0)" xlink:href="#aQ"/><use transform="matrix(0.05555555555555555,0,0,0.05555555555555555,18.777777777777775,0)" xlink:href="#aM"/><use transform="matrix(0.05555555555555555,0,0,0.05555555555555555,29.888888888888886,0)" xlink:href="#aJ"/><use transform="matrix(0.05555555555555555,0,0,0.05555555555555555,35.44444444444444,0)" xlink:href="#bw"/></g><path fill="#999" d="M3 75V52h41v-290H3v-23h71V75H3" id="bx"/><g id="v"><use transform="matrix(0.05555555555555555,0,0,0.05555555555555555,0,0)" xlink:href="#bw"/><use transform="matrix(0.05555555555555555,0,0,0.05555555555555555,11.11111111111111,0)" xlink:href="#aH"/><use transform="matrix(0.05555555555555555,0,0,0.05555555555555555,22.22222222222222,0)" xlink:href="#aQ"/><use transform="matrix(0.05555555555555555,0,0,0.05555555555555555,26.61111111111111,0)" xlink:href="#br"/><use transform="matrix(0.05555555555555555,0,0,0.05555555555555555,37.72222222222222,0)" xlink:href="#bw"/><use transform="matrix(0.05555555555555555,0,0,0.05555555555555555,48.83333333333333,0)" xlink:href="#aJ"/><use transform="matrix(0.05555555555555555,0,0,0.05555555555555555,54.388888888888886,0)" xlink:href="#bx"/></g><path fill="#999" d="M101-234c-31-9-42 10-38 44h38v23H63V0H32v-167H5v-23h27c-7-52 17-82 69-68v24" id="by"/><g id="w"><use transform="matrix(0.05555555555555555,0,0,0.05555555555555555,0,0)" xlink:href="#aI"/><use transform="matrix(0.05555555555555555,0,0,0.05555555555555555,6.611111111111111,0)" xlink:href="#by"/><use transform="matrix(0.05555555555555555,0,0,0.05555555555555555,12.166666666666666,0)" xlink:href="#aV"/><use transform="matrix(0.05555555555555555,0,0,0.05555555555555555,16.555555555555554,0)" xlink:href="#aS"/><use transform="matrix(0.05555555555555555,0,0,0.05555555555555555,27.666666666666664,0)" xlink:href="#aF"/><use transform="matrix(0.05555555555555555,0,0,0.05555555555555555,38.77777777777777,0)" xlink:href="#aJ"/><use transform="matrix(0.05555555555555555,0,0,0.05555555555555555,44.33333333333333,0)" xlink:href="#aL"/></g><g id="x"><use transform="matrix(0.05555555555555555,0,0,0.05555555555555555,0,0)" xlink:href="#aR"/><use transform="matrix(0.05555555555555555,0,0,0.05555555555555555,11.11111111111111,0)" xlink:href="#aQ"/><use transform="matrix(0.05555555555555555,0,0,0.05555555555555555,15.5,0)" xlink:href="#aK"/><use transform="matrix(0.05555555555555555,0,0,0.05555555555555555,25.5,0)" xlink:href="#aH"/><use transform="matrix(0.05555555555555555,0,0,0.05555555555555555,36.611111111111114,0)" xlink:href="#aV"/><use transform="matrix(0.05555555555555555,0,0,0.05555555555555555,41,0)" xlink:href="#bs"/><use transform="matrix(0.05555555555555555,0,0,0.05555555555555555,52.111111111111114,0)" xlink:href="#aG"/><use transform="matrix(0.05555555555555555,0,0,0.05555555555555555,68.72222222222223,0)" xlink:href="#aF"/><use transform="matrix(0.05555555555555555,0,0,0.05555555555555555,79.83333333333334,0)" xlink:href="#aN"/><use transform="matrix(0.05555555555555555,0,0,0.05555555555555555,89.83333333333334,0)" xlink:href="#bt"/></g><g id="y"><use transform="matrix(0.05555555555555555,0,0,0.05555555555555555,0,0)" xlink:href="#bu"/><use transform="matrix(0.05555555555555555,0,0,0.05555555555555555,5.555555555555555,0)" xlink:href="#aE"/><use transform="matrix(0.05555555555555555,0,0,0.05555555555555555,16.666666666666664,0)" xlink:href="#aP"/><use transform="matrix(0.05555555555555555,0,0,0.05555555555555555,23.277777777777775,0)" xlink:href="#aS"/><use transform="matrix(0.05555555555555555,0,0,0.05555555555555555,34.388888888888886,0)" xlink:href="#aQ"/><use transform="matrix(0.05555555555555555,0,0,0.05555555555555555,38.77777777777777,0)" xlink:href="#bx"/></g><g id="z"><use transform="matrix(0.05555555555555555,0,0,0.05555555555555555,0,0)" xlink:href="#aI"/><use transform="matrix(0.05555555555555555,0,0,0.05555555555555555,6.611111111111111,0)" xlink:href="#aO"/><use transform="matrix(0.05555555555555555,0,0,0.05555555555555555,16.61111111111111,0)" xlink:href="#aS"/><use transform="matrix(0.05555555555555555,0,0,0.05555555555555555,27.72222222222222,0)" xlink:href="#aG"/><use transform="matrix(0.05555555555555555,0,0,0.05555555555555555,44.33333333333333,0)" xlink:href="#aR"/><use transform="matrix(0.05555555555555555,0,0,0.05555555555555555,55.44444444444444,0)" xlink:href="#aS"/><use transform="matrix(0.05555555555555555,0,0,0.05555555555555555,66.55555555555556,0)" xlink:href="#aW"/><use transform="matrix(0.05555555555555555,0,0,0.05555555555555555,77.66666666666667,0)" xlink:href="#aE"/><use transform="matrix(0.05555555555555555,0,0,0.05555555555555555,88.77777777777779,0)" xlink:href="#aM"/></g><path fill="#999" d="M179-190L93 31C79 59 56 82 12 73V49c39 6 53-20 64-50L1-190h34L92-34l54-156h33" id="bz"/><g id="A"><use transform="matrix(0.05555555555555555,0,0,0.05555555555555555,0,0)" xlink:href="#aJ"/><use transform="matrix(0.05555555555555555,0,0,0.05555555555555555,5.555555555555555,0)" xlink:href="#bz"/><use transform="matrix(0.05555555555555555,0,0,0.05555555555555555,15.555555555555555,0)" xlink:href="#aR"/><use transform="matrix(0.05555555555555555,0,0,0.05555555555555555,26.666666666666664,0)" xlink:href="#aH"/><use transform="matrix(0.05555555555555555,0,0,0.05555555555555555,37.77777777777777,0)" xlink:href="#aL"/></g><g id="B"><use transform="matrix(0.05555555555555555,0,0,0.05555555555555555,0,0)" xlink:href="#aQ"/><use transform="matrix(0.05555555555555555,0,0,0.05555555555555555,4.388888888888888,0)" xlink:href="#aG"/><use transform="matrix(0.05555555555555555,0,0,0.05555555555555555,21,0)" xlink:href="#aF"/><use transform="matrix(0.05555555555555555,0,0,0.05555555555555555,32.111111111111114,0)" xlink:href="#br"/><use transform="matrix(0.05555555555555555,0,0,0.05555555555555555,43.22222222222223,0)" xlink:href="#aQ"/><use transform="matrix(0.05555555555555555,0,0,0.05555555555555555,47.611111111111114,0)" xlink:href="#aE"/><use transform="matrix(0.05555555555555555,0,0,0.05555555555555555,58.72222222222223,0)" xlink:href="#br"/><use transform="matrix(0.05555555555555555,0,0,0.05555555555555555,69.83333333333334,0)" xlink:href="#bs"/><use transform="matrix(0.05555555555555555,0,0,0.05555555555555555,80.94444444444446,0)" xlink:href="#aR"/><use transform="matrix(0.05555555555555555,0,0,0.05555555555555555,92.05555555555557,0)" xlink:href="#aV"/><use transform="matrix(0.05555555555555555,0,0,0.05555555555555555,96.44444444444446,0)" xlink:href="#aF"/><use transform="matrix(0.05555555555555555,0,0,0.05555555555555555,107.55555555555557,0)" xlink:href="#aE"/><use transform="matrix(0.05555555555555555,0,0,0.05555555555555555,118.66666666666669,0)" xlink:href="#aH"/></g><path fill="#999" d="M33 0v-248h34V0H33" id="bA"/><path fill="#999" d="M30-248c87 1 191-15 191 75 0 78-77 80-158 76V0H30v-248zm33 125c57 0 124 11 124-50 0-59-68-47-124-48v98" id="bB"/><g id="C"><use transform="matrix(0.05555555555555555,0,0,0.05555555555555555,0,0)" xlink:href="#aI"/><use transform="matrix(0.05555555555555555,0,0,0.05555555555555555,6.611111111111111,0)" xlink:href="#bA"/><use transform="matrix(0.05555555555555555,0,0,0.05555555555555555,12.166666666666666,0)" xlink:href="#aG"/><use transform="matrix(0.05555555555555555,0,0,0.05555555555555555,28.777777777777775,0)" xlink:href="#aF"/><use transform="matrix(0.05555555555555555,0,0,0.05555555555555555,39.888888888888886,0)" xlink:href="#br"/><use transform="matrix(0.05555555555555555,0,0,0.05555555555555555,51,0)" xlink:href="#aQ"/><use transform="matrix(0.05555555555555555,0,0,0.05555555555555555,55.388888888888886,0)" xlink:href="#aE"/><use transform="matrix(0.05555555555555555,0,0,0.05555555555555555,66.5,0)" xlink:href="#br"/><use transform="matrix(0.05555555555555555,0,0,0.05555555555555555,77.61111111111111,0)" xlink:href="#bB"/><use transform="matrix(0.05555555555555555,0,0,0.05555555555555555,90.94444444444444,0)" xlink:href="#aV"/><use transform="matrix(0.05555555555555555,0,0,0.05555555555555555,95.33333333333333,0)" xlink:href="#aF"/><use transform="matrix(0.05555555555555555,0,0,0.05555555555555555,106.44444444444444,0)" xlink:href="#aE"/><use transform="matrix(0.05555555555555555,0,0,0.05555555555555555,117.55555555555554,0)" xlink:href="#aH"/><use transform="matrix(0.05555555555555555,0,0,0.05555555555555555,128.66666666666666,0)" xlink:href="#aL"/></g><filter id="p" filterUnits="objectBoundingBox" x="-.01" y="-.02" width="1.03" height="1.06"><feOffset result="offOut" in="SourceAlpha" dx="2.12" dy="2.12"/><feGaussianBlur result="blurOut" in="offOut" stdDeviation="2.5"/><feColorMatrix result="colorOut" in="blurOut" values="0 0 0 0 0 0 0 0 0 0 0 0 0 0 0 0 0 0 0.5019607843137255 0"/><feBlend in="SourceGraphic" in2="colorOut"/></filter><path fill="#999" d="M24-248c93 1 206-16 204 79-1 75-69 88-152 82V0H24v-248zm52 121c47 0 100 7 100-41 0-47-54-39-100-39v80" id="bC"/><path fill="#999" d="M169-182c-1-43-94-46-97-3 18 66 151 10 154 114 3 95-165 93-204 36-6-8-10-19-12-30l50-8c3 46 112 56 116 5-17-69-150-10-154-114-4-87 153-88 188-35 5 8 8 18 10 28" id="bD"/><path fill="#999" d="M195-6C206 82 75 100 31 46c-4-6-6-13-8-21l49-6c3 16 16 24 34 25 40 0 42-37 40-79-11 22-30 35-61 35-53 0-70-43-70-97 0-56 18-96 73-97 30 0 46 14 59 34l2-30h47zm-90-29c32 0 41-27 41-63 0-35-9-62-40-62-32 0-39 29-40 63 0 36 9 62 39 62" id="bE"/><g id="D"><use transform="matrix(0.05555555555555555,0,0,0.05555555555555555,0,0)" xlink:href="#bC"/><use transform="matrix(0.05555555555555555,0,0,0.05555555555555555,13.333333333333332,0)" xlink:href="#bi"/><use transform="matrix(0.05555555555555555,0,0,0.05555555555555555,18.888888888888886,0)" xlink:href="#bc"/><use transform="matrix(0.05555555555555555,0,0,0.05555555555555555,30,0)" xlink:href="#bb"/><use transform="matrix(0.05555555555555555,0,0,0.05555555555555555,42.166666666666664,0)" xlink:href="#bj"/><use transform="matrix(0.05555555555555555,0,0,0.05555555555555555,53.27777777777777,0)" xlink:href="#bD"/><use transform="matrix(0.05555555555555555,0,0,0.05555555555555555,66.6111111111111,0)" xlink:href="#bj"/><use transform="matrix(0.05555555555555555,0,0,0.05555555555555555,77.72222222222221,0)" xlink:href="#bE"/><use transform="matrix(0.05555555555555555,0,0,0.05555555555555555,89.88888888888889,0)" xlink:href="#bd"/><use transform="matrix(0.05555555555555555,0,0,0.05555555555555555,107.66666666666666,0)" xlink:href="#bj"/><use transform="matrix(0.05555555555555555,0,0,0.05555555555555555,118.77777777777777,0)" xlink:href="#bb"/><use transform="matrix(0.05555555555555555,0,0,0.05555555555555555,130.94444444444443,0)" xlink:href="#bl"/><use transform="matrix(0.05555555555555555,0,0,0.05555555555555555,137.55555555555554,0)" xlink:href="#bc"/><use transform="matrix(0.05555555555555555,0,0,0.05555555555555555,148.66666666666666,0)" xlink:href="#bl"/><use transform="matrix(0.05555555555555555,0,0,0.05555555555555555,155.27777777777777,0)" xlink:href="#be"/><use transform="matrix(0.05555555555555555,0,0,0.05555555555555555,160.83333333333331,0)" xlink:href="#bm"/><use transform="matrix(0.05555555555555555,0,0,0.05555555555555555,172.99999999999997,0)" xlink:href="#bb"/><path fill="#999" d="M-1 1.07h187.17v2.1H-1z"/></g><path fill="#999" d="M115-194c53 0 69 39 70 98 0 66-23 100-70 100C84 3 66-7 56-30L54 0H23l1-261h32v101c10-23 28-34 59-34zm-8 174c40 0 45-34 45-75 0-40-5-75-45-74-42 0-51 32-51 76 0 43 10 73 51 73" id="bF"/><g id="F"><use transform="matrix(0.05555555555555555,0,0,0.05555555555555555,0,0)" xlink:href="#aH"/><use transform="matrix(0.05555555555555555,0,0,0.05555555555555555,11.11111111111111,0)" xlink:href="#aK"/><use transform="matrix(0.05555555555555555,0,0,0.05555555555555555,21.11111111111111,0)" xlink:href="#aO"/><use transform="matrix(0.05555555555555555,0,0,0.05555555555555555,31.11111111111111,0)" xlink:href="#aQ"/><use transform="matrix(0.05555555555555555,0,0,0.05555555555555555,35.5,0)" xlink:href="#aJ"/><use transform="matrix(0.05555555555555555,0,0,0.05555555555555555,41.05555555555556,0)" xlink:href="#aF"/><use transform="matrix(0.05555555555555555,0,0,0.05555555555555555,52.16666666666667,0)" xlink:href="#aJ"/><use transform="matrix(0.05555555555555555,0,0,0.05555555555555555,57.72222222222223,0)" xlink:href="#aQ"/><use transform="matrix(0.05555555555555555,0,0,0.05555555555555555,62.11111111111112,0)" xlink:href="#aS"/><use transform="matrix(0.05555555555555555,0,0,0.05555555555555555,73.22222222222223,0)" xlink:href="#aE"/><use transform="matrix(0.05555555555555555,0,0,0.05555555555555555,84.33333333333334,0)" xlink:href="#bs"/><use transform="matrix(0.05555555555555555,0,0,0.05555555555555555,95.44444444444446,0)" xlink:href="#aV"/><use transform="matrix(0.05555555555555555,0,0,0.05555555555555555,99.83333333333334,0)" xlink:href="#aF"/><use transform="matrix(0.05555555555555555,0,0,0.05555555555555555,110.94444444444446,0)" xlink:href="#aG"/><use transform="matrix(0.05555555555555555,0,0,0.05555555555555555,127.55555555555557,0)" xlink:href="#bF"/><use transform="matrix(0.05555555555555555,0,0,0.05555555555555555,138.66666666666669,0)" xlink:href="#aM"/><use transform="matrix(0.05555555555555555,0,0,0.05555555555555555,149.7777777777778,0)" xlink:href="#aF"/></g><g id="G"><use transform="matrix(0.05555555555555555,0,0,0.05555555555555555,0,0)" xlink:href="#aQ"/><use transform="matrix(0.05555555555555555,0,0,0.05555555555555555,4.388888888888888,0)" xlink:href="#aE"/><use transform="matrix(0.05555555555555555,0,0,0.05555555555555555,15.5,0)" xlink:href="#aM"/><use transform="matrix(0.05555555555555555,0,0,0.05555555555555555,26.61111111111111,0)" xlink:href="#aQ"/><use transform="matrix(0.05555555555555555,0,0,0.05555555555555555,31,0)" xlink:href="#aO"/><use transform="matrix(0.05555555555555555,0,0,0.05555555555555555,41,0)" xlink:href="#aF"/><use transform="matrix(0.05555555555555555,0,0,0.05555555555555555,52.111111111111114,0)" xlink:href="#aJ"/><use transform="matrix(0.05555555555555555,0,0,0.05555555555555555,57.66666666666668,0)" xlink:href="#aS"/><use transform="matrix(0.05555555555555555,0,0,0.05555555555555555,68.77777777777779,0)" xlink:href="#aP"/></g><g id="H"><use transform="matrix(0.05555555555555555,0,0,0.05555555555555555,0,0)" xlink:href="#aV"/><use transform="matrix(0.05555555555555555,0,0,0.05555555555555555,4.388888888888888,0)" xlink:href="#aS"/><use transform="matrix(0.05555555555555555,0,0,0.05555555555555555,15.5,0)" xlink:href="#aO"/><use transform="matrix(0.05555555555555555,0,0,0.05555555555555555,25.5,0)" xlink:href="#aF"/><use transform="matrix(0.05555555555555555,0,0,0.05555555555555555,36.611111111111114,0)" xlink:href="#aJ"/><use transform="matrix(0.05555555555555555,0,0,0.05555555555555555,42.16666666666667,0)" xlink:href="#aQ"/><use transform="matrix(0.05555555555555555,0,0,0.05555555555555555,46.55555555555556,0)" xlink:href="#aS"/><use transform="matrix(0.05555555555555555,0,0,0.05555555555555555,57.66666666666668,0)" xlink:href="#aE"/></g><g id="I"><use transform="matrix(0.05555555555555555,0,0,0.05555555555555555,0,0)" xlink:href="#aS"/><use transform="matrix(0.05555555555555555,0,0,0.05555555555555555,11.11111111111111,0)" xlink:href="#aR"/><use transform="matrix(0.05555555555555555,0,0,0.05555555555555555,22.22222222222222,0)" xlink:href="#aJ"/><use transform="matrix(0.05555555555555555,0,0,0.05555555555555555,27.77777777777778,0)" xlink:href="#aQ"/><use transform="matrix(0.05555555555555555,0,0,0.05555555555555555,32.166666666666664,0)" xlink:href="#aO"/><use transform="matrix(0.05555555555555555,0,0,0.05555555555555555,42.166666666666664,0)" xlink:href="#aF"/><use transform="matrix(0.05555555555555555,0,0,0.05555555555555555,53.27777777777777,0)" xlink:href="#aV"/><use transform="matrix(0.05555555555555555,0,0,0.05555555555555555,57.666666666666664,0)" xlink:href="#bs"/><use transform="matrix(0.05555555555555555,0,0,0.05555555555555555,68.77777777777777,0)" xlink:href="#aO"/><use transform="matrix(0.05555555555555555,0,0,0.05555555555555555,78.77777777777777,0)" xlink:href="#bw"/><use transform="matrix(0.05555555555555555,0,0,0.05555555555555555,89.88888888888889,0)" xlink:href="#aF"/><use transform="matrix(0.05555555555555555,0,0,0.05555555555555555,101,0)" xlink:href="#aE"/><use transform="matrix(0.05555555555555555,0,0,0.05555555555555555,112.11111111111111,0)" xlink:href="#aE"/><use transform="matrix(0.05555555555555555,0,0,0.05555555555555555,123.22222222222224,0)" xlink:href="#aH"/><use transform="matrix(0.05555555555555555,0,0,0.05555555555555555,134.33333333333334,0)" xlink:href="#aV"/></g><path fill="#999" d="M140-251c81 0 123 46 123 126C263-46 219 4 140 4 59 4 17-45 17-125s42-126 123-126zm0 227c63 0 89-41 89-101s-29-99-89-99c-61 0-89 39-89 99S79-25 140-24" id="bG"/><path fill="#999" d="M212-179c-10-28-35-45-73-45-59 0-87 40-87 99 0 60 29 101 89 101 43 0 62-24 78-52l27 14C228-24 195 4 139 4 59 4 22-46 18-125c-6-104 99-153 187-111 19 9 31 26 39 46" id="bH"/><g id="J"><use transform="matrix(0.05555555555555555,0,0,0.05555555555555555,0,0)" xlink:href="#aI"/><use transform="matrix(0.05555555555555555,0,0,0.05555555555555555,6.611111111111111,0)" xlink:href="#bG"/><use transform="matrix(0.05555555555555555,0,0,0.05555555555555555,22.166666666666664,0)" xlink:href="#aR"/><use transform="matrix(0.05555555555555555,0,0,0.05555555555555555,33.27777777777777,0)" xlink:href="#aJ"/><use transform="matrix(0.05555555555555555,0,0,0.05555555555555555,38.83333333333333,0)" xlink:href="#aQ"/><use transform="matrix(0.05555555555555555,0,0,0.05555555555555555,43.222222222222214,0)" xlink:href="#aO"/><use transform="matrix(0.05555555555555555,0,0,0.05555555555555555,53.222222222222214,0)" xlink:href="#aF"/><use transform="matrix(0.05555555555555555,0,0,0.05555555555555555,64.33333333333333,0)" xlink:href="#aV"/><use transform="matrix(0.05555555555555555,0,0,0.05555555555555555,68.72222222222221,0)" xlink:href="#bH"/><use transform="matrix(0.05555555555555555,0,0,0.05555555555555555,83.1111111111111,0)" xlink:href="#bw"/><use transform="matrix(0.05555555555555555,0,0,0.05555555555555555,94.22222222222221,0)" xlink:href="#aF"/><use transform="matrix(0.05555555555555555,0,0,0.05555555555555555,105.33333333333333,0)" xlink:href="#aE"/><use transform="matrix(0.05555555555555555,0,0,0.05555555555555555,116.44444444444444,0)" xlink:href="#aE"/><use transform="matrix(0.05555555555555555,0,0,0.05555555555555555,127.55555555555554,0)" xlink:href="#aH"/><use transform="matrix(0.05555555555555555,0,0,0.05555555555555555,138.66666666666666,0)" xlink:href="#aV"/><use transform="matrix(0.05555555555555555,0,0,0.05555555555555555,143.05555555555554,0)" xlink:href="#aL"/></g><path fill="#999" d="M108 0H70L1-190h34L89-25l56-165h34" id="bI"/><g id="K"><use transform="matrix(0.05555555555555555,0,0,0.05555555555555555,0,0)" xlink:href="#aM"/><use transform="matrix(0.05555555555555555,0,0,0.05555555555555555,11.11111111111111,0)" xlink:href="#aH"/><use transform="matrix(0.05555555555555555,0,0,0.05555555555555555,22.22222222222222,0)" xlink:href="#bI"/><use transform="matrix(0.05555555555555555,0,0,0.05555555555555555,32.22222222222222,0)" xlink:href="#aQ"/><use transform="matrix(0.05555555555555555,0,0,0.05555555555555555,36.61111111111111,0)" xlink:href="#aO"/><use transform="matrix(0.05555555555555555,0,0,0.05555555555555555,46.61111111111111,0)" xlink:href="#aH"/></g><g id="L"><use transform="matrix(0.05555555555555555,0,0,0.05555555555555555,0,0)" xlink:href="#aI"/><use transform="matrix(0.05555555555555555,0,0,0.05555555555555555,6.611111111111111,0)" xlink:href="#aU"/><use transform="matrix(0.05555555555555555,0,0,0.05555555555555555,21,0)" xlink:href="#aH"/><use transform="matrix(0.05555555555555555,0,0,0.05555555555555555,32.111111111111114,0)" xlink:href="#bI"/><use transform="matrix(0.05555555555555555,0,0,0.05555555555555555,42.111111111111114,0)" xlink:href="#aQ"/><use transform="matrix(0.05555555555555555,0,0,0.05555555555555555,46.5,0)" xlink:href="#aO"/><use transform="matrix(0.05555555555555555,0,0,0.05555555555555555,56.5,0)" xlink:href="#aH"/><use transform="matrix(0.05555555555555555,0,0,0.05555555555555555,67.61111111111111,0)" xlink:href="#aL"/></g><g id="M"><use transform="matrix(0.05555555555555555,0,0,0.05555555555555555,0,0)" xlink:href="#br"/><use transform="matrix(0.05555555555555555,0,0,0.05555555555555555,11.11111111111111,0)" xlink:href="#aP"/><use transform="matrix(0.05555555555555555,0,0,0.05555555555555555,17.72222222222222,0)" xlink:href="#aQ"/><use transform="matrix(0.05555555555555555,0,0,0.05555555555555555,22.11111111111111,0)" xlink:href="#aM"/><use transform="matrix(0.05555555555555555,0,0,0.05555555555555555,33.22222222222222,0)" xlink:href="#bs"/><use transform="matrix(0.05555555555555555,0,0,0.05555555555555555,44.33333333333333,0)" xlink:href="#aN"/><use transform="matrix(0.05555555555555555,0,0,0.05555555555555555,54.33333333333333,0)" xlink:href="#aR"/><use transform="matrix(0.05555555555555555,0,0,0.05555555555555555,65.44444444444444,0)" xlink:href="#aF"/><use transform="matrix(0.05555555555555555,0,0,0.05555555555555555,76.55555555555556,0)" xlink:href="#aO"/><use transform="matrix(0.05555555555555555,0,0,0.05555555555555555,86.55555555555556,0)" xlink:href="#aQ"/><use transform="matrix(0.05555555555555555,0,0,0.05555555555555555,90.94444444444444,0)" xlink:href="#aE"/><use transform="matrix(0.05555555555555555,0,0,0.05555555555555555,102.05555555555556,0)" xlink:href="#br"/></g><path fill="#999" d="M101-251c82-7 93 87 43 132L82-64C71-53 59-42 53-27h129V0H18c2-99 128-94 128-182 0-28-16-43-45-43s-46 15-49 41l-32-3c6-41 34-60 81-64" id="bJ"/><g id="N"><use transform="matrix(0.05555555555555555,0,0,0.05555555555555555,0,0)" xlink:href="#bu"/><use transform="matrix(0.05555555555555555,0,0,0.05555555555555555,5.555555555555555,0)" xlink:href="#bJ"/><use transform="matrix(0.05555555555555555,0,0,0.05555555555555555,16.666666666666664,0)" xlink:href="#bx"/></g><g id="O"><use transform="matrix(0.05555555555555555,0,0,0.05555555555555555,0,0)" xlink:href="#aI"/><use transform="matrix(0.05555555555555555,0,0,0.05555555555555555,6.611111111111111,0)" xlink:href="#by"/><use transform="matrix(0.05555555555555555,0,0,0.05555555555555555,12.166666666666666,0)" xlink:href="#aV"/><use transform="matrix(0.05555555555555555,0,0,0.05555555555555555,16.555555555555554,0)" xlink:href="#aS"/><use transform="matrix(0.05555555555555555,0,0,0.05555555555555555,27.666666666666664,0)" xlink:href="#aF"/><use transform="matrix(0.05555555555555555,0,0,0.05555555555555555,38.77777777777777,0)" xlink:href="#aJ"/><use transform="matrix(0.05555555555555555,0,0,0.05555555555555555,44.33333333333333,0)" xlink:href="#aL"/></g><use transform="matrix(0.05555555555555555,0,0,0.05555555555555555,0,0)" xlink:href="#aY" id="P"/><g id="Q"><use transform="matrix(0.05555555555555555,0,0,0.05555555555555555,0,0)" xlink:href="#aW"/><use transform="matrix(0.05555555555555555,0,0,0.05555555555555555,11.11111111111111,0)" xlink:href="#aE"/><use transform="matrix(0.05555555555555555,0,0,0.05555555555555555,22.22222222222222,0)" xlink:href="#aQ"/><use transform="matrix(0.05555555555555555,0,0,0.05555555555555555,26.61111111111111,0)" xlink:href="#aJ"/></g><path fill="#999" d="M18-150v-26h174v26H18zm0 90v-26h174v26H18" id="bK"/><use transform="matrix(0.05555555555555555,0,0,0.05555555555555555,0,0)" xlink:href="#bK" id="R"/><path fill="#999" d="M47-170H22l-4-78h33" id="bL"/><g id="S"><use transform="matrix(0.05555555555555555,0,0,0.05555555555555555,0,0)" xlink:href="#bL"/><use transform="matrix(0.05555555555555555,0,0,0.05555555555555555,3.7777777777777777,0)" xlink:href="#aG"/><use transform="matrix(0.05555555555555555,0,0,0.05555555555555555,20.38888888888889,0)" xlink:href="#aH"/><use transform="matrix(0.05555555555555555,0,0,0.05555555555555555,31.5,0)" xlink:href="#aJ"/><use transform="matrix(0.05555555555555555,0,0,0.05555555555555555,37.05555555555556,0)" xlink:href="#aH"/><use transform="matrix(0.05555555555555555,0,0,0.05555555555555555,48.16666666666667,0)" xlink:href="#aP"/><use transform="matrix(0.05555555555555555,0,0,0.05555555555555555,54.777777777777786,0)" xlink:href="#aN"/><use transform="matrix(0.05555555555555555,0,0,0.05555555555555555,64.77777777777779,0)" xlink:href="#bL"/></g><filter id="E" filterUnits="objectBoundingBox" x="-.01" y="-.01" width="1.03" height="1.03"><feOffset result="offOut" in="SourceAlpha" dx="2.12" dy="2.12"/><feGaussianBlur result="blurOut" in="offOut" stdDeviation="2.5"/><feColorMatrix result="colorOut" in="blurOut" values="0 0 0 0 0 0 0 0 0 0 0 0 0 0 0 0 0 0 0.5019607843137255 0"/><feBlend in="SourceGraphic" in2="colorOut"/></filter><path fill="#999" d="M24 0v-248h52V0H24" id="bM"/><g id="T"><use transform="matrix(0.05555555555555555,0,0,0.05555555555555555,0,0)" xlink:href="#bM"/><use transform="matrix(0.05555555555555555,0,0,0.05555555555555555,5.555555555555555,0)" xlink:href="#bd"/><use transform="matrix(0.05555555555555555,0,0,0.05555555555555555,23.333333333333336,0)" xlink:href="#bc"/><use transform="matrix(0.05555555555555555,0,0,0.05555555555555555,34.44444444444444,0)" xlink:href="#bE"/><use transform="matrix(0.05555555555555555,0,0,0.05555555555555555,46.61111111111111,0)" xlink:href="#be"/><use transform="matrix(0.05555555555555555,0,0,0.05555555555555555,52.166666666666664,0)" xlink:href="#bb"/><use transform="matrix(0.05555555555555555,0,0,0.05555555555555555,64.33333333333333,0)" xlink:href="#bE"/><use transform="matrix(0.05555555555555555,0,0,0.05555555555555555,76.5,0)" xlink:href="#bC"/><use transform="matrix(0.05555555555555555,0,0,0.05555555555555555,89.83333333333333,0)" xlink:href="#bi"/><use transform="matrix(0.05555555555555555,0,0,0.05555555555555555,95.38888888888889,0)" xlink:href="#bc"/><use transform="matrix(0.05555555555555555,0,0,0.05555555555555555,106.5,0)" xlink:href="#bb"/><use transform="matrix(0.05555555555555555,0,0,0.05555555555555555,118.66666666666666,0)" xlink:href="#bj"/><path fill="#999" d="M-1 1.07h131.78v2.1H-1z"/></g><g id="V"><use transform="matrix(0.05555555555555555,0,0,0.05555555555555555,0,0)" xlink:href="#aG"/><use transform="matrix(0.05555555555555555,0,0,0.05555555555555555,16.61111111111111,0)" xlink:href="#aF"/><use transform="matrix(0.05555555555555555,0,0,0.05555555555555555,27.72222222222222,0)" xlink:href="#aE"/><use transform="matrix(0.05555555555555555,0,0,0.05555555555555555,38.83333333333333,0)" xlink:href="#aW"/><use transform="matrix(0.05555555555555555,0,0,0.05555555555555555,49.94444444444444,0)" xlink:href="#by"/><use transform="matrix(0.05555555555555555,0,0,0.05555555555555555,55.5,0)" xlink:href="#aF"/><use transform="matrix(0.05555555555555555,0,0,0.05555555555555555,66.61111111111111,0)" xlink:href="#aO"/><use transform="matrix(0.05555555555555555,0,0,0.05555555555555555,76.61111111111111,0)" xlink:href="#aJ"/><use transform="matrix(0.05555555555555555,0,0,0.05555555555555555,82.16666666666667,0)" xlink:href="#aW"/><use transform="matrix(0.05555555555555555,0,0,0.05555555555555555,93.27777777777779,0)" xlink:href="#aP"/><use transform="matrix(0.05555555555555555,0,0,0.05555555555555555,99.8888888888889,0)" xlink:href="#aH"/><use transform="matrix(0.05555555555555555,0,0,0.05555555555555555,111.00000000000001,0)" xlink:href="#aP"/></g><filter id="U" filterUnits="objectBoundingBox" x="-.01" y="-.02" width="1.05" height="1.07"><feOffset result="offOut" in="SourceAlpha" dx="2.12" dy="2.12"/><feGaussianBlur result="blurOut" in="offOut" stdDeviation="2.5"/><feColorMatrix result="colorOut" in="blurOut" values="0 0 0 0 0 0 0 0 0 0 0 0 0 0 0 0 0 0 0.5019607843137255 0"/><feBlend in="SourceGraphic" in2="colorOut"/></filter><path fill="#999" d="M128 0H69L1-190h53L99-40l48-150h52" id="bN"/><g id="W"><use transform="matrix(0.05555555555555555,0,0,0.05555555555555555,0,0)" xlink:href="#aZ"/><use transform="matrix(0.05555555555555555,0,0,0.05555555555555555,14.388888888888888,0)" xlink:href="#bj"/><use transform="matrix(0.05555555555555555,0,0,0.05555555555555555,25.5,0)" xlink:href="#bN"/><use transform="matrix(0.05555555555555555,0,0,0.05555555555555555,36.611111111111114,0)" xlink:href="#be"/><use transform="matrix(0.05555555555555555,0,0,0.05555555555555555,42.16666666666667,0)" xlink:href="#bf"/><use transform="matrix(0.05555555555555555,0,0,0.05555555555555555,53.277777777777786,0)" xlink:href="#bj"/><path fill="#999" d="M-1 1.07h66.4v2.1H-1z"/></g><g id="X"><use transform="matrix(0.05555555555555555,0,0,0.05555555555555555,0,0)" xlink:href="#aP"/><use transform="matrix(0.05555555555555555,0,0,0.05555555555555555,6.611111111111111,0)" xlink:href="#aH"/><use transform="matrix(0.05555555555555555,0,0,0.05555555555555555,17.72222222222222,0)" xlink:href="#by"/><use transform="matrix(0.05555555555555555,0,0,0.05555555555555555,23.27777777777778,0)" xlink:href="#aH"/><use transform="matrix(0.05555555555555555,0,0,0.05555555555555555,34.388888888888886,0)" xlink:href="#aP"/><use transform="matrix(0.05555555555555555,0,0,0.05555555555555555,41,0)" xlink:href="#aH"/><use transform="matrix(0.05555555555555555,0,0,0.05555555555555555,52.111111111111114,0)" xlink:href="#aE"/><use transform="matrix(0.05555555555555555,0,0,0.05555555555555555,63.22222222222223,0)" xlink:href="#aO"/><use transform="matrix(0.05555555555555555,0,0,0.05555555555555555,73.22222222222223,0)" xlink:href="#aH"/><use transform="matrix(0.05555555555555555,0,0,0.05555555555555555,84.33333333333334,0)" xlink:href="#aN"/></g><g id="Z"><use transform="matrix(0.05555555555555555,0,0,0.05555555555555555,0,0)" xlink:href="#aH"/><use transform="matrix(0.05555555555555555,0,0,0.05555555555555555,11.11111111111111,0)" xlink:href="#aG"/><use transform="matrix(0.05555555555555555,0,0,0.05555555555555555,27.72222222222222,0)" xlink:href="#aQ"/><use transform="matrix(0.05555555555555555,0,0,0.05555555555555555,32.11111111111111,0)" xlink:href="#aN"/><use transform="matrix(0.05555555555555555,0,0,0.05555555555555555,42.11111111111111,0)" xlink:href="#aN"/><use transform="matrix(0.05555555555555555,0,0,0.05555555555555555,52.11111111111111,0)" xlink:href="#aQ"/><use transform="matrix(0.05555555555555555,0,0,0.05555555555555555,56.49999999999999,0)" xlink:href="#aS"/><use transform="matrix(0.05555555555555555,0,0,0.05555555555555555,67.6111111111111,0)" xlink:href="#aE"/><use transform="matrix(0.05555555555555555,0,0,0.05555555555555555,78.72222222222221,0)" xlink:href="#bs"/><use transform="matrix(0.05555555555555555,0,0,0.05555555555555555,89.83333333333333,0)" xlink:href="#aV"/><use transform="matrix(0.05555555555555555,0,0,0.05555555555555555,94.22222222222221,0)" xlink:href="#aF"/><use transform="matrix(0.05555555555555555,0,0,0.05555555555555555,105.33333333333333,0)" xlink:href="#aG"/><use transform="matrix(0.05555555555555555,0,0,0.05555555555555555,121.94444444444444,0)" xlink:href="#bF"/><use transform="matrix(0.05555555555555555,0,0,0.05555555555555555,133.05555555555554,0)" xlink:href="#aM"/><use transform="matrix(0.05555555555555555,0,0,0.05555555555555555,144.16666666666666,0)" xlink:href="#aF"/></g><filter id="Y" filterUnits="objectBoundingBox" x="-.01" y="-.02" width="1.04" height="1.07"><feOffset result="offOut" in="SourceAlpha" dx="2.12" dy="2.12"/><feGaussianBlur result="blurOut" in="offOut" stdDeviation="2.5"/><feColorMatrix result="colorOut" in="blurOut" values="0 0 0 0 0 0 0 0 0 0 0 0 0 0 0 0 0 0 0.5019607843137255 0"/><feBlend in="SourceGraphic" in2="colorOut"/></filter><path fill="#999" d="M140-251c80 0 125 45 125 126S219 4 139 4C58 4 15-44 15-125s44-126 125-126zm-1 214c52 0 73-35 73-88 0-50-21-86-72-86-52 0-73 35-73 86s22 88 72 88" id="bO"/><path fill="#999" d="M135-194c53 0 70 44 70 98 0 56-19 98-73 100-31 1-45-17-59-34 3 33 2 69 2 105H25l-1-265h48c2 10 0 23 3 31 11-24 29-35 60-35zM114-30c33 0 39-31 40-66 0-38-9-64-40-64-56 0-55 130 0 130" id="bP"/><path fill="#999" d="M67-125c0 53 21 87 73 88 37 1 54-22 65-47l45 17C233-25 199 4 140 4 58 4 20-42 15-125 8-235 124-281 211-232c18 10 29 29 36 50l-46 12c-8-25-30-41-62-41-52 0-71 34-72 86" id="bQ"/><path fill="#999" d="M114-157C55-157 80-60 75 0H25v-261h50l-1 109c12-26 28-41 61-42 86-1 58 113 63 194h-50c-7-57 23-157-34-157" id="bR"/><g id="aa"><use transform="matrix(0.05555555555555555,0,0,0.05555555555555555,0,0)" xlink:href="#bO"/><use transform="matrix(0.05555555555555555,0,0,0.05555555555555555,15.555555555555555,0)" xlink:href="#bP"/><use transform="matrix(0.05555555555555555,0,0,0.05555555555555555,27.72222222222222,0)" xlink:href="#bl"/><use transform="matrix(0.05555555555555555,0,0,0.05555555555555555,34.33333333333333,0)" xlink:href="#be"/><use transform="matrix(0.05555555555555555,0,0,0.05555555555555555,39.888888888888886,0)" xlink:href="#bf"/><use transform="matrix(0.05555555555555555,0,0,0.05555555555555555,51,0)" xlink:href="#bc"/><use transform="matrix(0.05555555555555555,0,0,0.05555555555555555,62.11111111111112,0)" xlink:href="#bi"/><use transform="matrix(0.05555555555555555,0,0,0.05555555555555555,67.66666666666667,0)" xlink:href="#bQ"/><use transform="matrix(0.05555555555555555,0,0,0.05555555555555555,82.05555555555556,0)" xlink:href="#bR"/><use transform="matrix(0.05555555555555555,0,0,0.05555555555555555,94.22222222222223,0)" xlink:href="#bc"/><use transform="matrix(0.05555555555555555,0,0,0.05555555555555555,105.33333333333334,0)" xlink:href="#bb"/><use transform="matrix(0.05555555555555555,0,0,0.05555555555555555,117.50000000000001,0)" xlink:href="#bb"/><use transform="matrix(0.05555555555555555,0,0,0.05555555555555555,129.66666666666669,0)" xlink:href="#bj"/><use transform="matrix(0.05555555555555555,0,0,0.05555555555555555,140.7777777777778,0)" xlink:href="#bi"/><path fill="#999" d="M-1 1.07h148.33v2.1H-1z"/></g><path fill="#999" d="M27 0v-27h64v-190l-56 39v-29l58-41h29v221h61V0H27" id="bS"/><g id="ab"><use transform="matrix(0.05555555555555555,0,0,0.05555555555555555,0,0)" xlink:href="#bS"/><use transform="matrix(0.05555555555555555,0,0,0.05555555555555555,11.11111111111111,0)" xlink:href="#bp"/><use transform="matrix(0.05555555555555555,0,0,0.05555555555555555,16.666666666666664,0)" xlink:href="#bp"/><use transform="matrix(0.05555555555555555,0,0,0.05555555555555555,22.22222222222222,0)" xlink:href="#bq"/></g><path d="M117-194c89-4 53 116 60 194h-32v-121c0-31-8-49-39-48C34-167 62-67 57 0H25l-1-190h30c1 10-1 24 2 32 11-22 29-35 61-36" id="bT"/><path d="M141-36C126-15 110 5 73 4 37 3 15-17 15-53c-1-64 63-63 125-63 3-35-9-54-41-54-24 1-41 7-42 31l-33-3c5-37 33-52 76-52 45 0 72 20 72 64v82c-1 20 7 32 28 27v20c-31 9-61-2-59-35zM48-53c0 20 12 33 32 33 41-3 63-29 60-74-43 2-92-5-92 41" id="bU"/><path d="M210-169c-67 3-38 105-44 169h-31v-121c0-29-5-50-35-48C34-165 62-65 56 0H25l-1-190h30c1 10-1 24 2 32 10-44 99-50 107 0 11-21 27-35 58-36 85-2 47 119 55 194h-31v-121c0-29-5-49-35-48" id="bV"/><path d="M100-194c63 0 86 42 84 106H49c0 40 14 67 53 68 26 1 43-12 49-29l28 8c-11 28-37 45-77 45C44 4 14-33 15-96c1-61 26-98 85-98zm52 81c6-60-76-77-97-28-3 7-6 17-6 28h103" id="bW"/><g id="ad"><use transform="matrix(0.05555555555555555,0,0,0.05555555555555555,0,0)" xlink:href="#bT"/><use transform="matrix(0.05555555555555555,0,0,0.05555555555555555,11.11111111111111,0)" xlink:href="#bU"/><use transform="matrix(0.05555555555555555,0,0,0.05555555555555555,22.22222222222222,0)" xlink:href="#bV"/><use transform="matrix(0.05555555555555555,0,0,0.05555555555555555,38.83333333333333,0)" xlink:href="#bW"/></g><path d="M87 75C49 33 22-17 22-94c0-76 28-126 65-167h31c-38 41-64 92-64 168S80 34 118 75H87" id="bX"/><path d="M59-47c-2 24 18 29 38 22v24C64 9 27 4 27-40v-127H5v-23h24l9-43h21v43h35v23H59v120" id="bY"/><path d="M141 0L90-78 38 0H4l68-98-65-92h35l48 74 47-74h35l-64 92 68 98h-35" id="bZ"/><path d="M33-261c38 41 65 92 65 168S71 34 33 75H2C39 34 66-17 66-93S39-220 2-261h31" id="ca"/><g id="ae"><use transform="matrix(0.05555555555555555,0,0,0.05555555555555555,0,0)" xlink:href="#bX"/><use transform="matrix(0.05555555555555555,0,0,0.05555555555555555,6.611111111111111,0)" xlink:href="#bY"/><use transform="matrix(0.05555555555555555,0,0,0.05555555555555555,12.166666666666666,0)" xlink:href="#bW"/><use transform="matrix(0.05555555555555555,0,0,0.05555555555555555,23.27777777777778,0)" xlink:href="#bZ"/><use transform="matrix(0.05555555555555555,0,0,0.05555555555555555,33.27777777777778,0)" xlink:href="#bY"/><use transform="matrix(0.05555555555555555,0,0,0.05555555555555555,38.833333333333336,0)" xlink:href="#ca"/></g><path d="M85-194c31 0 48 13 60 33l-1-100h32l1 261h-30c-2-10 0-23-3-31C134-8 116 4 85 4 32 4 16-35 15-94c0-66 23-100 70-100zm9 24c-40 0-46 34-46 75 0 40 6 74 45 74 42 0 51-32 51-76 0-42-9-74-50-73" id="cb"/><path d="M135-143c-3-34-86-38-87 0 15 53 115 12 119 90S17 21 10-45l28-5c4 36 97 45 98 0-10-56-113-15-118-90-4-57 82-63 122-42 12 7 21 19 24 35" id="cc"/><path d="M96-169c-40 0-48 33-48 73s9 75 48 75c24 0 41-14 43-38l32 2c-6 37-31 61-74 61-59 0-76-41-82-99-10-93 101-131 147-64 4 7 5 14 7 22l-32 3c-4-21-16-35-41-35" id="cd"/><path d="M114-163C36-179 61-72 57 0H25l-1-190h30c1 12-1 29 2 39 6-27 23-49 58-41v29" id="ce"/><path d="M24-231v-30h32v30H24zM24 0v-190h32V0H24" id="cf"/><path d="M115-194c55 1 70 41 70 98S169 2 115 4C84 4 66-9 55-30l1 105H24l-1-265h31l2 30c10-21 28-34 59-34zm-8 174c40 0 45-34 45-75s-6-73-45-74c-42 0-51 32-51 76 0 43 10 73 51 73" id="cg"/><path d="M100-194c62-1 85 37 85 99 1 63-27 99-86 99S16-35 15-95c0-66 28-99 85-99zM99-20c44 1 53-31 53-75 0-43-8-75-51-75s-53 32-53 75 10 74 51 75" id="ch"/><g id="af"><use transform="matrix(0.05555555555555555,0,0,0.05555555555555555,0,0)" xlink:href="#cb"/><use transform="matrix(0.05555555555555555,0,0,0.05555555555555555,11.11111111111111,0)" xlink:href="#bW"/><use transform="matrix(0.05555555555555555,0,0,0.05555555555555555,22.22222222222222,0)" xlink:href="#cc"/><use transform="matrix(0.05555555555555555,0,0,0.05555555555555555,32.22222222222222,0)" xlink:href="#cd"/><use transform="matrix(0.05555555555555555,0,0,0.05555555555555555,42.22222222222222,0)" xlink:href="#ce"/><use transform="matrix(0.05555555555555555,0,0,0.05555555555555555,48.83333333333333,0)" xlink:href="#cf"/><use transform="matrix(0.05555555555555555,0,0,0.05555555555555555,53.222222222222214,0)" xlink:href="#cg"/><use transform="matrix(0.05555555555555555,0,0,0.05555555555555555,64.33333333333333,0)" xlink:href="#bY"/><use transform="matrix(0.05555555555555555,0,0,0.05555555555555555,69.88888888888889,0)" xlink:href="#cf"/><use transform="matrix(0.05555555555555555,0,0,0.05555555555555555,74.27777777777777,0)" xlink:href="#ch"/><use transform="matrix(0.05555555555555555,0,0,0.05555555555555555,85.38888888888889,0)" xlink:href="#bT"/></g><g id="ag"><use transform="matrix(0.05555555555555555,0,0,0.05555555555555555,0,0)" xlink:href="#cb"/><use transform="matrix(0.05555555555555555,0,0,0.05555555555555555,11.11111111111111,0)" xlink:href="#bU"/><use transform="matrix(0.05555555555555555,0,0,0.05555555555555555,22.22222222222222,0)" xlink:href="#bY"/><use transform="matrix(0.05555555555555555,0,0,0.05555555555555555,27.77777777777778,0)" xlink:href="#bU"/></g><path d="M16-82v-28h88v28H16" id="ci"/><use transform="matrix(0.05555555555555555,0,0,0.05555555555555555,0,0)" xlink:href="#ci" id="ah"/><path d="M84 4C-5 8 30-112 23-190h32v120c0 31 7 50 39 49 72-2 45-101 50-169h31l1 190h-30c-1-10 1-25-2-33-11 22-28 36-60 37" id="cj"/><g id="ai"><use transform="matrix(0.05555555555555555,0,0,0.05555555555555555,0,0)" xlink:href="#cj"/><use transform="matrix(0.05555555555555555,0,0,0.05555555555555555,11.11111111111111,0)" xlink:href="#bT"/><use transform="matrix(0.05555555555555555,0,0,0.05555555555555555,22.22222222222222,0)" xlink:href="#cf"/><use transform="matrix(0.05555555555555555,0,0,0.05555555555555555,26.61111111111111,0)" xlink:href="#bY"/></g><g id="aj"><use transform="matrix(0.05555555555555555,0,0,0.05555555555555555,0,0)" xlink:href="#ce"/><use transform="matrix(0.05555555555555555,0,0,0.05555555555555555,6.611111111111111,0)" xlink:href="#bU"/><use transform="matrix(0.05555555555555555,0,0,0.05555555555555555,17.72222222222222,0)" xlink:href="#bY"/><use transform="matrix(0.05555555555555555,0,0,0.05555555555555555,23.27777777777778,0)" xlink:href="#bW"/></g><g id="ak"><use transform="matrix(0.05555555555555555,0,0,0.05555555555555555,0,0)" xlink:href="#bU"/><use transform="matrix(0.05555555555555555,0,0,0.05555555555555555,11.11111111111111,0)" xlink:href="#bT"/><use transform="matrix(0.05555555555555555,0,0,0.05555555555555555,22.22222222222222,0)" xlink:href="#cb"/></g><path d="M177-190C167-65 218 103 67 71c-23-6-38-20-44-43l32-5c15 47 100 32 89-28v-30C133-14 115 1 83 1 29 1 15-40 15-95c0-56 16-97 71-98 29-1 48 16 59 35 1-10 0-23 2-32h30zM94-22c36 0 50-32 50-73 0-42-14-75-50-75-39 0-46 34-46 75s6 73 46 73" id="ck"/><path d="M-5 72V49h209v23H-5" id="cl"/><g id="al"><use transform="matrix(0.05555555555555555,0,0,0.05555555555555555,0,0)" xlink:href="#cc"/><use transform="matrix(0.05555555555555555,0,0,0.05555555555555555,10,0)" xlink:href="#bY"/><use transform="matrix(0.05555555555555555,0,0,0.05555555555555555,15.555555555555555,0)" xlink:href="#bU"/><use transform="matrix(0.05555555555555555,0,0,0.05555555555555555,26.666666666666664,0)" xlink:href="#ce"/><use transform="matrix(0.05555555555555555,0,0,0.05555555555555555,33.27777777777777,0)" xlink:href="#bY"/><use transform="matrix(0.05555555555555555,0,0,0.05555555555555555,38.83333333333333,0)" xlink:href="#cf"/><use transform="matrix(0.05555555555555555,0,0,0.05555555555555555,43.222222222222214,0)" xlink:href="#bT"/><use transform="matrix(0.05555555555555555,0,0,0.05555555555555555,54.33333333333333,0)" xlink:href="#ck"/><use transform="matrix(0.05555555555555555,0,0,0.05555555555555555,65.44444444444444,0)" xlink:href="#cl"/><use transform="matrix(0.05555555555555555,0,0,0.05555555555555555,76.55555555555556,0)" xlink:href="#bY"/><use transform="matrix(0.05555555555555555,0,0,0.05555555555555555,82.11111111111111,0)" xlink:href="#cf"/><use transform="matrix(0.05555555555555555,0,0,0.05555555555555555,86.5,0)" xlink:href="#bV"/><use transform="matrix(0.05555555555555555,0,0,0.05555555555555555,103.11111111111111,0)" xlink:href="#bW"/></g><path d="M101-234c-31-9-42 10-38 44h38v23H63V0H32v-167H5v-23h27c-7-52 17-82 69-68v24" id="cm"/><path d="M24 0v-261h32V0H24" id="cn"/><g id="am"><use transform="matrix(0.05555555555555555,0,0,0.05555555555555555,0,0)" xlink:href="#bX"/><use transform="matrix(0.05555555555555555,0,0,0.05555555555555555,6.611111111111111,0)" xlink:href="#cm"/><use transform="matrix(0.05555555555555555,0,0,0.05555555555555555,12.166666666666666,0)" xlink:href="#cn"/><use transform="matrix(0.05555555555555555,0,0,0.05555555555555555,16.555555555555554,0)" xlink:href="#ch"/><use transform="matrix(0.05555555555555555,0,0,0.05555555555555555,27.666666666666664,0)" xlink:href="#bU"/><use transform="matrix(0.05555555555555555,0,0,0.05555555555555555,38.77777777777777,0)" xlink:href="#bY"/><use transform="matrix(0.05555555555555555,0,0,0.05555555555555555,44.33333333333333,0)" xlink:href="#cc"/><use transform="matrix(0.05555555555555555,0,0,0.05555555555555555,54.33333333333333,0)" xlink:href="#ca"/></g><g id="ao"><use transform="matrix(0.05555555555555555,0,0,0.05555555555555555,0,0)" xlink:href="#ch"/><use transform="matrix(0.05555555555555555,0,0,0.05555555555555555,11.11111111111111,0)" xlink:href="#ce"/></g><g id="ap"><use transform="matrix(0.05555555555555555,0,0,0.05555555555555555,0,0)" xlink:href="#bY"/><use transform="matrix(0.05555555555555555,0,0,0.05555555555555555,5.555555555555555,0)" xlink:href="#cf"/><use transform="matrix(0.05555555555555555,0,0,0.05555555555555555,9.944444444444443,0)" xlink:href="#bV"/><use transform="matrix(0.05555555555555555,0,0,0.05555555555555555,26.555555555555554,0)" xlink:href="#bW"/><use transform="matrix(0.05555555555555555,0,0,0.05555555555555555,37.666666666666664,0)" xlink:href="#cc"/><use transform="matrix(0.05555555555555555,0,0,0.05555555555555555,47.666666666666664,0)" xlink:href="#bY"/><use transform="matrix(0.05555555555555555,0,0,0.05555555555555555,53.22222222222222,0)" xlink:href="#bU"/><use transform="matrix(0.05555555555555555,0,0,0.05555555555555555,64.33333333333333,0)" xlink:href="#bV"/><use transform="matrix(0.05555555555555555,0,0,0.05555555555555555,80.94444444444444,0)" xlink:href="#cg"/><use transform="matrix(0.05555555555555555,0,0,0.05555555555555555,92.05555555555556,0)" xlink:href="#cc"/></g><path d="M26 75v-336h71v23H56V52h41v23H26" id="co"/><path d="M3 75V52h41v-290H3v-23h71V75H3" id="cp"/><g id="aq"><use transform="matrix(0.05555555555555555,0,0,0.05555555555555555,0,0)" xlink:href="#co"/><use transform="matrix(0.05555555555555555,0,0,0.05555555555555555,5.555555555555555,0)" xlink:href="#bT"/><use transform="matrix(0.05555555555555555,0,0,0.05555555555555555,16.666666666666664,0)" xlink:href="#bY"/><use transform="matrix(0.05555555555555555,0,0,0.05555555555555555,22.22222222222222,0)" xlink:href="#cf"/><use transform="matrix(0.05555555555555555,0,0,0.05555555555555555,26.61111111111111,0)" xlink:href="#bV"/><use transform="matrix(0.05555555555555555,0,0,0.05555555555555555,43.22222222222222,0)" xlink:href="#bW"/><use transform="matrix(0.05555555555555555,0,0,0.05555555555555555,54.33333333333333,0)" xlink:href="#cp"/></g><g id="ar"><use transform="matrix(0.05555555555555555,0,0,0.05555555555555555,0,0)" xlink:href="#bX"/><use transform="matrix(0.05555555555555555,0,0,0.05555555555555555,6.611111111111111,0)" xlink:href="#cm"/><use transform="matrix(0.05555555555555555,0,0,0.05555555555555555,12.166666666666666,0)" xlink:href="#cn"/><use transform="matrix(0.05555555555555555,0,0,0.05555555555555555,16.555555555555554,0)" xlink:href="#ch"/><use transform="matrix(0.05555555555555555,0,0,0.05555555555555555,27.666666666666664,0)" xlink:href="#bU"/><use transform="matrix(0.05555555555555555,0,0,0.05555555555555555,38.77777777777777,0)" xlink:href="#bY"/><use transform="matrix(0.05555555555555555,0,0,0.05555555555555555,44.33333333333333,0)" xlink:href="#ca"/></g><filter id="ac" filterUnits="objectBoundingBox" x="-.01" y="-.01" width="1.03" height="1.04"><feOffset result="offOut" in="SourceAlpha" dx="2.12" dy="2.12"/><feGaussianBlur result="blurOut" in="offOut" stdDeviation="2.5"/><feColorMatrix result="colorOut" in="blurOut" values="0 0 0 0 0 0 0 0 0 0 0 0 0 0 0 0 0 0 0.5019607843137255 0"/><feBlend in="SourceGraphic" in2="colorOut"/></filter><path fill="#fff" d="M136-208V0H84v-208H4v-40h212v40h-80" id="cq"/><path fill="#fff" d="M25-224v-37h50v37H25zM25 0v-190h50V0H25" id="cr"/><path fill="#fff" d="M220-157c-53 9-28 100-34 157h-49v-107c1-27-5-49-29-50C55-147 81-57 75 0H25l-1-190h47c2 12-1 28 3 38 10-53 101-56 108 0 13-22 24-43 59-42 82 1 51 116 57 194h-49v-107c-1-25-5-48-29-50" id="cs"/><path fill="#fff" d="M185-48c-13 30-37 53-82 52C43 2 14-33 14-96s30-98 90-98c62 0 83 45 84 108H66c0 31 8 55 39 56 18 0 30-7 34-22zm-45-69c5-46-57-63-70-21-2 6-4 13-4 21h74" id="ct"/><path fill="#fff" d="M169-182c-1-43-94-46-97-3 18 66 151 10 154 114 3 95-165 93-204 36-6-8-10-19-12-30l50-8c3 46 112 56 116 5-17-69-150-10-154-114-4-87 153-88 188-35 5 8 8 18 10 28" id="cu"/><path fill="#fff" d="M135-150c-39-12-60 13-60 57V0H25l-1-190h47c2 13-1 29 3 40 6-28 27-53 61-41v41" id="cv"/><path fill="#fff" d="M137-138c1-29-70-34-71-4 15 46 118 7 119 86 1 83-164 76-172 9l43-7c4 19 20 25 44 25 33 8 57-30 24-41C81-84 22-81 20-136c-2-80 154-74 161-7" id="cw"/><g id="as"><use transform="matrix(0.05555555555555555,0,0,0.05555555555555555,0,0)" xlink:href="#cq"/><use transform="matrix(0.05555555555555555,0,0,0.05555555555555555,11.777777777777777,0)" xlink:href="#cr"/><use transform="matrix(0.05555555555555555,0,0,0.05555555555555555,17.333333333333332,0)" xlink:href="#cs"/><use transform="matrix(0.05555555555555555,0,0,0.05555555555555555,35.111111111111114,0)" xlink:href="#ct"/><use transform="matrix(0.05555555555555555,0,0,0.05555555555555555,46.22222222222223,0)" xlink:href="#cu"/><use transform="matrix(0.05555555555555555,0,0,0.05555555555555555,59.55555555555555,0)" xlink:href="#ct"/><use transform="matrix(0.05555555555555555,0,0,0.05555555555555555,70.66666666666667,0)" xlink:href="#cv"/><use transform="matrix(0.05555555555555555,0,0,0.05555555555555555,78.44444444444444,0)" xlink:href="#cr"/><use transform="matrix(0.05555555555555555,0,0,0.05555555555555555,84,0)" xlink:href="#ct"/><use transform="matrix(0.05555555555555555,0,0,0.05555555555555555,95.11111111111111,0)" xlink:href="#cw"/><path fill="#fff" d="M-1 1.07h108.22v2.1H-1z"/></g><g id="at"><use transform="matrix(0.05555555555555555,0,0,0.05555555555555555,0,0)" xlink:href="#bW"/><use transform="matrix(0.05555555555555555,0,0,0.05555555555555555,11.11111111111111,0)" xlink:href="#bZ"/><use transform="matrix(0.05555555555555555,0,0,0.05555555555555555,21.11111111111111,0)" xlink:href="#bY"/><use transform="matrix(0.05555555555555555,0,0,0.05555555555555555,26.666666666666664,0)" xlink:href="#bW"/><use transform="matrix(0.05555555555555555,0,0,0.05555555555555555,37.77777777777777,0)" xlink:href="#bT"/><use transform="matrix(0.05555555555555555,0,0,0.05555555555555555,48.888888888888886,0)" xlink:href="#cb"/><use transform="matrix(0.05555555555555555,0,0,0.05555555555555555,60,0)" xlink:href="#cc"/></g><g id="av"><use transform="matrix(0.05555555555555555,0,0,0.05555555555555555,0,0)" xlink:href="#cb"/><use transform="matrix(0.05555555555555555,0,0,0.05555555555555555,11.11111111111111,0)" xlink:href="#bU"/><use transform="matrix(0.05555555555555555,0,0,0.05555555555555555,22.22222222222222,0)" xlink:href="#bY"/><use transform="matrix(0.05555555555555555,0,0,0.05555555555555555,27.77777777777778,0)" xlink:href="#bU"/></g><g id="aw"><use transform="matrix(0.05555555555555555,0,0,0.05555555555555555,0,0)" xlink:href="#co"/><use transform="matrix(0.05555555555555555,0,0,0.05555555555555555,5.555555555555555,0)" xlink:href="#bT"/><use transform="matrix(0.05555555555555555,0,0,0.05555555555555555,16.666666666666664,0)" xlink:href="#bY"/><use transform="matrix(0.05555555555555555,0,0,0.05555555555555555,22.22222222222222,0)" xlink:href="#cf"/><use transform="matrix(0.05555555555555555,0,0,0.05555555555555555,26.61111111111111,0)" xlink:href="#bV"/><use transform="matrix(0.05555555555555555,0,0,0.05555555555555555,43.22222222222222,0)" xlink:href="#bW"/></g><use transform="matrix(0.05555555555555555,0,0,0.05555555555555555,0,0)" xlink:href="#bZ" id="ax"/><g id="ay"><use transform="matrix(0.05555555555555555,0,0,0.05555555555555555,0,0)" xlink:href="#bT"/><use transform="matrix(0.05555555555555555,0,0,0.05555555555555555,11.11111111111111,0)" xlink:href="#ce"/><use transform="matrix(0.05555555555555555,0,0,0.05555555555555555,17.72222222222222,0)" xlink:href="#ch"/><use transform="matrix(0.05555555555555555,0,0,0.05555555555555555,28.833333333333332,0)" xlink:href="#cf"/><use transform="matrix(0.05555555555555555,0,0,0.05555555555555555,33.22222222222222,0)" xlink:href="#cp"/></g><g id="az"><use transform="matrix(0.05555555555555555,0,0,0.05555555555555555,0,0)" xlink:href="#ce"/><use transform="matrix(0.05555555555555555,0,0,0.05555555555555555,6.611111111111111,0)" xlink:href="#ch"/><use transform="matrix(0.05555555555555555,0,0,0.05555555555555555,17.72222222222222,0)" xlink:href="#cf"/><use transform="matrix(0.05555555555555555,0,0,0.05555555555555555,22.11111111111111,0)" xlink:href="#cc"/></g><path d="M30-248c118-7 216 8 213 122C240-48 200 0 122 0H30v-248zM63-27c89 8 146-16 146-99s-60-101-146-95v194" id="cx"/><path d="M179-190L93 31C79 59 56 82 12 73V49c39 6 53-20 64-50L1-190h34L92-34l54-156h33" id="cy"/><path d="M127-220V0H93v-220H8v-28h204v28h-85" id="cz"/><path d="M115-194c53 0 69 39 70 98 0 66-23 100-70 100C84 3 66-7 56-30L54 0H23l1-261h32v101c10-23 28-34 59-34zm-8 174c40 0 45-34 45-75 0-40-5-75-45-74-42 0-51 32-51 76 0 43 10 73 51 73" id="cA"/><path d="M233-177c-1 41-23 64-60 70L243 0h-38l-65-103H63V0H30v-248c88 3 205-21 203 71zM63-129c60-2 137 13 137-47 0-61-80-42-137-45v92" id="cB"/><g id="aA"><use transform="matrix(0.05555555555555555,0,0,0.05555555555555555,0,0)" xlink:href="#bX"/><use transform="matrix(0.05555555555555555,0,0,0.05555555555555555,6.611111111111111,0)" xlink:href="#cx"/><use transform="matrix(0.05555555555555555,0,0,0.05555555555555555,21,0)" xlink:href="#cy"/><use transform="matrix(0.05555555555555555,0,0,0.05555555555555555,31,0)" xlink:href="#bT"/><use transform="matrix(0.05555555555555555,0,0,0.05555555555555555,42.111111111111114,0)" xlink:href="#bU"/><use transform="matrix(0.05555555555555555,0,0,0.05555555555555555,53.22222222222223,0)" xlink:href="#bV"/><use transform="matrix(0.05555555555555555,0,0,0.05555555555555555,69.83333333333334,0)" xlink:href="#cf"/><use transform="matrix(0.05555555555555555,0,0,0.05555555555555555,74.22222222222223,0)" xlink:href="#cd"/><use transform="matrix(0.05555555555555555,0,0,0.05555555555555555,84.22222222222223,0)" xlink:href="#cz"/><use transform="matrix(0.05555555555555555,0,0,0.05555555555555555,94.16666666666667,0)" xlink:href="#bU"/><use transform="matrix(0.05555555555555555,0,0,0.05555555555555555,105.27777777777779,0)" xlink:href="#cA"/><use transform="matrix(0.05555555555555555,0,0,0.05555555555555555,116.38888888888891,0)" xlink:href="#cn"/><use transform="matrix(0.05555555555555555,0,0,0.05555555555555555,120.7777777777778,0)" xlink:href="#bW"/><use transform="matrix(0.05555555555555555,0,0,0.05555555555555555,131.88888888888889,0)" xlink:href="#cB"/><use transform="matrix(0.05555555555555555,0,0,0.05555555555555555,146.27777777777777,0)" xlink:href="#bW"/><use transform="matrix(0.05555555555555555,0,0,0.05555555555555555,157.38888888888889,0)" xlink:href="#ck"/><use transform="matrix(0.05555555555555555,0,0,0.05555555555555555,168.5,0)" xlink:href="#cf"/><use transform="matrix(0.05555555555555555,0,0,0.05555555555555555,172.88888888888889,0)" xlink:href="#ch"/><use transform="matrix(0.05555555555555555,0,0,0.05555555555555555,184,0)" xlink:href="#bT"/><use transform="matrix(0.05555555555555555,0,0,0.05555555555555555,195.11111111111111,0)" xlink:href="#ca"/></g><filter id="au" filterUnits="objectBoundingBox" x="-.01" y="-.02" width="1.03" height="1.08"><feOffset result="offOut" in="SourceAlpha" dx="2.12" dy="2.12"/><feGaussianBlur result="blurOut" in="offOut" stdDeviation="2.5"/><feColorMatrix result="colorOut" in="blurOut" values="0 0 0 0 0 0 0 0 0 0 0 0 0 0 0 0 0 0 0.5019607843137255 0"/><feBlend in="SourceGraphic" in2="colorOut"/></filter><path fill="#fff" d="M240-174c0 40-23 61-54 70L253 0h-59l-57-94H76V0H24v-248c93 4 217-23 216 74zM76-134c48-2 112 12 112-38 0-48-66-32-112-35v73" id="cC"/><path fill="#fff" d="M110-194c64 0 96 36 96 99 0 64-35 99-97 99-61 0-95-36-95-99 0-62 34-99 96-99zm-1 164c35 0 45-28 45-65 0-40-10-65-43-65-34 0-45 26-45 65 0 36 10 65 43 65" id="cD"/><path fill="#fff" d="M135-194c53 0 70 44 70 98 0 56-19 98-73 100-31 1-45-17-59-34 3 33 2 69 2 105H25l-1-265h48c2 10 0 23 3 31 11-24 29-35 60-35zM114-30c33 0 39-31 40-66 0-38-9-64-40-64-56 0-55 130 0 130" id="cE"/><path fill="#fff" d="M135-194c87-1 58 113 63 194h-50c-7-57 23-157-34-157-59 0-34 97-39 157H25l-1-190h47c2 12-1 28 3 38 12-26 28-41 61-42" id="cF"/><g id="aB"><use transform="matrix(0.05555555555555555,0,0,0.05555555555555555,0,0)" xlink:href="#cC"/><use transform="matrix(0.05555555555555555,0,0,0.05555555555555555,14.388888888888888,0)" xlink:href="#cD"/><use transform="matrix(0.05555555555555555,0,0,0.05555555555555555,26.555555555555554,0)" xlink:href="#cr"/><use transform="matrix(0.05555555555555555,0,0,0.05555555555555555,32.11111111111111,0)" xlink:href="#cC"/><use transform="matrix(0.05555555555555555,0,0,0.05555555555555555,46.49999999999999,0)" xlink:href="#ct"/><use transform="matrix(0.05555555555555555,0,0,0.05555555555555555,57.61111111111109,0)" xlink:href="#cw"/><use transform="matrix(0.05555555555555555,0,0,0.05555555555555555,68.72222222222221,0)" xlink:href="#cE"/><use transform="matrix(0.05555555555555555,0,0,0.05555555555555555,80.88888888888889,0)" xlink:href="#cD"/><use transform="matrix(0.05555555555555555,0,0,0.05555555555555555,93.05555555555556,0)" xlink:href="#cF"/><use transform="matrix(0.05555555555555555,0,0,0.05555555555555555,105.22222222222223,0)" xlink:href="#cw"/><use transform="matrix(0.05555555555555555,0,0,0.05555555555555555,116.33333333333336,0)" xlink:href="#ct"/><use transform="matrix(0.05555555555555555,0,0,0.05555555555555555,127.44444444444446,0)" xlink:href="#cu"/><use transform="matrix(0.05555555555555555,0,0,0.05555555555555555,140.7777777777778,0)" xlink:href="#ct"/><use transform="matrix(0.05555555555555555,0,0,0.05555555555555555,151.8888888888889,0)" xlink:href="#cv"/><use transform="matrix(0.05555555555555555,0,0,0.05555555555555555,159.66666666666669,0)" xlink:href="#cr"/><use transform="matrix(0.05555555555555555,0,0,0.05555555555555555,165.22222222222223,0)" xlink:href="#ct"/><use transform="matrix(0.05555555555555555,0,0,0.05555555555555555,176.33333333333334,0)" xlink:href="#cw"/><path fill="#fff" d="M-1 1.07h189.44v2.1H-1z"/></g><g id="aC"><use transform="matrix(0.05555555555555555,0,0,0.05555555555555555,0,0)" xlink:href="#ce"/><use transform="matrix(0.05555555555555555,0,0,0.05555555555555555,6.611111111111111,0)" xlink:href="#bW"/><use transform="matrix(0.05555555555555555,0,0,0.05555555555555555,17.72222222222222,0)" xlink:href="#cm"/><use transform="matrix(0.05555555555555555,0,0,0.05555555555555555,23.27777777777778,0)" xlink:href="#bW"/><use transform="matrix(0.05555555555555555,0,0,0.05555555555555555,34.388888888888886,0)" xlink:href="#ce"/><use transform="matrix(0.05555555555555555,0,0,0.05555555555555555,41,0)" xlink:href="#bW"/><use transform="matrix(0.05555555555555555,0,0,0.05555555555555555,52.111111111111114,0)" xlink:href="#bT"/><use transform="matrix(0.05555555555555555,0,0,0.05555555555555555,63.22222222222223,0)" xlink:href="#cd"/><use transform="matrix(0.05555555555555555,0,0,0.05555555555555555,73.22222222222223,0)" xlink:href="#bW"/><use transform="matrix(0.05555555555555555,0,0,0.05555555555555555,84.33333333333334,0)" xlink:href="#cc"/></g><path d="M206 0h-36l-40-164L89 0H53L-1-190h32L70-26l43-164h34l41 164 42-164h31" id="cG"/><g id="aD"><use transform="matrix(0.05555555555555555,0,0,0.05555555555555555,0,0)" xlink:href="#ce"/><use transform="matrix(0.05555555555555555,0,0,0.05555555555555555,6.611111111111111,0)" xlink:href="#ch"/><use transform="matrix(0.05555555555555555,0,0,0.05555555555555555,17.72222222222222,0)" xlink:href="#cG"/><use transform="matrix(0.05555555555555555,0,0,0.05555555555555555,32.11111111111111,0)" xlink:href="#cc"/></g></defs></g></svg>