<?xml version="1.0" encoding="utf-8"?>
<!-- Generator: Adobe Illustrator 24.2.3, SVG Export Plug-In . SVG Version: 6.00 Build 0)  -->
<svg version="1.1" id="Layer_1" xmlns:lucid="lucid"
	 xmlns="http://www.w3.org/2000/svg" xmlns:xlink="http://www.w3.org/1999/xlink" x="0px" y="0px" viewBox="0 0 1112.3 446.1"
	 style="enable-background:new 0 0 1112.3 446.1;" xml:space="preserve">
<style type="text/css">
	.st0{fill:#FFFFFF;}
	.st1{fill:#E6E6E6;}
	.st2{fill:#CCCCCC;}
	.st3{fill:none;stroke:#666666;}
	.st4{fill:#114B7C;stroke:#666666;}
	.st5{fill:#333333;}
	.st6{fill:#FFFFFF;stroke:#000000;stroke-miterlimit:10;}
</style>
<g>
	<path class="st0" d="M800.5,1.3h299.6v248H800.5V1.3z"/>
	<path class="st1" d="M800.5,75.3h299.6v34H800.5V75.3z M800.5,167.3h299.6v82H800.5V167.3z"/>
	<path class="st2" d="M800.5,1.3h299.6v40H800.5V1.3z"/>
	<path class="st3" d="M800.5,1.3h299.6v248H800.5V1.3z M800.5,41.3h299.6"/>
	<g transform="matrix(1,0,0,1,805.4864817663172,43.8012557228152) translate(0 18.5)">
		<g id="b">
			<g transform="matrix(0.05555555555555555,0,0,0.05555555555555555,0,0)">
				<path id="T" d="M812,51.5c4.9-0.2,2.9,6.4,3.3,10.8h-1.8v-6.7c0-1.7-0.4-2.7-2.2-2.7c-4,0.1-2.4,5.7-2.7,9.4h-1.8l-0.1-10.6h1.7
					c0.1,0.6-0.1,1.3,0.1,1.8C809.2,52.3,810.2,51.6,812,51.5"/>
			</g>
			<g transform="matrix(0.05555555555555555,0,0,0.05555555555555555,11.11111111111111,0)">
				<path id="U" d="M824.4,60.3c-0.8,1.2-1.7,2.3-3.8,2.2c-2-0.1-3.2-1.2-3.2-3.2c-0.1-3.6,3.5-3.5,6.9-3.5c0.2-1.9-0.5-3-2.3-3
					c-1.3,0.1-2.3,0.4-2.3,1.7l-1.8-0.2c0.3-2.1,1.8-2.9,4.2-2.9c2.5,0,4,1.1,4,3.6v4.6c-0.1,1.1,0.4,1.8,1.6,1.5v1.1
					C826,62.7,824.3,62.1,824.4,60.3z M819.3,59.4c0,1.1,0.7,1.8,1.8,1.8c2.3-0.2,3.5-1.6,3.3-4.1C822,57.2,819.3,56.8,819.3,59.4"
					/>
			</g>
			<g transform="matrix(0.05555555555555555,0,0,0.05555555555555555,22.22222222222222,0)">
				<path id="V" d="M839.4,52.9c-3.7,0.2-2.1,5.8-2.4,9.4h-1.7v-6.7c0-1.6-0.3-2.8-1.9-2.7c-3.7,0.2-2.1,5.8-2.4,9.4h-1.7L829,51.7
					h1.7c0.1,0.6-0.1,1.3,0.1,1.8c0.6-2.4,5.5-2.8,5.9,0c0.6-1.2,1.5-1.9,3.2-2c4.7-0.1,2.6,6.6,3.1,10.8h-1.7v-6.7
					C841.3,54,841,52.9,839.4,52.9"/>
			</g>
			<g transform="matrix(0.05555555555555555,0,0,0.05555555555555555,38.83333333333333,0)">
				<path id="W" d="M849.9,51.5c3.5,0,4.8,2.3,4.7,5.9H847c0,2.2,0.8,3.7,2.9,3.8c1.4,0.1,2.4-0.7,2.7-1.6l1.6,0.4
					c-0.6,1.6-2.1,2.5-4.3,2.5c-3.2,0-4.9-2.1-4.8-5.6C845.2,53.6,846.6,51.5,849.9,51.5z M852.8,56c0.3-3.3-4.2-4.3-5.4-1.6
					c-0.2,0.4-0.3,0.9-0.3,1.6H852.8"/>
			</g>
		</g>
	</g>
	<g transform="matrix(1,0,0,1,805.4864817663172,43.8012557228152) translate(55.5 18.5)">
		<g id="c">
			<g transform="matrix(0.05555555555555555,0,0,0.05555555555555555,0,0)">
				<path id="X" d="M865.8,66.5c-2.1-2.3-3.6-5.1-3.6-9.4c0-4.2,1.6-7,3.6-9.3h1.7c-2.1,2.3-3.6,5.1-3.6,9.3s1.4,7.1,3.6,9.3H865.8"
					/>
			</g>
			<g transform="matrix(0.05555555555555555,0,0,0.05555555555555555,6.611111111111111,0)">
				<path id="Y" d="M870.9,59.7c-0.1,1.3,1,1.6,2.1,1.2v1.3c-1.8,0.6-3.9,0.3-3.9-2.2V53h-1.2v-1.3h1.3l0.5-2.4h1.2v2.4h1.9V53h-1.9
					V59.7"/>
			</g>
			<g transform="matrix(0.05555555555555555,0,0,0.05555555555555555,12.166666666666666,0)">
				<path id="W_1_" d="M878.7,51.5c3.5,0,4.8,2.3,4.7,5.9h-7.5c0,2.2,0.8,3.7,2.9,3.8c1.4,0.1,2.4-0.7,2.7-1.6l1.6,0.4
					c-0.6,1.6-2.1,2.5-4.3,2.5c-3.2,0-4.9-2.1-4.8-5.6C874,53.6,875.4,51.5,878.7,51.5z M881.6,56c0.3-3.3-4.2-4.3-5.4-1.6
					c-0.2,0.4-0.3,0.9-0.3,1.6H881.6"/>
			</g>
			<g transform="matrix(0.05555555555555555,0,0,0.05555555555555555,23.27777777777778,0)">
				<path id="Z" d="M892.1,62.3l-2.8-4.3l-2.9,4.3h-1.9l3.8-5.4l-3.6-5.1h1.9l2.7,4.1l2.6-4.1h1.9l-3.6,5.1l3.8,5.4H892.1"/>
			</g>
			<g transform="matrix(0.05555555555555555,0,0,0.05555555555555555,33.27777777777778,0)">
				<path id="Y_1_" d="M897.5,59.7c-0.1,1.3,1,1.6,2.1,1.2v1.3c-1.8,0.6-3.9,0.3-3.9-2.2V53h-1.2v-1.3h1.3l0.5-2.4h1.2v2.4h1.9V53
					h-1.9V59.7"/>
			</g>
			<g transform="matrix(0.05555555555555555,0,0,0.05555555555555555,38.833333333333336,0)">
				<path id="aa" d="M901.7,47.8c2.1,2.3,3.6,5.1,3.6,9.3s-1.5,7.1-3.6,9.3h-1.7c2.1-2.3,3.6-5.1,3.6-9.3s-1.5-7.1-3.6-9.3H901.7"/>
			</g>
		</g>
	</g>
	<g transform="matrix(1,0,0,1,805.4864817663172,77.8012557228152) translate(0 18.5)">
		<g id="d">
			<g transform="matrix(0.05555555555555555,0,0,0.05555555555555555,0,0)">
				<path id="ab" d="M810.2,85.5c1.7,0,2.7,0.7,3.3,1.8l-0.1-5.6h1.8l0.1,14.5h-1.7c-0.1-0.6,0-1.3-0.2-1.7
					c-0.6,1.3-1.6,1.9-3.3,1.9c-2.9,0-3.8-2.2-3.9-5.4C806.3,87.4,807.6,85.5,810.2,85.5z M810.7,86.9c-2.2,0-2.6,1.9-2.6,4.2
					c0,2.2,0.3,4.1,2.5,4.1c2.3,0,2.8-1.8,2.8-4.2C813.5,88.6,813,86.8,810.7,86.9"/>
			</g>
			<g transform="matrix(0.05555555555555555,0,0,0.05555555555555555,11.11111111111111,0)">
				<path id="W_2_" d="M822.2,85.5c3.5,0,4.8,2.3,4.7,5.9h-7.5c0,2.2,0.8,3.7,2.9,3.8c1.4,0.1,2.4-0.7,2.7-1.6l1.6,0.4
					c-0.6,1.6-2.1,2.5-4.3,2.5c-3.2,0-4.9-2.1-4.8-5.6C817.5,87.6,818.9,85.5,822.2,85.5z M825,90c0.3-3.3-4.2-4.3-5.4-1.6
					c-0.2,0.4-0.3,0.9-0.3,1.6H825"/>
			</g>
			<g transform="matrix(0.05555555555555555,0,0,0.05555555555555555,22.22222222222222,0)">
				<path id="ac" d="M835.2,88.4c-0.2-1.9-4.8-2.1-4.8,0c0.8,2.9,6.4,0.7,6.6,5s-8.3,4.1-8.7,0.4l1.6-0.3c0.2,2,5.4,2.5,5.4,0
					c-0.6-3.1-6.3-0.8-6.6-5c-0.2-3.2,4.6-3.5,6.8-2.3c0.7,0.4,1.2,1.1,1.3,1.9"/>
			</g>
			<g transform="matrix(0.05555555555555555,0,0,0.05555555555555555,32.22222222222222,0)">
				<path id="ad" d="M843,86.9c-2.2,0-2.7,1.8-2.7,4.1c0,2.2,0.5,4.2,2.7,4.2c1.3,0,2.3-0.8,2.4-2.1l1.8,0.1
					c-0.3,2.1-1.7,3.4-4.1,3.4c-3.3,0-4.2-2.3-4.6-5.5c-0.6-5.2,5.6-7.3,8.2-3.6c0.2,0.4,0.3,0.8,0.4,1.2l-1.8,0.2
					C845.1,87.7,844.4,86.9,843,86.9"/>
			</g>
			<g transform="matrix(0.05555555555555555,0,0,0.05555555555555555,42.22222222222222,0)">
				<path id="ae" d="M854,87.2c-4.3-0.9-2.9,5.1-3.2,9.1h-1.8L849,85.7h1.7c0.1,0.7-0.1,1.6,0.1,2.2c0.3-1.5,1.3-2.7,3.2-2.3V87.2"
					/>
			</g>
			<g transform="matrix(0.05555555555555555,0,0,0.05555555555555555,48.83333333333333,0)">
				<path id="af" d="M855.7,83.5v-1.7h1.8v1.7H855.7z M855.7,96.3V85.7h1.8v10.6H855.7"/>
			</g>
			<g transform="matrix(0.05555555555555555,0,0,0.05555555555555555,53.222222222222214,0)">
				<path id="ag" d="M865.1,85.5c3.1,0.1,3.9,2.3,3.9,5.4c0,3.2-0.9,5.4-3.9,5.6c-1.7,0-2.7-0.7-3.3-1.9l0.1,5.8H860L860,85.7h1.7
					l0.1,1.7C862.4,86.2,863.4,85.5,865.1,85.5z M864.7,95.2c2.2,0,2.5-1.9,2.5-4.2s-0.3-4.1-2.5-4.1c-2.3,0-2.8,1.8-2.8,4.2
					C861.8,93.5,862.4,95.2,864.7,95.2"/>
			</g>
			<g transform="matrix(0.05555555555555555,0,0,0.05555555555555555,64.33333333333333,0)">
				<path id="Y_2_" d="M873.1,93.7c-0.1,1.3,1,1.6,2.1,1.2v1.3c-1.8,0.6-3.9,0.3-3.9-2.2V87h-1.2v-1.3h1.3l0.5-2.4h1.2v2.4h1.9V87
					h-1.9V93.7"/>
			</g>
			<g transform="matrix(0.05555555555555555,0,0,0.05555555555555555,69.88888888888889,0)">
				<path id="af_1_" d="M876.7,83.5v-1.7h1.8v1.7H876.7z M876.7,96.3V85.7h1.8v10.6H876.7"/>
			</g>
			<g transform="matrix(0.05555555555555555,0,0,0.05555555555555555,74.27777777777777,0)">
				<path id="ah" d="M885.3,85.5c3.4-0.1,4.7,2.1,4.7,5.5c0.1,3.5-1.5,5.5-4.8,5.5s-4.6-2.2-4.7-5.5
					C880.6,87.4,882.2,85.5,885.3,85.5z M885.3,95.2c2.4,0.1,2.9-1.7,2.9-4.2c0-2.4-0.4-4.2-2.8-4.2c-2.4,0-2.9,1.8-2.9,4.2
					C882.4,93.4,883,95.1,885.3,95.2"/>
			</g>
			<g transform="matrix(0.05555555555555555,0,0,0.05555555555555555,85.38888888888889,0)">
				<path id="T_1_" d="M897.4,85.5c4.9-0.2,2.9,6.4,3.3,10.8h-1.8v-6.7c0-1.7-0.4-2.7-2.2-2.7c-4,0.1-2.4,5.7-2.7,9.4h-1.8
					l-0.1-10.6h1.7c0.1,0.6-0.1,1.3,0.1,1.8C894.6,86.3,895.6,85.6,897.4,85.5"/>
			</g>
		</g>
	</g>
	<g transform="matrix(1,0,0,1,805.4864817663172,77.8012557228152) translate(102.05555555555556 18.5)">
		<g id="c_1_">
			<g transform="matrix(0.05555555555555555,0,0,0.05555555555555555,0,0)">
				<path id="X_1_" d="M912.4,100.5c-2.1-2.3-3.6-5.1-3.6-9.4c0-4.2,1.6-7,3.6-9.3h1.7c-2.1,2.3-3.6,5.1-3.6,9.3s1.4,7.1,3.6,9.3
					H912.4"/>
			</g>
			<g transform="matrix(0.05555555555555555,0,0,0.05555555555555555,6.611111111111111,0)">
				<path id="Y_3_" d="M917.4,93.7c-0.1,1.3,1,1.6,2.1,1.2v1.3c-1.8,0.6-3.9,0.3-3.9-2.2V87h-1.2v-1.3h1.3l0.5-2.4h1.2v2.4h1.9V87
					h-1.9V93.7"/>
			</g>
			<g transform="matrix(0.05555555555555555,0,0,0.05555555555555555,12.166666666666666,0)">
				<path id="W_3_" d="M925.3,85.5c3.5,0,4.8,2.3,4.7,5.9h-7.5c0,2.2,0.8,3.7,2.9,3.8c1.4,0.1,2.4-0.7,2.7-1.6l1.6,0.4
					c-0.6,1.6-2.1,2.5-4.3,2.5c-3.2,0-4.9-2.1-4.8-5.6C920.6,87.6,922,85.5,925.3,85.5z M928.2,90c0.3-3.3-4.2-4.3-5.4-1.6
					c-0.2,0.4-0.3,0.9-0.3,1.6H928.2"/>
			</g>
			<g transform="matrix(0.05555555555555555,0,0,0.05555555555555555,23.27777777777778,0)">
				<path id="Z_1_" d="M938.7,96.3l-2.8-4.3l-2.9,4.3H931l3.8-5.4l-3.6-5.1h1.9l2.7,4.1l2.6-4.1h1.9l-3.6,5.1l3.8,5.4H938.7"/>
			</g>
			<g transform="matrix(0.05555555555555555,0,0,0.05555555555555555,33.27777777777778,0)">
				<path id="Y_4_" d="M944.1,93.7c-0.1,1.3,1,1.6,2.1,1.2v1.3c-1.8,0.6-3.9,0.3-3.9-2.2V87h-1.2v-1.3h1.3l0.5-2.4h1.2v2.4h1.9V87
					h-1.9V93.7"/>
			</g>
			<g transform="matrix(0.05555555555555555,0,0,0.05555555555555555,38.833333333333336,0)">
				<path id="aa_1_" d="M948.2,81.8c2.1,2.3,3.6,5.1,3.6,9.3s-1.5,7.1-3.6,9.3h-1.7c2.1-2.3,3.6-5.1,3.6-9.3s-1.5-7.1-3.6-9.3H948.2
					"/>
			</g>
		</g>
	</g>
	<g>
		<g transform="matrix(1,0,0,1,805.4864817663172,111.8012557228152) translate(0 18.5)">
			<g id="e">
				<g transform="matrix(0.05555555555555555,0,0,0.05555555555555555,0,0)">
					<path id="ab_1_" d="M810.2,119.5c1.7,0,2.7,0.7,3.3,1.8l-0.1-5.6h1.8l0.1,14.5h-1.7c-0.1-0.6,0-1.3-0.2-1.7
						c-0.6,1.3-1.6,1.9-3.3,1.9c-2.9,0-3.8-2.2-3.9-5.4C806.3,121.4,807.6,119.5,810.2,119.5z M810.7,120.9c-2.2,0-2.6,1.9-2.6,4.2
						c0,2.2,0.3,4.1,2.5,4.1c2.3,0,2.8-1.8,2.8-4.2C813.5,122.6,813,120.8,810.7,120.9"/>
				</g>
				<g transform="matrix(0.05555555555555555,0,0,0.05555555555555555,11.11111111111111,0)">
					<path id="U_1_" d="M824.4,128.3c-0.8,1.2-1.7,2.3-3.8,2.2c-2-0.1-3.2-1.2-3.2-3.2c-0.1-3.6,3.5-3.5,6.9-3.5
						c0.2-1.9-0.5-3-2.3-3c-1.3,0.1-2.3,0.4-2.3,1.7l-1.8-0.2c0.3-2.1,1.8-2.9,4.2-2.9c2.5,0,4,1.1,4,3.6v4.6
						c-0.1,1.1,0.4,1.8,1.6,1.5v1.1C826,130.7,824.3,130.1,824.4,128.3z M819.3,127.4c0,1.1,0.7,1.8,1.8,1.8
						c2.3-0.2,3.5-1.6,3.3-4.1C822,125.2,819.3,124.8,819.3,127.4"/>
				</g>
				<g transform="matrix(0.05555555555555555,0,0,0.05555555555555555,22.22222222222222,0)">
					<path id="Y_5_" d="M831,127.7c-0.1,1.3,1,1.6,2.1,1.2v1.3c-1.8,0.6-3.9,0.3-3.9-2.2V121H828v-1.3h1.3l0.5-2.4h1.2v2.4h1.9v1.3
						H831V127.7"/>
				</g>
				<g transform="matrix(0.05555555555555555,0,0,0.05555555555555555,27.77777777777778,0)">
					<path id="U_2_" d="M841.1,128.3c-0.8,1.2-1.7,2.3-3.8,2.2c-2-0.1-3.2-1.2-3.2-3.2c-0.1-3.6,3.5-3.5,6.9-3.5
						c0.2-1.9-0.5-3-2.3-3c-1.3,0.1-2.3,0.4-2.3,1.7l-1.8-0.2c0.3-2.1,1.8-2.9,4.2-2.9c2.5,0,4,1.1,4,3.6v4.6
						c-0.1,1.1,0.4,1.8,1.6,1.5v1.1C842.7,130.7,841,130.1,841.1,128.3z M835.9,127.4c0,1.1,0.7,1.8,1.8,1.8
						c2.3-0.2,3.5-1.6,3.3-4.1C838.7,125.2,835.9,124.8,835.9,127.4"/>
				</g>
			</g>
		</g>
		<g transform="matrix(1,0,0,1,805.4864817663172,111.8012557228152) translate(0 42.5)">
			<g id="f" transform="matrix(0.05555555555555555,0,0,0.05555555555555555,0,0)">
				<path id="ai" d="M806.4,149.7v-1.6h4.9v1.6H806.4"/>
			</g>
		</g>
		<g transform="matrix(1,0,0,1,805.4864817663172,111.8012557228152) translate(12.166666666666666 42.5)">
			<g id="g">
				<g transform="matrix(0.05555555555555555,0,0,0.05555555555555555,0,0)">
					<path id="aj" d="M822.3,154.5c-4.9,0.2-3-6.4-3.4-10.8h1.8v6.7c0,1.7,0.4,2.8,2.2,2.7c4-0.1,2.5-5.6,2.8-9.4h1.7l0.1,10.6h-1.7
						c-0.1-0.6,0.1-1.4-0.1-1.8C825,153.7,824.1,154.5,822.3,154.5"/>
				</g>
				<g transform="matrix(0.05555555555555555,0,0,0.05555555555555555,11.11111111111111,0)">
					<path id="T_2_" d="M835.3,143.5c4.9-0.2,2.9,6.4,3.3,10.8h-1.8v-6.7c0-1.7-0.4-2.7-2.2-2.7c-4,0.1-2.4,5.7-2.7,9.4h-1.8
						l-0.1-10.6h1.7c0.1,0.6-0.1,1.3,0.1,1.8C832.5,144.3,833.5,143.6,835.3,143.5"/>
				</g>
				<g transform="matrix(0.05555555555555555,0,0,0.05555555555555555,22.22222222222222,0)">
					<path id="af_2_" d="M841.2,141.5v-1.7h1.8v1.7H841.2z M841.2,154.3v-10.6h1.8v10.6H841.2"/>
				</g>
				<g transform="matrix(0.05555555555555555,0,0,0.05555555555555555,26.61111111111111,0)">
					<path id="Y_6_" d="M847.5,151.7c-0.1,1.3,1,1.6,2.1,1.2v1.3c-1.8,0.6-3.9,0.3-3.9-2.2V145h-1.2v-1.3h1.3l0.5-2.4h1.2v2.4h1.9
						v1.3h-1.9V151.7"/>
				</g>
			</g>
		</g>
		<g transform="matrix(1,0,0,1,805.4864817663172,111.8012557228152) translate(49.888888888888886 42.5)">
			<g id="c_2_">
				<g transform="matrix(0.05555555555555555,0,0,0.05555555555555555,0,0)">
					<path id="X_2_" d="M860.2,158.5c-2.1-2.3-3.6-5.1-3.6-9.4c0-4.2,1.6-7,3.6-9.3h1.7c-2.1,2.3-3.6,5.1-3.6,9.3
						c0,4.2,1.4,7.1,3.6,9.3H860.2"/>
				</g>
				<g transform="matrix(0.05555555555555555,0,0,0.05555555555555555,6.611111111111111,0)">
					<path id="Y_7_" d="M865.3,151.7c-0.1,1.3,1,1.6,2.1,1.2v1.3c-1.8,0.6-3.9,0.3-3.9-2.2V145h-1.2v-1.3h1.3l0.5-2.4h1.2v2.4h1.9
						v1.3h-1.9V151.7"/>
				</g>
				<g transform="matrix(0.05555555555555555,0,0,0.05555555555555555,12.166666666666666,0)">
					<path id="W_4_" d="M873.1,143.5c3.5,0,4.8,2.3,4.7,5.9h-7.5c0,2.2,0.8,3.7,2.9,3.8c1.4,0.1,2.4-0.7,2.7-1.6l1.6,0.4
						c-0.6,1.6-2.1,2.5-4.3,2.5c-3.2,0-4.9-2.1-4.8-5.6C868.4,145.6,869.8,143.5,873.1,143.5z M876,148c0.3-3.3-4.2-4.3-5.4-1.6
						c-0.2,0.4-0.3,0.9-0.3,1.6H876"/>
				</g>
				<g transform="matrix(0.05555555555555555,0,0,0.05555555555555555,23.27777777777778,0)">
					<path id="Z_2_" d="M886.5,154.3l-2.8-4.3l-2.9,4.3h-1.9l3.8-5.4l-3.6-5.1h1.9l2.7,4.1l2.6-4.1h1.9l-3.6,5.1l3.8,5.4H886.5"/>
				</g>
				<g transform="matrix(0.05555555555555555,0,0,0.05555555555555555,33.27777777777778,0)">
					<path id="Y_8_" d="M891.9,151.7c-0.1,1.3,1,1.6,2.1,1.2v1.3c-1.8,0.6-3.9,0.3-3.9-2.2V145h-1.2v-1.3h1.3l0.5-2.4h1.2v2.4h1.9
						v1.3h-1.9V151.7"/>
				</g>
				<g transform="matrix(0.05555555555555555,0,0,0.05555555555555555,38.833333333333336,0)">
					<path id="aa_2_" d="M896,139.8c2.1,2.3,3.6,5.1,3.6,9.3c0,4.2-1.5,7.1-3.6,9.3h-1.7c2.1-2.3,3.6-5.1,3.6-9.3
						c0-4.2-1.5-7.1-3.6-9.3H896"/>
				</g>
			</g>
		</g>
	</g>
	<g>
		<g transform="matrix(1,0,0,1,805.4864817663172,169.8012557228152) translate(0 18.5)">
			<g id="h">
				<g transform="matrix(0.05555555555555555,0,0,0.05555555555555555,0,0)">
					<path id="ae_1_" d="M811.8,179.2c-4.3-0.9-2.9,5.1-3.2,9.1h-1.8l-0.1-10.6h1.7c0.1,0.7-0.1,1.6,0.1,2.2
						c0.3-1.5,1.3-2.7,3.2-2.3V179.2"/>
				</g>
				<g transform="matrix(0.05555555555555555,0,0,0.05555555555555555,6.611111111111111,0)">
					<path id="U_3_" d="M819.9,186.3c-0.8,1.2-1.7,2.3-3.8,2.2c-2-0.1-3.2-1.2-3.2-3.2c-0.1-3.6,3.5-3.5,6.9-3.5
						c0.2-1.9-0.5-3-2.3-3c-1.3,0.1-2.3,0.4-2.3,1.7l-1.8-0.2c0.3-2.1,1.8-2.9,4.2-2.9c2.5,0,4,1.1,4,3.6v4.6
						c-0.1,1.1,0.4,1.8,1.6,1.5v1.1C821.5,188.7,819.8,188.1,819.9,186.3z M814.8,185.4c0,1.1,0.7,1.8,1.8,1.8
						c2.3-0.2,3.5-1.6,3.3-4.1C817.5,183.2,814.8,182.8,814.8,185.4"/>
				</g>
				<g transform="matrix(0.05555555555555555,0,0,0.05555555555555555,17.72222222222222,0)">
					<path id="Y_9_" d="M826.5,185.7c-0.1,1.3,1,1.6,2.1,1.2v1.3c-1.8,0.6-3.9,0.3-3.9-2.2V179h-1.2v-1.3h1.3l0.5-2.4h1.2v2.4h1.9
						v1.3h-1.9V185.7"/>
				</g>
				<g transform="matrix(0.05555555555555555,0,0,0.05555555555555555,23.27777777777778,0)">
					<path id="W_5_" d="M834.3,177.5c3.5,0,4.8,2.3,4.7,5.9h-7.5c0,2.2,0.8,3.7,2.9,3.8c1.4,0.1,2.4-0.7,2.7-1.6l1.6,0.4
						c-0.6,1.6-2.1,2.5-4.3,2.5c-3.2,0-4.9-2.1-4.8-5.6C829.7,179.6,831,177.5,834.3,177.5z M837.2,182c0.3-3.3-4.2-4.3-5.4-1.6
						c-0.2,0.4-0.3,0.9-0.3,1.6H837.2"/>
				</g>
			</g>
		</g>
		<g transform="matrix(1,0,0,1,805.4864817663172,169.8012557228152) translate(39.94444444444444 18.5)">
			<g id="i">
				<g transform="matrix(0.05555555555555555,0,0,0.05555555555555555,0,0)">
					<path id="U_4_" d="M853.3,186.3c-0.8,1.2-1.7,2.3-3.8,2.2c-2-0.1-3.2-1.2-3.2-3.2c-0.1-3.6,3.5-3.5,6.9-3.5
						c0.2-1.9-0.5-3-2.3-3c-1.3,0.1-2.3,0.4-2.3,1.7l-1.8-0.2c0.3-2.1,1.8-2.9,4.2-2.9c2.5,0,4,1.1,4,3.6v4.6
						c-0.1,1.1,0.4,1.8,1.6,1.5v1.1C854.8,188.7,853.2,188.1,853.3,186.3z M848.1,185.4c0,1.1,0.7,1.8,1.8,1.8
						c2.3-0.2,3.5-1.6,3.3-4.1C850.8,183.2,848.1,182.8,848.1,185.4"/>
				</g>
				<g transform="matrix(0.05555555555555555,0,0,0.05555555555555555,11.11111111111111,0)">
					<path id="T_3_" d="M863,177.5c4.9-0.2,2.9,6.4,3.3,10.8h-1.8v-6.7c0-1.7-0.4-2.7-2.2-2.7c-4,0.1-2.4,5.7-2.7,9.4h-1.8
						l-0.1-10.6h1.7c0.1,0.6-0.1,1.3,0.1,1.8C860.3,178.3,861.3,177.6,863,177.5"/>
				</g>
				<g transform="matrix(0.05555555555555555,0,0,0.05555555555555555,22.22222222222222,0)">
					<path id="ab_2_" d="M872.4,177.5c1.7,0,2.7,0.7,3.3,1.8l-0.1-5.6h1.8l0.1,14.5h-1.7c-0.1-0.6,0-1.3-0.2-1.7
						c-0.6,1.3-1.6,1.9-3.3,1.9c-2.9,0-3.8-2.2-3.9-5.4C868.5,179.4,869.8,177.5,872.4,177.5z M872.9,178.9c-2.2,0-2.6,1.9-2.6,4.2
						c0,2.2,0.3,4.1,2.5,4.1c2.3,0,2.8-1.8,2.8-4.2C875.7,180.6,875.2,178.8,872.9,178.9"/>
				</g>
			</g>
		</g>
		<g transform="matrix(1,0,0,1,805.4864817663172,169.8012557228152) translate(78.83333333333333 18.5)">
			<g id="j">
				<g transform="matrix(0.05555555555555555,0,0,0.05555555555555555,0,0)">
					<path id="ac_1_" d="M891.8,180.4c-0.2-1.9-4.8-2.1-4.8,0c0.8,2.9,6.4,0.7,6.6,5c0.2,4.3-8.3,4.1-8.7,0.4l1.6-0.3
						c0.2,2,5.4,2.5,5.4,0c-0.6-3.1-6.3-0.8-6.6-5c-0.2-3.2,4.6-3.5,6.8-2.3c0.7,0.4,1.2,1.1,1.3,1.9"/>
				</g>
				<g transform="matrix(0.05555555555555555,0,0,0.05555555555555555,10,0)">
					<path id="Y_10_" d="M897.6,185.7c-0.1,1.3,1,1.6,2.1,1.2v1.3c-1.8,0.6-3.9,0.3-3.9-2.2V179h-1.2v-1.3h1.3l0.5-2.4h1.2v2.4h1.9
						v1.3h-1.9V185.7"/>
				</g>
				<g transform="matrix(0.05555555555555555,0,0,0.05555555555555555,15.555555555555555,0)">
					<path id="U_5_" d="M907.7,186.3c-0.8,1.2-1.7,2.3-3.8,2.2c-2-0.1-3.2-1.2-3.2-3.2c-0.1-3.6,3.5-3.5,6.9-3.5
						c0.2-1.9-0.5-3-2.3-3c-1.3,0.1-2.3,0.4-2.3,1.7l-1.8-0.2c0.3-2.1,1.8-2.9,4.2-2.9c2.5,0,4,1.1,4,3.6v4.6
						c-0.1,1.1,0.4,1.8,1.6,1.5v1.1C909.3,188.7,907.6,188.1,907.7,186.3z M902.5,185.4c0,1.1,0.7,1.8,1.8,1.8
						c2.3-0.2,3.5-1.6,3.3-4.1C905.3,183.2,902.5,182.8,902.5,185.4"/>
				</g>
				<g transform="matrix(0.05555555555555555,0,0,0.05555555555555555,26.666666666666664,0)">
					<path id="ae_2_" d="M917.3,179.2c-4.3-0.9-2.9,5.1-3.2,9.1h-1.8l-0.1-10.6h1.7c0.1,0.7-0.1,1.6,0.1,2.2
						c0.3-1.5,1.3-2.7,3.2-2.3V179.2"/>
				</g>
				<g transform="matrix(0.05555555555555555,0,0,0.05555555555555555,33.27777777777777,0)">
					<path id="Y_11_" d="M920.9,185.7c-0.1,1.3,1,1.6,2.1,1.2v1.3c-1.8,0.6-3.9,0.3-3.9-2.2V179h-1.2v-1.3h1.3l0.5-2.4h1.2v2.4h1.9
						v1.3h-1.9V185.7"/>
				</g>
				<g transform="matrix(0.05555555555555555,0,0,0.05555555555555555,38.83333333333333,0)">
					<path id="af_3_" d="M924.5,175.5v-1.7h1.8v1.7H924.5z M924.5,188.3v-10.6h1.8v10.6H924.5"/>
				</g>
				<g transform="matrix(0.05555555555555555,0,0,0.05555555555555555,43.222222222222214,0)">
					<path id="T_4_" d="M934,177.5c4.9-0.2,2.9,6.4,3.3,10.8h-1.8v-6.7c0-1.7-0.4-2.7-2.2-2.7c-4,0.1-2.4,5.7-2.7,9.4h-1.8
						l-0.1-10.6h1.7c0.1,0.6-0.1,1.3,0.1,1.8C931.3,178.3,932.3,177.6,934,177.5"/>
				</g>
				<g transform="matrix(0.05555555555555555,0,0,0.05555555555555555,54.33333333333333,0)">
					<path id="ak" d="M948.5,177.7c-0.6,6.9,2.3,16.3-6.1,14.5c-1.3-0.3-2.1-1.1-2.4-2.4l1.8-0.3c0.8,2.6,5.6,1.8,4.9-1.6v-1.7
						c-0.6,1.2-1.6,2-3.4,2c-3,0-3.8-2.3-3.8-5.3c0-3.1,0.9-5.4,3.9-5.4c1.6-0.1,2.7,0.9,3.3,1.9c0.1-0.6,0-1.3,0.1-1.8H948.5z
						 M943.9,187.1c2,0,2.8-1.8,2.8-4.1c0-2.3-0.8-4.2-2.8-4.2c-2.2,0-2.6,1.9-2.6,4.2C941.3,185.3,941.7,187.1,943.9,187.1"/>
				</g>
				<g transform="matrix(0.05555555555555555,0,0,0.05555555555555555,65.44444444444444,0)">
					<path id="al" d="M949.5,192.3V191h11.6v1.3H949.5"/>
				</g>
				<g transform="matrix(0.05555555555555555,0,0,0.05555555555555555,76.55555555555556,0)">
					<path id="Y_12_" d="M964.2,185.7c-0.1,1.3,1,1.6,2.1,1.2v1.3c-1.8,0.6-3.9,0.3-3.9-2.2V179h-1.2v-1.3h1.3l0.5-2.4h1.2v2.4h1.9
						v1.3h-1.9V185.7"/>
				</g>
				<g transform="matrix(0.05555555555555555,0,0,0.05555555555555555,82.11111111111111,0)">
					<path id="af_4_" d="M967.8,175.5v-1.7h1.8v1.7H967.8z M967.8,188.3v-10.6h1.8v10.6H967.8"/>
				</g>
				<g transform="matrix(0.05555555555555555,0,0,0.05555555555555555,86.5,0)">
					<path id="V_1_" d="M982.5,178.9c-3.7,0.2-2.1,5.8-2.4,9.4h-1.7v-6.7c0-1.6-0.3-2.8-1.9-2.7c-3.7,0.2-2.1,5.8-2.4,9.4h-1.7
						l-0.1-10.6h1.7c0.1,0.6-0.1,1.3,0.1,1.8c0.6-2.4,5.5-2.8,5.9,0c0.6-1.2,1.5-1.9,3.2-2c4.7-0.1,2.6,6.6,3.1,10.8h-1.7v-6.7
						C984.4,180,984.2,178.9,982.5,178.9"/>
				</g>
				<g transform="matrix(0.05555555555555555,0,0,0.05555555555555555,103.11111111111111,0)">
					<path id="W_6_" d="M993,177.5c3.5,0,4.8,2.3,4.7,5.9h-7.5c0,2.2,0.8,3.7,2.9,3.8c1.4,0.1,2.4-0.7,2.7-1.6l1.6,0.4
						c-0.6,1.6-2.1,2.5-4.3,2.5c-3.2,0-4.9-2.1-4.8-5.6C988.3,179.6,989.7,177.5,993,177.5z M995.9,182c0.3-3.3-4.2-4.3-5.4-1.6
						c-0.2,0.4-0.3,0.9-0.3,1.6H995.9"/>
				</g>
			</g>
		</g>
		<g transform="matrix(1,0,0,1,805.4864817663172,169.8012557228152) translate(198.61111111111111 18.5)">
			<g id="k">
				<g transform="matrix(0.05555555555555555,0,0,0.05555555555555555,0,0)">
					<path id="X_3_" d="M1008.9,192.5c-2.1-2.3-3.6-5.1-3.6-9.4c0-4.2,1.6-7,3.6-9.3h1.7c-2.1,2.3-3.6,5.1-3.6,9.3
						c0,4.2,1.4,7.1,3.6,9.3H1008.9"/>
				</g>
				<g transform="matrix(0.05555555555555555,0,0,0.05555555555555555,6.611111111111111,0)">
					<path id="am" d="M1016.3,175.3c-1.7-0.5-2.3,0.6-2.1,2.4h2.1v1.3h-2.1v9.3h-1.7V179h-1.5v-1.3h1.5c-0.4-2.9,0.9-4.6,3.8-3.8
						V175.3"/>
				</g>
				<g transform="matrix(0.05555555555555555,0,0,0.05555555555555555,12.166666666666666,0)">
					<path id="an" d="M1017.6,188.3v-14.5h1.8v14.5H1017.6"/>
				</g>
				<g transform="matrix(0.05555555555555555,0,0,0.05555555555555555,16.555555555555554,0)">
					<path id="ah_1_" d="M1026.2,177.5c3.4-0.1,4.7,2.1,4.7,5.5c0.1,3.5-1.5,5.5-4.8,5.5c-3.3,0-4.6-2.2-4.7-5.5
						C1021.5,179.4,1023,177.5,1026.2,177.5z M1026.2,187.2c2.4,0.1,2.9-1.7,2.9-4.2c0-2.4-0.4-4.2-2.8-4.2c-2.4,0-2.9,1.8-2.9,4.2
						S1023.9,187.1,1026.2,187.2"/>
				</g>
				<g transform="matrix(0.05555555555555555,0,0,0.05555555555555555,27.666666666666664,0)">
					<path id="U_6_" d="M1039.6,186.3c-0.8,1.2-1.7,2.3-3.8,2.2c-2-0.1-3.2-1.2-3.2-3.2c-0.1-3.6,3.5-3.5,6.9-3.5
						c0.2-1.9-0.5-3-2.3-3c-1.3,0.1-2.3,0.4-2.3,1.7l-1.8-0.2c0.3-2.1,1.8-2.9,4.2-2.9c2.5,0,4,1.1,4,3.6v4.6
						c-0.1,1.1,0.4,1.8,1.6,1.5v1.1C1041.2,188.7,1039.5,188.1,1039.6,186.3z M1034.4,185.4c0,1.1,0.7,1.8,1.8,1.8
						c2.3-0.2,3.5-1.6,3.3-4.1C1037.2,183.2,1034.4,182.8,1034.4,185.4"/>
				</g>
				<g transform="matrix(0.05555555555555555,0,0,0.05555555555555555,38.77777777777777,0)">
					<path id="Y_13_" d="M1046.2,185.7c-0.1,1.3,1,1.6,2.1,1.2v1.3c-1.8,0.6-3.9,0.3-3.9-2.2V179h-1.2v-1.3h1.3l0.5-2.4h1.2v2.4h1.9
						v1.3h-1.9V185.7"/>
				</g>
				<g transform="matrix(0.05555555555555555,0,0,0.05555555555555555,44.33333333333333,0)">
					<path id="ac_2_" d="M1055.9,180.4c-0.2-1.9-4.8-2.1-4.8,0c0.8,2.9,6.4,0.7,6.6,5c0.2,4.3-8.3,4.1-8.7,0.4l1.6-0.3
						c0.2,2,5.4,2.5,5.4,0c-0.6-3.1-6.3-0.8-6.6-5c-0.2-3.2,4.6-3.5,6.8-2.3c0.7,0.4,1.2,1.1,1.3,1.9"/>
				</g>
				<g transform="matrix(0.05555555555555555,0,0,0.05555555555555555,54.33333333333333,0)">
					<path id="aa_3_" d="M1060.3,173.8c2.1,2.3,3.6,5.1,3.6,9.3c0,4.2-1.5,7.1-3.6,9.3h-1.7c2.1-2.3,3.6-5.1,3.6-9.3
						c0-4.2-1.5-7.1-3.6-9.3H1060.3"/>
				</g>
			</g>
		</g>
		<g transform="matrix(1,0,0,1,805.4864817663172,169.8012557228152) translate(0 42.5)">
		</g>
		<g transform="matrix(1,0,0,1,805.4864817663172,169.8012557228152) translate(11.11111111111111 42.5)">
			<g id="m">
				<g transform="matrix(0.05555555555555555,0,0,0.05555555555555555,0,0)">
					<path id="ah_2_" d="M822.2,201.5c3.4-0.1,4.7,2.1,4.7,5.5c0.1,3.5-1.5,5.5-4.8,5.5s-4.6-2.2-4.7-5.5
						C817.4,203.4,819,201.5,822.2,201.5z M822.1,211.2c2.4,0.1,2.9-1.7,2.9-4.2c0-2.4-0.4-4.2-2.8-4.2c-2.4,0-2.9,1.8-2.9,4.2
						S819.8,211.1,822.1,211.2"/>
				</g>
				<g transform="matrix(0.05555555555555555,0,0,0.05555555555555555,11.11111111111111,0)">
					<path id="ae_3_" d="M834,203.2c-4.3-0.9-2.9,5.1-3.2,9.1h-1.8l-0.1-10.6h1.7c0.1,0.7-0.1,1.6,0.1,2.2c0.3-1.5,1.3-2.7,3.2-2.3
						V203.2"/>
				</g>
			</g>
		</g>
		<g transform="matrix(1,0,0,1,805.4864817663172,169.8012557228152) translate(0 66.5)">
			<g id="n">
				<g transform="matrix(0.05555555555555555,0,0,0.05555555555555555,0,0)">
					<path id="Y_14_" d="M808.8,233.7c-0.1,1.3,1,1.6,2.1,1.2v1.3c-1.8,0.6-3.9,0.3-3.9-2.2V227h-1.2v-1.3h1.3l0.5-2.4h1.2v2.4h1.9
						v1.3h-1.9V233.7"/>
				</g>
				<g transform="matrix(0.05555555555555555,0,0,0.05555555555555555,5.555555555555555,0)">
					<path id="af_5_" d="M812.4,223.5v-1.7h1.8v1.7H812.4z M812.4,236.3v-10.6h1.8v10.6H812.4"/>
				</g>
				<g transform="matrix(0.05555555555555555,0,0,0.05555555555555555,9.944444444444443,0)">
					<path id="V_2_" d="M827.1,226.9c-3.7,0.2-2.1,5.8-2.4,9.4h-1.7v-6.7c0-1.6-0.3-2.8-1.9-2.7c-3.7,0.2-2.1,5.8-2.4,9.4h-1.7
						l-0.1-10.6h1.7c0.1,0.6-0.1,1.3,0.1,1.8c0.6-2.4,5.5-2.8,5.9,0c0.6-1.2,1.5-1.9,3.2-2c4.7-0.1,2.6,6.6,3.1,10.8H829v-6.7
						C829,228,828.8,226.9,827.1,226.9"/>
				</g>
				<g transform="matrix(0.05555555555555555,0,0,0.05555555555555555,26.555555555555554,0)">
					<path id="W_7_" d="M837.6,225.5c3.5,0,4.8,2.3,4.7,5.9h-7.5c0,2.2,0.8,3.7,2.9,3.8c1.4,0.1,2.4-0.7,2.7-1.6l1.6,0.4
						c-0.6,1.6-2.1,2.5-4.3,2.5c-3.2,0-4.9-2.1-4.8-5.6C832.9,227.6,834.3,225.5,837.6,225.5z M840.5,230c0.3-3.3-4.2-4.3-5.4-1.6
						c-0.2,0.4-0.3,0.9-0.3,1.6H840.5"/>
				</g>
				<g transform="matrix(0.05555555555555555,0,0,0.05555555555555555,37.666666666666664,0)">
					<path id="ac_3_" d="M850.7,228.4c-0.2-1.9-4.8-2.1-4.8,0c0.8,2.9,6.4,0.7,6.6,5c0.2,4.3-8.3,4.1-8.7,0.4l1.6-0.3
						c0.2,2,5.4,2.5,5.4,0c-0.6-3.1-6.3-0.8-6.6-5c-0.2-3.2,4.6-3.5,6.8-2.3c0.7,0.4,1.2,1.1,1.3,1.9"/>
				</g>
				<g transform="matrix(0.05555555555555555,0,0,0.05555555555555555,47.666666666666664,0)">
					<path id="Y_15_" d="M856.4,233.7c-0.1,1.3,1,1.6,2.1,1.2v1.3c-1.8,0.6-3.9,0.3-3.9-2.2V227h-1.2v-1.3h1.3l0.5-2.4h1.2v2.4h1.9
						v1.3h-1.9V233.7"/>
				</g>
				<g transform="matrix(0.05555555555555555,0,0,0.05555555555555555,53.22222222222222,0)">
					<path id="U_7_" d="M866.5,234.3c-0.8,1.2-1.7,2.3-3.8,2.2c-2-0.1-3.2-1.2-3.2-3.2c-0.1-3.6,3.5-3.5,6.9-3.5
						c0.2-1.9-0.5-3-2.3-3c-1.3,0.1-2.3,0.4-2.3,1.7l-1.8-0.2c0.3-2.1,1.8-2.9,4.2-2.9c2.5,0,4,1.1,4,3.6v4.6
						c-0.1,1.1,0.4,1.8,1.6,1.5v1.1C868.1,236.7,866.4,236.1,866.5,234.3z M861.4,233.4c0,1.1,0.7,1.8,1.8,1.8
						c2.3-0.2,3.5-1.6,3.3-4.1C864.1,231.2,861.4,230.8,861.4,233.4"/>
				</g>
				<g transform="matrix(0.05555555555555555,0,0,0.05555555555555555,64.33333333333333,0)">
					<path id="V_3_" d="M881.5,226.9c-3.7,0.2-2.1,5.8-2.4,9.4h-1.7v-6.7c0-1.6-0.3-2.8-1.9-2.7c-3.7,0.2-2.1,5.8-2.4,9.4h-1.7
						l-0.1-10.6h1.7c0.1,0.6-0.1,1.3,0.1,1.8c0.6-2.4,5.5-2.8,5.9,0c0.6-1.2,1.5-1.9,3.2-2c4.7-0.1,2.6,6.6,3.1,10.8h-1.7v-6.7
						C883.4,228,883.2,226.9,881.5,226.9"/>
				</g>
				<g transform="matrix(0.05555555555555555,0,0,0.05555555555555555,80.94444444444444,0)">
					<path id="ag_1_" d="M892.8,225.5c3.1,0.1,3.9,2.3,3.9,5.4c0,3.2-0.9,5.4-3.9,5.6c-1.7,0-2.7-0.7-3.3-1.9l0.1,5.8h-1.8
						l-0.1-14.7h1.7l0.1,1.7C890.1,226.2,891.1,225.5,892.8,225.5z M892.4,235.2c2.2,0,2.5-1.9,2.5-4.2c0-2.3-0.3-4.1-2.5-4.1
						c-2.3,0-2.8,1.8-2.8,4.2C889.5,233.5,890.1,235.2,892.4,235.2"/>
				</g>
				<g transform="matrix(0.05555555555555555,0,0,0.05555555555555555,92.05555555555556,0)">
					<path id="ac_4_" d="M905,228.4c-0.2-1.9-4.8-2.1-4.8,0c0.8,2.9,6.4,0.7,6.6,5c0.2,4.3-8.3,4.1-8.7,0.4l1.6-0.3
						c0.2,2,5.4,2.5,5.4,0c-0.6-3.1-6.3-0.8-6.6-5c-0.2-3.2,4.6-3.5,6.8-2.3c0.7,0.4,1.2,1.1,1.3,1.9"/>
				</g>
			</g>
		</g>
		<g transform="matrix(1,0,0,1,805.4864817663172,169.8012557228152) translate(107.61111111111111 66.5)">
			<g id="o">
				<g transform="matrix(0.05555555555555555,0,0,0.05555555555555555,0,0)">
					<path id="ao" d="M914.5,240.5v-18.7h3.9v1.3h-2.3v16.1h2.3v1.3H914.5"/>
				</g>
				<g transform="matrix(0.05555555555555555,0,0,0.05555555555555555,5.555555555555555,0)">
					<path id="T_5_" d="M925.2,225.5c4.9-0.2,2.9,6.4,3.3,10.8h-1.8v-6.7c0-1.7-0.4-2.7-2.2-2.7c-4,0.1-2.4,5.7-2.7,9.4H920
						l-0.1-10.6h1.7c0.1,0.6-0.1,1.3,0.1,1.8C922.4,226.3,923.4,225.6,925.2,225.5"/>
				</g>
				<g transform="matrix(0.05555555555555555,0,0,0.05555555555555555,16.666666666666664,0)">
					<path id="Y_16_" d="M933,233.7c-0.1,1.3,1,1.6,2.1,1.2v1.3c-1.8,0.6-3.9,0.3-3.9-2.2V227H930v-1.3h1.3l0.5-2.4h1.2v2.4h1.9v1.3
						H933V233.7"/>
				</g>
				<g transform="matrix(0.05555555555555555,0,0,0.05555555555555555,22.22222222222222,0)">
					<path id="af_6_" d="M936.7,223.5v-1.7h1.8v1.7H936.7z M936.7,236.3v-10.6h1.8v10.6H936.7"/>
				</g>
				<g transform="matrix(0.05555555555555555,0,0,0.05555555555555555,26.61111111111111,0)">
					<path id="V_4_" d="M951.4,226.9c-3.7,0.2-2.1,5.8-2.4,9.4h-1.7v-6.7c0-1.6-0.3-2.8-1.9-2.7c-3.7,0.2-2.1,5.8-2.4,9.4h-1.7
						l-0.1-10.6h1.7c0.1,0.6-0.1,1.3,0.1,1.8c0.6-2.4,5.5-2.8,5.9,0c0.6-1.2,1.5-1.9,3.2-2c4.7-0.1,2.6,6.6,3.1,10.8h-1.7v-6.7
						C953.3,228,953,226.9,951.4,226.9"/>
				</g>
				<g transform="matrix(0.05555555555555555,0,0,0.05555555555555555,43.22222222222222,0)">
					<path id="W_8_" d="M961.9,225.5c3.5,0,4.8,2.3,4.7,5.9H959c0,2.2,0.8,3.7,2.9,3.8c1.4,0.1,2.4-0.7,2.7-1.6l1.6,0.4
						c-0.6,1.6-2.1,2.5-4.3,2.5c-3.2,0-4.9-2.1-4.8-5.6C957.2,227.6,958.6,225.5,961.9,225.5z M964.8,230c0.3-3.3-4.2-4.3-5.4-1.6
						c-0.2,0.4-0.3,0.9-0.3,1.6H964.8"/>
				</g>
				<g transform="matrix(0.05555555555555555,0,0,0.05555555555555555,54.33333333333333,0)">
					<path id="ap" d="M967.6,240.5v-1.3h2.3v-16.1h-2.3v-1.3h3.9v18.7H967.6"/>
				</g>
			</g>
		</g>
		<g transform="matrix(1,0,0,1,805.4864817663172,169.8012557228152) translate(173.05555555555554 66.5)">
			<g id="p">
				<g transform="matrix(0.05555555555555555,0,0,0.05555555555555555,0,0)">
					<path id="X_4_" d="M983.4,240.5c-2.1-2.3-3.6-5.1-3.6-9.4c0-4.2,1.6-7,3.6-9.3h1.7c-2.1,2.3-3.6,5.1-3.6,9.3
						c0,4.2,1.4,7.1,3.6,9.3H983.4"/>
				</g>
				<g transform="matrix(0.05555555555555555,0,0,0.05555555555555555,6.611111111111111,0)">
					<path id="am_1_" d="M990.8,223.3c-1.7-0.5-2.3,0.6-2.1,2.4h2.1v1.3h-2.1v9.3h-1.7V227h-1.5v-1.3h1.5c-0.4-2.9,0.9-4.6,3.8-3.8
						V223.3"/>
				</g>
				<g transform="matrix(0.05555555555555555,0,0,0.05555555555555555,12.166666666666666,0)">
					<path id="an_1_" d="M992,236.3v-14.5h1.8v14.5H992"/>
				</g>
				<g transform="matrix(0.05555555555555555,0,0,0.05555555555555555,16.555555555555554,0)">
					<path id="ah_3_" d="M1000.7,225.5c3.4-0.1,4.7,2.1,4.7,5.5c0.1,3.5-1.5,5.5-4.8,5.5s-4.6-2.2-4.7-5.5
						C995.9,227.4,997.5,225.5,1000.7,225.5z M1000.6,235.2c2.4,0.1,2.9-1.7,2.9-4.2c0-2.4-0.4-4.2-2.8-4.2c-2.4,0-2.9,1.8-2.9,4.2
						S998.3,235.1,1000.6,235.2"/>
				</g>
				<g transform="matrix(0.05555555555555555,0,0,0.05555555555555555,27.666666666666664,0)">
					<path id="U_8_" d="M1014,234.3c-0.8,1.2-1.7,2.3-3.8,2.2c-2-0.1-3.2-1.2-3.2-3.2c-0.1-3.6,3.5-3.5,6.9-3.5c0.2-1.9-0.5-3-2.3-3
						c-1.3,0.1-2.3,0.4-2.3,1.7l-1.8-0.2c0.3-2.1,1.8-2.9,4.2-2.9c2.5,0,4,1.1,4,3.6v4.6c-0.1,1.1,0.4,1.8,1.6,1.5v1.1
						C1015.6,236.7,1013.9,236.1,1014,234.3z M1008.9,233.4c0,1.1,0.7,1.8,1.8,1.8c2.3-0.2,3.5-1.6,3.3-4.1
						C1011.6,231.2,1008.9,230.8,1008.9,233.4"/>
				</g>
				<g transform="matrix(0.05555555555555555,0,0,0.05555555555555555,38.77777777777777,0)">
					<path id="Y_17_" d="M1020.6,233.7c-0.1,1.3,1,1.6,2.1,1.2v1.3c-1.8,0.6-3.9,0.3-3.9-2.2V227h-1.2v-1.3h1.3l0.5-2.4h1.2v2.4h1.9
						v1.3h-1.9V233.7"/>
				</g>
				<g transform="matrix(0.05555555555555555,0,0,0.05555555555555555,44.33333333333333,0)">
					<path id="aa_4_" d="M1024.7,221.8c2.1,2.3,3.6,5.1,3.6,9.3c0,4.2-1.5,7.1-3.6,9.3h-1.7c2.1-2.3,3.6-5.1,3.6-9.3
						c0-4.2-1.5-7.1-3.6-9.3H1024.7"/>
				</g>
			</g>
		</g>
	</g>
</g>
<path class="st4" d="M801,2.6h299.1v40H801V2.6z"/>
<g transform="matrix(1,0,0,1,805.7729635326344,7.402511445630405) translate(86.28888888888889 21.1375)">
	<g id="q">
		<g transform="matrix(0.05555555555555555,0,0,0.05555555555555555,0,0)">
			<path id="aq" class="st0" d="M899.6,17v11.6h-2.9V17h-4.4v-2.2h11.8V17H899.6"/>
		</g>
		<g transform="matrix(0.05555555555555555,0,0,0.05555555555555555,11.777777777777777,0)">
			<path id="ar" class="st0" d="M905.2,16.1V14h2.8v2.1H905.2z M905.2,28.5V18h2.8v10.6H905.2"/>
		</g>
		<g transform="matrix(0.05555555555555555,0,0,0.05555555555555555,17.333333333333332,0)">
			<path id="as" class="st0" d="M921.6,19.8c-2.9,0.5-1.6,5.6-1.9,8.7H917v-5.9c0.1-1.5-0.3-2.7-1.6-2.8c-2.9,0.6-1.5,5.6-1.8,8.7
				h-2.8L910.7,18h2.6c0.1,0.7-0.1,1.6,0.2,2.1c0.6-2.9,5.6-3.1,6,0c0.7-1.2,1.3-2.4,3.3-2.3c4.6,0.1,2.8,6.4,3.2,10.8h-2.7v-5.9
				C923.2,21.2,923,19.9,921.6,19.8"/>
		</g>
		<g transform="matrix(0.05555555555555555,0,0,0.05555555555555555,35.111111111111114,0)">
			<path id="at" class="st0" d="M937.5,25.9c-0.7,1.7-2.1,2.9-4.6,2.9c-3.3-0.1-4.9-2.1-4.9-5.6s1.7-5.4,5-5.4c3.4,0,4.6,2.5,4.7,6
				h-6.8c0,1.7,0.4,3.1,2.2,3.1c1,0,1.7-0.4,1.9-1.2L937.5,25.9z M935,22c0.3-2.6-3.2-3.5-3.9-1.2c-0.1,0.3-0.2,0.7-0.2,1.2H935"/>
		</g>
		<g transform="matrix(0.05555555555555555,0,0,0.05555555555555555,46.22222222222223,0)">
			<path id="au" class="st0" d="M947.7,18.4c-0.1-2.4-5.2-2.6-5.4-0.2c1,3.7,8.4,0.6,8.6,6.3c0.2,5.3-9.2,5.2-11.3,2
				c-0.3-0.4-0.6-1.1-0.7-1.7l2.8-0.4c0.2,2.6,6.2,3.1,6.4,0.3c-0.9-3.8-8.3-0.6-8.6-6.3c-0.2-4.8,8.5-4.9,10.4-1.9
				c0.3,0.4,0.4,1,0.6,1.6"/>
		</g>
		<g transform="matrix(0.05555555555555555,0,0,0.05555555555555555,59.55555555555555,0)">
			<path id="at_1_" class="st0" d="M961.9,25.9c-0.7,1.7-2.1,2.9-4.6,2.9c-3.3-0.1-4.9-2.1-4.9-5.6s1.7-5.4,5-5.4
				c3.4,0,4.6,2.5,4.7,6h-6.8c0,1.7,0.4,3.1,2.2,3.1c1,0,1.7-0.4,1.9-1.2L961.9,25.9z M959.4,22c0.3-2.6-3.2-3.5-3.9-1.2
				c-0.1,0.3-0.2,0.7-0.2,1.2H959.4"/>
		</g>
		<g transform="matrix(0.05555555555555555,0,0,0.05555555555555555,70.66666666666667,0)">
			<path id="av" class="st0" d="M970.2,20.2c-2.2-0.7-3.3,0.7-3.3,3.2v5.2h-2.8L964.1,18h2.6c0.1,0.7-0.1,1.6,0.2,2.2
				c0.3-1.6,1.5-2.9,3.4-2.3V20.2"/>
		</g>
		<g transform="matrix(0.05555555555555555,0,0,0.05555555555555555,78.44444444444444,0)">
			<path id="ar_1_" class="st0" d="M971.9,16.1V14h2.8v2.1H971.9z M971.9,28.5V18h2.8v10.6H971.9"/>
		</g>
		<g transform="matrix(0.05555555555555555,0,0,0.05555555555555555,84,0)">
			<path id="at_2_" class="st0" d="M986.3,25.9c-0.7,1.7-2.1,2.9-4.6,2.9c-3.3-0.1-4.9-2.1-4.9-5.6s1.7-5.4,5-5.4
				c3.4,0,4.6,2.5,4.7,6h-6.8c0,1.7,0.4,3.1,2.2,3.1c1,0,1.7-0.4,1.9-1.2L986.3,25.9z M983.8,22c0.3-2.6-3.2-3.5-3.9-1.2
				c-0.1,0.3-0.2,0.7-0.2,1.2H983.8"/>
		</g>
		<g transform="matrix(0.05555555555555555,0,0,0.05555555555555555,95.11111111111111,0)">
			<path id="aw" class="st0" d="M994.8,20.9c0.1-1.6-3.9-1.9-3.9-0.2c0.8,2.6,6.6,0.4,6.6,4.8c0.1,4.6-9.1,4.2-9.6,0.5l2.4-0.4
				c0.2,1.1,1.1,1.4,2.4,1.4c1.8,0.4,3.2-1.7,1.3-2.3c-2.4-0.8-5.7-0.6-5.8-3.7c-0.1-4.4,8.6-4.1,8.9-0.4"/>
		</g>
		<path class="st0" d="M891.1,29.6h108.2v2.1H891.1V29.6z"/>
	</g>
</g>
<path d="M947.6,300.8h-1v-0.5h1V300.8z"/>
<path class="st5" d="M800.5,323.1H800v-1h0.5V323.1z"/>
<path class="st6" d="M801,2.6"/>
</svg>
