<svg xmlns="http://www.w3.org/2000/svg" xmlns:xlink="http://www.w3.org/1999/xlink" xmlns:lucid="lucid" width="1133.33" height="654.17"><g transform="translate(0 0)" lucid:page-tab-id="Y41Vbe17~fYM"><g filter="url(#a)"><path d="M440 300h320v336H440z" fill="#fff"/><path d="M440 374h320v34H440zM440 442h320v34H440zM440 510h320v34H440zM440 578h320v58H440z" fill="#e6e6e6"/><path d="M440 300h320v40H440z" fill="#ccc"/><path d="M440 300h320v336H440zM440 340h320" stroke="#999" fill="none"/><use xlink:href="#b" transform="matrix(1,0,0,1,445,342.5) translate(0 18.5)"/><use xlink:href="#c" transform="matrix(1,0,0,1,445,342.5) translate(55.5 18.5)"/><use xlink:href="#d" transform="matrix(1,0,0,1,445,376.5) translate(0 18.5)"/><use xlink:href="#c" transform="matrix(1,0,0,1,445,376.5) translate(102.05555555555556 18.5)"/><use xlink:href="#e" transform="matrix(1,0,0,1,445,410.5) translate(0 18.5)"/><use xlink:href="#f" transform="matrix(1,0,0,1,445,410.5) translate(166.44444444444446 18.5)"/><use xlink:href="#g" transform="matrix(1,0,0,1,445,444.5) translate(0 18.5)"/><use xlink:href="#c" transform="matrix(1,0,0,1,445,444.5) translate(80.94444444444446 18.5)"/><g><use xlink:href="#h" transform="matrix(1,0,0,1,445,478.5) translate(0 18.5)"/><use xlink:href="#c" transform="matrix(1,0,0,1,445,478.5) translate(74.33333333333334 18.5)"/></g><g><use xlink:href="#i" transform="matrix(1,0,0,1,445,512.5) translate(0 18.5)"/><use xlink:href="#j" transform="matrix(1,0,0,1,445,512.5) translate(144.27777777777777 18.5)"/></g><g><use xlink:href="#k" transform="matrix(1,0,0,1,445,546.5) translate(0 18.5)"/><use xlink:href="#l" transform="matrix(1,0,0,1,445,546.5) translate(63.27777777777777 18.5)"/></g><g><use xlink:href="#m" transform="matrix(1,0,0,1,445,580.5) translate(0 18.5)"/><use xlink:href="#n" transform="matrix(1,0,0,1,445,580.5) translate(118.72222222222223 18.5)"/><use xlink:href="#o" transform="matrix(1,0,0,1,445,580.5) translate(146.5 18.5)"/><use xlink:href="#p" transform="matrix(1,0,0,1,445,580.5) translate(0 42.5)"/><use xlink:href="#q" transform="matrix(1,0,0,1,445,580.5) translate(12.166666666666666 42.5)"/><use xlink:href="#r" transform="matrix(1,0,0,1,445,580.5) translate(49.888888888888886 42.5)"/><use xlink:href="#s" transform="matrix(1,0,0,1,445,580.5) translate(67.11111111111111 42.5)"/></g></g><path d="M440.52 301.3H760v40H440.52z" stroke="#999" fill="#114b7c"/><use xlink:href="#t" transform="matrix(1,0,0,1,445.3196492367651,306.1012557228153) translate(84.51111111111112 21.1375)"/><g filter="url(#u)"><path d="M891.84 501.3h197.72v142H891.84z" fill="#fff"/><path d="M891.84 575.3h197.72v34H891.84z" fill="#e6e6e6"/><path d="M891.84 501.3h197.72v40H891.84z" fill="#ccc"/><path d="M891.84 501.3h197.72v142H891.84zM891.84 541.3h197.72" stroke="#999" fill="none"/><use xlink:href="#b" transform="matrix(1,0,0,1,896.8357605078836,543.8012557228149) translate(0 18.5)"/><use xlink:href="#c" transform="matrix(1,0,0,1,896.8357605078836,543.8012557228149) translate(55.5 18.5)"/><use xlink:href="#d" transform="matrix(1,0,0,1,896.8357605078836,577.8012557228149) translate(0 18.5)"/><use xlink:href="#c" transform="matrix(1,0,0,1,896.8357605078836,577.8012557228149) translate(102.05555555555556 18.5)"/><g><use xlink:href="#v" transform="matrix(1,0,0,1,896.8357605078836,611.8012557228149) translate(0 18.5)"/><use xlink:href="#c" transform="matrix(1,0,0,1,896.8357605078836,611.8012557228149) translate(123.16666666666669 18.5)"/></g></g><path d="M891.84 500h197.4v40h-197.4z" stroke="#999" fill="#114b7c"/><use xlink:href="#w" transform="matrix(1,0,0,1,896.6357605078833,504.8) translate(56.205555555555556 21.1375)"/><path d="M761 561h52.92c6.63 0 12-5.37 12-12v-17c0-6.63 5.37-12 12-12h52.5" stroke="#999" fill="none"/><path d="M761 561.5h-.5v-1h.5z" fill="#999"/><path d="M873.14 530.18l17.2-10.18-17.2-10.18" stroke="#999" fill="none"/><use xlink:href="#x" transform="matrix(1,0,0,1,772.6001264434747,565) translate(5 19.2)"/><g filter="url(#y)"><path d="M860.5 300.65h260v142h-260z" fill="#fff"/><path d="M860.5 374.65h260v34h-260z" fill="#e6e6e6"/><path d="M860.5 300.65h260v40h-260z" fill="#ccc"/><path d="M860.5 300.65h260v142h-260zM860.5 340.65h260" stroke="#999" fill="none"/><use xlink:href="#b" transform="matrix(1,0,0,1,865.4878605526173,343.15062786140743) translate(0 18.5)"/><use xlink:href="#c" transform="matrix(1,0,0,1,865.4878605526173,343.15062786140743) translate(55.5 18.5)"/><use xlink:href="#d" transform="matrix(1,0,0,1,865.4878605526173,377.15062786140743) translate(0 18.5)"/><use xlink:href="#c" transform="matrix(1,0,0,1,865.4878605526173,377.15062786140743) translate(102.05555555555556 18.5)"/><g><use xlink:href="#z" transform="matrix(1,0,0,1,865.4878605526173,411.15062786140743) translate(0 18.5)"/><use xlink:href="#f" transform="matrix(1,0,0,1,865.4878605526173,411.15062786140743) translate(160.83333333333331 18.5)"/></g></g><path d="M860.9 301.95h259.6v40H860.9z" stroke="#999" fill="#114b7c"/><use xlink:href="#A" transform="matrix(1,0,0,1,865.7100755574891,306.75188358422275) translate(46.233333333333334 21.1375)"/><path d="M790.88 527h7.36c6.63 0 12-5.37 12-12V332.65c0-6.63 5.38-12 12-12h37.25" stroke="#999" fill="none"/><path d="M761.2 527l14.86-14.85L791.2 527l-15.14 14.85z" stroke="#999" fill="#fff"/><path d="M860 321.15h-.52v-1h.5z" fill="#999"/><use xlink:href="#B" transform="matrix(1,0,0,1,810.4163022580395,289.45062786140744) translate(5 19.2)"/><g filter="url(#C)"><path d="M.24 0h299.58v248H.24z" fill="#fff"/><path d="M.24 74h299.58v34H.24zM.24 166h299.58v82H.24z" fill="#e6e6e6"/><path d="M.24 0h299.58v40H.24z" fill="#ccc"/><path d="M.24 0h299.58v248H.24zM.24 40h299.58" stroke="#666" fill="none"/><use xlink:href="#D" transform="matrix(1,0,0,1,5.243240883158478,42.5) translate(0 18.5)"/><use xlink:href="#E" transform="matrix(1,0,0,1,5.243240883158478,42.5) translate(55.5 18.5)"/><use xlink:href="#F" transform="matrix(1,0,0,1,5.243240883158478,76.5) translate(0 18.5)"/><use xlink:href="#E" transform="matrix(1,0,0,1,5.243240883158478,76.5) translate(102.05555555555556 18.5)"/><g><use xlink:href="#G" transform="matrix(1,0,0,1,5.243240883158478,110.5) translate(0 18.5)"/><use xlink:href="#H" transform="matrix(1,0,0,1,5.243240883158478,110.5) translate(0 42.5)"/><use xlink:href="#I" transform="matrix(1,0,0,1,5.243240883158478,110.5) translate(12.166666666666666 42.5)"/><use xlink:href="#E" transform="matrix(1,0,0,1,5.243240883158478,110.5) translate(49.888888888888886 42.5)"/></g><g><use xlink:href="#J" transform="matrix(1,0,0,1,5.243240883158478,168.5) translate(0 18.5)"/><use xlink:href="#K" transform="matrix(1,0,0,1,5.243240883158478,168.5) translate(39.94444444444444 18.5)"/><use xlink:href="#L" transform="matrix(1,0,0,1,5.243240883158478,168.5) translate(78.83333333333333 18.5)"/><use xlink:href="#M" transform="matrix(1,0,0,1,5.243240883158478,168.5) translate(198.61111111111111 18.5)"/><use xlink:href="#N" transform="matrix(1,0,0,1,5.243240883158478,168.5) translate(0 42.5)"/><use xlink:href="#O" transform="matrix(1,0,0,1,5.243240883158478,168.5) translate(11.11111111111111 42.5)"/><use xlink:href="#P" transform="matrix(1,0,0,1,5.243240883158478,168.5) translate(0 66.5)"/><use xlink:href="#Q" transform="matrix(1,0,0,1,5.243240883158478,168.5) translate(107.61111111111111 66.5)"/><use xlink:href="#R" transform="matrix(1,0,0,1,5.243240883158478,168.5) translate(173.05555555555554 66.5)"/></g></g><path d="M.73 1.3h299.1v40H.72z" stroke="#666" fill="#114b7c"/><use xlink:href="#S" transform="matrix(1,0,0,1,5.529722649476002,6.101255722815316) translate(86.28888888888889 21.1375)"/><path d="M146.58 299v-27.5" stroke="#000" fill="none"/><path d="M147.08 299.5h-1v-.5h1z"/><path d="M146.57 249.48L159.3 271h-25.45z" stroke="#000" fill="#fff"/><use xlink:href="#T" transform="matrix(1,0,0,1,154.58495789715602,270.9428837827968) translate(5 19.2)"/><g filter="url(#U)"><path d="M0 300h299.58v258H0z" fill="#fff"/><path d="M0 374h299.58v58H0zM0 490h299.58v34H0z" fill="#e6e6e6"/><path d="M0 300h299.58v40H0z" fill="#ccc"/><path d="M0 300h299.58v258H0zM0 340h299.58" stroke="#666" fill="none"/><use xlink:href="#V" transform="matrix(1,0,0,1,5,342.5) translate(0 18.5)"/><use xlink:href="#W" transform="matrix(1,0,0,1,5,342.5) translate(135.33333333333334 18.5)"/><use xlink:href="#X" transform="matrix(1,0,0,1,5,376.5) translate(0 18.5)"/><use xlink:href="#Y" transform="matrix(1,0,0,1,5,376.5) translate(44.44444444444444 18.5)"/><use xlink:href="#Z" transform="matrix(1,0,0,1,5,376.5) translate(127.66666666666667 18.5)"/><use xlink:href="#aa" transform="matrix(1,0,0,1,5,376.5) translate(143.22222222222223 18.5)"/><use xlink:href="#Z" transform="matrix(1,0,0,1,5,376.5) translate(195.33333333333334 18.5)"/><use xlink:href="#ab" transform="matrix(1,0,0,1,5,376.5) translate(210.88888888888889 18.5)"/><use xlink:href="#p" transform="matrix(1,0,0,1,5,376.5) translate(0 42.5)"/><use xlink:href="#q" transform="matrix(1,0,0,1,5,376.5) translate(12.166666666666666 42.5)"/><use xlink:href="#c" transform="matrix(1,0,0,1,5,376.5) translate(49.888888888888886 42.5)"/><g><use xlink:href="#ac" transform="matrix(1,0,0,1,5,434.5) translate(0 18.5)"/><use xlink:href="#ad" transform="matrix(1,0,0,1,5,434.5) translate(113.11111111111111 18.5)"/><use xlink:href="#ae" transform="matrix(1,0,0,1,5,434.5) translate(166.33333333333334 18.5)"/><use xlink:href="#p" transform="matrix(1,0,0,1,5,434.5) translate(0 42.5)"/><use xlink:href="#af" transform="matrix(1,0,0,1,5,434.5) translate(12.166666666666666 42.5)"/><use xlink:href="#ad" transform="matrix(1,0,0,1,5,434.5) translate(145.27777777777777 42.5)"/><use xlink:href="#ag" transform="matrix(1,0,0,1,5,434.5) translate(198.5 42.5)"/></g><g><use xlink:href="#ah" transform="matrix(1,0,0,1,5,492.5) translate(0 18.5)"/><use xlink:href="#c" transform="matrix(1,0,0,1,5,492.5) translate(62.111111111111114 18.5)"/></g><g><use xlink:href="#ai" transform="matrix(1,0,0,1,5,526.5) translate(0 18.5)"/><use xlink:href="#n" transform="matrix(1,0,0,1,5,526.5) translate(96.50000000000001 18.5)"/><use xlink:href="#ag" transform="matrix(1,0,0,1,5,526.5) translate(124.2777777777778 18.5)"/></g></g><path d="M.5 301.3h299.08v40H.48z" stroke="#666" fill="#114b7c"/><use xlink:href="#aj" transform="matrix(1,0,0,1,5.2864817663172685,306.1012557228153) translate(55.90000000000002 21.1375)"/><path d="M300.58 357h57.2c6.64 0 12-5.37 12-12v-13c0-6.63 5.38-12 12-12h56.8" stroke="#000" fill="none"/><path d="M300.6 357.5h-.52v-1h.5z"/><path d="M421.3 330.18L438.52 320l-17.22-10.18" stroke="#000" fill="none"/><use xlink:href="#ak" transform="matrix(1,0,0,1,309.5632036002636,360.99999999999994) translate(5 19.2)"/><defs><path fill="#999" d="M117-194c89-4 53 116 60 194h-32v-121c0-31-8-49-39-48C34-167 62-67 57 0H25l-1-190h30c1 10-1 24 2 32 11-22 29-35 61-36" id="al"/><path fill="#999" d="M141-36C126-15 110 5 73 4 37 3 15-17 15-53c-1-64 63-63 125-63 3-35-9-54-41-54-24 1-41 7-42 31l-33-3c5-37 33-52 76-52 45 0 72 20 72 64v82c-1 20 7 32 28 27v20c-31 9-61-2-59-35zM48-53c0 20 12 33 32 33 41-3 63-29 60-74-43 2-92-5-92 41" id="am"/><path fill="#999" d="M210-169c-67 3-38 105-44 169h-31v-121c0-29-5-50-35-48C34-165 62-65 56 0H25l-1-190h30c1 10-1 24 2 32 10-44 99-50 107 0 11-21 27-35 58-36 85-2 47 119 55 194h-31v-121c0-29-5-49-35-48" id="an"/><path fill="#999" d="M100-194c63 0 86 42 84 106H49c0 40 14 67 53 68 26 1 43-12 49-29l28 8c-11 28-37 45-77 45C44 4 14-33 15-96c1-61 26-98 85-98zm52 81c6-60-76-77-97-28-3 7-6 17-6 28h103" id="ao"/><g id="b"><use transform="matrix(0.05555555555555555,0,0,0.05555555555555555,0,0)" xlink:href="#al"/><use transform="matrix(0.05555555555555555,0,0,0.05555555555555555,11.11111111111111,0)" xlink:href="#am"/><use transform="matrix(0.05555555555555555,0,0,0.05555555555555555,22.22222222222222,0)" xlink:href="#an"/><use transform="matrix(0.05555555555555555,0,0,0.05555555555555555,38.83333333333333,0)" xlink:href="#ao"/></g><path fill="#999" d="M87 75C49 33 22-17 22-94c0-76 28-126 65-167h31c-38 41-64 92-64 168S80 34 118 75H87" id="ap"/><path fill="#999" d="M59-47c-2 24 18 29 38 22v24C64 9 27 4 27-40v-127H5v-23h24l9-43h21v43h35v23H59v120" id="aq"/><path fill="#999" d="M141 0L90-78 38 0H4l68-98-65-92h35l48 74 47-74h35l-64 92 68 98h-35" id="ar"/><path fill="#999" d="M33-261c38 41 65 92 65 168S71 34 33 75H2C39 34 66-17 66-93S39-220 2-261h31" id="as"/><g id="c"><use transform="matrix(0.05555555555555555,0,0,0.05555555555555555,0,0)" xlink:href="#ap"/><use transform="matrix(0.05555555555555555,0,0,0.05555555555555555,6.611111111111111,0)" xlink:href="#aq"/><use transform="matrix(0.05555555555555555,0,0,0.05555555555555555,12.166666666666666,0)" xlink:href="#ao"/><use transform="matrix(0.05555555555555555,0,0,0.05555555555555555,23.27777777777778,0)" xlink:href="#ar"/><use transform="matrix(0.05555555555555555,0,0,0.05555555555555555,33.27777777777778,0)" xlink:href="#aq"/><use transform="matrix(0.05555555555555555,0,0,0.05555555555555555,38.833333333333336,0)" xlink:href="#as"/></g><path fill="#999" d="M85-194c31 0 48 13 60 33l-1-100h32l1 261h-30c-2-10 0-23-3-31C134-8 116 4 85 4 32 4 16-35 15-94c0-66 23-100 70-100zm9 24c-40 0-46 34-46 75 0 40 6 74 45 74 42 0 51-32 51-76 0-42-9-74-50-73" id="at"/><path fill="#999" d="M135-143c-3-34-86-38-87 0 15 53 115 12 119 90S17 21 10-45l28-5c4 36 97 45 98 0-10-56-113-15-118-90-4-57 82-63 122-42 12 7 21 19 24 35" id="au"/><path fill="#999" d="M96-169c-40 0-48 33-48 73s9 75 48 75c24 0 41-14 43-38l32 2c-6 37-31 61-74 61-59 0-76-41-82-99-10-93 101-131 147-64 4 7 5 14 7 22l-32 3c-4-21-16-35-41-35" id="av"/><path fill="#999" d="M114-163C36-179 61-72 57 0H25l-1-190h30c1 12-1 29 2 39 6-27 23-49 58-41v29" id="aw"/><path fill="#999" d="M24-231v-30h32v30H24zM24 0v-190h32V0H24" id="ax"/><path fill="#999" d="M115-194c55 1 70 41 70 98S169 2 115 4C84 4 66-9 55-30l1 105H24l-1-265h31l2 30c10-21 28-34 59-34zm-8 174c40 0 45-34 45-75s-6-73-45-74c-42 0-51 32-51 76 0 43 10 73 51 73" id="ay"/><path fill="#999" d="M100-194c62-1 85 37 85 99 1 63-27 99-86 99S16-35 15-95c0-66 28-99 85-99zM99-20c44 1 53-31 53-75 0-43-8-75-51-75s-53 32-53 75 10 74 51 75" id="az"/><g id="d"><use transform="matrix(0.05555555555555555,0,0,0.05555555555555555,0,0)" xlink:href="#at"/><use transform="matrix(0.05555555555555555,0,0,0.05555555555555555,11.11111111111111,0)" xlink:href="#ao"/><use transform="matrix(0.05555555555555555,0,0,0.05555555555555555,22.22222222222222,0)" xlink:href="#au"/><use transform="matrix(0.05555555555555555,0,0,0.05555555555555555,32.22222222222222,0)" xlink:href="#av"/><use transform="matrix(0.05555555555555555,0,0,0.05555555555555555,42.22222222222222,0)" xlink:href="#aw"/><use transform="matrix(0.05555555555555555,0,0,0.05555555555555555,48.83333333333333,0)" xlink:href="#ax"/><use transform="matrix(0.05555555555555555,0,0,0.05555555555555555,53.222222222222214,0)" xlink:href="#ay"/><use transform="matrix(0.05555555555555555,0,0,0.05555555555555555,64.33333333333333,0)" xlink:href="#aq"/><use transform="matrix(0.05555555555555555,0,0,0.05555555555555555,69.88888888888889,0)" xlink:href="#ax"/><use transform="matrix(0.05555555555555555,0,0,0.05555555555555555,74.27777777777777,0)" xlink:href="#az"/><use transform="matrix(0.05555555555555555,0,0,0.05555555555555555,85.38888888888889,0)" xlink:href="#al"/></g><path fill="#999" d="M-5 72V49h209v23H-5" id="aA"/><path fill="#999" d="M24 0v-261h32V0H24" id="aB"/><path fill="#999" d="M115-194c53 0 69 39 70 98 0 66-23 100-70 100C84 3 66-7 56-30L54 0H23l1-261h32v101c10-23 28-34 59-34zm-8 174c40 0 45-34 45-75 0-40-5-75-45-74-42 0-51 32-51 76 0 43 10 73 51 73" id="aC"/><g id="e"><use transform="matrix(0.05555555555555555,0,0,0.05555555555555555,0,0)" xlink:href="#ao"/><use transform="matrix(0.05555555555555555,0,0,0.05555555555555555,11.11111111111111,0)" xlink:href="#ar"/><use transform="matrix(0.05555555555555555,0,0,0.05555555555555555,21.11111111111111,0)" xlink:href="#av"/><use transform="matrix(0.05555555555555555,0,0,0.05555555555555555,31.11111111111111,0)" xlink:href="#ax"/><use transform="matrix(0.05555555555555555,0,0,0.05555555555555555,35.5,0)" xlink:href="#aq"/><use transform="matrix(0.05555555555555555,0,0,0.05555555555555555,41.05555555555556,0)" xlink:href="#am"/><use transform="matrix(0.05555555555555555,0,0,0.05555555555555555,52.16666666666667,0)" xlink:href="#aq"/><use transform="matrix(0.05555555555555555,0,0,0.05555555555555555,57.72222222222223,0)" xlink:href="#ax"/><use transform="matrix(0.05555555555555555,0,0,0.05555555555555555,62.11111111111112,0)" xlink:href="#az"/><use transform="matrix(0.05555555555555555,0,0,0.05555555555555555,73.22222222222223,0)" xlink:href="#al"/><use transform="matrix(0.05555555555555555,0,0,0.05555555555555555,84.33333333333334,0)" xlink:href="#aA"/><use transform="matrix(0.05555555555555555,0,0,0.05555555555555555,95.44444444444446,0)" xlink:href="#aB"/><use transform="matrix(0.05555555555555555,0,0,0.05555555555555555,99.83333333333334,0)" xlink:href="#am"/><use transform="matrix(0.05555555555555555,0,0,0.05555555555555555,110.94444444444446,0)" xlink:href="#an"/><use transform="matrix(0.05555555555555555,0,0,0.05555555555555555,127.55555555555557,0)" xlink:href="#aC"/><use transform="matrix(0.05555555555555555,0,0,0.05555555555555555,138.66666666666669,0)" xlink:href="#at"/><use transform="matrix(0.05555555555555555,0,0,0.05555555555555555,149.7777777777778,0)" xlink:href="#am"/></g><path fill="#999" d="M101-234c-31-9-42 10-38 44h38v23H63V0H32v-167H5v-23h27c-7-52 17-82 69-68v24" id="aD"/><g id="f"><use transform="matrix(0.05555555555555555,0,0,0.05555555555555555,0,0)" xlink:href="#ap"/><use transform="matrix(0.05555555555555555,0,0,0.05555555555555555,6.611111111111111,0)" xlink:href="#aD"/><use transform="matrix(0.05555555555555555,0,0,0.05555555555555555,12.166666666666666,0)" xlink:href="#aB"/><use transform="matrix(0.05555555555555555,0,0,0.05555555555555555,16.555555555555554,0)" xlink:href="#az"/><use transform="matrix(0.05555555555555555,0,0,0.05555555555555555,27.666666666666664,0)" xlink:href="#am"/><use transform="matrix(0.05555555555555555,0,0,0.05555555555555555,38.77777777777777,0)" xlink:href="#aq"/><use transform="matrix(0.05555555555555555,0,0,0.05555555555555555,44.33333333333333,0)" xlink:href="#as"/></g><g id="g"><use transform="matrix(0.05555555555555555,0,0,0.05555555555555555,0,0)" xlink:href="#ax"/><use transform="matrix(0.05555555555555555,0,0,0.05555555555555555,4.388888888888888,0)" xlink:href="#al"/><use transform="matrix(0.05555555555555555,0,0,0.05555555555555555,15.5,0)" xlink:href="#at"/><use transform="matrix(0.05555555555555555,0,0,0.05555555555555555,26.61111111111111,0)" xlink:href="#ax"/><use transform="matrix(0.05555555555555555,0,0,0.05555555555555555,31,0)" xlink:href="#av"/><use transform="matrix(0.05555555555555555,0,0,0.05555555555555555,41,0)" xlink:href="#am"/><use transform="matrix(0.05555555555555555,0,0,0.05555555555555555,52.111111111111114,0)" xlink:href="#aq"/><use transform="matrix(0.05555555555555555,0,0,0.05555555555555555,57.66666666666668,0)" xlink:href="#az"/><use transform="matrix(0.05555555555555555,0,0,0.05555555555555555,68.77777777777779,0)" xlink:href="#aw"/></g><g id="h"><use transform="matrix(0.05555555555555555,0,0,0.05555555555555555,0,0)" xlink:href="#aB"/><use transform="matrix(0.05555555555555555,0,0,0.05555555555555555,4.388888888888888,0)" xlink:href="#az"/><use transform="matrix(0.05555555555555555,0,0,0.05555555555555555,15.5,0)" xlink:href="#av"/><use transform="matrix(0.05555555555555555,0,0,0.05555555555555555,25.5,0)" xlink:href="#am"/><use transform="matrix(0.05555555555555555,0,0,0.05555555555555555,36.611111111111114,0)" xlink:href="#aq"/><use transform="matrix(0.05555555555555555,0,0,0.05555555555555555,42.16666666666667,0)" xlink:href="#ax"/><use transform="matrix(0.05555555555555555,0,0,0.05555555555555555,46.55555555555556,0)" xlink:href="#az"/><use transform="matrix(0.05555555555555555,0,0,0.05555555555555555,57.66666666666668,0)" xlink:href="#al"/></g><path fill="#999" d="M106-169C34-169 62-67 57 0H25v-261h32l-1 103c12-21 28-36 61-36 89 0 53 116 60 194h-32v-121c2-32-8-49-39-48" id="aE"/><g id="i"><use transform="matrix(0.05555555555555555,0,0,0.05555555555555555,0,0)" xlink:href="#az"/><use transform="matrix(0.05555555555555555,0,0,0.05555555555555555,11.11111111111111,0)" xlink:href="#ay"/><use transform="matrix(0.05555555555555555,0,0,0.05555555555555555,22.22222222222222,0)" xlink:href="#aq"/><use transform="matrix(0.05555555555555555,0,0,0.05555555555555555,27.77777777777778,0)" xlink:href="#ax"/><use transform="matrix(0.05555555555555555,0,0,0.05555555555555555,32.166666666666664,0)" xlink:href="#av"/><use transform="matrix(0.05555555555555555,0,0,0.05555555555555555,42.166666666666664,0)" xlink:href="#am"/><use transform="matrix(0.05555555555555555,0,0,0.05555555555555555,53.27777777777777,0)" xlink:href="#aB"/><use transform="matrix(0.05555555555555555,0,0,0.05555555555555555,57.666666666666664,0)" xlink:href="#aA"/><use transform="matrix(0.05555555555555555,0,0,0.05555555555555555,68.77777777777777,0)" xlink:href="#av"/><use transform="matrix(0.05555555555555555,0,0,0.05555555555555555,78.77777777777777,0)" xlink:href="#aE"/><use transform="matrix(0.05555555555555555,0,0,0.05555555555555555,89.88888888888889,0)" xlink:href="#am"/><use transform="matrix(0.05555555555555555,0,0,0.05555555555555555,101,0)" xlink:href="#al"/><use transform="matrix(0.05555555555555555,0,0,0.05555555555555555,112.11111111111111,0)" xlink:href="#al"/><use transform="matrix(0.05555555555555555,0,0,0.05555555555555555,123.22222222222224,0)" xlink:href="#ao"/><use transform="matrix(0.05555555555555555,0,0,0.05555555555555555,134.33333333333334,0)" xlink:href="#aB"/></g><path fill="#999" d="M140-251c81 0 123 46 123 126C263-46 219 4 140 4 59 4 17-45 17-125s42-126 123-126zm0 227c63 0 89-41 89-101s-29-99-89-99c-61 0-89 39-89 99S79-25 140-24" id="aF"/><path fill="#999" d="M212-179c-10-28-35-45-73-45-59 0-87 40-87 99 0 60 29 101 89 101 43 0 62-24 78-52l27 14C228-24 195 4 139 4 59 4 22-46 18-125c-6-104 99-153 187-111 19 9 31 26 39 46" id="aG"/><g id="j"><use transform="matrix(0.05555555555555555,0,0,0.05555555555555555,0,0)" xlink:href="#ap"/><use transform="matrix(0.05555555555555555,0,0,0.05555555555555555,6.611111111111111,0)" xlink:href="#aF"/><use transform="matrix(0.05555555555555555,0,0,0.05555555555555555,22.166666666666664,0)" xlink:href="#ay"/><use transform="matrix(0.05555555555555555,0,0,0.05555555555555555,33.27777777777777,0)" xlink:href="#aq"/><use transform="matrix(0.05555555555555555,0,0,0.05555555555555555,38.83333333333333,0)" xlink:href="#ax"/><use transform="matrix(0.05555555555555555,0,0,0.05555555555555555,43.222222222222214,0)" xlink:href="#av"/><use transform="matrix(0.05555555555555555,0,0,0.05555555555555555,53.222222222222214,0)" xlink:href="#am"/><use transform="matrix(0.05555555555555555,0,0,0.05555555555555555,64.33333333333333,0)" xlink:href="#aB"/><use transform="matrix(0.05555555555555555,0,0,0.05555555555555555,68.72222222222221,0)" xlink:href="#aG"/><use transform="matrix(0.05555555555555555,0,0,0.05555555555555555,83.1111111111111,0)" xlink:href="#aE"/><use transform="matrix(0.05555555555555555,0,0,0.05555555555555555,94.22222222222221,0)" xlink:href="#am"/><use transform="matrix(0.05555555555555555,0,0,0.05555555555555555,105.33333333333333,0)" xlink:href="#al"/><use transform="matrix(0.05555555555555555,0,0,0.05555555555555555,116.44444444444444,0)" xlink:href="#al"/><use transform="matrix(0.05555555555555555,0,0,0.05555555555555555,127.55555555555554,0)" xlink:href="#ao"/><use transform="matrix(0.05555555555555555,0,0,0.05555555555555555,138.66666666666666,0)" xlink:href="#aB"/><use transform="matrix(0.05555555555555555,0,0,0.05555555555555555,143.05555555555554,0)" xlink:href="#as"/></g><path fill="#999" d="M108 0H70L1-190h34L89-25l56-165h34" id="aH"/><g id="k"><use transform="matrix(0.05555555555555555,0,0,0.05555555555555555,0,0)" xlink:href="#at"/><use transform="matrix(0.05555555555555555,0,0,0.05555555555555555,11.11111111111111,0)" xlink:href="#ao"/><use transform="matrix(0.05555555555555555,0,0,0.05555555555555555,22.22222222222222,0)" xlink:href="#aH"/><use transform="matrix(0.05555555555555555,0,0,0.05555555555555555,32.22222222222222,0)" xlink:href="#ax"/><use transform="matrix(0.05555555555555555,0,0,0.05555555555555555,36.61111111111111,0)" xlink:href="#av"/><use transform="matrix(0.05555555555555555,0,0,0.05555555555555555,46.61111111111111,0)" xlink:href="#ao"/></g><path fill="#999" d="M30-248c118-7 216 8 213 122C240-48 200 0 122 0H30v-248zM63-27c89 8 146-16 146-99s-60-101-146-95v194" id="aI"/><g id="l"><use transform="matrix(0.05555555555555555,0,0,0.05555555555555555,0,0)" xlink:href="#ap"/><use transform="matrix(0.05555555555555555,0,0,0.05555555555555555,6.611111111111111,0)" xlink:href="#aI"/><use transform="matrix(0.05555555555555555,0,0,0.05555555555555555,21,0)" xlink:href="#ao"/><use transform="matrix(0.05555555555555555,0,0,0.05555555555555555,32.111111111111114,0)" xlink:href="#aH"/><use transform="matrix(0.05555555555555555,0,0,0.05555555555555555,42.111111111111114,0)" xlink:href="#ax"/><use transform="matrix(0.05555555555555555,0,0,0.05555555555555555,46.5,0)" xlink:href="#av"/><use transform="matrix(0.05555555555555555,0,0,0.05555555555555555,56.5,0)" xlink:href="#ao"/><use transform="matrix(0.05555555555555555,0,0,0.05555555555555555,67.61111111111111,0)" xlink:href="#as"/></g><path fill="#999" d="M177-190C167-65 218 103 67 71c-23-6-38-20-44-43l32-5c15 47 100 32 89-28v-30C133-14 115 1 83 1 29 1 15-40 15-95c0-56 16-97 71-98 29-1 48 16 59 35 1-10 0-23 2-32h30zM94-22c36 0 50-32 50-73 0-42-14-75-50-75-39 0-46 34-46 75s6 73 46 73" id="aJ"/><g id="m"><use transform="matrix(0.05555555555555555,0,0,0.05555555555555555,0,0)" xlink:href="#aJ"/><use transform="matrix(0.05555555555555555,0,0,0.05555555555555555,11.11111111111111,0)" xlink:href="#aw"/><use transform="matrix(0.05555555555555555,0,0,0.05555555555555555,17.72222222222222,0)" xlink:href="#ax"/><use transform="matrix(0.05555555555555555,0,0,0.05555555555555555,22.11111111111111,0)" xlink:href="#at"/><use transform="matrix(0.05555555555555555,0,0,0.05555555555555555,33.22222222222222,0)" xlink:href="#aA"/><use transform="matrix(0.05555555555555555,0,0,0.05555555555555555,44.33333333333333,0)" xlink:href="#au"/><use transform="matrix(0.05555555555555555,0,0,0.05555555555555555,54.33333333333333,0)" xlink:href="#ay"/><use transform="matrix(0.05555555555555555,0,0,0.05555555555555555,65.44444444444444,0)" xlink:href="#am"/><use transform="matrix(0.05555555555555555,0,0,0.05555555555555555,76.55555555555556,0)" xlink:href="#av"/><use transform="matrix(0.05555555555555555,0,0,0.05555555555555555,86.55555555555556,0)" xlink:href="#ax"/><use transform="matrix(0.05555555555555555,0,0,0.05555555555555555,90.94444444444444,0)" xlink:href="#al"/><use transform="matrix(0.05555555555555555,0,0,0.05555555555555555,102.05555555555556,0)" xlink:href="#aJ"/></g><path fill="#999" d="M26 75v-336h71v23H56V52h41v23H26" id="aK"/><path fill="#999" d="M101-251c82-7 93 87 43 132L82-64C71-53 59-42 53-27h129V0H18c2-99 128-94 128-182 0-28-16-43-45-43s-46 15-49 41l-32-3c6-41 34-60 81-64" id="aL"/><path fill="#999" d="M3 75V52h41v-290H3v-23h71V75H3" id="aM"/><g id="n"><use transform="matrix(0.05555555555555555,0,0,0.05555555555555555,0,0)" xlink:href="#aK"/><use transform="matrix(0.05555555555555555,0,0,0.05555555555555555,5.555555555555555,0)" xlink:href="#aL"/><use transform="matrix(0.05555555555555555,0,0,0.05555555555555555,16.666666666666664,0)" xlink:href="#aM"/></g><g id="o"><use transform="matrix(0.05555555555555555,0,0,0.05555555555555555,0,0)" xlink:href="#ap"/><use transform="matrix(0.05555555555555555,0,0,0.05555555555555555,6.611111111111111,0)" xlink:href="#aD"/><use transform="matrix(0.05555555555555555,0,0,0.05555555555555555,12.166666666666666,0)" xlink:href="#aB"/><use transform="matrix(0.05555555555555555,0,0,0.05555555555555555,16.555555555555554,0)" xlink:href="#az"/><use transform="matrix(0.05555555555555555,0,0,0.05555555555555555,27.666666666666664,0)" xlink:href="#am"/><use transform="matrix(0.05555555555555555,0,0,0.05555555555555555,38.77777777777777,0)" xlink:href="#aq"/><use transform="matrix(0.05555555555555555,0,0,0.05555555555555555,44.33333333333333,0)" xlink:href="#as"/></g><path fill="#999" d="M16-82v-28h88v28H16" id="aN"/><use transform="matrix(0.05555555555555555,0,0,0.05555555555555555,0,0)" xlink:href="#aN" id="p"/><path fill="#999" d="M84 4C-5 8 30-112 23-190h32v120c0 31 7 50 39 49 72-2 45-101 50-169h31l1 190h-30c-1-10 1-25-2-33-11 22-28 36-60 37" id="aO"/><g id="q"><use transform="matrix(0.05555555555555555,0,0,0.05555555555555555,0,0)" xlink:href="#aO"/><use transform="matrix(0.05555555555555555,0,0,0.05555555555555555,11.11111111111111,0)" xlink:href="#al"/><use transform="matrix(0.05555555555555555,0,0,0.05555555555555555,22.22222222222222,0)" xlink:href="#ax"/><use transform="matrix(0.05555555555555555,0,0,0.05555555555555555,26.61111111111111,0)" xlink:href="#aq"/></g><path fill="#999" d="M18-150v-26h174v26H18zm0 90v-26h174v26H18" id="aP"/><use transform="matrix(0.05555555555555555,0,0,0.05555555555555555,0,0)" xlink:href="#aP" id="r"/><path fill="#999" d="M47-170H22l-4-78h33" id="aQ"/><g id="s"><use transform="matrix(0.05555555555555555,0,0,0.05555555555555555,0,0)" xlink:href="#aQ"/><use transform="matrix(0.05555555555555555,0,0,0.05555555555555555,3.7777777777777777,0)" xlink:href="#an"/><use transform="matrix(0.05555555555555555,0,0,0.05555555555555555,20.38888888888889,0)" xlink:href="#ao"/><use transform="matrix(0.05555555555555555,0,0,0.05555555555555555,31.5,0)" xlink:href="#aq"/><use transform="matrix(0.05555555555555555,0,0,0.05555555555555555,37.05555555555556,0)" xlink:href="#ao"/><use transform="matrix(0.05555555555555555,0,0,0.05555555555555555,48.16666666666667,0)" xlink:href="#aw"/><use transform="matrix(0.05555555555555555,0,0,0.05555555555555555,54.777777777777786,0)" xlink:href="#au"/><use transform="matrix(0.05555555555555555,0,0,0.05555555555555555,64.77777777777779,0)" xlink:href="#aQ"/></g><filter id="a" filterUnits="objectBoundingBox" x="-.01" y="-.01" width="1.03" height="1.03"><feOffset result="offOut" in="SourceAlpha" dx="2.12" dy="2.12"/><feGaussianBlur result="blurOut" in="offOut" stdDeviation="2.5"/><feColorMatrix result="colorOut" in="blurOut" values="0 0 0 0 0 0 0 0 0 0 0 0 0 0 0 0 0 0 0.5019607843137255 0"/><feBlend in="SourceGraphic" in2="colorOut"/></filter><path fill="#999" d="M24 0v-248h52V0H24" id="aR"/><path fill="#999" d="M220-157c-53 9-28 100-34 157h-49v-107c1-27-5-49-29-50C55-147 81-57 75 0H25l-1-190h47c2 12-1 28 3 38 10-53 101-56 108 0 13-22 24-43 59-42 82 1 51 116 57 194h-49v-107c-1-25-5-48-29-50" id="aS"/><path fill="#999" d="M133-34C117-15 103 5 69 4 32 3 11-16 11-54c-1-60 55-63 116-61 1-26-3-47-28-47-18 1-26 9-28 27l-52-2c7-38 36-58 82-57s74 22 75 68l1 82c-1 14 12 18 25 15v27c-30 8-71 5-69-32zm-48 3c29 0 43-24 42-57-32 0-66-3-65 30 0 17 8 27 23 27" id="aT"/><path fill="#999" d="M195-6C206 82 75 100 31 46c-4-6-6-13-8-21l49-6c3 16 16 24 34 25 40 0 42-37 40-79-11 22-30 35-61 35-53 0-70-43-70-97 0-56 18-96 73-97 30 0 46 14 59 34l2-30h47zm-90-29c32 0 41-27 41-63 0-35-9-62-40-62-32 0-39 29-40 63 0 36 9 62 39 62" id="aU"/><path fill="#999" d="M25-224v-37h50v37H25zM25 0v-190h50V0H25" id="aV"/><path fill="#999" d="M135-194c87-1 58 113 63 194h-50c-7-57 23-157-34-157-59 0-34 97-39 157H25l-1-190h47c2 12-1 28 3 38 12-26 28-41 61-42" id="aW"/><path fill="#999" d="M24-248c93 1 206-16 204 79-1 75-69 88-152 82V0H24v-248zm52 121c47 0 100 7 100-41 0-47-54-39-100-39v80" id="aX"/><path fill="#999" d="M25 0v-261h50V0H25" id="aY"/><path fill="#999" d="M185-48c-13 30-37 53-82 52C43 2 14-33 14-96s30-98 90-98c62 0 83 45 84 108H66c0 31 8 55 39 56 18 0 30-7 34-22zm-45-69c5-46-57-63-70-21-2 6-4 13-4 21h74" id="aZ"/><g id="t"><use transform="matrix(0.05555555555555555,0,0,0.05555555555555555,0,0)" xlink:href="#aR"/><use transform="matrix(0.05555555555555555,0,0,0.05555555555555555,5.555555555555555,0)" xlink:href="#aS"/><use transform="matrix(0.05555555555555555,0,0,0.05555555555555555,23.333333333333336,0)" xlink:href="#aT"/><use transform="matrix(0.05555555555555555,0,0,0.05555555555555555,34.44444444444444,0)" xlink:href="#aU"/><use transform="matrix(0.05555555555555555,0,0,0.05555555555555555,46.61111111111111,0)" xlink:href="#aV"/><use transform="matrix(0.05555555555555555,0,0,0.05555555555555555,52.166666666666664,0)" xlink:href="#aW"/><use transform="matrix(0.05555555555555555,0,0,0.05555555555555555,64.33333333333333,0)" xlink:href="#aU"/><use transform="matrix(0.05555555555555555,0,0,0.05555555555555555,76.5,0)" xlink:href="#aX"/><use transform="matrix(0.05555555555555555,0,0,0.05555555555555555,89.83333333333333,0)" xlink:href="#aY"/><use transform="matrix(0.05555555555555555,0,0,0.05555555555555555,95.38888888888889,0)" xlink:href="#aT"/><use transform="matrix(0.05555555555555555,0,0,0.05555555555555555,106.5,0)" xlink:href="#aW"/><use transform="matrix(0.05555555555555555,0,0,0.05555555555555555,118.66666666666666,0)" xlink:href="#aZ"/><path fill="#999" d="M-1 1.07h131.78v2.1H-1z"/></g><g id="v"><use transform="matrix(0.05555555555555555,0,0,0.05555555555555555,0,0)" xlink:href="#an"/><use transform="matrix(0.05555555555555555,0,0,0.05555555555555555,16.61111111111111,0)" xlink:href="#am"/><use transform="matrix(0.05555555555555555,0,0,0.05555555555555555,27.72222222222222,0)" xlink:href="#al"/><use transform="matrix(0.05555555555555555,0,0,0.05555555555555555,38.83333333333333,0)" xlink:href="#aO"/><use transform="matrix(0.05555555555555555,0,0,0.05555555555555555,49.94444444444444,0)" xlink:href="#aD"/><use transform="matrix(0.05555555555555555,0,0,0.05555555555555555,55.5,0)" xlink:href="#am"/><use transform="matrix(0.05555555555555555,0,0,0.05555555555555555,66.61111111111111,0)" xlink:href="#av"/><use transform="matrix(0.05555555555555555,0,0,0.05555555555555555,76.61111111111111,0)" xlink:href="#aq"/><use transform="matrix(0.05555555555555555,0,0,0.05555555555555555,82.16666666666667,0)" xlink:href="#aO"/><use transform="matrix(0.05555555555555555,0,0,0.05555555555555555,93.27777777777779,0)" xlink:href="#aw"/><use transform="matrix(0.05555555555555555,0,0,0.05555555555555555,99.8888888888889,0)" xlink:href="#ao"/><use transform="matrix(0.05555555555555555,0,0,0.05555555555555555,111.00000000000001,0)" xlink:href="#aw"/></g><filter id="u" filterUnits="objectBoundingBox" x="-.01" y="-.02" width="1.05" height="1.07"><feOffset result="offOut" in="SourceAlpha" dx="2.12" dy="2.12"/><feGaussianBlur result="blurOut" in="offOut" stdDeviation="2.5"/><feColorMatrix result="colorOut" in="blurOut" values="0 0 0 0 0 0 0 0 0 0 0 0 0 0 0 0 0 0 0.5019607843137255 0"/><feBlend in="SourceGraphic" in2="colorOut"/></filter><path fill="#999" d="M24-248c120-7 223 5 221 122C244-46 201 0 124 0H24v-248zM76-40c74 7 117-18 117-86 0-67-45-88-117-82v168" id="ba"/><path fill="#999" d="M128 0H69L1-190h53L99-40l48-150h52" id="bb"/><path fill="#999" d="M190-63c-7 42-38 67-86 67-59 0-84-38-90-98-12-110 154-137 174-36l-49 2c-2-19-15-32-35-32-30 0-35 28-38 64-6 74 65 87 74 30" id="bc"/><g id="w"><use transform="matrix(0.05555555555555555,0,0,0.05555555555555555,0,0)" xlink:href="#ba"/><use transform="matrix(0.05555555555555555,0,0,0.05555555555555555,14.388888888888888,0)" xlink:href="#aZ"/><use transform="matrix(0.05555555555555555,0,0,0.05555555555555555,25.5,0)" xlink:href="#bb"/><use transform="matrix(0.05555555555555555,0,0,0.05555555555555555,36.611111111111114,0)" xlink:href="#aV"/><use transform="matrix(0.05555555555555555,0,0,0.05555555555555555,42.16666666666667,0)" xlink:href="#bc"/><use transform="matrix(0.05555555555555555,0,0,0.05555555555555555,53.277777777777786,0)" xlink:href="#aZ"/><path fill="#999" d="M-1 1.07h66.4v2.1H-1z"/></g><g id="x"><use transform="matrix(0.05555555555555555,0,0,0.05555555555555555,0,0)" xlink:href="#aw"/><use transform="matrix(0.05555555555555555,0,0,0.05555555555555555,6.611111111111111,0)" xlink:href="#ao"/><use transform="matrix(0.05555555555555555,0,0,0.05555555555555555,17.72222222222222,0)" xlink:href="#aD"/><use transform="matrix(0.05555555555555555,0,0,0.05555555555555555,23.27777777777778,0)" xlink:href="#ao"/><use transform="matrix(0.05555555555555555,0,0,0.05555555555555555,34.388888888888886,0)" xlink:href="#aw"/><use transform="matrix(0.05555555555555555,0,0,0.05555555555555555,41,0)" xlink:href="#ao"/><use transform="matrix(0.05555555555555555,0,0,0.05555555555555555,52.111111111111114,0)" xlink:href="#al"/><use transform="matrix(0.05555555555555555,0,0,0.05555555555555555,63.22222222222223,0)" xlink:href="#av"/><use transform="matrix(0.05555555555555555,0,0,0.05555555555555555,73.22222222222223,0)" xlink:href="#ao"/><use transform="matrix(0.05555555555555555,0,0,0.05555555555555555,84.33333333333334,0)" xlink:href="#au"/></g><g id="z"><use transform="matrix(0.05555555555555555,0,0,0.05555555555555555,0,0)" xlink:href="#ao"/><use transform="matrix(0.05555555555555555,0,0,0.05555555555555555,11.11111111111111,0)" xlink:href="#an"/><use transform="matrix(0.05555555555555555,0,0,0.05555555555555555,27.72222222222222,0)" xlink:href="#ax"/><use transform="matrix(0.05555555555555555,0,0,0.05555555555555555,32.11111111111111,0)" xlink:href="#au"/><use transform="matrix(0.05555555555555555,0,0,0.05555555555555555,42.11111111111111,0)" xlink:href="#au"/><use transform="matrix(0.05555555555555555,0,0,0.05555555555555555,52.11111111111111,0)" xlink:href="#ax"/><use transform="matrix(0.05555555555555555,0,0,0.05555555555555555,56.49999999999999,0)" xlink:href="#az"/><use transform="matrix(0.05555555555555555,0,0,0.05555555555555555,67.6111111111111,0)" xlink:href="#al"/><use transform="matrix(0.05555555555555555,0,0,0.05555555555555555,78.72222222222221,0)" xlink:href="#aA"/><use transform="matrix(0.05555555555555555,0,0,0.05555555555555555,89.83333333333333,0)" xlink:href="#aB"/><use transform="matrix(0.05555555555555555,0,0,0.05555555555555555,94.22222222222221,0)" xlink:href="#am"/><use transform="matrix(0.05555555555555555,0,0,0.05555555555555555,105.33333333333333,0)" xlink:href="#an"/><use transform="matrix(0.05555555555555555,0,0,0.05555555555555555,121.94444444444444,0)" xlink:href="#aC"/><use transform="matrix(0.05555555555555555,0,0,0.05555555555555555,133.05555555555554,0)" xlink:href="#at"/><use transform="matrix(0.05555555555555555,0,0,0.05555555555555555,144.16666666666666,0)" xlink:href="#am"/></g><filter id="y" filterUnits="objectBoundingBox" x="-.01" y="-.02" width="1.04" height="1.07"><feOffset result="offOut" in="SourceAlpha" dx="2.12" dy="2.12"/><feGaussianBlur result="blurOut" in="offOut" stdDeviation="2.5"/><feColorMatrix result="colorOut" in="blurOut" values="0 0 0 0 0 0 0 0 0 0 0 0 0 0 0 0 0 0 0.5019607843137255 0"/><feBlend in="SourceGraphic" in2="colorOut"/></filter><path fill="#999" d="M140-251c80 0 125 45 125 126S219 4 139 4C58 4 15-44 15-125s44-126 125-126zm-1 214c52 0 73-35 73-88 0-50-21-86-72-86-52 0-73 35-73 86s22 88 72 88" id="bd"/><path fill="#999" d="M135-194c53 0 70 44 70 98 0 56-19 98-73 100-31 1-45-17-59-34 3 33 2 69 2 105H25l-1-265h48c2 10 0 23 3 31 11-24 29-35 60-35zM114-30c33 0 39-31 40-66 0-38-9-64-40-64-56 0-55 130 0 130" id="be"/><path fill="#999" d="M115-3C79 11 28 4 28-45v-112H4v-33h27l15-45h31v45h36v33H77v99c-1 23 16 31 38 25v30" id="bf"/><path fill="#999" d="M67-125c0 53 21 87 73 88 37 1 54-22 65-47l45 17C233-25 199 4 140 4 58 4 20-42 15-125 8-235 124-281 211-232c18 10 29 29 36 50l-46 12c-8-25-30-41-62-41-52 0-71 34-72 86" id="bg"/><path fill="#999" d="M114-157C55-157 80-60 75 0H25v-261h50l-1 109c12-26 28-41 61-42 86-1 58 113 63 194h-50c-7-57 23-157-34-157" id="bh"/><g id="A"><use transform="matrix(0.05555555555555555,0,0,0.05555555555555555,0,0)" xlink:href="#bd"/><use transform="matrix(0.05555555555555555,0,0,0.05555555555555555,15.555555555555555,0)" xlink:href="#be"/><use transform="matrix(0.05555555555555555,0,0,0.05555555555555555,27.72222222222222,0)" xlink:href="#bf"/><use transform="matrix(0.05555555555555555,0,0,0.05555555555555555,34.33333333333333,0)" xlink:href="#aV"/><use transform="matrix(0.05555555555555555,0,0,0.05555555555555555,39.888888888888886,0)" xlink:href="#bc"/><use transform="matrix(0.05555555555555555,0,0,0.05555555555555555,51,0)" xlink:href="#aT"/><use transform="matrix(0.05555555555555555,0,0,0.05555555555555555,62.11111111111112,0)" xlink:href="#aY"/><use transform="matrix(0.05555555555555555,0,0,0.05555555555555555,67.66666666666667,0)" xlink:href="#bg"/><use transform="matrix(0.05555555555555555,0,0,0.05555555555555555,82.05555555555556,0)" xlink:href="#bh"/><use transform="matrix(0.05555555555555555,0,0,0.05555555555555555,94.22222222222223,0)" xlink:href="#aT"/><use transform="matrix(0.05555555555555555,0,0,0.05555555555555555,105.33333333333334,0)" xlink:href="#aW"/><use transform="matrix(0.05555555555555555,0,0,0.05555555555555555,117.50000000000001,0)" xlink:href="#aW"/><use transform="matrix(0.05555555555555555,0,0,0.05555555555555555,129.66666666666669,0)" xlink:href="#aZ"/><use transform="matrix(0.05555555555555555,0,0,0.05555555555555555,140.7777777777778,0)" xlink:href="#aY"/><path fill="#999" d="M-1 1.07h148.33v2.1H-1z"/></g><path fill="#999" d="M27 0v-27h64v-190l-56 39v-29l58-41h29v221h61V0H27" id="bi"/><path fill="#999" d="M33 0v-38h34V0H33" id="bj"/><path fill="#999" d="M80-196l47-18 7 23-49 13 32 44-20 13-27-46-27 45-21-12 33-44-49-13 8-23 47 19-2-53h23" id="bk"/><g id="B"><use transform="matrix(0.05555555555555555,0,0,0.05555555555555555,0,0)" xlink:href="#bi"/><use transform="matrix(0.05555555555555555,0,0,0.05555555555555555,11.11111111111111,0)" xlink:href="#bj"/><use transform="matrix(0.05555555555555555,0,0,0.05555555555555555,16.666666666666664,0)" xlink:href="#bj"/><use transform="matrix(0.05555555555555555,0,0,0.05555555555555555,22.22222222222222,0)" xlink:href="#bk"/></g><path d="M117-194c89-4 53 116 60 194h-32v-121c0-31-8-49-39-48C34-167 62-67 57 0H25l-1-190h30c1 10-1 24 2 32 11-22 29-35 61-36" id="bl"/><path d="M141-36C126-15 110 5 73 4 37 3 15-17 15-53c-1-64 63-63 125-63 3-35-9-54-41-54-24 1-41 7-42 31l-33-3c5-37 33-52 76-52 45 0 72 20 72 64v82c-1 20 7 32 28 27v20c-31 9-61-2-59-35zM48-53c0 20 12 33 32 33 41-3 63-29 60-74-43 2-92-5-92 41" id="bm"/><path d="M210-169c-67 3-38 105-44 169h-31v-121c0-29-5-50-35-48C34-165 62-65 56 0H25l-1-190h30c1 10-1 24 2 32 10-44 99-50 107 0 11-21 27-35 58-36 85-2 47 119 55 194h-31v-121c0-29-5-49-35-48" id="bn"/><path d="M100-194c63 0 86 42 84 106H49c0 40 14 67 53 68 26 1 43-12 49-29l28 8c-11 28-37 45-77 45C44 4 14-33 15-96c1-61 26-98 85-98zm52 81c6-60-76-77-97-28-3 7-6 17-6 28h103" id="bo"/><g id="D"><use transform="matrix(0.05555555555555555,0,0,0.05555555555555555,0,0)" xlink:href="#bl"/><use transform="matrix(0.05555555555555555,0,0,0.05555555555555555,11.11111111111111,0)" xlink:href="#bm"/><use transform="matrix(0.05555555555555555,0,0,0.05555555555555555,22.22222222222222,0)" xlink:href="#bn"/><use transform="matrix(0.05555555555555555,0,0,0.05555555555555555,38.83333333333333,0)" xlink:href="#bo"/></g><path d="M87 75C49 33 22-17 22-94c0-76 28-126 65-167h31c-38 41-64 92-64 168S80 34 118 75H87" id="bp"/><path d="M59-47c-2 24 18 29 38 22v24C64 9 27 4 27-40v-127H5v-23h24l9-43h21v43h35v23H59v120" id="bq"/><path d="M141 0L90-78 38 0H4l68-98-65-92h35l48 74 47-74h35l-64 92 68 98h-35" id="br"/><path d="M33-261c38 41 65 92 65 168S71 34 33 75H2C39 34 66-17 66-93S39-220 2-261h31" id="bs"/><g id="E"><use transform="matrix(0.05555555555555555,0,0,0.05555555555555555,0,0)" xlink:href="#bp"/><use transform="matrix(0.05555555555555555,0,0,0.05555555555555555,6.611111111111111,0)" xlink:href="#bq"/><use transform="matrix(0.05555555555555555,0,0,0.05555555555555555,12.166666666666666,0)" xlink:href="#bo"/><use transform="matrix(0.05555555555555555,0,0,0.05555555555555555,23.27777777777778,0)" xlink:href="#br"/><use transform="matrix(0.05555555555555555,0,0,0.05555555555555555,33.27777777777778,0)" xlink:href="#bq"/><use transform="matrix(0.05555555555555555,0,0,0.05555555555555555,38.833333333333336,0)" xlink:href="#bs"/></g><path d="M85-194c31 0 48 13 60 33l-1-100h32l1 261h-30c-2-10 0-23-3-31C134-8 116 4 85 4 32 4 16-35 15-94c0-66 23-100 70-100zm9 24c-40 0-46 34-46 75 0 40 6 74 45 74 42 0 51-32 51-76 0-42-9-74-50-73" id="bt"/><path d="M135-143c-3-34-86-38-87 0 15 53 115 12 119 90S17 21 10-45l28-5c4 36 97 45 98 0-10-56-113-15-118-90-4-57 82-63 122-42 12 7 21 19 24 35" id="bu"/><path d="M96-169c-40 0-48 33-48 73s9 75 48 75c24 0 41-14 43-38l32 2c-6 37-31 61-74 61-59 0-76-41-82-99-10-93 101-131 147-64 4 7 5 14 7 22l-32 3c-4-21-16-35-41-35" id="bv"/><path d="M114-163C36-179 61-72 57 0H25l-1-190h30c1 12-1 29 2 39 6-27 23-49 58-41v29" id="bw"/><path d="M24-231v-30h32v30H24zM24 0v-190h32V0H24" id="bx"/><path d="M115-194c55 1 70 41 70 98S169 2 115 4C84 4 66-9 55-30l1 105H24l-1-265h31l2 30c10-21 28-34 59-34zm-8 174c40 0 45-34 45-75s-6-73-45-74c-42 0-51 32-51 76 0 43 10 73 51 73" id="by"/><path d="M100-194c62-1 85 37 85 99 1 63-27 99-86 99S16-35 15-95c0-66 28-99 85-99zM99-20c44 1 53-31 53-75 0-43-8-75-51-75s-53 32-53 75 10 74 51 75" id="bz"/><g id="F"><use transform="matrix(0.05555555555555555,0,0,0.05555555555555555,0,0)" xlink:href="#bt"/><use transform="matrix(0.05555555555555555,0,0,0.05555555555555555,11.11111111111111,0)" xlink:href="#bo"/><use transform="matrix(0.05555555555555555,0,0,0.05555555555555555,22.22222222222222,0)" xlink:href="#bu"/><use transform="matrix(0.05555555555555555,0,0,0.05555555555555555,32.22222222222222,0)" xlink:href="#bv"/><use transform="matrix(0.05555555555555555,0,0,0.05555555555555555,42.22222222222222,0)" xlink:href="#bw"/><use transform="matrix(0.05555555555555555,0,0,0.05555555555555555,48.83333333333333,0)" xlink:href="#bx"/><use transform="matrix(0.05555555555555555,0,0,0.05555555555555555,53.222222222222214,0)" xlink:href="#by"/><use transform="matrix(0.05555555555555555,0,0,0.05555555555555555,64.33333333333333,0)" xlink:href="#bq"/><use transform="matrix(0.05555555555555555,0,0,0.05555555555555555,69.88888888888889,0)" xlink:href="#bx"/><use transform="matrix(0.05555555555555555,0,0,0.05555555555555555,74.27777777777777,0)" xlink:href="#bz"/><use transform="matrix(0.05555555555555555,0,0,0.05555555555555555,85.38888888888889,0)" xlink:href="#bl"/></g><g id="G"><use transform="matrix(0.05555555555555555,0,0,0.05555555555555555,0,0)" xlink:href="#bt"/><use transform="matrix(0.05555555555555555,0,0,0.05555555555555555,11.11111111111111,0)" xlink:href="#bm"/><use transform="matrix(0.05555555555555555,0,0,0.05555555555555555,22.22222222222222,0)" xlink:href="#bq"/><use transform="matrix(0.05555555555555555,0,0,0.05555555555555555,27.77777777777778,0)" xlink:href="#bm"/></g><path d="M16-82v-28h88v28H16" id="bA"/><use transform="matrix(0.05555555555555555,0,0,0.05555555555555555,0,0)" xlink:href="#bA" id="H"/><path d="M84 4C-5 8 30-112 23-190h32v120c0 31 7 50 39 49 72-2 45-101 50-169h31l1 190h-30c-1-10 1-25-2-33-11 22-28 36-60 37" id="bB"/><g id="I"><use transform="matrix(0.05555555555555555,0,0,0.05555555555555555,0,0)" xlink:href="#bB"/><use transform="matrix(0.05555555555555555,0,0,0.05555555555555555,11.11111111111111,0)" xlink:href="#bl"/><use transform="matrix(0.05555555555555555,0,0,0.05555555555555555,22.22222222222222,0)" xlink:href="#bx"/><use transform="matrix(0.05555555555555555,0,0,0.05555555555555555,26.61111111111111,0)" xlink:href="#bq"/></g><g id="J"><use transform="matrix(0.05555555555555555,0,0,0.05555555555555555,0,0)" xlink:href="#bw"/><use transform="matrix(0.05555555555555555,0,0,0.05555555555555555,6.611111111111111,0)" xlink:href="#bm"/><use transform="matrix(0.05555555555555555,0,0,0.05555555555555555,17.72222222222222,0)" xlink:href="#bq"/><use transform="matrix(0.05555555555555555,0,0,0.05555555555555555,23.27777777777778,0)" xlink:href="#bo"/></g><g id="K"><use transform="matrix(0.05555555555555555,0,0,0.05555555555555555,0,0)" xlink:href="#bm"/><use transform="matrix(0.05555555555555555,0,0,0.05555555555555555,11.11111111111111,0)" xlink:href="#bl"/><use transform="matrix(0.05555555555555555,0,0,0.05555555555555555,22.22222222222222,0)" xlink:href="#bt"/></g><path d="M177-190C167-65 218 103 67 71c-23-6-38-20-44-43l32-5c15 47 100 32 89-28v-30C133-14 115 1 83 1 29 1 15-40 15-95c0-56 16-97 71-98 29-1 48 16 59 35 1-10 0-23 2-32h30zM94-22c36 0 50-32 50-73 0-42-14-75-50-75-39 0-46 34-46 75s6 73 46 73" id="bC"/><path d="M-5 72V49h209v23H-5" id="bD"/><g id="L"><use transform="matrix(0.05555555555555555,0,0,0.05555555555555555,0,0)" xlink:href="#bu"/><use transform="matrix(0.05555555555555555,0,0,0.05555555555555555,10,0)" xlink:href="#bq"/><use transform="matrix(0.05555555555555555,0,0,0.05555555555555555,15.555555555555555,0)" xlink:href="#bm"/><use transform="matrix(0.05555555555555555,0,0,0.05555555555555555,26.666666666666664,0)" xlink:href="#bw"/><use transform="matrix(0.05555555555555555,0,0,0.05555555555555555,33.27777777777777,0)" xlink:href="#bq"/><use transform="matrix(0.05555555555555555,0,0,0.05555555555555555,38.83333333333333,0)" xlink:href="#bx"/><use transform="matrix(0.05555555555555555,0,0,0.05555555555555555,43.222222222222214,0)" xlink:href="#bl"/><use transform="matrix(0.05555555555555555,0,0,0.05555555555555555,54.33333333333333,0)" xlink:href="#bC"/><use transform="matrix(0.05555555555555555,0,0,0.05555555555555555,65.44444444444444,0)" xlink:href="#bD"/><use transform="matrix(0.05555555555555555,0,0,0.05555555555555555,76.55555555555556,0)" xlink:href="#bq"/><use transform="matrix(0.05555555555555555,0,0,0.05555555555555555,82.11111111111111,0)" xlink:href="#bx"/><use transform="matrix(0.05555555555555555,0,0,0.05555555555555555,86.5,0)" xlink:href="#bn"/><use transform="matrix(0.05555555555555555,0,0,0.05555555555555555,103.11111111111111,0)" xlink:href="#bo"/></g><path d="M101-234c-31-9-42 10-38 44h38v23H63V0H32v-167H5v-23h27c-7-52 17-82 69-68v24" id="bE"/><path d="M24 0v-261h32V0H24" id="bF"/><g id="M"><use transform="matrix(0.05555555555555555,0,0,0.05555555555555555,0,0)" xlink:href="#bp"/><use transform="matrix(0.05555555555555555,0,0,0.05555555555555555,6.611111111111111,0)" xlink:href="#bE"/><use transform="matrix(0.05555555555555555,0,0,0.05555555555555555,12.166666666666666,0)" xlink:href="#bF"/><use transform="matrix(0.05555555555555555,0,0,0.05555555555555555,16.555555555555554,0)" xlink:href="#bz"/><use transform="matrix(0.05555555555555555,0,0,0.05555555555555555,27.666666666666664,0)" xlink:href="#bm"/><use transform="matrix(0.05555555555555555,0,0,0.05555555555555555,38.77777777777777,0)" xlink:href="#bq"/><use transform="matrix(0.05555555555555555,0,0,0.05555555555555555,44.33333333333333,0)" xlink:href="#bu"/><use transform="matrix(0.05555555555555555,0,0,0.05555555555555555,54.33333333333333,0)" xlink:href="#bs"/></g><g id="O"><use transform="matrix(0.05555555555555555,0,0,0.05555555555555555,0,0)" xlink:href="#bz"/><use transform="matrix(0.05555555555555555,0,0,0.05555555555555555,11.11111111111111,0)" xlink:href="#bw"/></g><g id="P"><use transform="matrix(0.05555555555555555,0,0,0.05555555555555555,0,0)" xlink:href="#bq"/><use transform="matrix(0.05555555555555555,0,0,0.05555555555555555,5.555555555555555,0)" xlink:href="#bx"/><use transform="matrix(0.05555555555555555,0,0,0.05555555555555555,9.944444444444443,0)" xlink:href="#bn"/><use transform="matrix(0.05555555555555555,0,0,0.05555555555555555,26.555555555555554,0)" xlink:href="#bo"/><use transform="matrix(0.05555555555555555,0,0,0.05555555555555555,37.666666666666664,0)" xlink:href="#bu"/><use transform="matrix(0.05555555555555555,0,0,0.05555555555555555,47.666666666666664,0)" xlink:href="#bq"/><use transform="matrix(0.05555555555555555,0,0,0.05555555555555555,53.22222222222222,0)" xlink:href="#bm"/><use transform="matrix(0.05555555555555555,0,0,0.05555555555555555,64.33333333333333,0)" xlink:href="#bn"/><use transform="matrix(0.05555555555555555,0,0,0.05555555555555555,80.94444444444444,0)" xlink:href="#by"/><use transform="matrix(0.05555555555555555,0,0,0.05555555555555555,92.05555555555556,0)" xlink:href="#bu"/></g><path d="M26 75v-336h71v23H56V52h41v23H26" id="bG"/><path d="M3 75V52h41v-290H3v-23h71V75H3" id="bH"/><g id="Q"><use transform="matrix(0.05555555555555555,0,0,0.05555555555555555,0,0)" xlink:href="#bG"/><use transform="matrix(0.05555555555555555,0,0,0.05555555555555555,5.555555555555555,0)" xlink:href="#bl"/><use transform="matrix(0.05555555555555555,0,0,0.05555555555555555,16.666666666666664,0)" xlink:href="#bq"/><use transform="matrix(0.05555555555555555,0,0,0.05555555555555555,22.22222222222222,0)" xlink:href="#bx"/><use transform="matrix(0.05555555555555555,0,0,0.05555555555555555,26.61111111111111,0)" xlink:href="#bn"/><use transform="matrix(0.05555555555555555,0,0,0.05555555555555555,43.22222222222222,0)" xlink:href="#bo"/><use transform="matrix(0.05555555555555555,0,0,0.05555555555555555,54.33333333333333,0)" xlink:href="#bH"/></g><g id="R"><use transform="matrix(0.05555555555555555,0,0,0.05555555555555555,0,0)" xlink:href="#bp"/><use transform="matrix(0.05555555555555555,0,0,0.05555555555555555,6.611111111111111,0)" xlink:href="#bE"/><use transform="matrix(0.05555555555555555,0,0,0.05555555555555555,12.166666666666666,0)" xlink:href="#bF"/><use transform="matrix(0.05555555555555555,0,0,0.05555555555555555,16.555555555555554,0)" xlink:href="#bz"/><use transform="matrix(0.05555555555555555,0,0,0.05555555555555555,27.666666666666664,0)" xlink:href="#bm"/><use transform="matrix(0.05555555555555555,0,0,0.05555555555555555,38.77777777777777,0)" xlink:href="#bq"/><use transform="matrix(0.05555555555555555,0,0,0.05555555555555555,44.33333333333333,0)" xlink:href="#bs"/></g><filter id="C" filterUnits="objectBoundingBox" x="-.01" y="-.01" width="1.03" height="1.04"><feOffset result="offOut" in="SourceAlpha" dx="2.12" dy="2.12"/><feGaussianBlur result="blurOut" in="offOut" stdDeviation="2.5"/><feColorMatrix result="colorOut" in="blurOut" values="0 0 0 0 0 0 0 0 0 0 0 0 0 0 0 0 0 0 0.5019607843137255 0"/><feBlend in="SourceGraphic" in2="colorOut"/></filter><path fill="#fff" d="M136-208V0H84v-208H4v-40h212v40h-80" id="bI"/><path fill="#fff" d="M25-224v-37h50v37H25zM25 0v-190h50V0H25" id="bJ"/><path fill="#fff" d="M220-157c-53 9-28 100-34 157h-49v-107c1-27-5-49-29-50C55-147 81-57 75 0H25l-1-190h47c2 12-1 28 3 38 10-53 101-56 108 0 13-22 24-43 59-42 82 1 51 116 57 194h-49v-107c-1-25-5-48-29-50" id="bK"/><path fill="#fff" d="M185-48c-13 30-37 53-82 52C43 2 14-33 14-96s30-98 90-98c62 0 83 45 84 108H66c0 31 8 55 39 56 18 0 30-7 34-22zm-45-69c5-46-57-63-70-21-2 6-4 13-4 21h74" id="bL"/><path fill="#fff" d="M169-182c-1-43-94-46-97-3 18 66 151 10 154 114 3 95-165 93-204 36-6-8-10-19-12-30l50-8c3 46 112 56 116 5-17-69-150-10-154-114-4-87 153-88 188-35 5 8 8 18 10 28" id="bM"/><path fill="#fff" d="M135-150c-39-12-60 13-60 57V0H25l-1-190h47c2 13-1 29 3 40 6-28 27-53 61-41v41" id="bN"/><path fill="#fff" d="M137-138c1-29-70-34-71-4 15 46 118 7 119 86 1 83-164 76-172 9l43-7c4 19 20 25 44 25 33 8 57-30 24-41C81-84 22-81 20-136c-2-80 154-74 161-7" id="bO"/><g id="S"><use transform="matrix(0.05555555555555555,0,0,0.05555555555555555,0,0)" xlink:href="#bI"/><use transform="matrix(0.05555555555555555,0,0,0.05555555555555555,11.777777777777777,0)" xlink:href="#bJ"/><use transform="matrix(0.05555555555555555,0,0,0.05555555555555555,17.333333333333332,0)" xlink:href="#bK"/><use transform="matrix(0.05555555555555555,0,0,0.05555555555555555,35.111111111111114,0)" xlink:href="#bL"/><use transform="matrix(0.05555555555555555,0,0,0.05555555555555555,46.22222222222223,0)" xlink:href="#bM"/><use transform="matrix(0.05555555555555555,0,0,0.05555555555555555,59.55555555555555,0)" xlink:href="#bL"/><use transform="matrix(0.05555555555555555,0,0,0.05555555555555555,70.66666666666667,0)" xlink:href="#bN"/><use transform="matrix(0.05555555555555555,0,0,0.05555555555555555,78.44444444444444,0)" xlink:href="#bJ"/><use transform="matrix(0.05555555555555555,0,0,0.05555555555555555,84,0)" xlink:href="#bL"/><use transform="matrix(0.05555555555555555,0,0,0.05555555555555555,95.11111111111111,0)" xlink:href="#bO"/><path fill="#fff" d="M-1 1.07h108.22v2.1H-1z"/></g><g id="T"><use transform="matrix(0.05555555555555555,0,0,0.05555555555555555,0,0)" xlink:href="#bo"/><use transform="matrix(0.05555555555555555,0,0,0.05555555555555555,11.11111111111111,0)" xlink:href="#br"/><use transform="matrix(0.05555555555555555,0,0,0.05555555555555555,21.11111111111111,0)" xlink:href="#bq"/><use transform="matrix(0.05555555555555555,0,0,0.05555555555555555,26.666666666666664,0)" xlink:href="#bo"/><use transform="matrix(0.05555555555555555,0,0,0.05555555555555555,37.77777777777777,0)" xlink:href="#bl"/><use transform="matrix(0.05555555555555555,0,0,0.05555555555555555,48.888888888888886,0)" xlink:href="#bt"/><use transform="matrix(0.05555555555555555,0,0,0.05555555555555555,60,0)" xlink:href="#bu"/></g><g id="V"><use transform="matrix(0.05555555555555555,0,0,0.05555555555555555,0,0)" xlink:href="#bx"/><use transform="matrix(0.05555555555555555,0,0,0.05555555555555555,4.388888888888888,0)" xlink:href="#bn"/><use transform="matrix(0.05555555555555555,0,0,0.05555555555555555,21,0)" xlink:href="#bm"/><use transform="matrix(0.05555555555555555,0,0,0.05555555555555555,32.111111111111114,0)" xlink:href="#bC"/><use transform="matrix(0.05555555555555555,0,0,0.05555555555555555,43.22222222222223,0)" xlink:href="#bx"/><use transform="matrix(0.05555555555555555,0,0,0.05555555555555555,47.611111111111114,0)" xlink:href="#bl"/><use transform="matrix(0.05555555555555555,0,0,0.05555555555555555,58.72222222222223,0)" xlink:href="#bC"/><use transform="matrix(0.05555555555555555,0,0,0.05555555555555555,69.83333333333334,0)" xlink:href="#bD"/><use transform="matrix(0.05555555555555555,0,0,0.05555555555555555,80.94444444444446,0)" xlink:href="#by"/><use transform="matrix(0.05555555555555555,0,0,0.05555555555555555,92.05555555555557,0)" xlink:href="#bF"/><use transform="matrix(0.05555555555555555,0,0,0.05555555555555555,96.44444444444446,0)" xlink:href="#bm"/><use transform="matrix(0.05555555555555555,0,0,0.05555555555555555,107.55555555555557,0)" xlink:href="#bl"/><use transform="matrix(0.05555555555555555,0,0,0.05555555555555555,118.66666666666669,0)" xlink:href="#bo"/></g><path d="M33 0v-248h34V0H33" id="bP"/><path d="M30-248c87 1 191-15 191 75 0 78-77 80-158 76V0H30v-248zm33 125c57 0 124 11 124-50 0-59-68-47-124-48v98" id="bQ"/><g id="W"><use transform="matrix(0.05555555555555555,0,0,0.05555555555555555,0,0)" xlink:href="#bp"/><use transform="matrix(0.05555555555555555,0,0,0.05555555555555555,6.611111111111111,0)" xlink:href="#bP"/><use transform="matrix(0.05555555555555555,0,0,0.05555555555555555,12.166666666666666,0)" xlink:href="#bn"/><use transform="matrix(0.05555555555555555,0,0,0.05555555555555555,28.777777777777775,0)" xlink:href="#bm"/><use transform="matrix(0.05555555555555555,0,0,0.05555555555555555,39.888888888888886,0)" xlink:href="#bC"/><use transform="matrix(0.05555555555555555,0,0,0.05555555555555555,51,0)" xlink:href="#bx"/><use transform="matrix(0.05555555555555555,0,0,0.05555555555555555,55.388888888888886,0)" xlink:href="#bl"/><use transform="matrix(0.05555555555555555,0,0,0.05555555555555555,66.5,0)" xlink:href="#bC"/><use transform="matrix(0.05555555555555555,0,0,0.05555555555555555,77.61111111111111,0)" xlink:href="#bQ"/><use transform="matrix(0.05555555555555555,0,0,0.05555555555555555,90.94444444444444,0)" xlink:href="#bF"/><use transform="matrix(0.05555555555555555,0,0,0.05555555555555555,95.33333333333333,0)" xlink:href="#bm"/><use transform="matrix(0.05555555555555555,0,0,0.05555555555555555,106.44444444444444,0)" xlink:href="#bl"/><use transform="matrix(0.05555555555555555,0,0,0.05555555555555555,117.55555555555554,0)" xlink:href="#bo"/><use transform="matrix(0.05555555555555555,0,0,0.05555555555555555,128.66666666666666,0)" xlink:href="#bs"/></g><g id="X"><use transform="matrix(0.05555555555555555,0,0,0.05555555555555555,0,0)" xlink:href="#at"/><use transform="matrix(0.05555555555555555,0,0,0.05555555555555555,11.11111111111111,0)" xlink:href="#am"/><use transform="matrix(0.05555555555555555,0,0,0.05555555555555555,22.22222222222222,0)" xlink:href="#aq"/><use transform="matrix(0.05555555555555555,0,0,0.05555555555555555,27.77777777777778,0)" xlink:href="#am"/></g><g id="Y"><use transform="matrix(0.05555555555555555,0,0,0.05555555555555555,0,0)" xlink:href="#aK"/><use transform="matrix(0.05555555555555555,0,0,0.05555555555555555,5.555555555555555,0)" xlink:href="#al"/><use transform="matrix(0.05555555555555555,0,0,0.05555555555555555,16.666666666666664,0)" xlink:href="#aD"/><use transform="matrix(0.05555555555555555,0,0,0.05555555555555555,22.22222222222222,0)" xlink:href="#aw"/><use transform="matrix(0.05555555555555555,0,0,0.05555555555555555,28.833333333333332,0)" xlink:href="#am"/><use transform="matrix(0.05555555555555555,0,0,0.05555555555555555,39.94444444444444,0)" xlink:href="#an"/><use transform="matrix(0.05555555555555555,0,0,0.05555555555555555,56.55555555555556,0)" xlink:href="#ao"/><use transform="matrix(0.05555555555555555,0,0,0.05555555555555555,67.66666666666667,0)" xlink:href="#au"/></g><use transform="matrix(0.05555555555555555,0,0,0.05555555555555555,0,0)" xlink:href="#ar" id="Z"/><path fill="#999" d="M206 0h-36l-40-164L89 0H53L-1-190h32L70-26l43-164h34l41 164 42-164h31" id="bR"/><g id="aa"><use transform="matrix(0.05555555555555555,0,0,0.05555555555555555,0,0)" xlink:href="#bR"/><use transform="matrix(0.05555555555555555,0,0,0.05555555555555555,14.388888888888888,0)" xlink:href="#ax"/><use transform="matrix(0.05555555555555555,0,0,0.05555555555555555,18.777777777777775,0)" xlink:href="#at"/><use transform="matrix(0.05555555555555555,0,0,0.05555555555555555,29.888888888888886,0)" xlink:href="#aq"/><use transform="matrix(0.05555555555555555,0,0,0.05555555555555555,35.44444444444444,0)" xlink:href="#aE"/></g><g id="ab"><use transform="matrix(0.05555555555555555,0,0,0.05555555555555555,0,0)" xlink:href="#aE"/><use transform="matrix(0.05555555555555555,0,0,0.05555555555555555,11.11111111111111,0)" xlink:href="#ao"/><use transform="matrix(0.05555555555555555,0,0,0.05555555555555555,22.22222222222222,0)" xlink:href="#ax"/><use transform="matrix(0.05555555555555555,0,0,0.05555555555555555,26.61111111111111,0)" xlink:href="#aJ"/><use transform="matrix(0.05555555555555555,0,0,0.05555555555555555,37.72222222222222,0)" xlink:href="#aE"/><use transform="matrix(0.05555555555555555,0,0,0.05555555555555555,48.83333333333333,0)" xlink:href="#aq"/><use transform="matrix(0.05555555555555555,0,0,0.05555555555555555,54.388888888888886,0)" xlink:href="#aM"/></g><g id="ac"><use transform="matrix(0.05555555555555555,0,0,0.05555555555555555,0,0)" xlink:href="#ao"/><use transform="matrix(0.05555555555555555,0,0,0.05555555555555555,11.11111111111111,0)" xlink:href="#ar"/><use transform="matrix(0.05555555555555555,0,0,0.05555555555555555,21.11111111111111,0)" xlink:href="#aq"/><use transform="matrix(0.05555555555555555,0,0,0.05555555555555555,26.666666666666664,0)" xlink:href="#ao"/><use transform="matrix(0.05555555555555555,0,0,0.05555555555555555,37.77777777777777,0)" xlink:href="#aw"/><use transform="matrix(0.05555555555555555,0,0,0.05555555555555555,44.388888888888886,0)" xlink:href="#al"/><use transform="matrix(0.05555555555555555,0,0,0.05555555555555555,55.5,0)" xlink:href="#am"/><use transform="matrix(0.05555555555555555,0,0,0.05555555555555555,66.61111111111111,0)" xlink:href="#aB"/><use transform="matrix(0.05555555555555555,0,0,0.05555555555555555,71,0)" xlink:href="#aA"/><use transform="matrix(0.05555555555555555,0,0,0.05555555555555555,82.11111111111111,0)" xlink:href="#aD"/><use transform="matrix(0.05555555555555555,0,0,0.05555555555555555,87.66666666666667,0)" xlink:href="#ax"/><use transform="matrix(0.05555555555555555,0,0,0.05555555555555555,92.05555555555556,0)" xlink:href="#aB"/><use transform="matrix(0.05555555555555555,0,0,0.05555555555555555,96.44444444444444,0)" xlink:href="#ao"/></g><g id="ad"><use transform="matrix(0.05555555555555555,0,0,0.05555555555555555,0,0)" xlink:href="#aK"/><use transform="matrix(0.05555555555555555,0,0,0.05555555555555555,5.555555555555555,0)" xlink:href="#al"/><use transform="matrix(0.05555555555555555,0,0,0.05555555555555555,16.666666666666664,0)" xlink:href="#aD"/><use transform="matrix(0.05555555555555555,0,0,0.05555555555555555,22.22222222222222,0)" xlink:href="#ax"/><use transform="matrix(0.05555555555555555,0,0,0.05555555555555555,26.61111111111111,0)" xlink:href="#aB"/><use transform="matrix(0.05555555555555555,0,0,0.05555555555555555,31,0)" xlink:href="#ao"/><use transform="matrix(0.05555555555555555,0,0,0.05555555555555555,42.111111111111114,0)" xlink:href="#aM"/></g><g id="ae"><use transform="matrix(0.05555555555555555,0,0,0.05555555555555555,0,0)" xlink:href="#ap"/><use transform="matrix(0.05555555555555555,0,0,0.05555555555555555,6.611111111111111,0)" xlink:href="#aq"/><use transform="matrix(0.05555555555555555,0,0,0.05555555555555555,12.166666666666666,0)" xlink:href="#ao"/><use transform="matrix(0.05555555555555555,0,0,0.05555555555555555,23.27777777777778,0)" xlink:href="#ar"/><use transform="matrix(0.05555555555555555,0,0,0.05555555555555555,33.27777777777778,0)" xlink:href="#aq"/><use transform="matrix(0.05555555555555555,0,0,0.05555555555555555,38.833333333333336,0)" xlink:href="#as"/></g><g id="af"><use transform="matrix(0.05555555555555555,0,0,0.05555555555555555,0,0)" xlink:href="#au"/><use transform="matrix(0.05555555555555555,0,0,0.05555555555555555,10,0)" xlink:href="#aq"/><use transform="matrix(0.05555555555555555,0,0,0.05555555555555555,15.555555555555555,0)" xlink:href="#am"/><use transform="matrix(0.05555555555555555,0,0,0.05555555555555555,26.666666666666664,0)" xlink:href="#aw"/><use transform="matrix(0.05555555555555555,0,0,0.05555555555555555,33.27777777777777,0)" xlink:href="#aq"/><use transform="matrix(0.05555555555555555,0,0,0.05555555555555555,38.83333333333333,0)" xlink:href="#ax"/><use transform="matrix(0.05555555555555555,0,0,0.05555555555555555,43.222222222222214,0)" xlink:href="#al"/><use transform="matrix(0.05555555555555555,0,0,0.05555555555555555,54.33333333333333,0)" xlink:href="#aJ"/><use transform="matrix(0.05555555555555555,0,0,0.05555555555555555,65.44444444444444,0)" xlink:href="#aA"/><use transform="matrix(0.05555555555555555,0,0,0.05555555555555555,76.55555555555556,0)" xlink:href="#aD"/><use transform="matrix(0.05555555555555555,0,0,0.05555555555555555,82.11111111111111,0)" xlink:href="#aw"/><use transform="matrix(0.05555555555555555,0,0,0.05555555555555555,88.72222222222223,0)" xlink:href="#am"/><use transform="matrix(0.05555555555555555,0,0,0.05555555555555555,99.83333333333334,0)" xlink:href="#an"/><use transform="matrix(0.05555555555555555,0,0,0.05555555555555555,116.44444444444446,0)" xlink:href="#ao"/></g><g id="ag"><use transform="matrix(0.05555555555555555,0,0,0.05555555555555555,0,0)" xlink:href="#ap"/><use transform="matrix(0.05555555555555555,0,0,0.05555555555555555,6.611111111111111,0)" xlink:href="#ax"/><use transform="matrix(0.05555555555555555,0,0,0.05555555555555555,11,0)" xlink:href="#al"/><use transform="matrix(0.05555555555555555,0,0,0.05555555555555555,22.11111111111111,0)" xlink:href="#aq"/><use transform="matrix(0.05555555555555555,0,0,0.05555555555555555,27.666666666666664,0)" xlink:href="#as"/></g><g id="ah"><use transform="matrix(0.05555555555555555,0,0,0.05555555555555555,0,0)" xlink:href="#aD"/><use transform="matrix(0.05555555555555555,0,0,0.05555555555555555,5.555555555555555,0)" xlink:href="#az"/><use transform="matrix(0.05555555555555555,0,0,0.05555555555555555,16.666666666666664,0)" xlink:href="#aw"/><use transform="matrix(0.05555555555555555,0,0,0.05555555555555555,23.277777777777775,0)" xlink:href="#an"/><use transform="matrix(0.05555555555555555,0,0,0.05555555555555555,39.888888888888886,0)" xlink:href="#am"/><use transform="matrix(0.05555555555555555,0,0,0.05555555555555555,51,0)" xlink:href="#aq"/></g><g id="ai"><use transform="matrix(0.05555555555555555,0,0,0.05555555555555555,0,0)" xlink:href="#at"/><use transform="matrix(0.05555555555555555,0,0,0.05555555555555555,11.11111111111111,0)" xlink:href="#ax"/><use transform="matrix(0.05555555555555555,0,0,0.05555555555555555,15.5,0)" xlink:href="#an"/><use transform="matrix(0.05555555555555555,0,0,0.05555555555555555,32.111111111111114,0)" xlink:href="#ao"/><use transform="matrix(0.05555555555555555,0,0,0.05555555555555555,43.22222222222223,0)" xlink:href="#al"/><use transform="matrix(0.05555555555555555,0,0,0.05555555555555555,54.33333333333334,0)" xlink:href="#au"/><use transform="matrix(0.05555555555555555,0,0,0.05555555555555555,64.33333333333334,0)" xlink:href="#ax"/><use transform="matrix(0.05555555555555555,0,0,0.05555555555555555,68.72222222222223,0)" xlink:href="#az"/><use transform="matrix(0.05555555555555555,0,0,0.05555555555555555,79.83333333333334,0)" xlink:href="#al"/></g><filter id="U" filterUnits="objectBoundingBox" x="-.01" y="-.01" width="1.03" height="1.04"><feOffset result="offOut" in="SourceAlpha" dx="2.12" dy="2.12"/><feGaussianBlur result="blurOut" in="offOut" stdDeviation="2.5"/><feColorMatrix result="colorOut" in="blurOut" values="0 0 0 0 0 0 0 0 0 0 0 0 0 0 0 0 0 0 0.5019607843137255 0"/><feBlend in="SourceGraphic" in2="colorOut"/></filter><path fill="#fff" d="M231 0h-52l-39-155L100 0H48L-1-190h46L77-45c9-52 24-97 36-145h53l37 145 32-145h46" id="bS"/><path fill="#fff" d="M110-194c64 0 96 36 96 99 0 64-35 99-97 99-61 0-95-36-95-99 0-62 34-99 96-99zm-1 164c35 0 45-28 45-65 0-40-10-65-43-65-34 0-45 26-45 65 0 36 10 65 43 65" id="bT"/><path fill="#fff" d="M24-248c93 1 206-16 204 79-1 75-69 88-152 82V0H24v-248zm52 121c47 0 100 7 100-41 0-47-54-39-100-39v80" id="bU"/><path fill="#fff" d="M114-157C55-157 80-60 75 0H25v-261h50l-1 109c12-26 28-41 61-42 86-1 58 113 63 194h-50c-7-57 23-157-34-157" id="bV"/><path fill="#fff" d="M115-3C79 11 28 4 28-45v-112H4v-33h27l15-45h31v45h36v33H77v99c-1 23 16 31 38 25v30" id="bW"/><path fill="#fff" d="M135-194c87-1 58 113 63 194h-50c-7-57 23-157-34-157-59 0-34 97-39 157H25l-1-190h47c2 12-1 28 3 38 12-26 28-41 61-42" id="bX"/><g id="aj"><use transform="matrix(0.05555555555555555,0,0,0.05555555555555555,0,0)" xlink:href="#bI"/><use transform="matrix(0.05555555555555555,0,0,0.05555555555555555,10.666666666666666,0)" xlink:href="#bS"/><use transform="matrix(0.05555555555555555,0,0,0.05555555555555555,26.22222222222222,0)" xlink:href="#bT"/><use transform="matrix(0.05555555555555555,0,0,0.05555555555555555,38.388888888888886,0)" xlink:href="#bU"/><use transform="matrix(0.05555555555555555,0,0,0.05555555555555555,51.722222222222214,0)" xlink:href="#bV"/><use transform="matrix(0.05555555555555555,0,0,0.05555555555555555,63.88888888888887,0)" xlink:href="#bT"/><use transform="matrix(0.05555555555555555,0,0,0.05555555555555555,76.05555555555554,0)" xlink:href="#bW"/><use transform="matrix(0.05555555555555555,0,0,0.05555555555555555,82.66666666666666,0)" xlink:href="#bT"/><use transform="matrix(0.05555555555555555,0,0,0.05555555555555555,94.83333333333333,0)" xlink:href="#bX"/><use transform="matrix(0.05555555555555555,0,0,0.05555555555555555,107,0)" xlink:href="#bM"/><use transform="matrix(0.05555555555555555,0,0,0.05555555555555555,120.33333333333333,0)" xlink:href="#bL"/><use transform="matrix(0.05555555555555555,0,0,0.05555555555555555,131.44444444444443,0)" xlink:href="#bN"/><use transform="matrix(0.05555555555555555,0,0,0.05555555555555555,139.2222222222222,0)" xlink:href="#bJ"/><use transform="matrix(0.05555555555555555,0,0,0.05555555555555555,144.77777777777774,0)" xlink:href="#bL"/><use transform="matrix(0.05555555555555555,0,0,0.05555555555555555,155.88888888888886,0)" xlink:href="#bO"/><path fill="#fff" d="M-1 1.07h169v2.1H-1z"/></g><g id="ak"><use transform="matrix(0.05555555555555555,0,0,0.05555555555555555,0,0)" xlink:href="#bw"/><use transform="matrix(0.05555555555555555,0,0,0.05555555555555555,6.611111111111111,0)" xlink:href="#bo"/><use transform="matrix(0.05555555555555555,0,0,0.05555555555555555,17.72222222222222,0)" xlink:href="#bE"/><use transform="matrix(0.05555555555555555,0,0,0.05555555555555555,23.27777777777778,0)" xlink:href="#bo"/><use transform="matrix(0.05555555555555555,0,0,0.05555555555555555,34.388888888888886,0)" xlink:href="#bw"/><use transform="matrix(0.05555555555555555,0,0,0.05555555555555555,41,0)" xlink:href="#bo"/><use transform="matrix(0.05555555555555555,0,0,0.05555555555555555,52.111111111111114,0)" xlink:href="#bl"/><use transform="matrix(0.05555555555555555,0,0,0.05555555555555555,63.22222222222223,0)" xlink:href="#bv"/><use transform="matrix(0.05555555555555555,0,0,0.05555555555555555,73.22222222222223,0)" xlink:href="#bo"/><use transform="matrix(0.05555555555555555,0,0,0.05555555555555555,84.33333333333334,0)" xlink:href="#bu"/></g></defs></g></svg>